<svg width="86" height="34" viewBox="0 0 86 34" fill="none" xmlns="http://www.w3.org/2000/svg">
<path d="M53.829 25.4148C53.8904 25.4178 53.9518 25.4079 54.0093 25.3857C54.0667 25.3636 54.1188 25.3296 54.1623 25.2861C54.2058 25.2426 54.2398 25.1905 54.2619 25.133C54.2841 25.0756 54.294 25.0142 54.291 24.9528V11.4314H58.8812C58.9426 11.4344 59.0039 11.4245 59.0612 11.4024C59.1185 11.3803 59.1705 11.3464 59.214 11.303C59.2574 11.2596 59.2912 11.2075 59.3134 11.1502C59.3355 11.0929 59.3453 11.0316 59.3423 10.9702V9.10475C59.3455 9.04333 59.3357 8.98193 59.3136 8.92452C59.2916 8.86711 59.2577 8.81496 59.2143 8.77143C59.1708 8.7279 59.1188 8.69396 59.0614 8.67179C59.004 8.64963 58.9426 8.63974 58.8812 8.64275H46.6583C46.597 8.63986 46.5357 8.64985 46.4784 8.67207C46.4212 8.69429 46.3692 8.72825 46.3258 8.77176C46.2825 8.81528 46.2487 8.86739 46.2267 8.92474C46.2047 8.98209 46.195 9.0434 46.1981 9.10475V10.9702C46.1981 11.2424 46.3862 11.4314 46.6583 11.4314H51.2495V24.9528C51.2495 25.2249 51.4393 25.4139 51.7106 25.4139L53.829 25.4148ZM74.7502 24.8276C75.0215 25.1208 74.8552 25.4139 74.5183 25.4139H71.8566C71.5005 25.4139 71.3106 25.3308 71.0805 25.0578L69.488 23.2972C68.4187 24.7235 66.9295 25.791 64.4567 25.791C61.3951 25.791 58.9845 23.9474 58.9845 20.7816C58.9845 18.3491 60.2847 17.0498 62.2543 15.9604C61.291 14.8482 60.85 13.6749 60.85 12.6476C60.85 10.0471 62.6743 8.26562 65.4201 8.26562C68.2297 8.26562 69.9482 9.92288 69.9482 12.3746C69.9482 14.4711 68.4388 15.6445 66.8455 16.5256L69.194 19.0631L70.5152 16.7558C70.6815 16.4845 70.8713 16.3786 71.2065 16.3786H73.2391C73.5751 16.3786 73.7641 16.6096 73.5541 16.9658L71.2065 20.9908L74.7502 24.8276ZM65.4612 10.8652C64.3718 10.8652 63.7427 11.5565 63.7427 12.4796C63.7427 13.1928 64.119 13.821 64.9791 14.7433C66.4666 13.884 67.0966 13.3608 67.0966 12.4376C67.0966 11.5784 66.5515 10.8652 65.4612 10.8652ZM64.5188 23.1503C65.8593 23.1503 66.7615 22.501 67.4947 21.3898L64.0997 17.741C62.7995 18.476 61.9603 19.2084 61.9603 20.6766C61.9603 22.123 63.1337 23.1503 64.5188 23.1503ZM48.2351 24.8688C48.3401 25.1418 48.1712 25.4148 47.8781 25.4148H45.6976C45.3835 25.4148 45.1945 25.2677 45.0903 24.9738L43.8531 21.4108H37.0823L35.8451 24.9738C35.7401 25.2677 35.5511 25.4148 35.237 25.4148H33.1825C32.9103 25.4148 32.7213 25.1418 32.8263 24.8688L38.5086 9.06275C38.6136 8.76875 38.8017 8.64275 39.1158 8.64275H41.9255C42.2405 8.64275 42.4487 8.76875 42.5537 9.06275L48.2351 24.8688ZM42.8888 18.6641L40.4782 11.7455L38.0457 18.6641H42.8888ZM78.0603 25.4148C77.999 25.4176 77.9377 25.4077 77.8804 25.3854C77.8232 25.3632 77.7712 25.3293 77.7278 25.2857C77.6845 25.2422 77.6507 25.1901 77.6287 25.1328C77.6067 25.0754 77.597 25.0141 77.6001 24.9528V11.4314H73.0081C72.9467 11.4344 72.8854 11.4245 72.8281 11.4024C72.7708 11.3803 72.7188 11.3464 72.6753 11.303C72.6319 11.2596 72.598 11.2075 72.5759 11.1502C72.5538 11.0929 72.544 11.0316 72.547 10.9702V9.10475C72.547 8.83175 72.7351 8.64275 73.0081 8.64275H85.231C85.5031 8.64275 85.6912 8.83175 85.6912 9.10475V10.9702C85.6946 11.0316 85.6851 11.093 85.6631 11.1505C85.6412 11.2079 85.6075 11.2601 85.564 11.3036C85.5206 11.3471 85.4685 11.3809 85.4111 11.403C85.3537 11.425 85.2923 11.4347 85.231 11.4314H80.6398V24.9528C80.6428 25.014 80.633 25.0752 80.6109 25.1325C80.5889 25.1897 80.5551 25.2417 80.5117 25.2852C80.4684 25.3286 80.4165 25.3625 80.3593 25.3846C80.3021 25.4068 80.2409 25.4168 80.1796 25.4139L78.0603 25.4148Z" fill="#403F4C"/>
<path d="M21.161 4.97406C18.9988 3.67512 16.5224 2.99247 14 3.00006C11.3549 3.00006 8.84538 3.74119 6.73925 5.03269C6.10925 5.42119 5.75225 5.73269 5.75225 6.13344C5.75225 7.31469 8.51113 8.58344 13.4059 8.58344C18.249 8.58344 22.0054 7.19306 22.0054 5.85431C22.0054 5.53494 21.7262 5.31181 21.161 4.97406ZM23.2453 6.52894C23.3039 6.62081 23.3328 6.71969 23.3328 6.85269C23.3328 8.40756 18.5754 11.1594 10.9987 11.1594C5.43375 11.1594 4.39162 9.09444 4.39162 7.78019C4.39162 7.31031 4.571 6.82994 4.96737 6.34256C4.99013 6.31281 4.97087 6.30144 4.9455 6.32419C4.22275 6.93669 3.55862 7.62619 2.97587 8.37169C2.69675 8.72344 2.52437 9.03494 2.52437 9.22219C2.52437 11.9443 9.34763 13.9183 15.7281 13.9183C22.5269 13.9183 25.5605 11.6984 25.5605 9.74719C25.5605 9.04981 25.2892 8.64206 24.5954 7.85369C24.1787 7.38119 23.7355 6.93276 23.268 6.51056C23.2452 6.49306 23.2304 6.50706 23.2453 6.52894ZM1.35012 10.9941C0.938875 11.8087 0.483875 13.1842 0.349125 13.8956C0.289625 14.2009 0.315 14.3471 0.42175 14.5746C1.281 16.3981 5.6245 19.3153 15.7579 19.3153C21.9389 19.3153 26.7418 17.7963 27.5196 15.0226C27.6623 14.5124 27.6701 13.9726 27.4864 13.2463C27.2808 12.4361 26.8958 11.4893 26.5694 10.8252C26.5589 10.8033 26.5396 10.8077 26.5431 10.8322C26.6647 14.4687 16.5279 16.8128 11.4135 16.8128C5.87387 16.8128 1.25125 14.6043 1.25125 11.8166C1.25125 11.5479 1.30638 11.2802 1.3755 11.0011C1.3825 10.9757 1.3615 10.9722 1.35012 10.9941ZM11.186 22.6132C4.0215 22.6132 0.64225 19.2751 0.02975 16.9957C0.021875 16.9642 0 16.9712 0 17.0001C0 17.7666 0.077 18.7571 0.21 19.4142C0.27125 19.7336 0.532 20.2358 0.9135 20.6357C2.64863 22.4443 6.97462 24.9792 14.4655 24.9792C24.6724 24.9792 27.006 21.5789 27.4829 20.4598C27.8241 19.6601 28 18.2146 28 17.0001C28 16.7061 27.9921 16.4716 27.9816 16.2406C27.9816 16.2038 27.9597 16.2003 27.9527 16.2371C27.4426 18.9741 18.7215 22.6132 11.186 22.6132ZM14.9503 28.7732C18.3951 28.7732 22.1812 27.8334 24.4449 25.9732C25.0653 25.4674 25.6559 24.7919 26.1844 23.8863C26.488 23.3648 26.7855 22.7453 27.0279 22.1363C27.0392 22.1066 27.02 22.0926 26.9981 22.1249C24.8929 25.2251 18.795 27.1588 12.4994 27.1588C8.04912 27.1588 3.26113 25.7352 1.38688 23.0166C1.3685 22.9903 1.35012 23.0026 1.36062 23.0314C3.108 26.7441 8.40525 28.7732 14.9503 28.7732ZM5.41538 28.0574C7.87018 29.9655 10.8909 31.0009 14 31.0001C17.5368 31.0001 20.762 29.6867 23.2225 27.5298C23.2523 27.5036 23.2383 27.4861 23.2085 27.5036C22.1042 28.2412 18.956 29.8521 14 29.8521C9.69238 29.8521 6.97113 28.8896 5.43375 28.0321C5.404 28.0172 5.3935 28.0391 5.41538 28.0583" fill="#403F4C"/>
</svg>
