<svg width="134" height="34" viewBox="0 0 134 34" fill="none" xmlns="http://www.w3.org/2000/svg">
<path d="M13.0016 18.6633C14.327 18.6633 15.4016 17.5888 15.4016 16.2633C15.4016 14.9378 14.327 13.8633 13.0016 13.8633C11.6761 13.8633 10.6016 14.9378 10.6016 16.2633C10.6016 17.5888 11.6761 18.6633 13.0016 18.6633Z" fill="#403F4C"/>
<path d="M19.816 9.06172H15.928C15.6352 9.06172 15.4 8.82652 15.4 8.53372V4.64572C15.4 4.43452 15.2272 4.26172 15.016 4.26172H1.384C1.1728 4.26172 1 4.43452 1 4.64572V27.8777C1 28.0889 1.1728 28.2617 1.384 28.2617H15.016C15.2272 28.2617 15.4 28.0889 15.4 27.8777V23.9897C15.4 23.6969 15.6352 23.4617 15.928 23.4617H19.816C20.0272 23.4617 20.2 23.2889 20.2 23.0777V19.0457C20.2 18.8345 20.0272 18.6617 19.816 18.6617H15.784C15.5728 18.6617 15.4 18.8345 15.4 19.0457V22.9337C15.4 23.2265 15.1648 23.4617 14.872 23.4617H5.992C5.8864 23.4617 5.8 23.3753 5.8 23.2697V9.25372C5.8 9.14812 5.8864 9.06172 5.992 9.06172H14.872C15.1648 9.06172 15.4 9.29692 15.4 9.58972V13.4777C15.4 13.6889 15.5728 13.8617 15.784 13.8617H19.816C20.0272 13.8617 20.2 13.6889 20.2 13.4777V9.44572C20.2 9.23452 20.0272 9.06172 19.816 9.06172Z" fill="#403F4C"/>
<path d="M40.0688 9.22972V9.20092C41.4656 9.06172 42.2768 8.20732 42.2768 6.96412C42.2768 5.72092 40.9568 4.26172 38.984 4.26172H34.6016V15.1337H39.2912C41.6192 15.1337 43.064 13.7513 43.064 11.9321C43.064 10.1129 41.9744 9.29212 40.064 9.22972H40.0688ZM36.0464 5.54812H38.8112C40.1312 5.54812 40.784 6.20092 40.784 7.14652C40.784 8.09212 40.1024 8.74492 38.8112 8.74492H36.0464V5.54332V5.54812ZM39.1232 13.8473H36.0464V10.0409H39.1232C40.7408 10.0409 41.5616 10.7705 41.5616 11.9369C41.5616 13.1033 40.7696 13.8473 39.1232 13.8473Z" fill="#403F4C"/>
<path d="M46.1672 10.3194C46.1672 8.68744 46.7864 7.83304 48.2168 7.83304H49.2248V6.58984H48.3992C47.0312 6.58984 46.5656 7.18024 46.1624 8.08264H46.1336V6.58984H44.7656V15.1338H46.1624V10.3194H46.1672Z" fill="#403F4C"/>
<path d="M54.2312 9.99599H52.8776C51.1832 9.99599 49.6328 10.74 49.6328 12.6696C49.6328 14.5992 50.924 15.372 52.5512 15.372C54.1784 15.372 55.0232 14.7336 55.5656 13.3704H55.5944V13.8696C55.5944 14.6472 56.108 15.1416 56.9288 15.1416H57.8456V13.8984H57.4568C57.0536 13.8984 56.9144 13.7592 56.9144 13.356V9.27119C56.9144 7.59119 55.9496 6.36719 53.588 6.36719C51.2264 6.36719 50.0792 7.54799 49.9544 9.36719H51.3512C51.4424 8.21999 52.3304 7.58159 53.588 7.58159C54.8456 7.58159 55.5128 8.04719 55.5128 8.97839C55.5128 9.90959 55.076 10.0056 54.2216 10.0056L54.2312 9.99599ZM55.5176 10.26V11.2248C55.5176 13.2264 54.2264 14.1624 52.8152 14.1624C51.404 14.1624 51.092 13.4616 51.092 12.6696C51.092 11.8776 51.572 11.196 52.9112 11.196H53.612C54.6536 11.196 55.196 10.884 55.4936 10.2648H55.5224L55.5176 10.26Z" fill="#403F4C"/>
<path d="M60.426 13.8906L65.394 7.67944V6.58984H58.8228V7.81864H63.5028V7.83304L58.5156 14.049V15.1338H65.7396V13.9098H60.426V13.8906Z" fill="#403F4C"/>
<path d="M79.6404 14.1546C78.4596 14.1546 77.634 13.5786 77.5764 12.3066H76.1172C76.2084 14.169 77.4996 15.369 79.6452 15.369C81.7908 15.369 83.0628 14.2026 83.0628 12.5898C83.0628 10.977 82.0836 10.089 80.1588 10.089H79.1508C78.282 10.089 77.7348 9.73377 77.7348 8.97057C77.7348 8.20737 78.4356 7.57377 79.5348 7.57377C80.634 7.57377 81.3828 8.22658 81.4452 9.35938H82.9044C82.8132 7.57377 81.6612 6.35938 79.5348 6.35938C77.4084 6.35938 76.2708 7.50657 76.2708 9.03297C76.2708 10.5594 77.298 11.3946 79.0356 11.3946H79.9524C81.1188 11.3946 81.5988 11.8746 81.5988 12.6234C81.5988 13.3722 80.8356 14.1594 79.6404 14.1594V14.1546Z" fill="#403F4C"/>
<path d="M92.9546 8.82645H91.5386C89.969 8.82645 89.5034 8.15925 89.5034 7.31925C89.5034 6.07605 90.5306 5.31765 92.177 5.31765C93.8234 5.31765 94.8314 6.18645 94.9274 7.80405H96.3866C96.2762 5.59605 94.9562 4.03125 92.2058 4.03125C89.4554 4.03125 88.0442 5.38485 88.0442 7.35765C88.0442 9.33045 89.1482 10.2328 91.4762 10.2328H92.8922C94.6922 10.2328 95.081 11.0585 95.081 11.8793C95.081 13.2136 94.0538 14.0872 92.3306 14.0872C90.6074 14.0872 89.441 13.108 89.3498 11.3848H87.8906C88.001 13.8232 89.489 15.3784 92.3018 15.3784C95.1146 15.3784 96.545 14.0104 96.545 11.8504C96.545 9.69045 95.7674 8.83605 92.9546 8.83605V8.82645Z" fill="#403F4C"/>
<path d="M105.072 13.3482V9.26338C105.072 7.58337 104.108 6.35938 101.746 6.35938C99.3844 6.35938 98.2372 7.54017 98.1124 9.35938H99.5093C99.6005 8.21218 100.488 7.57377 101.746 7.57377C103.004 7.57377 103.671 8.03937 103.671 8.97057C103.671 9.90177 103.234 9.99777 102.38 9.99777H101.026C99.3316 9.99777 97.7812 10.7418 97.7812 12.6714C97.7812 14.601 99.0724 15.3738 100.7 15.3738C102.327 15.3738 103.172 14.7354 103.714 13.3722H103.743V13.8714C103.743 14.649 104.256 15.1434 105.077 15.1434H105.994V13.9002H105.605C105.202 13.9002 105.063 13.761 105.063 13.3578L105.072 13.3482ZM103.671 11.2218C103.671 13.2234 102.38 14.1594 100.968 14.1594C99.5572 14.1594 99.2452 13.4586 99.2452 12.6666C99.2452 11.8746 99.7252 11.193 101.064 11.193H101.765C102.807 11.193 103.349 10.881 103.647 10.2618H103.676V11.2266L103.671 11.2218Z" fill="#403F4C"/>
<path d="M108.822 5.7504C108.822 4.6032 109.384 4.2432 110.19 4.2432H111.309V3H110.162C108.342 3 107.426 3.9936 107.426 5.7168V6.5856H106.336V7.8288H107.426V15.1296H108.822V7.8288H110.685V6.5856H108.822V5.7456V5.7504Z" fill="#403F4C"/>
<path d="M115.162 6.35938C112.709 6.35938 111 8.11617 111 10.8666C111 13.617 112.68 15.3738 115.195 15.3738C117.71 15.3738 118.786 14.193 119.141 12.5178H117.634C117.293 13.5258 116.376 14.1642 115.195 14.1642C114.014 14.1642 112.584 12.9354 112.478 11.337H119.222V10.4202C119.222 7.88577 117.466 6.36417 115.166 6.36417L115.162 6.35938ZM112.507 10.1322C112.694 8.68737 113.563 7.56897 115.21 7.56897C116.856 7.56897 117.758 8.61057 117.758 10.1322H112.507Z" fill="#403F4C"/>
<path d="M122.777 12.8825V7.83292H125.48V6.58972H122.777V4.26172H121.381V6.58972H119.672V7.83292H121.381V12.8825C121.381 14.3897 122.158 15.1337 123.651 15.1337H125.561V13.8905H123.805C123.152 13.8905 122.777 13.6121 122.777 12.8825Z" fill="#403F4C"/>
<path d="M132.451 6.58984L130.012 13.0362H129.983L127.545 6.58984H126.023L129.287 14.6682L128.294 16.9962H126.023V18.2394H128.587C129.052 18.2394 129.379 18.0234 129.551 17.5866L133.977 6.58984H132.455H132.451Z" fill="#403F4C"/>
<path d="M39.0952 21.9563H37.6792C36.1096 21.9563 35.644 21.2891 35.644 20.4491C35.644 19.2059 36.6713 18.4427 38.3177 18.4427C39.9641 18.4427 40.972 19.3115 41.068 20.9291H42.5272C42.4168 18.7211 41.0969 17.1562 38.3465 17.1562C35.5961 17.1562 34.1849 18.5099 34.1849 20.4827C34.1849 22.4555 35.2888 23.3579 37.6168 23.3579H39.0328C40.8328 23.3579 41.2217 24.1835 41.2217 25.0043C41.2217 26.3386 40.1944 27.2122 38.4712 27.2122C36.748 27.2122 35.5817 26.2331 35.4905 24.5099H34.0312C34.1416 26.9483 35.6297 28.5035 38.4425 28.5035C41.2553 28.5035 42.6857 27.1355 42.6857 24.9755C42.6857 22.8155 41.908 21.9611 39.0952 21.9611V21.9563Z" fill="#403F4C"/>
<path d="M47.4497 26.1651H47.4209L44.9825 19.7188H43.4609L46.7249 27.7971L45.7313 30.1251H43.4609V31.3684H46.0241C46.4897 31.3684 46.8161 31.1523 46.9889 30.7155L51.4145 19.7188H49.8929L47.4545 26.1651H47.4497Z" fill="#403F4C"/>
<path d="M56.0416 23.214H55.0336C54.1648 23.214 53.6176 22.8588 53.6176 22.0956C53.6176 21.3324 54.3184 20.6988 55.4176 20.6988C56.5168 20.6988 57.2656 21.3516 57.328 22.4844H58.7872C58.696 20.6988 57.544 19.4844 55.4176 19.4844C53.2912 19.4844 52.1536 20.6316 52.1536 22.158C52.1536 23.6844 53.1808 24.5196 54.9184 24.5196H55.8352C57.0016 24.5196 57.4816 24.9996 57.4816 25.7484C57.4816 26.4972 56.7184 27.2844 55.5232 27.2844C54.328 27.2844 53.5168 26.7084 53.4592 25.4364H52C52.0912 27.2988 53.3824 28.4988 55.528 28.4988C57.6736 28.4988 58.9456 27.3324 58.9456 25.7196C58.9456 24.1068 57.9664 23.2188 56.0416 23.2188V23.214Z" fill="#403F4C"/>
<path d="M62.7853 26.0114V20.9618H65.4877V19.7186H62.7853V17.3906H61.3885V19.7186H59.6797V20.9618H61.3885V26.0114C61.3885 27.5186 62.1661 28.2626 63.6589 28.2626H65.5693V27.0194H63.8125C63.1597 27.0194 62.7853 26.741 62.7853 26.0114Z" fill="#403F4C"/>
<path d="M70.2007 19.4883C67.7479 19.4883 66.0391 21.2451 66.0391 23.9955C66.0391 26.7459 67.7191 28.5027 70.2343 28.5027C72.7495 28.5027 73.8247 27.3219 74.1799 25.6419H72.6727C72.3319 26.6499 71.4151 27.2883 70.2343 27.2883C69.0535 27.2883 67.6231 26.0595 67.5175 24.4611H74.2615V23.5443C74.2615 21.0099 72.5047 19.4883 70.2055 19.4883H70.2007ZM67.5463 23.2611C67.7335 21.8163 68.6023 20.6979 70.2487 20.6979C71.8951 20.6979 72.7975 21.7395 72.7975 23.2611H67.5463Z" fill="#403F4C"/>
<path d="M85.1227 19.4883C83.7403 19.4883 82.8379 20.3139 82.4059 21.4611H82.3771C82.0219 20.2323 81.1051 19.4883 79.8283 19.4883C78.5515 19.4883 77.6203 20.3715 77.2171 21.2259H77.1883V19.7187H75.8203V28.2627H77.2171V23.4291C77.2171 21.6579 78.2251 20.7267 79.4059 20.7267C80.5867 20.7267 81.1627 21.4083 81.1627 22.9971V28.2627H82.5595V23.4147C82.5595 21.6435 83.5675 20.7267 84.7483 20.7267C85.9291 20.7267 86.5051 21.4083 86.5051 22.9971V28.2627H87.9019V22.8579C87.9019 20.8083 86.8603 19.4883 85.1227 19.4883Z" fill="#403F4C"/>
<path d="M93.4478 23.214H92.4398C91.571 23.214 91.0238 22.8588 91.0238 22.0956C91.0238 21.3324 91.7246 20.6988 92.8238 20.6988C93.923 20.6988 94.6719 21.3516 94.7343 22.4844H96.1935C96.1023 20.6988 94.9502 19.4844 92.8238 19.4844C90.6974 19.4844 89.5598 20.6316 89.5598 22.158C89.5598 23.6844 90.5871 24.5196 92.3247 24.5196H93.2415C94.4079 24.5196 94.8878 24.9996 94.8878 25.7484C94.8878 26.4972 94.1247 27.2844 92.9295 27.2844C91.7343 27.2844 90.9231 26.7084 90.8655 25.4364H89.4062C89.4975 27.2988 90.7886 28.4988 92.9343 28.4988C95.0799 28.4988 96.3518 27.3324 96.3518 25.7196C96.3518 24.1068 95.3726 23.2188 93.4478 23.2188V23.214Z" fill="#403F4C"/>
<path d="M70.8431 6.35938C68.3567 6.35938 66.3359 8.37537 66.3359 10.8666C66.3359 13.3578 68.3519 15.3738 70.8431 15.3738C73.3343 15.3738 75.3503 13.3578 75.3503 10.8666C75.3503 8.37537 73.3343 6.35938 70.8431 6.35938ZM70.8431 14.1594C69.0239 14.1594 67.5503 12.6858 67.5503 10.8666C67.5503 9.04737 69.0239 7.57377 70.8431 7.57377C72.6623 7.57377 74.1359 9.04737 74.1359 10.8666C74.1359 12.6858 72.6623 14.1594 70.8431 14.1594Z" fill="#403F4C"/>
<path d="M72.0469 11.3649C72.3208 10.7036 72.0068 9.94548 71.3455 9.67157C70.6842 9.39766 69.9261 9.71169 69.6522 10.373C69.3783 11.0342 69.6923 11.7924 70.3536 12.0663C71.0149 12.3402 71.773 12.0262 72.0469 11.3649Z" fill="#403F4C"/>
</svg>
