<svg width="80" height="25" viewBox="0 0 80 25" fill="none" xmlns="http://www.w3.org/2000/svg">
<path d="M19.8181 22.1655L25.3086 17.5037C25.8572 17.0491 26.3185 16.6364 26.6976 16.2657C27.0784 15.8933 27.3854 15.541 27.6203 15.2072C27.8568 14.875 28.0262 14.5479 28.1319 14.2292C28.2393 13.9105 28.293 13.5699 28.293 13.2059C28.293 12.4175 28.0464 11.8069 27.5532 11.3757C27.06 10.9429 26.4477 10.7265 25.7196 10.7265C24.9916 10.7265 24.3491 10.9245 23.7938 11.3187C23.2402 11.7146 22.6514 12.3135 22.0291 13.1187L20.0462 11.5703C20.4253 11.0386 20.8129 10.5621 21.2088 10.1411C21.603 9.72002 22.0324 9.36775 22.4954 9.08592C22.9584 8.80242 23.4684 8.58267 24.022 8.43002C24.5739 8.27736 25.2097 8.2002 25.9226 8.2002C26.6976 8.2002 27.4072 8.31427 28.0531 8.54241C28.6973 8.76887 29.2525 9.09263 29.7155 9.51034C30.1785 9.92804 30.5392 10.4296 30.7975 11.0151C31.0559 11.6005 31.185 12.2497 31.185 12.9627V13.008C31.185 13.632 31.1012 14.1973 30.9351 14.7056C30.7673 15.2156 30.514 15.7054 30.1735 16.1751C29.8313 16.6482 29.3985 17.1212 28.8734 17.5993C28.35 18.0774 27.7377 18.6058 27.0382 19.1829L23.7586 21.9172H31.3444V24.3765H19.8164V22.1705L19.8181 22.1655Z" fill="white"/>
<path d="M40.9598 24.3712C39.7285 24.3712 38.6045 24.1548 37.5879 23.722C36.5697 23.2892 35.6974 22.7004 34.9676 21.9556C34.2396 21.2125 33.6692 20.3435 33.2582 19.3471C32.8489 18.3523 32.6426 17.2938 32.6426 16.1699V16.1246C32.6426 15.0006 32.8472 13.9404 33.2582 12.9457C33.6692 11.9509 34.2463 11.0786 34.9894 10.3254C35.7343 9.57387 36.615 8.97835 37.6332 8.53716C38.6498 8.09765 39.7738 7.87622 41.0051 7.87622C42.2364 7.87622 43.3586 8.09262 44.3769 8.52542C45.3952 8.95822 46.2675 9.54703 46.9972 10.2902C47.7269 11.0333 48.2956 11.9039 48.7066 12.8987C49.1159 13.8935 49.3223 14.9537 49.3223 16.0776V16.1229C49.3223 17.2468 49.1176 18.307 48.7066 19.3001C48.2956 20.2965 47.7202 21.1688 46.9754 21.9204C46.2323 22.6736 45.3499 23.2691 44.3333 23.7086C43.3167 24.1498 42.1911 24.3695 40.9615 24.3695M41.0068 21.7996C41.7935 21.7996 42.5148 21.652 43.1741 21.3551C43.8317 21.0581 44.3937 20.6555 44.8634 20.1472C45.3314 19.6373 45.6988 19.0418 45.9639 18.359C46.2289 17.6746 46.3598 16.9465 46.3598 16.1715V16.1262C46.3598 15.3512 46.2289 14.6182 45.9639 13.927C45.6988 13.2359 45.3297 12.6353 44.8516 12.127C44.3752 11.6171 43.8049 11.2128 43.1406 10.9092C42.4746 10.6055 41.7482 10.4529 40.9615 10.4529C40.1747 10.4529 39.4534 10.6005 38.7958 10.8957C38.1382 11.1927 37.5745 11.5953 37.1065 12.1036C36.6368 12.6118 36.2711 13.2074 36.006 13.8918C35.7427 14.5745 35.6085 15.3043 35.6085 16.0793V16.1246C35.6085 16.8996 35.7427 17.6326 36.006 18.3221C36.2711 19.0149 36.6418 19.6138 37.1166 20.1221C37.5947 20.632 38.165 21.038 38.831 21.3416C39.4953 21.6436 40.22 21.7979 41.0084 21.7979" fill="white"/>
<path d="M50.416 22.1655L55.9082 17.5037C56.4534 17.0491 56.9165 16.6364 57.2973 16.2657C57.6781 15.8933 57.985 15.541 58.2199 15.2072C58.4547 14.875 58.6259 14.5479 58.7315 14.2292C58.8372 13.9105 58.8909 13.5699 58.8909 13.2059C58.8909 12.4175 58.646 11.8069 58.1511 11.3757C57.6579 10.9429 57.0473 10.7265 56.3176 10.7265C55.5878 10.7265 54.9454 10.9245 54.3918 11.3187C53.8382 11.7146 53.2477 12.3135 52.6253 13.1187L50.6425 11.5703C51.0233 11.0386 51.4091 10.5621 51.805 10.1411C52.2009 9.72002 52.6287 9.36775 53.0934 9.08592C53.5564 8.80242 54.0646 8.58267 54.6199 8.43002C55.1735 8.27736 55.8076 8.2002 56.5206 8.2002C57.2956 8.2002 58.0052 8.31427 58.651 8.54241C59.2969 8.76887 59.8521 9.09263 60.3151 9.51034C60.7798 9.92804 61.1388 10.4296 61.3971 11.0151C61.6555 11.6005 61.7863 12.2497 61.7863 12.9627V13.008C61.7863 13.632 61.7041 14.1973 61.5347 14.7056C61.3669 15.2156 61.112 15.7054 60.7714 16.1751C60.4309 16.6482 59.9981 17.1212 59.473 17.5993C58.9479 18.0774 58.3373 18.6058 57.6395 19.1829L54.3582 21.9172H61.9457V24.3765H50.4177V22.1705L50.416 22.1655Z" fill="white"/>
<path d="M71.5574 24.3712C70.3278 24.3712 69.2022 24.1548 68.1856 23.722C67.1673 23.2892 66.295 22.7004 65.5653 21.9556C64.8356 21.2125 64.2669 20.3435 63.8576 19.3471C63.4466 18.3523 63.2402 17.2938 63.2402 16.1699V16.1246C63.2402 15.0006 63.4466 13.9404 63.8576 12.9457C64.2669 11.9509 64.844 11.0786 65.5888 10.3254C66.3319 9.57387 67.2143 8.97835 68.2309 8.53716C69.2508 8.09765 70.3731 7.87622 71.6044 7.87622C72.8357 7.87622 73.9563 8.09262 74.9746 8.52542C75.9911 8.95822 76.8651 9.54703 77.5949 10.2902C78.3229 11.0333 78.8933 11.9039 79.3026 12.8987C79.7119 13.8935 79.9166 14.9537 79.9166 16.0776V16.1229C79.9166 17.2468 79.7119 18.307 79.3026 19.3001C78.8916 20.2965 78.3145 21.1688 77.5714 21.9204C76.8266 22.6736 75.9459 23.2691 74.9259 23.7086C73.911 24.1498 72.7854 24.3695 71.5558 24.3695M71.6027 21.7996C72.3878 21.7996 73.1091 21.652 73.7667 21.3551C74.426 21.0581 74.988 20.6555 75.4577 20.1472C75.9257 19.6373 76.2914 19.0418 76.5582 18.359C76.8232 17.6746 76.954 16.9465 76.954 16.1715V16.1262C76.954 15.3512 76.8215 14.6182 76.5582 13.927C76.2914 13.2359 75.9224 12.6353 75.4476 12.127C74.9695 11.6171 74.4009 11.2128 73.7349 10.9092C73.0689 10.6055 72.3425 10.4529 71.5574 10.4529C70.7724 10.4529 70.0477 10.6005 69.3917 10.8957C68.7341 11.1927 68.1688 11.5953 67.7008 12.1036C67.2328 12.6118 66.8654 13.2074 66.6003 13.8918C66.3353 14.5745 66.2028 15.3043 66.2028 16.0793V16.1246C66.2028 16.8996 66.3353 17.6326 66.6003 18.3221C66.8654 19.0149 67.2361 19.6138 67.7109 20.1221C68.1873 20.632 68.7593 21.038 69.4236 21.3416C70.0896 21.6436 70.8143 21.7979 71.6027 21.7979" fill="white"/>
<path d="M21.5429 2.98262C21.4623 2.98262 21.3617 2.98262 21.2577 2.97088V3.93209C21.4573 3.94384 21.662 3.97739 21.8348 4.01094V4.54607H19.8184V4.01094C19.9911 3.97739 20.1958 3.94384 20.3954 3.93209V0.689458C20.1958 0.676038 19.9911 0.642488 19.8184 0.608938V0.0721332H20.3384C20.5481 0.0721332 21.1335 0.0469702 21.5965 0.0469702C22.6886 0.0469702 23.2925 0.556935 23.2925 1.4326C23.2925 2.30826 22.6316 2.98262 21.5429 2.98262ZM21.5563 0.751527C21.4506 0.751527 21.3583 0.751527 21.2577 0.754882V2.24787C21.3449 2.26129 21.4288 2.26968 21.5076 2.26968C22.0327 2.26129 22.3984 1.97108 22.3984 1.48628C22.3984 1.03503 22.1468 0.751527 21.5563 0.751527ZM25.7115 4.6182C24.346 4.6182 23.6784 3.75092 23.6784 2.36697C23.6784 0.887406 24.6647 0 25.8659 0C27.067 0 27.9024 0.716299 27.9024 2.24787C27.9024 3.77944 26.9277 4.61988 25.7132 4.61988M25.7853 0.776689C25.1697 0.776689 24.5993 1.2682 24.5993 2.27303C24.5993 3.22083 24.9717 3.83815 25.7736 3.83815C26.3574 3.83815 26.9781 3.38858 26.9781 2.31497C26.9781 1.3202 26.5553 0.778367 25.7853 0.778367M30.8532 4.54607L29.7577 2.7008H29.6386V3.93209C29.7661 3.94384 29.9104 3.96397 30.0446 4.00423V4.54607H28.201V4.01094C28.3738 3.97739 28.5784 3.94384 28.7781 3.93209V0.689458C28.5801 0.676038 28.3738 0.642488 28.201 0.608938V0.0721332H28.7177C28.8904 0.0721332 29.5111 0.0469702 30.0614 0.0469702C31.0494 0.0469702 31.6869 0.389183 31.6869 1.30511C31.6869 1.92914 31.2608 2.3871 30.6317 2.51963C30.7122 2.62363 30.7894 2.7377 30.8582 2.84339L31.5477 3.92371C31.6735 3.94216 31.8312 3.969 31.9855 3.99584V4.54439H30.8515L30.8532 4.54607ZM29.9708 0.751527C29.8517 0.751527 29.7275 0.754882 29.6403 0.768302V2.06334C29.7007 2.06838 29.8131 2.07509 29.9439 2.07509C30.4673 2.07509 30.7793 1.81172 30.7793 1.39234C30.7793 0.972959 30.5193 0.751527 29.9691 0.751527M35.047 1.33195C35.0168 1.12729 34.9816 0.949473 34.9698 0.781722H34.2804V3.93209C34.4783 3.94384 34.683 3.97739 34.8574 4.01094V4.54607H32.841V4.01094C33.0138 3.97739 33.2202 3.94384 33.4181 3.93209V0.781722H32.7353C32.7236 0.949473 32.6884 1.12897 32.6582 1.33195H32.0207V0.0721332H35.6844V1.33195H35.0487H35.047ZM40.036 0.689458V2.82997C40.036 4.01597 39.38 4.6182 38.1873 4.6182C36.7732 4.6182 36.4578 3.8499 36.4578 2.99604V0.689458C36.3102 0.676038 36.1642 0.650876 36.0384 0.615648V0.0721332H37.7948V0.615648C37.6421 0.655908 37.471 0.676038 37.3167 0.689458V2.94236C37.3167 3.50601 37.4962 3.90358 38.2393 3.90358C38.9003 3.90358 39.1855 3.62511 39.1855 2.86184V0.687781C39.0261 0.674361 38.855 0.654231 38.7107 0.61397V0.0704556H40.4453V0.61397C40.3195 0.649198 40.1802 0.674361 40.0343 0.687781M44.4814 2.81822V4.33805C44.0369 4.51419 43.4816 4.61484 42.9381 4.61484C41.5256 4.61484 40.6902 3.77776 40.6902 2.41562C40.6902 1.05348 41.6447 0.00838745 43.1696 0.00838745C43.5873 0.00838745 44.005 0.0671004 44.4177 0.174461V1.37388H43.7534C43.7148 1.18265 43.6947 1.00986 43.6745 0.835402C43.4967 0.786754 43.3021 0.768302 43.1243 0.768302C42.257 0.768302 41.6279 1.3202 41.6279 2.33175C41.6279 3.28122 42.1446 3.83648 43.0538 3.83648C43.2635 3.83648 43.4497 3.81131 43.6208 3.75596V2.82326C43.4246 2.80984 43.2182 2.77629 43.0538 2.7377V2.2009H44.8572V2.75112C44.7364 2.77796 44.6089 2.79809 44.4848 2.81822M47.5949 4.54607V4.01094C47.7341 3.9841 47.9136 3.95055 48.0646 3.9388L47.8734 3.40871H46.2428L46.0566 3.9388C46.211 3.95055 46.3888 3.9841 46.528 4.01094V4.54607H44.8438V4.01094C44.9511 3.97739 45.082 3.95055 45.1944 3.94384L46.5599 0.0721332H47.6134L49.0057 3.94384C49.1181 3.95055 49.2506 3.97739 49.3563 4.01094V4.54607H47.5932H47.5949ZM47.2628 1.63725C47.1789 1.39066 47.1118 1.18097 47.0581 0.934376H47.0514C46.9977 1.15916 46.9323 1.41918 46.84 1.66745L46.4559 2.7377H47.662L47.2644 1.63725H47.2628ZM49.5593 4.54607V4.01094C49.7321 3.97739 49.9384 3.94384 50.1381 3.93209V0.689458C49.9401 0.676038 49.7338 0.642488 49.5593 0.608938V0.0721332H51.5757V0.608938C51.4029 0.642488 51.1983 0.676038 50.9969 0.689458V3.83648H51.8542C51.8676 3.67544 51.8995 3.48588 51.933 3.28793H52.5671V4.54607H49.5576H49.5593Z" fill="white"/>
<path d="M6.39978 0.189453C2.45423 1.74954 0 5.86616 0 12.2055V21.8294C0 21.8294 0.806893 15.6427 6.39978 13.8612V0.189453Z" fill="white"/>
<path d="M8.30959 14.8128C6.01808 15.2708 2.65799 17.1076 1.66992 19.696C6.5918 13.7207 16.6369 19.4964 17.0831 8.25706C17.224 4.69905 17.2391 0.317383 17.2391 0.317383C11.9934 0.612625 8.31127 2.01 8.31127 2.01V14.8145L8.30959 14.8128Z" fill="white"/>
<path d="M7.66869 18.0566C7.66869 18.0566 2.32743 18.4894 1.87449 21.5392C1.5155 23.9229 7.66869 23.985 7.66869 23.985V18.0566Z" fill="white"/>
</svg>
