<svg width="114" height="25" viewBox="0 0 114 25" fill="none" xmlns="http://www.w3.org/2000/svg">
<path d="M0 0V24.3766H36.5644V0H0ZM9.02765 11.8266L9.99333 11.8292L10.2886 10.9048L10.5838 11.8279H11.5495L10.7669 12.3913L11.0596 13.3016L10.2886 12.7382L9.51758 13.3016L9.81154 12.3913L9.02765 11.8279V11.8266ZM12.1323 17.2997L11.3613 16.735L10.5903 17.2997L10.8842 16.3894L10.1016 15.826H11.0673L11.3626 14.9029L11.6578 15.826H12.6235L11.8409 16.3894L12.1348 17.2997H12.1323ZM11.8383 8.40229L12.1323 9.31253L11.3613 8.74911L10.5903 9.31253L10.8842 8.40229L10.1016 7.83887H11.0673L11.3626 6.91574L11.6578 7.83887H12.6235L11.8409 8.40229H11.8383ZM13.9863 4.91219L14.2815 3.98906L14.5768 4.91219H15.5425L14.7586 5.47561L15.0512 6.38584L14.2802 5.82242L13.5092 6.38584L13.8019 5.47561L13.0193 4.91219H13.985H13.9863ZM15.059 20.2276L14.288 19.6642L13.517 20.2276L13.8096 19.3174L13.027 18.754H13.9927L14.288 17.8321L14.5832 18.754H15.5489L14.7663 19.3174L15.059 20.2276ZM17.9792 3.8395L18.2745 2.91637L18.5697 3.83821H19.5354L18.7515 4.40163L19.0455 5.31187L18.2745 4.74845L17.5035 5.31187L17.7974 4.40163L17.0148 3.83821H17.9805L17.9792 3.8395ZM19.0468 21.2874L18.2758 20.724L17.5048 21.2874L17.7974 20.3772L17.0148 19.8138H17.9805L18.2758 18.8906L18.571 19.8138H19.5367L18.7528 20.3772L19.0468 21.2874ZM23.0358 20.2276L22.2648 19.6642L21.4938 20.2276L21.7865 19.3174L21.0039 18.754H21.9683L22.2648 17.8321L22.5601 18.754H23.5258L22.7419 19.3174L23.0358 20.2276ZM22.7535 5.47432L23.0462 6.38455L22.2752 5.81985L21.5029 6.38455L21.7955 5.47432L21.0129 4.90961L21.9786 4.91219L22.2739 3.98906L22.5691 4.9109H23.5361L22.7522 5.47561L22.7535 5.47432ZM24.895 7.82856L25.1915 6.90543L25.4881 7.82856H26.4525L25.6686 8.39069L25.9625 9.30092L25.1915 8.7375L24.4205 9.30092L24.7145 8.39069L23.9306 7.82856H24.895ZM25.9625 17.2997L25.1915 16.735L24.4205 17.2997L24.7145 16.3894L23.9306 15.826H24.895L25.1915 14.9029L25.4881 15.826H26.4525L25.6686 16.3894L25.9625 17.2997ZM27.0223 13.2887L26.2513 12.724L25.4803 13.2887L25.773 12.3785L24.9891 11.815H25.9548L26.2501 10.8919L26.5466 11.815H27.5123L26.7284 12.3785L27.021 13.2887H27.0223Z" fill="white"/>
<path d="M45.7131 6.94377L46.8876 7.31637C46.7071 7.97133 46.408 8.45739 45.989 8.77456C45.57 9.09301 45.0388 9.25159 44.3954 9.25159C43.5986 9.25159 42.9437 8.97955 42.4318 8.43547C41.9187 7.89139 41.6621 7.14747 41.6621 6.20372C41.6621 5.20581 41.92 4.42966 42.4357 3.87784C42.9514 3.32474 43.6296 3.04883 44.4689 3.04883C45.2025 3.04883 45.7982 3.26543 46.2572 3.69992C46.5305 3.95649 46.7342 4.32522 46.8709 4.80484L45.6718 5.09106C45.6009 4.78034 45.4526 4.53409 45.2283 4.35488C45.0027 4.17438 44.7293 4.08542 44.4083 4.08542C43.9635 4.08542 43.6025 4.24529 43.3266 4.56374C43.0494 4.8822 42.9114 5.40049 42.9114 6.11475C42.9114 6.87286 43.0481 7.41307 43.3201 7.73539C43.5935 8.05771 43.948 8.21887 44.3838 8.21887C44.7061 8.21887 44.982 8.11702 45.2141 7.91202C45.4462 7.70703 45.6125 7.38599 45.7131 6.94635V6.94377Z" fill="white"/>
<path d="M47.6523 6.91492C47.6523 6.53329 47.7465 6.16326 47.9347 5.80613C48.1229 5.449 48.3898 5.17567 48.7341 4.98743C49.0796 4.7992 49.4651 4.70508 49.8906 4.70508C50.5481 4.70508 51.087 4.9191 51.5073 5.34585C51.9276 5.77261 52.1378 6.31282 52.1378 6.96391C52.1378 7.615 51.9251 8.16682 51.5009 8.59873C51.0767 9.03064 50.5429 9.24724 49.8996 9.24724C49.5012 9.24724 49.1209 9.15699 48.7598 8.97778C48.3988 8.79857 48.1229 8.53426 47.936 8.18615C47.7477 7.83805 47.6536 7.41516 47.6536 6.91621L47.6523 6.91492ZM48.8308 6.9768C48.8308 7.40742 48.9326 7.73748 49.1376 7.96698C49.3426 8.19647 49.594 8.31122 49.8944 8.31122C50.1948 8.31122 50.4462 8.19647 50.65 7.96698C50.8537 7.73748 50.9542 7.40485 50.9542 6.96907C50.9542 6.53329 50.8524 6.21612 50.65 5.98663C50.4475 5.75714 50.1948 5.64239 49.8944 5.64239C49.594 5.64239 49.3426 5.75714 49.1376 5.98663C48.9326 6.21612 48.8308 6.54618 48.8308 6.9768Z" fill="white"/>
<path d="M52.5618 4.80484H53.2V4.47736C53.2 4.11249 53.2387 3.83916 53.3161 3.65866C53.3934 3.47816 53.5365 3.33247 53.7454 3.21901C53.9543 3.10556 54.2186 3.04883 54.537 3.04883C54.8555 3.04883 55.1856 3.09782 55.4989 3.19581L55.3428 3.99774C55.1598 3.95391 54.9844 3.93199 54.8155 3.93199C54.6466 3.93199 54.5293 3.97067 54.4571 4.04932C54.3849 4.12667 54.3488 4.27623 54.3488 4.49799V4.80484H55.2088V5.70863H54.3488V9.14974H53.1987V5.70863H52.5605V4.80484H52.5618ZM55.7902 4.21563V3.15197H56.9403V4.21563H55.7902ZM55.7902 9.14974V4.80355H56.9403V9.14974H55.7902Z" fill="white"/>
<path d="M62.1072 9.14967H60.9571V6.9321C60.9571 6.4628 60.9326 6.15981 60.8837 6.02186C60.8347 5.88391 60.7547 5.7769 60.6438 5.70083C60.533 5.62476 60.4002 5.58608 60.2455 5.58608C60.0469 5.58608 59.8677 5.64023 59.7091 5.74982C59.5505 5.85941 59.4422 6.00381 59.3842 6.18431C59.3249 6.36481 59.2965 6.69745 59.2965 7.18222V9.15096H58.1465V4.80477H59.214V5.44297C59.5931 4.95175 60.0701 4.70679 60.6464 4.70679C60.9004 4.70679 61.1325 4.75191 61.3426 4.84345C61.5528 4.93499 61.7114 5.05103 61.8197 5.19285C61.928 5.33467 62.0028 5.49583 62.0453 5.67633C62.0879 5.85683 62.1085 6.11469 62.1085 6.4499V9.15096L62.1072 9.14967Z" fill="white"/>
<path d="M64.133 6.12974L63.09 5.9415C63.2073 5.5212 63.4097 5.21048 63.6959 5.00806C63.9822 4.80564 64.4076 4.70508 64.9724 4.70508C65.4855 4.70508 65.8671 4.76567 66.1185 4.88687C66.3699 5.00806 66.5466 5.16278 66.6484 5.34972C66.7503 5.53667 66.8019 5.87962 66.8019 6.37857L66.7903 7.72072C66.7903 8.10235 66.8083 8.3847 66.8457 8.56521C66.8831 8.74699 66.9514 8.94168 67.052 9.14796H65.9148C65.8852 9.07189 65.8478 8.95844 65.8039 8.80888C65.7846 8.74055 65.7717 8.69542 65.7627 8.6735C65.5667 8.86432 65.3566 9.00743 65.1322 9.10284C64.9092 9.19825 64.6694 9.24595 64.4167 9.24595C63.9693 9.24595 63.616 9.12476 63.3594 8.88237C63.1016 8.63998 62.9727 8.33313 62.9727 7.96182C62.9727 7.71685 63.032 7.49767 63.1493 7.30557C63.2666 7.11347 63.4304 6.96649 63.6418 6.86335C63.8532 6.76149 64.1575 6.67124 64.5559 6.59517C65.0935 6.49461 65.4661 6.40049 65.6724 6.31282V6.19807C65.6724 5.9776 65.6183 5.81902 65.5087 5.7249C65.3991 5.63079 65.1941 5.58308 64.8911 5.58308C64.6861 5.58308 64.5263 5.62305 64.4128 5.70428C64.298 5.78421 64.2052 5.92603 64.1343 6.12845L64.133 6.12974ZM65.6724 7.06318C65.5255 7.11218 65.2921 7.17149 64.9724 7.23853C64.6526 7.30686 64.445 7.3739 64.3458 7.43966C64.1962 7.54667 64.1201 7.68075 64.1201 7.84449C64.1201 8.00823 64.1794 8.1449 64.3006 8.26222C64.4205 8.37955 64.574 8.43757 64.7583 8.43757C64.9659 8.43757 65.1632 8.36923 65.3514 8.23257C65.4906 8.12943 65.5822 8.00179 65.626 7.85223C65.6557 7.75424 65.6712 7.5673 65.6712 7.29139V7.0619L65.6724 7.06318Z" fill="white"/>
<path d="M71.8884 9.14967H70.7384V6.9321C70.7384 6.4628 70.7139 6.15981 70.6649 6.02186C70.6159 5.88391 70.536 5.7769 70.4251 5.70083C70.3142 5.62476 70.1814 5.58608 70.0267 5.58608C69.8282 5.58608 69.6489 5.64023 69.4904 5.74982C69.3318 5.85941 69.2235 6.00381 69.1655 6.18431C69.1061 6.36481 69.0778 6.69745 69.0778 7.18222V9.15096H67.9277V4.80477H68.9953V5.44297C69.3743 4.95175 69.8514 4.70679 70.4277 4.70679C70.6817 4.70679 70.9137 4.75191 71.1239 4.84345C71.334 4.93499 71.4926 5.05103 71.6009 5.19285C71.7092 5.33467 71.784 5.49583 71.8266 5.67633C71.8691 5.85683 71.8897 6.11469 71.8897 6.4499V9.15096L71.8884 9.14967Z" fill="white"/>
<path d="M76.8421 6.08848L75.7088 6.29348C75.6701 6.06657 75.5837 5.89638 75.4483 5.78163C75.313 5.66689 75.1376 5.61016 74.9223 5.61016C74.6361 5.61016 74.4079 5.70943 74.2364 5.90669C74.0649 6.10396 73.9811 6.4353 73.9811 6.89945C73.9811 7.41516 74.0675 7.77874 74.2415 7.99147C74.4143 8.20421 74.6477 8.31122 74.9391 8.31122C75.1569 8.31122 75.3362 8.24933 75.4754 8.12556C75.6147 8.00179 75.7126 7.78776 75.7707 7.48478L76.9001 7.67689C76.7827 8.19518 76.5571 8.58712 76.2245 8.85143C75.8918 9.11573 75.4458 9.24853 74.8862 9.24853C74.2506 9.24853 73.7439 9.04869 73.3661 8.64643C72.9883 8.24546 72.7988 7.68978 72.7988 6.98067C72.7988 6.27156 72.9884 5.70428 73.3674 5.3046C73.7465 4.90492 74.2596 4.70508 74.9055 4.70508C75.4341 4.70508 75.8557 4.81854 76.1678 5.04674C76.4798 5.27494 76.7041 5.62176 76.8408 6.08848H76.8421Z" fill="white"/>
<path d="M77.7148 4.21552V3.15186H78.8649V4.21552H77.7148ZM77.7148 9.14962V4.80343H78.8649V9.14962H77.7148Z" fill="white"/>
<path d="M80.9026 6.12974L79.8595 5.9415C79.9768 5.5212 80.1793 5.21048 80.4655 5.00806C80.7517 4.80564 81.1772 4.70508 81.7419 4.70508C82.255 4.70508 82.6367 4.76567 82.8881 4.88687C83.1395 5.00806 83.3161 5.16278 83.418 5.34972C83.5198 5.53667 83.5714 5.87962 83.5714 6.37857L83.5598 7.72072C83.5598 8.10235 83.5778 8.3847 83.6152 8.56521C83.6526 8.74699 83.721 8.94168 83.8215 9.14796H82.6844C82.6547 9.07189 82.6173 8.95844 82.5735 8.80888C82.5541 8.74055 82.5412 8.69542 82.5322 8.6735C82.3363 8.86432 82.1261 9.00743 81.9018 9.10284C81.6787 9.19825 81.4389 9.24595 81.1862 9.24595C80.7388 9.24595 80.3855 9.12476 80.129 8.88237C79.8711 8.63998 79.7422 8.33313 79.7422 7.96182C79.7422 7.71685 79.8015 7.49767 79.9188 7.30557C80.0361 7.11347 80.1999 6.96649 80.4113 6.86335C80.6228 6.76149 80.9271 6.67124 81.3254 6.59517C81.8631 6.49461 82.2357 6.40049 82.442 6.31282V6.19807C82.442 5.9776 82.3878 5.81902 82.2782 5.7249C82.1686 5.63079 81.9636 5.58308 81.6607 5.58308C81.4557 5.58308 81.2958 5.62305 81.1823 5.70428C81.0676 5.78421 80.9748 5.92603 80.9038 6.12845L80.9026 6.12974ZM82.4407 7.06318C82.2937 7.11218 82.0603 7.17149 81.7406 7.23853C81.4208 7.30686 81.2133 7.3739 81.114 7.43966C80.9644 7.54667 80.8884 7.68075 80.8884 7.84449C80.8884 8.00823 80.9477 8.1449 81.0689 8.26222C81.1888 8.37955 81.3422 8.43757 81.5266 8.43757C81.7342 8.43757 81.9314 8.36923 82.1196 8.23257C82.2589 8.12943 82.3504 8.00179 82.3943 7.85223C82.4239 7.75424 82.4394 7.5673 82.4394 7.29139V7.0619L82.4407 7.06318Z" fill="white"/>
<path d="M88.6903 9.14993H87.6228V8.51174C87.4449 8.76057 87.236 8.94494 86.9949 9.06613C86.7538 9.18732 86.5101 9.24792 86.2639 9.24792C85.7649 9.24792 85.3369 9.04679 84.981 8.64453C84.6252 8.24228 84.4473 7.68144 84.4473 6.96072C84.4473 6.24001 84.62 5.66499 84.9669 5.28078C85.3137 4.89786 85.7507 4.70576 86.2806 4.70576C86.7667 4.70576 87.1857 4.90818 87.5416 5.31172V3.15088H88.6916V9.14993H88.6903ZM85.6205 6.88337C85.6205 7.34751 85.685 7.68273 85.8126 7.8903C85.9983 8.1907 86.2574 8.34026 86.5901 8.34026C86.8544 8.34026 87.08 8.22809 87.2657 8.00247C87.4513 7.77684 87.5442 7.44163 87.5442 6.99425C87.5442 6.49529 87.4539 6.13558 87.2747 5.9164C87.0955 5.69722 86.8634 5.58634 86.5836 5.58634C86.3039 5.58634 86.0821 5.69464 85.8977 5.91124C85.7134 6.12784 85.6218 6.45274 85.6218 6.88337H85.6205Z" fill="white"/>
<path d="M89.5586 6.91492C89.5586 6.53329 89.6527 6.16326 89.8409 5.80613C90.0292 5.449 90.2961 5.17567 90.6403 4.98743C90.9858 4.7992 91.3713 4.70508 91.7968 4.70508C92.4543 4.70508 92.9933 4.9191 93.4136 5.34585C93.8339 5.77261 94.0441 6.31282 94.0441 6.96391C94.0441 7.615 93.8313 8.16682 93.4071 8.59873C92.983 9.03064 92.4492 9.24724 91.8058 9.24724C91.4074 9.24724 91.0271 9.15699 90.6661 8.97778C90.3051 8.79857 90.0292 8.53426 89.8422 8.18615C89.654 7.83805 89.5599 7.41516 89.5599 6.91621L89.5586 6.91492ZM90.737 6.9768C90.737 7.40742 90.8389 7.73748 91.0439 7.96698C91.2489 8.19647 91.5003 8.31122 91.8007 8.31122C92.1011 8.31122 92.3525 8.19647 92.5562 7.96698C92.7599 7.73748 92.8605 7.40485 92.8605 6.96907C92.8605 6.53329 92.7586 6.21612 92.5562 5.98663C92.3538 5.75714 92.1011 5.64239 91.8007 5.64239C91.5003 5.64239 91.2489 5.75714 91.0439 5.98663C90.8389 6.21612 90.737 6.54618 90.737 6.9768Z" fill="white"/>
<path d="M97.2389 4.80435H98.3103V5.44255C98.4496 5.22466 98.6378 5.04674 98.875 4.91007C99.1123 4.77341 99.3753 4.70508 99.6641 4.70508C100.168 4.70508 100.598 4.90234 100.95 5.29815C101.301 5.69396 101.477 6.24449 101.477 6.95102C101.477 7.65755 101.299 8.2403 100.944 8.64256C100.59 9.04482 100.16 9.24595 99.655 9.24595C99.4152 9.24595 99.1973 9.19825 99.0027 9.10284C98.808 9.00743 98.6017 8.84369 98.3864 8.61162V10.8008H97.2363V4.80177L97.2389 4.80435ZM98.3761 6.90331C98.3761 7.39195 98.4728 7.75167 98.6662 7.98503C98.8596 8.21839 99.0955 8.33442 99.374 8.33442C99.6525 8.33442 99.8639 8.22741 100.041 8.01339C100.218 7.79937 100.306 7.44868 100.306 6.96004C100.306 6.50492 100.215 6.16584 100.032 5.94537C99.8484 5.7249 99.6228 5.61403 99.3521 5.61403C99.0813 5.61403 98.8376 5.72233 98.652 5.93893C98.4663 6.15553 98.3735 6.47656 98.3735 6.90202L98.3761 6.90331Z" fill="white"/>
<path d="M104.907 7.76616L106.053 7.95826C105.906 8.37857 105.673 8.69832 105.356 8.91749C105.037 9.13667 104.64 9.24626 104.163 9.24626C103.408 9.24626 102.848 8.99872 102.486 8.50621C102.2 8.1104 102.057 7.61144 102.057 7.00806C102.057 6.28735 102.245 5.72393 102.621 5.31651C102.998 4.9091 103.474 4.7041 104.05 4.7041C104.696 4.7041 105.206 4.91812 105.58 5.34488C105.954 5.77163 106.132 6.4253 106.117 7.30717H103.236C103.244 7.64883 103.337 7.91314 103.515 8.10266C103.693 8.29219 103.913 8.3876 104.178 8.3876C104.358 8.3876 104.509 8.3386 104.631 8.24062C104.754 8.14263 104.847 7.98405 104.91 7.76616H104.907ZM104.972 6.60451C104.964 6.27188 104.878 6.01918 104.714 5.84512C104.55 5.67236 104.352 5.58469 104.117 5.58469C103.866 5.58469 103.659 5.67622 103.495 5.8593C103.332 6.04238 103.252 6.28993 103.254 6.60451H104.973H104.972Z" fill="white"/>
<path d="M107.051 9.14993V3.15088H108.201V9.14993H107.051Z" fill="white"/>
<path d="M110.238 6.12974L109.195 5.9415C109.313 5.5212 109.515 5.21048 109.801 5.00806C110.088 4.80564 110.513 4.70508 111.078 4.70508C111.591 4.70508 111.973 4.76567 112.224 4.88687C112.475 5.00806 112.652 5.16278 112.754 5.34972C112.856 5.53667 112.907 5.87962 112.907 6.37857L112.896 7.72072C112.896 8.10235 112.914 8.3847 112.951 8.56521C112.989 8.74699 113.057 8.94168 113.157 9.14796H112.02C111.991 9.07189 111.953 8.95844 111.909 8.80888C111.89 8.74055 111.877 8.69542 111.868 8.6735C111.672 8.86432 111.462 9.00743 111.238 9.10284C111.015 9.19825 110.775 9.24595 110.522 9.24595C110.075 9.24595 109.721 9.12476 109.465 8.88237C109.207 8.63998 109.078 8.33313 109.078 7.96182C109.078 7.71685 109.137 7.49767 109.255 7.30557C109.372 7.11347 109.536 6.96649 109.747 6.86335C109.959 6.76149 110.263 6.67124 110.661 6.59517C111.199 6.49461 111.572 6.40049 111.778 6.31282V6.19807C111.778 5.9776 111.724 5.81902 111.614 5.7249C111.505 5.63079 111.3 5.58308 110.997 5.58308C110.792 5.58308 110.632 5.62305 110.518 5.70428C110.404 5.78421 110.311 5.92603 110.24 6.12845L110.238 6.12974ZM111.777 7.06318C111.63 7.11218 111.396 7.17149 111.077 7.23853C110.757 7.30686 110.549 7.3739 110.45 7.43966C110.3 7.54667 110.224 7.68075 110.224 7.84449C110.224 8.00823 110.284 8.1449 110.405 8.26222C110.525 8.37955 110.678 8.43757 110.863 8.43757C111.07 8.43757 111.267 8.36923 111.456 8.23257C111.595 8.12943 111.686 8.00179 111.73 7.85223C111.76 7.75424 111.775 7.5673 111.775 7.29139V7.0619L111.777 7.06318Z" fill="white"/>
<path d="M41.8672 13.207H43.0778V16.456C43.0778 16.9718 43.0933 17.3057 43.123 17.4591C43.1745 17.7041 43.2983 17.9013 43.493 18.0509C43.6877 18.2004 43.9546 18.2739 44.2936 18.2739C44.6327 18.2739 44.897 18.2043 45.0711 18.0638C45.2451 17.9232 45.3509 17.7505 45.3857 17.5468C45.4205 17.3418 45.4385 17.0027 45.4385 16.5282V13.2096H46.6492V16.3606C46.6492 17.0813 46.6169 17.5893 46.5512 17.8871C46.4854 18.185 46.3655 18.4351 46.1889 18.6401C46.0123 18.8451 45.7776 19.0075 45.4837 19.1287C45.1897 19.2499 44.8042 19.3105 44.3297 19.3105C43.7573 19.3105 43.3228 19.2448 43.0263 19.112C42.7297 18.9792 42.4964 18.8077 42.3249 18.5963C42.1534 18.3848 42.04 18.1631 41.9858 17.931C41.9072 17.5867 41.8672 17.0801 41.8672 16.4083V13.2083V13.207Z" fill="white"/>
<path d="M51.8709 19.2061H50.7208V16.9885C50.7208 16.5192 50.6963 16.2162 50.6473 16.0783C50.5983 15.9403 50.5184 15.8333 50.4075 15.7572C50.2966 15.6812 50.1638 15.6425 50.0091 15.6425C49.8106 15.6425 49.6314 15.6966 49.4728 15.8062C49.3142 15.9158 49.2059 16.0602 49.1479 16.2407C49.0886 16.4212 49.0602 16.7538 49.0602 17.2386V19.2074H47.9102V14.8612H48.9777V15.4994C49.3567 15.0081 49.8338 14.7632 50.4101 14.7632C50.6641 14.7632 50.8962 14.8083 51.1063 14.8998C51.3165 14.9914 51.4751 15.1074 51.5834 15.2492C51.6917 15.3911 51.7664 15.5522 51.809 15.7327C51.8515 15.9132 51.8722 16.1711 51.8722 16.5063V19.2074L51.8709 19.2061Z" fill="white"/>
<path d="M53.0371 14.2707V13.207H54.1872V14.2707H53.0371ZM53.0371 19.2061V14.8599H54.1872V19.2061H53.0371Z" fill="white"/>
<path d="M56.2229 16.1866L55.1798 15.9984C55.2972 15.5781 55.4996 15.2673 55.7858 15.0649C56.072 14.8625 56.4975 14.7619 57.0622 14.7619C57.5753 14.7619 57.957 14.8225 58.2084 14.9437C58.4598 15.0649 58.6364 15.2196 58.7383 15.4066C58.8401 15.5935 58.8917 15.9365 58.8917 16.4354L58.8801 17.7776C58.8801 18.1592 58.8982 18.4416 58.9355 18.6221C58.9729 18.8039 59.0413 18.9985 59.1418 19.2048H58.0047C57.975 19.1288 57.9376 19.0153 57.8938 18.8657C57.8745 18.7974 57.8616 18.7523 57.8525 18.7304C57.6566 18.9212 57.4464 19.0643 57.2221 19.1597C56.999 19.2551 56.7592 19.3028 56.5065 19.3028C56.0591 19.3028 55.7059 19.1816 55.4493 18.9392C55.1914 18.6968 55.0625 18.39 55.0625 18.0187C55.0625 17.7737 55.1218 17.5545 55.2391 17.3624C55.3565 17.1703 55.5202 17.0233 55.7316 16.9202C55.9431 16.8184 56.2474 16.7281 56.6458 16.652C57.1834 16.5515 57.556 16.4574 57.7623 16.3697V16.2549C57.7623 16.0345 57.7081 15.8759 57.5985 15.7818C57.489 15.6876 57.284 15.6399 56.981 15.6399C56.776 15.6399 56.6161 15.6799 56.5026 15.7611C56.3879 15.8411 56.2951 15.9829 56.2242 16.1853L56.2229 16.1866ZM56.2151 14.2759H55.6917C55.6891 14.2127 55.6878 14.1637 55.6878 14.1289C55.6878 13.8427 55.7574 13.6222 55.8967 13.4675C56.0359 13.3128 56.2138 13.2367 56.433 13.2367C56.5284 13.2367 56.6174 13.247 56.6986 13.2677C56.7798 13.2883 56.9294 13.3463 57.1473 13.4443C57.3639 13.541 57.5341 13.59 57.6566 13.59C57.7442 13.59 57.8164 13.5629 57.8757 13.5087C57.9351 13.4546 57.9724 13.3631 57.9879 13.2341H58.5204C58.5178 13.6029 58.4482 13.8659 58.3141 14.0232C58.1787 14.1818 58.0047 14.2604 57.7919 14.2604C57.6991 14.2604 57.6076 14.2514 57.5173 14.232C57.4541 14.2153 57.2981 14.1598 57.0467 14.0644C56.7953 13.969 56.6135 13.9213 56.4988 13.9213C56.4111 13.9213 56.3428 13.9484 56.2938 14.0013C56.2448 14.0541 56.219 14.1469 56.2164 14.2772L56.2151 14.2759ZM57.7623 17.1188C57.6153 17.1677 57.3819 17.2271 57.0622 17.2941C56.7425 17.3624 56.5349 17.4295 56.4356 17.4952C56.286 17.6022 56.21 17.7363 56.21 17.9001C56.21 18.0638 56.2693 18.2005 56.3905 18.3178C56.5104 18.4351 56.6638 18.4931 56.8482 18.4931C57.0558 18.4931 57.253 18.4248 57.4413 18.2881C57.5805 18.185 57.672 18.0574 57.7159 17.9078C57.7455 17.8098 57.761 17.6229 57.761 17.347V17.1175L57.7623 17.1188Z" fill="white"/>
<path d="M59.7598 16.9718C59.7598 16.5902 59.8539 16.2201 60.0421 15.863C60.2304 15.5059 60.4972 15.2326 60.8415 15.0443C61.187 14.8561 61.5725 14.762 61.998 14.762C62.6555 14.762 63.1944 14.976 63.6148 15.4027C64.0351 15.8295 64.2452 16.3697 64.2452 17.0208C64.2452 17.6719 64.0325 18.2237 63.6083 18.6556C63.1841 19.0875 62.6504 19.3041 62.007 19.3041C61.6086 19.3041 61.2283 19.2139 60.8673 19.0347C60.5063 18.8555 60.2304 18.5911 60.0434 18.243C59.8552 17.8949 59.7611 17.472 59.7611 16.9731L59.7598 16.9718ZM60.9382 17.0337C60.9382 17.4643 61.04 17.7944 61.245 18.0239C61.45 18.2534 61.7014 18.3681 62.0019 18.3681C62.3023 18.3681 62.5537 18.2534 62.7574 18.0239C62.9611 17.7944 63.0617 17.4617 63.0617 17.026C63.0617 16.5902 62.9598 16.273 62.7574 16.0435C62.555 15.814 62.3023 15.6993 62.0019 15.6993C61.7014 15.6993 61.45 15.814 61.245 16.0435C61.04 16.273 60.9382 16.6031 60.9382 17.0337Z" fill="white"/>
<path d="M67.4798 19.2061V13.207H71.9279V14.2217H68.6905V15.5522H71.7022V16.563H68.6905V18.1953H72.0413V19.2061H67.4785H67.4798Z" fill="white"/>
<path d="M75.9232 19.2061V18.555C75.7646 18.7871 75.5571 18.9702 75.2992 19.103C75.0413 19.2371 74.7693 19.3028 74.4831 19.3028C74.1969 19.3028 73.9287 19.2384 73.6979 19.1107C73.4658 18.9831 73.2982 18.8026 73.1951 18.5705C73.0919 18.3384 73.0391 18.0187 73.0391 17.6087V14.8586H74.1891V16.8557C74.1891 17.4669 74.2097 17.8408 74.2523 17.9787C74.2948 18.1167 74.3709 18.2263 74.4831 18.3062C74.5952 18.3861 74.7371 18.4274 74.9085 18.4274C75.1045 18.4274 75.2812 18.3732 75.4359 18.2662C75.5919 18.1592 75.6976 18.0251 75.7543 17.8653C75.8123 17.7054 75.8407 17.3147 75.8407 16.6933V14.8599H76.9908V19.2061H75.9232Z" fill="white"/>
<path d="M79.2829 19.2061H78.1328V14.8599H79.2004V15.4775C79.3834 15.1861 79.5472 14.994 79.6929 14.9012C79.8386 14.8084 80.0049 14.762 80.1905 14.762C80.4523 14.762 80.705 14.8342 80.9473 14.9786L80.5915 15.9816C80.3981 15.8566 80.2176 15.7934 80.0513 15.7934C79.885 15.7934 79.7535 15.8372 79.6426 15.9262C79.5304 16.0152 79.4427 16.175 79.3783 16.4071C79.3138 16.6392 79.2816 17.1252 79.2816 17.864V19.2061H79.2829Z" fill="white"/>
<path d="M81.1777 16.9718C81.1777 16.5902 81.2719 16.2201 81.4601 15.863C81.6483 15.5059 81.9152 15.2326 82.2595 15.0443C82.605 14.8561 82.9905 14.762 83.4159 14.762C84.0735 14.762 84.6124 14.976 85.0327 15.4027C85.453 15.8295 85.6632 16.3697 85.6632 17.0208C85.6632 17.6719 85.4505 18.2237 85.0263 18.6556C84.6021 19.0875 84.0683 19.3041 83.425 19.3041C83.0266 19.3041 82.6462 19.2139 82.2852 19.0347C81.9242 18.8555 81.6483 18.5911 81.4614 18.243C81.2731 17.8949 81.179 17.472 81.179 16.9731L81.1777 16.9718ZM82.3562 17.0337C82.3562 17.4643 82.458 17.7944 82.663 18.0239C82.868 18.2534 83.1194 18.3681 83.4198 18.3681C83.7202 18.3681 83.9716 18.2534 84.1753 18.0239C84.3791 17.7944 84.4796 17.4617 84.4796 17.026C84.4796 16.5902 84.3778 16.273 84.1753 16.0435C83.9729 15.814 83.7202 15.6993 83.4198 15.6993C83.1194 15.6993 82.868 15.814 82.663 16.0435C82.458 16.273 82.3562 16.6031 82.3562 17.0337Z" fill="white"/>
<path d="M86.5299 14.8612H87.6013V15.4994C87.7406 15.2815 87.9288 15.1036 88.166 14.967C88.4033 14.8303 88.6663 14.762 88.9551 14.762C89.4592 14.762 89.8885 14.9592 90.2405 15.355C90.5925 15.7508 90.7678 16.3014 90.7678 17.0079C90.7678 17.7144 90.5899 18.2972 90.2354 18.6994C89.8808 19.1017 89.4515 19.3028 88.9461 19.3028C88.7063 19.3028 88.4884 19.2551 88.2937 19.1597C88.099 19.0643 87.8927 18.9006 87.6774 18.6685V20.8577H86.5273V14.8587L86.5299 14.8612ZM87.6671 16.9602C87.6671 17.4488 87.7638 17.8085 87.9572 18.0419C88.1506 18.2753 88.3865 18.3913 88.665 18.3913C88.9435 18.3913 89.1549 18.2843 89.3316 18.0703C89.5095 17.8563 89.5972 17.5056 89.5972 17.0169C89.5972 16.5618 89.5056 16.2227 89.3225 16.0023C89.1395 15.7818 88.9138 15.6709 88.6431 15.6709C88.3723 15.6709 88.1287 15.7792 87.943 15.9958C87.7573 16.2124 87.6645 16.5334 87.6645 16.9589L87.6671 16.9602Z" fill="white"/>
<path d="M94.1983 17.8226L95.3445 18.0147C95.1975 18.435 94.9641 18.7547 94.647 18.9739C94.3285 19.1931 93.9314 19.3027 93.4544 19.3027C92.6988 19.3027 92.1393 19.0551 91.777 18.5626C91.4908 18.1668 91.3477 17.6678 91.3477 17.0645C91.3477 16.3437 91.5359 15.7803 91.9124 15.3729C92.2888 14.9655 92.7646 14.7605 93.3409 14.7605C93.9868 14.7605 94.4974 14.9745 94.8713 15.4013C95.2452 15.828 95.4231 16.4817 95.4076 17.3636H92.5274C92.5351 17.7052 92.6279 17.9695 92.8058 18.1591C92.9838 18.3486 93.2042 18.444 93.4685 18.444C93.649 18.444 93.7999 18.395 93.9224 18.297C94.0449 18.199 94.1377 18.0404 94.2009 17.8226H94.1983ZM94.2628 16.6609C94.255 16.3283 94.1686 16.0756 94.0049 15.9015C93.8412 15.7288 93.6426 15.6411 93.4079 15.6411C93.1565 15.6411 92.9503 15.7326 92.7865 15.9157C92.6228 16.0988 92.5428 16.3463 92.5454 16.6609H94.264H94.2628Z" fill="white"/>
<path d="M96.3418 14.2707V13.207H97.4919V14.2707H96.3418ZM96.3418 19.2061V14.8599H97.4919V19.2061H96.3418Z" fill="white"/>
<path d="M99.5315 16.1866L98.4884 15.9984C98.6057 15.5781 98.8082 15.2674 99.0944 15.0649C99.3806 14.8625 99.8061 14.762 100.371 14.762C100.884 14.762 101.266 14.8226 101.517 14.9438C101.768 15.0649 101.945 15.2197 102.047 15.4066C102.149 15.5936 102.2 15.9365 102.2 16.4355L102.189 17.7776C102.189 18.1592 102.207 18.4416 102.244 18.6221C102.282 18.8039 102.35 18.9986 102.45 19.2048H101.313C101.284 19.1288 101.246 19.0153 101.202 18.8658C101.183 18.7974 101.17 18.7523 101.161 18.7304C100.965 18.9212 100.755 19.0643 100.531 19.1597C100.308 19.2551 100.068 19.3028 99.8151 19.3028C99.3677 19.3028 99.0145 19.1816 98.7579 18.9393C98.5 18.6969 98.3711 18.39 98.3711 18.0187C98.3711 17.7737 98.4304 17.5546 98.5477 17.3625C98.6651 17.1704 98.8288 17.0234 99.0402 16.9202C99.2517 16.8184 99.556 16.7281 99.9543 16.6521C100.492 16.5515 100.865 16.4574 101.071 16.3697V16.255C101.071 16.0345 101.017 15.8759 100.907 15.7818C100.798 15.6877 100.593 15.64 100.29 15.64C100.085 15.64 99.9247 15.6799 99.8112 15.7612C99.6965 15.8411 99.6037 15.9829 99.5328 16.1853L99.5315 16.1866ZM101.07 17.1188C100.923 17.1678 100.689 17.2271 100.37 17.2941C100.05 17.3625 99.8422 17.4295 99.7429 17.4953C99.5933 17.6023 99.5173 17.7364 99.5173 17.9001C99.5173 18.0638 99.5766 18.2005 99.6978 18.3178C99.8177 18.4351 99.9711 18.4932 100.155 18.4932C100.363 18.4932 100.56 18.4248 100.749 18.2882C100.888 18.185 100.979 18.0574 101.023 17.9078C101.053 17.8098 101.068 17.6229 101.068 17.347V17.1175L101.07 17.1188Z" fill="white"/>
</svg>
