<svg width="66" height="25" viewBox="0 0 66 25" fill="none" xmlns="http://www.w3.org/2000/svg">
<path d="M22.5707 0.0913086C23.1883 0.0913086 23.5252 0.14761 23.8691 0.400534C24.1783 0.624875 24.3957 1.09521 24.3957 1.56554C24.3957 2.03588 24.1783 2.50622 23.8691 2.73056C23.5252 2.98348 23.1744 3.03978 22.5707 3.03978H21.5738V5.28578H21.3633V0.0913086H22.5707ZM21.5738 2.85009H22.5776C23.1606 2.85009 23.462 2.77993 23.7565 2.56252C24.0094 2.37975 24.1844 1.96572 24.1844 1.57247C24.1844 1.17923 24.0086 0.751337 23.7565 0.568573C23.462 0.351162 23.1666 0.281002 22.5776 0.281002H21.5738V2.85009Z" fill="white"/>
<path d="M24.5918 2.68169C24.5918 1.13123 25.7992 0 27.2873 0C28.7754 0 29.9828 1.13036 29.9828 2.68862C29.9828 4.24687 28.7754 5.37724 27.2873 5.37724C25.7992 5.37724 24.5918 4.24687 24.5918 2.68862V2.68169ZM24.8023 2.69641C24.8023 4.12821 25.9118 5.18841 27.2873 5.18841C28.6628 5.18841 29.7724 4.12821 29.7724 2.68948C29.7724 1.25076 28.6637 0.190559 27.2873 0.190559C25.911 0.190559 24.8023 1.25076 24.8023 2.68948V2.69641Z" fill="white"/>
<path d="M30.5742 0.0913086H31.7609C32.5681 0.0913086 32.8912 0.161469 33.1441 0.308719C33.5651 0.519201 33.8951 1.08828 33.8951 1.69201C33.909 2.01509 33.8111 2.4222 33.5651 2.74528C33.1857 3.24333 32.7509 3.30656 32.161 3.32822L33.5582 5.28665H33.2914L31.7678 3.13853H31.915C32.2944 3.13853 32.912 3.13853 33.242 2.80851C33.572 2.46464 33.6846 2.10691 33.6846 1.6998C33.6846 1.25026 33.4672 0.752203 33.0671 0.492349C32.7509 0.288797 32.3724 0.281868 31.7617 0.281868H30.7864V5.28665H30.576V0.0913086H30.5742Z" fill="white"/>
<path d="M35.2254 0.281002H33.8145V0.0913086H36.8469V0.281002H35.4359V5.28578H35.2254V0.281002Z" fill="white"/>
<path d="M37.4605 0.0913086V3.46074C37.4605 3.96659 37.4605 4.28881 37.7836 4.71064C38.0079 5.00514 38.4366 5.1879 38.8507 5.1879C39.2647 5.1879 39.6718 5.00514 39.8961 4.71064C40.2192 4.28968 40.2192 3.96659 40.2192 3.46074V0.0913086H40.4297V3.46074C40.4366 3.93108 40.4158 4.63268 39.8052 5.06144C39.5384 5.25806 39.1945 5.3776 38.8368 5.3776C38.4791 5.3776 38.1421 5.25806 37.8754 5.06144C37.2647 4.63355 37.2439 3.93108 37.2509 3.46074V0.0913086H37.4613H37.4605Z" fill="white"/>
<path d="M45.8774 1.24297C45.6669 0.969254 45.4209 0.744914 45.1472 0.576009C44.747 0.323085 44.2767 0.189693 43.7717 0.189693C42.3962 0.189693 41.2867 1.2499 41.2867 2.68862C41.2867 4.12734 42.3962 5.18754 43.7717 5.18754C44.4317 5.18754 45.0138 4.94848 45.4495 4.59768C45.8921 4.23994 46.1935 3.76268 46.2845 3.27762H43.1888V3.08793H46.5374C46.5097 3.35471 46.4317 3.61456 46.313 3.85276C45.8851 4.73713 44.9159 5.37637 43.7717 5.37637C42.2836 5.37637 41.0762 4.24601 41.0762 2.68775C41.0762 1.1295 42.2836 0 43.7717 0C44.7262 0 45.6599 0.470335 46.1303 1.2421H45.8774V1.24297Z" fill="white"/>
<path d="M46.6618 5.28578H46.4375L48.6627 0.0913086H48.9364L51.1616 5.28578H50.9373L50.1577 3.4746H47.4414L46.6627 5.28578H46.6618ZM48.7952 0.287931L47.5315 3.28491H50.0659L48.7952 0.287931Z" fill="white"/>
<path d="M51.5762 0.0913086H51.7867V5.09609H53.9841V5.28578H51.5762V0.0913086Z" fill="white"/>
<path d="M20.8427 22.4622C22.5672 20.8009 24.2701 19.1196 25.973 17.4583C27.403 16.1131 28.9162 14.8095 29.0002 12.8961C29.0002 10.8571 27.6126 9.57431 25.8041 9.57431C23.9955 9.57431 22.6928 10.9827 22.6296 13.3586H20.9683C21.0107 11.8446 21.4308 10.5626 22.3134 9.61589C23.3433 8.37552 24.8781 8.03857 25.9721 8.03857C28.8521 8.03857 30.7655 10.1408 30.7239 12.8112C30.6607 14.4933 29.8829 15.6705 28.348 17.2686C26.6451 18.9715 24.9422 20.6744 23.2177 22.3773H30.7655V23.8697H20.8418V22.4613L20.8427 22.4622Z" fill="white"/>
<path d="M32.0488 13.421C32.0488 8.92208 35.7915 8.03857 37.3047 8.03857C39.8062 8.03857 42.5823 9.76227 42.5823 13.2945V18.8875C42.5823 22.9871 39.0925 24.1434 37.368 24.1434C35.3914 24.1434 32.0488 22.8823 32.0488 18.8875V13.421ZM33.7942 18.9299C33.7942 21.1161 35.329 22.6094 37.3264 22.6094C38.9453 22.6094 40.8586 21.3483 40.8586 18.9299V13.253C40.8586 11.7181 39.9336 9.57344 37.2848 9.57344C35.2459 9.57344 33.795 11.0875 33.795 13.337V18.9299H33.7942Z" fill="white"/>
<path d="M44.5787 11.9917C44.6835 9.174 46.9546 8.03931 48.7839 8.03931C51.0126 8.03931 52.8203 9.55339 52.8203 11.8661C52.8203 13.4217 51.8952 14.5149 50.6756 15.1463C53.4301 16.0922 53.8086 18.3425 53.8086 19.3092C53.8086 22.1476 51.6215 24.145 48.6999 24.145C47.165 24.145 45.5462 23.4928 44.6003 22.2524C43.949 21.3906 43.6545 20.3183 43.6328 19.3092H45.3781C45.4622 21.3906 47.0602 22.6102 48.7631 22.6102C50.8238 22.6102 52.0641 21.0961 52.0641 19.2676C52.0641 17.6063 50.7189 15.9458 48.4054 15.9458H47.3755V14.6006H48.1533C50.382 14.6006 51.0966 12.9817 51.0966 12.0566C51.0966 10.6482 50.1715 9.57591 48.7631 9.57591C47.1443 9.57591 46.3664 10.7955 46.2824 11.9934H44.5795L44.5787 11.9917Z" fill="white"/>
<path d="M55.2148 13.421C55.2148 8.92208 58.9576 8.03857 60.4708 8.03857C62.9723 8.03857 65.7483 9.76227 65.7483 13.2945V18.8875C65.7483 22.9871 62.2585 24.1434 60.534 24.1434C58.5574 24.1434 55.2148 22.8823 55.2148 18.8875V13.421ZM56.9602 18.9299C56.9602 21.1161 58.495 22.6094 60.4924 22.6094C62.1113 22.6094 64.0246 21.3483 64.0246 18.9299V13.253C64.0246 11.7181 63.0996 9.57344 60.4508 9.57344C58.4119 9.57344 56.961 11.0875 56.961 13.337V18.9299H56.9602Z" fill="white"/>
<path d="M3.11914 22.0276L10.3724 24.3767L13.2109 23.507L13.2048 18.2537L3.11914 22.0276Z" fill="white"/>
<path d="M6.96054 0.0314941L0 7.65906V22.9107L1.85533 18.5201L6.96054 14.8388V0.0314941Z" fill="white"/>
<path d="M9.04547 1.7722V15.9334L3.11914 20.0798L13.2109 16.3292L17.8232 11.7939V0L9.04547 1.7722Z" fill="white"/>
</svg>
