<svg width="79" height="25" viewBox="0 0 79 25" fill="none" xmlns="http://www.w3.org/2000/svg">
<mask id="mask0_6931_91789" style="mask-type:luminance" maskUnits="userSpaceOnUse" x="0" y="0" width="79" height="25">
<path d="M78.6676 0H0V24.3766H78.6676V0Z" fill="white"/>
</mask>
<g mask="url(#mask0_6931_91789)">
<mask id="mask1_6931_91789" style="mask-type:luminance" maskUnits="userSpaceOnUse" x="0" y="0" width="79" height="25">
<path d="M78.6676 0H0V24.3766H78.6676V0Z" fill="white"/>
</mask>
<g mask="url(#mask1_6931_91789)">
<mask id="mask2_6931_91789" style="mask-type:luminance" maskUnits="userSpaceOnUse" x="39" y="5" width="4" height="4">
<path d="M42.2032 5.9668H39.9355V8.85882H42.2032V5.9668Z" fill="white"/>
</mask>
<g mask="url(#mask2_6931_91789)">
<path d="M39.936 5.96723H40.51V7.5074C40.51 7.75163 40.5169 7.91029 40.5311 7.98209C40.556 8.09862 40.6145 8.19192 40.7065 8.26244C40.7989 8.33295 40.9249 8.36778 41.0857 8.36778C41.2465 8.36778 41.3717 8.33467 41.4538 8.26803C41.5372 8.20138 41.5862 8.11969 41.6034 8.02251C41.6198 7.92577 41.6279 7.76496 41.6279 7.53965V5.9668H42.2024V7.46053C42.2024 7.8015 42.1869 8.04272 42.1559 8.18375C42.1246 8.32436 42.0674 8.44346 41.984 8.54106C41.9005 8.63781 41.7892 8.71477 41.6499 8.77239C41.5101 8.83001 41.3278 8.85882 41.1025 8.85882C40.8308 8.85882 40.6257 8.82743 40.4846 8.76465C40.3449 8.70187 40.2339 8.62061 40.1527 8.52042C40.071 8.42024 40.0177 8.31533 39.9919 8.20525C39.954 8.04229 39.9355 7.80193 39.9355 7.48418V5.96723H39.936Z" fill="white"/>
</g>
<mask id="mask3_6931_91789" style="mask-type:luminance" maskUnits="userSpaceOnUse" x="42" y="5" width="4" height="4">
<path d="M45.0716 5.9668H42.8164V8.81023H45.0716V5.9668Z" fill="white"/>
</mask>
<g mask="url(#mask3_6931_91789)">
<path d="M42.8164 8.8098V5.9668H43.3749L44.5389 7.86557V5.9668H45.0721V8.8098H44.4959L43.35 6.95617V8.8098H42.8164Z" fill="white"/>
</g>
<mask id="mask4_6931_91789" style="mask-type:luminance" maskUnits="userSpaceOnUse" x="45" y="5" width="2" height="4">
<path d="M46.2337 5.9668H45.6602V8.81023H46.2337V5.9668Z" fill="white"/>
</mask>
<g mask="url(#mask4_6931_91789)">
<path d="M46.2337 5.96729H45.6602V8.81072H46.2337V5.96729Z" fill="white"/>
</g>
<mask id="mask5_6931_91789" style="mask-type:luminance" maskUnits="userSpaceOnUse" x="46" y="5" width="4" height="4">
<path d="M49.3446 5.31567H46.4922V8.81052H49.3446V5.31567Z" fill="white"/>
</mask>
<g mask="url(#mask5_6931_91789)">
<path d="M49.3455 8.80972H48.7203L48.4727 8.16389H47.3358L47.101 8.80972H46.4922L47.5994 5.96672H48.2061L49.3451 8.80972H49.3455ZM47.4523 5.80977H47.2042C47.2029 5.77968 47.2021 5.75689 47.2021 5.74012C47.2021 5.60425 47.2352 5.49976 47.3014 5.42667C47.3672 5.35357 47.4515 5.31745 47.5551 5.31745C47.6002 5.31745 47.6424 5.32261 47.6806 5.33207C47.7193 5.34153 47.7907 5.36948 47.893 5.41549C47.9958 5.46149 48.0762 5.48471 48.1347 5.48471C48.1755 5.48471 48.2104 5.47181 48.2383 5.44558C48.2663 5.42022 48.2839 5.37679 48.2916 5.31616H48.544C48.5427 5.4903 48.5101 5.61543 48.4456 5.69024C48.3819 5.76549 48.2994 5.8029 48.1988 5.8029C48.1549 5.8029 48.1115 5.79816 48.0689 5.78914C48.0392 5.7814 47.9649 5.75474 47.8462 5.70959C47.7271 5.66401 47.6407 5.64165 47.5865 5.64165C47.5452 5.64165 47.5125 5.65412 47.4893 5.67949C47.4661 5.70443 47.4536 5.74829 47.4523 5.8102M48.2886 7.68533L47.8969 6.6306L47.5125 7.68533H48.2886Z" fill="white"/>
</g>
<mask id="mask6_6931_91789" style="mask-type:luminance" maskUnits="userSpaceOnUse" x="49" y="5" width="4" height="4">
<path d="M52.2906 5.9187H49.5332V8.85888H52.2906V5.9187Z" fill="white"/>
</mask>
<g mask="url(#mask6_6931_91789)">
<path d="M49.5332 7.40685C49.5332 7.11704 49.5766 6.87368 49.6639 6.67718C49.7284 6.53271 49.8161 6.40242 49.9284 6.28719C50.0406 6.17239 50.1627 6.08682 50.296 6.03136C50.4731 5.95611 50.6769 5.9187 50.9091 5.9187C51.3279 5.9187 51.6629 6.04898 51.9144 6.30869C52.1659 6.5684 52.2919 6.92957 52.2919 7.39266C52.2919 7.85574 52.1668 8.21047 51.9174 8.47018C51.6676 8.72903 51.3339 8.85845 50.9164 8.85845C50.4989 8.85845 50.158 8.72988 49.9077 8.4719C49.6583 8.21348 49.5332 7.85875 49.5332 7.40642M50.1249 7.3875C50.1249 7.70912 50.1997 7.95335 50.3484 8.11932C50.4968 8.28572 50.6855 8.36871 50.9147 8.36871C51.1439 8.36871 51.3309 8.28572 51.478 8.12104C51.6246 7.95636 51.6981 7.70912 51.6981 7.37933C51.6981 7.04954 51.6268 6.81004 51.484 6.65009C51.3408 6.48971 51.1516 6.40973 50.9147 6.40973C50.6778 6.40973 50.4873 6.491 50.3429 6.6531C50.1984 6.8152 50.1253 7.05986 50.1253 7.38707" fill="white"/>
</g>
<mask id="mask7_6931_91789" style="mask-type:luminance" maskUnits="userSpaceOnUse" x="53" y="5" width="4" height="4">
<path d="M56.005 5.9668H53.8418V8.81023H56.005V5.9668Z" fill="white"/>
</mask>
<g mask="url(#mask7_6931_91789)">
<path d="M53.8438 8.8098V5.9668H55.9515V6.44794H54.4178V7.07829H55.8449V7.55728H54.4178V8.33124H56.0061V8.8098H53.8438Z" fill="white"/>
</g>
<mask id="mask8_6931_91789" style="mask-type:luminance" maskUnits="userSpaceOnUse" x="56" y="5" width="3" height="4">
<path d="M58.7536 5.9668H56.4863V8.85882H58.7536V5.9668Z" fill="white"/>
</mask>
<g mask="url(#mask8_6931_91789)">
<path d="M56.4868 5.96723H57.0608V7.5074C57.0608 7.75163 57.0677 7.91029 57.0818 7.98209C57.1068 8.09862 57.1653 8.19192 57.2577 8.26244C57.3506 8.33295 57.4761 8.36778 57.6374 8.36778C57.7986 8.36778 57.9229 8.33467 58.005 8.26803C58.0884 8.20138 58.1379 8.11969 58.1546 8.02251C58.171 7.92577 58.1796 7.76496 58.1796 7.53965V5.9668H58.7536V7.46053C58.7536 7.8015 58.7381 8.04272 58.7072 8.18375C58.6758 8.32436 58.6186 8.44346 58.5356 8.54106C58.4522 8.63781 58.3404 8.71477 58.2011 8.77239C58.0613 8.83001 57.879 8.85882 57.6537 8.85882C57.382 8.85882 57.1769 8.82743 57.0363 8.76465C56.8961 8.70187 56.7852 8.62061 56.7039 8.52042C56.6222 8.42024 56.5689 8.31533 56.5427 8.20525C56.5052 8.04229 56.4863 7.80193 56.4863 7.48418V5.96723H56.4868Z" fill="white"/>
</g>
<mask id="mask9_6931_91789" style="mask-type:luminance" maskUnits="userSpaceOnUse" x="59" y="5" width="3" height="4">
<path d="M61.9191 5.9668H59.3633V8.81023H61.9191V5.9668Z" fill="white"/>
</mask>
<g mask="url(#mask9_6931_91789)">
<path d="M59.3613 8.80986V5.96729H60.5696C60.8736 5.96729 61.0941 5.99265 61.2322 6.04382C61.3697 6.09499 61.4798 6.18571 61.5628 6.31643C61.6454 6.44671 61.6871 6.59591 61.6871 6.76446C61.6871 6.97773 61.6239 7.15359 61.4987 7.2929C61.3732 7.43178 61.1857 7.51907 60.9359 7.55519C61.0602 7.62785 61.1625 7.7074 61.2438 7.79382C61.3246 7.88068 61.4334 8.03461 61.5701 8.25562L61.9175 8.80986H61.2313L60.8164 8.19155C60.6685 7.97097 60.5683 7.83123 60.5141 7.77361C60.4599 7.716 60.4019 7.67687 60.3412 7.65537C60.2806 7.63387 60.1843 7.62312 60.0523 7.62312H59.9358V8.80986H59.3618H59.3613ZM59.9354 7.1695H60.3602C60.6354 7.1695 60.8073 7.15789 60.8757 7.13467C60.9445 7.11145 60.9978 7.07146 61.0369 7.01428C61.0756 6.95752 61.095 6.88657 61.095 6.80101C61.095 6.70555 61.0696 6.62816 61.0185 6.56925C60.9673 6.51034 60.8951 6.47294 60.8022 6.45746C60.7557 6.45144 60.616 6.44843 60.383 6.44843H59.9354V7.1695Z" fill="white"/>
</g>
<mask id="mask10_6931_91789" style="mask-type:luminance" maskUnits="userSpaceOnUse" x="62" y="5" width="3" height="4">
<path d="M64.8696 5.9187H62.1113V8.85888H64.8696V5.9187Z" fill="white"/>
</mask>
<g mask="url(#mask10_6931_91789)">
<path d="M62.1107 7.40636C62.1107 7.11656 62.1541 6.87319 62.2414 6.67669C62.3054 6.53222 62.394 6.40194 62.5054 6.2867C62.6176 6.1719 62.7402 6.08633 62.873 6.03087C63.0497 5.95562 63.254 5.91821 63.4857 5.91821C63.9045 5.91821 64.2395 6.0485 64.491 6.3082C64.7421 6.56791 64.8681 6.92909 64.8681 7.39217C64.8681 7.85526 64.7434 8.20999 64.494 8.46969C64.2446 8.72854 63.9105 8.85796 63.493 8.85796C63.0755 8.85796 62.7341 8.7294 62.4839 8.47141C62.2349 8.213 62.1094 7.85827 62.1094 7.40593M62.7027 7.38701C62.7027 7.70863 62.7771 7.95286 62.9259 8.11883C63.0742 8.28523 63.263 8.36822 63.4922 8.36822C63.7214 8.36822 63.9088 8.28523 64.0554 8.12055C64.2021 7.95587 64.2756 7.70863 64.2756 7.37884C64.2756 7.04905 64.2038 6.80955 64.0615 6.6496C63.9183 6.48922 63.7291 6.40925 63.4922 6.40925C63.2553 6.40925 63.0648 6.49051 62.9203 6.65261C62.7754 6.81471 62.7027 7.05937 62.7027 7.38658" fill="white"/>
</g>
<mask id="mask11_6931_91789" style="mask-type:luminance" maskUnits="userSpaceOnUse" x="65" y="5" width="3" height="4">
<path d="M67.4947 5.9668H65.3164V8.81023H67.4947V5.9668Z" fill="white"/>
</mask>
<g mask="url(#mask11_6931_91789)">
<path d="M65.3164 8.81023V5.9668H66.2378C66.587 5.9668 66.8149 5.98142 66.9206 6.00979C67.0832 6.05236 67.2199 6.14524 67.3296 6.28756C67.4396 6.43074 67.4942 6.6152 67.4942 6.84137C67.4942 7.01594 67.4633 7.16299 67.3992 7.28166C67.336 7.40034 67.2552 7.49407 67.158 7.56201C67.06 7.62994 66.9611 7.67509 66.8605 7.69702C66.7233 7.72411 66.5246 7.73787 66.2649 7.73787H65.8909V8.81023H65.3164ZM65.8904 6.44837V7.25544H66.2043C66.4305 7.25544 66.5818 7.24082 66.6579 7.21072C66.734 7.18105 66.7942 7.13461 66.8372 7.07097C66.8802 7.00734 66.9026 6.93381 66.9026 6.84997C66.9026 6.74634 66.8721 6.66078 66.811 6.5937C66.7504 6.5262 66.6734 6.48449 66.5805 6.46729C66.5122 6.45439 66.3741 6.44794 66.1678 6.44794H65.8904V6.44837Z" fill="white"/>
</g>
<mask id="mask12_6931_91789" style="mask-type:luminance" maskUnits="userSpaceOnUse" x="67" y="5" width="4" height="4">
<path d="M70.1315 5.9668H67.9688V8.81023H70.1315V5.9668Z" fill="white"/>
</mask>
<g mask="url(#mask12_6931_91789)">
<path d="M67.9688 8.8098V5.9668H70.0769V6.44794H68.5428V7.07829H69.9699V7.55728H68.5428V8.33124H70.1307V8.8098H67.9688Z" fill="white"/>
</g>
<mask id="mask13_6931_91789" style="mask-type:luminance" maskUnits="userSpaceOnUse" x="70" y="5" width="2" height="4">
<path d="M71.1697 5.9668H70.5957V8.81023H71.1697V5.9668Z" fill="white"/>
</mask>
<g mask="url(#mask13_6931_91789)">
<path d="M71.1697 5.96729H70.5957V8.81072H71.1697V5.96729Z" fill="white"/>
</g>
<mask id="mask14_6931_91789" style="mask-type:luminance" maskUnits="userSpaceOnUse" x="71" y="5" width="4" height="4">
<path d="M74.2826 5.9668H71.4297V8.81023H74.2826V5.9668Z" fill="white"/>
</mask>
<g mask="url(#mask14_6931_91789)">
<path d="M74.2826 8.8098H73.6578L73.4102 8.16397H72.2733L72.039 8.8098H71.4297L72.5369 5.9668H73.1444L74.2826 8.8098ZM73.2257 7.68541L72.8344 6.63068L72.4505 7.68541H73.2257Z" fill="white"/>
</g>
<mask id="mask15_6931_91789" style="mask-type:luminance" maskUnits="userSpaceOnUse" x="39" y="15" width="3" height="4">
<path d="M41.8943 15.3782H39.9766V18.2216H41.8943V15.3782Z" fill="white"/>
</mask>
<g mask="url(#mask15_6931_91789)">
<path d="M39.9766 18.2216V15.3782H41.8943V15.714H40.3524V16.5941H41.6866V16.93H40.3524V18.2216H39.9766Z" fill="white"/>
</g>
<mask id="mask16_6931_91789" style="mask-type:luminance" maskUnits="userSpaceOnUse" x="42" y="16" width="3" height="3">
<path d="M44.0016 16.1602H42.332V18.2662H44.0016V16.1602Z" fill="white"/>
</mask>
<g mask="url(#mask16_6931_91789)">
<path d="M43.6914 18.2198V17.9171C43.5315 18.1497 43.3135 18.2662 43.0379 18.2662C42.917 18.2662 42.8031 18.2426 42.6977 18.1966C42.592 18.1501 42.5141 18.0917 42.4634 18.0212C42.4122 17.9506 42.3761 17.8642 42.3559 17.7623C42.3413 17.6939 42.334 17.5852 42.334 17.436V16.1606H42.6831V17.3031C42.6831 17.4854 42.69 17.6079 42.7046 17.6712C42.7266 17.7632 42.7734 17.8354 42.8439 17.8874C42.9157 17.9399 43.0035 17.9661 43.1079 17.9661C43.2124 17.9661 43.3109 17.9395 43.4025 17.8857C43.4945 17.8324 43.559 17.7589 43.5973 17.6669C43.6355 17.5744 43.6544 17.4403 43.6544 17.2644V16.1611H44.0032V18.2207H43.691L43.6914 18.2198Z" fill="white"/>
</g>
<mask id="mask17_6931_91789" style="mask-type:luminance" maskUnits="userSpaceOnUse" x="44" y="16" width="3" height="3">
<path d="M46.2227 16.1145H44.5488V18.2205H46.2227V16.1145Z" fill="white"/>
</mask>
<g mask="url(#mask17_6931_91789)">
<path d="M44.5488 18.2205V16.1609H44.8636V16.4533C45.0149 16.2272 45.2333 16.1145 45.5189 16.1145C45.6427 16.1145 45.7571 16.1364 45.8611 16.1811C45.9652 16.2259 46.043 16.2843 46.0946 16.3566C46.1466 16.4288 46.1827 16.5152 46.2034 16.6146C46.2163 16.6791 46.2227 16.7921 46.2227 16.9538V18.2205H45.8736V16.9671C45.8736 16.8253 45.8603 16.7186 45.8332 16.6481C45.8065 16.5776 45.7579 16.5217 45.6883 16.4796C45.6195 16.4374 45.5382 16.4163 45.4449 16.4163C45.2961 16.4163 45.168 16.4636 45.0601 16.5578C44.9517 16.6524 44.898 16.8317 44.898 17.0953V18.2201H44.5488V18.2205Z" fill="white"/>
</g>
<mask id="mask18_6931_91789" style="mask-type:luminance" maskUnits="userSpaceOnUse" x="46" y="15" width="3" height="4">
<path d="M48.4185 15.3782H46.6328V18.268H48.4185V15.3782Z" fill="white"/>
</mask>
<g mask="url(#mask18_6931_91789)">
<path d="M48.0952 18.2216V17.9615C47.964 18.1657 47.7722 18.268 47.519 18.268C47.3547 18.268 47.2038 18.2225 47.0662 18.1322C46.9282 18.0414 46.8216 17.915 46.7459 17.7529C46.6702 17.5908 46.6328 17.4042 46.6328 17.1935C46.6328 16.9828 46.6668 16.8018 46.7351 16.6337C46.8039 16.4664 46.9067 16.3383 47.0434 16.2489C47.1806 16.1599 47.3337 16.1152 47.5031 16.1152C47.6269 16.1152 47.7378 16.1414 47.8346 16.1934C47.9318 16.2459 48.0105 16.3142 48.0715 16.3981V15.3782H48.4185V18.2216H48.0947H48.0952ZM46.9914 17.1935C46.9914 17.4571 47.0469 17.654 47.1582 17.7852C47.2696 17.9159 47.4007 17.9812 47.5521 17.9812C47.7035 17.9812 47.8342 17.9189 47.9408 17.7938C48.0479 17.6691 48.1008 17.479 48.1008 17.2232C48.1008 16.9411 48.0466 16.7339 47.9382 16.6023C47.8294 16.4703 47.6957 16.4045 47.5366 16.4045C47.3775 16.4045 47.252 16.4682 47.1479 16.595C47.0439 16.7218 46.9914 16.9214 46.9914 17.1944" fill="white"/>
</g>
<mask id="mask19_6931_91789" style="mask-type:luminance" maskUnits="userSpaceOnUse" x="48" y="16" width="3" height="3">
<path d="M50.7676 16.1145H48.8379V18.2674H50.7676V16.1145Z" fill="white"/>
</mask>
<g mask="url(#mask19_6931_91789)">
<path d="M48.8379 17.1907C48.8379 16.8093 48.9437 16.5268 49.1561 16.3432C49.3332 16.1906 49.5491 16.1145 49.8036 16.1145C50.0865 16.1145 50.3179 16.2074 50.4976 16.3927C50.6778 16.578 50.7676 16.8347 50.7676 17.1615C50.7676 17.4268 50.7272 17.6353 50.6477 17.7875C50.5685 17.9398 50.4529 18.0576 50.3011 18.1414C50.1489 18.2257 49.9829 18.2674 49.8036 18.2674C49.5155 18.2674 49.2821 18.1749 49.1045 17.9896C48.9269 17.8047 48.8379 17.5386 48.8379 17.1907ZM49.1969 17.1907C49.1969 17.4543 49.2541 17.6521 49.3693 17.7828C49.4846 17.914 49.629 17.9797 49.804 17.9797C49.979 17.9797 50.1214 17.914 50.2366 17.7819C50.3514 17.6499 50.409 17.4487 50.409 17.1787C50.409 16.9241 50.3514 16.7315 50.2357 16.5999C50.1201 16.4688 49.976 16.403 49.8045 16.403C49.6329 16.403 49.485 16.4684 49.3698 16.5991C49.255 16.7294 49.1973 16.9272 49.1973 17.1907" fill="white"/>
</g>
<mask id="mask20_6931_91789" style="mask-type:luminance" maskUnits="userSpaceOnUse" x="52" y="15" width="3" height="4">
<path d="M54.4583 15.3289H52.1953V18.269H54.4583V15.3289Z" fill="white"/>
</mask>
<g mask="url(#mask20_6931_91789)">
<path d="M52.1953 17.3068L52.55 17.2758C52.5668 17.4177 52.6064 17.5347 52.6679 17.6258C52.7289 17.717 52.8244 17.7905 52.9538 17.8469C53.0828 17.9032 53.2277 17.9311 53.3902 17.9311C53.5338 17.9311 53.6602 17.9101 53.7699 17.8675C53.88 17.8249 53.9625 17.7656 54.0154 17.6921C54.0691 17.6177 54.0962 17.5364 54.0962 17.4483C54.0962 17.3601 54.07 17.281 54.0184 17.2148C53.9664 17.1481 53.8817 17.0927 53.7626 17.0471C53.6865 17.0174 53.5175 16.9714 53.2561 16.9082C52.9951 16.8459 52.8123 16.7865 52.7074 16.7311C52.5715 16.6597 52.4709 16.5715 52.4043 16.4662C52.3376 16.3609 52.3041 16.243 52.3041 16.1128C52.3041 15.9692 52.3445 15.835 52.4266 15.7103C52.5079 15.5856 52.6266 15.491 52.7835 15.4261C52.9396 15.3616 53.1137 15.3293 53.3051 15.3293C53.5158 15.3293 53.7019 15.3633 53.8623 15.4313C54.024 15.4992 54.1474 15.5994 54.2343 15.7309C54.3207 15.8629 54.3676 16.0121 54.3736 16.179L54.0133 16.2061C53.9935 16.0263 53.9281 15.8909 53.8163 15.7989C53.7041 15.7069 53.5398 15.6609 53.321 15.6609C53.1021 15.6609 52.9271 15.7026 52.8231 15.786C52.7195 15.8694 52.6674 15.9696 52.6674 16.0874C52.6674 16.1893 52.704 16.2731 52.7775 16.3398C52.8502 16.4056 53.0394 16.4731 53.3451 16.5423C53.6504 16.6111 53.8606 16.6722 53.9746 16.7233C54.1397 16.7994 54.2622 16.8962 54.3409 17.0131C54.42 17.1297 54.4596 17.2651 54.4596 17.4173C54.4596 17.5695 54.4157 17.711 54.3297 17.8451C54.2429 17.9789 54.1182 18.0829 53.9561 18.1569C53.794 18.2313 53.6117 18.2687 53.4078 18.2687C53.1507 18.2687 52.9349 18.2308 52.7616 18.156C52.5879 18.0808 52.4511 17.9681 52.3523 17.8176C52.2534 17.6671 52.2013 17.4964 52.1962 17.3064" fill="white"/>
</g>
<mask id="mask21_6931_91789" style="mask-type:luminance" maskUnits="userSpaceOnUse" x="54" y="16" width="3" height="3">
<path d="M56.729 16.1145H54.7988V18.2674H56.729V16.1145Z" fill="white"/>
</mask>
<g mask="url(#mask21_6931_91789)">
<path d="M54.7988 17.1907C54.7988 16.8093 54.9046 16.5268 55.117 16.3432C55.2937 16.1906 55.51 16.1145 55.765 16.1145C56.0479 16.1145 56.2792 16.2074 56.459 16.3927C56.6387 16.578 56.729 16.8347 56.729 17.1615C56.729 17.4268 56.6886 17.6353 56.6095 17.7875C56.5299 17.9398 56.4142 18.0576 56.262 18.1414C56.1098 18.2257 55.9443 18.2674 55.765 18.2674C55.4765 18.2674 55.243 18.1749 55.0654 17.9896C54.8878 17.8047 54.7988 17.5386 54.7988 17.1907ZM55.1574 17.1907C55.1574 17.4543 55.2146 17.6521 55.3303 17.7828C55.4451 17.914 55.5896 17.9797 55.765 17.9797C55.9404 17.9797 56.0823 17.914 56.1971 17.7819C56.3119 17.6499 56.3695 17.4487 56.3695 17.1787C56.3695 16.9241 56.3115 16.7315 56.1958 16.5999C56.0806 16.4688 55.9361 16.403 55.765 16.403C55.5939 16.403 55.4455 16.4684 55.3303 16.5991C55.215 16.7294 55.1574 16.9272 55.1574 17.1907Z" fill="white"/>
</g>
<mask id="mask22_6931_91789" style="mask-type:luminance" maskUnits="userSpaceOnUse" x="57" y="16" width="2" height="3">
<path d="M58.8247 16.1145H57.0312V18.2674H58.8247V16.1145Z" fill="white"/>
</mask>
<g mask="url(#mask22_6931_91789)">
<path d="M58.482 17.4663L58.8255 17.5101C58.7881 17.7475 58.6922 17.9324 58.5375 18.0661C58.3831 18.2003 58.193 18.2673 57.9682 18.2673C57.6865 18.2673 57.4599 18.1753 57.2884 17.9909C57.1177 17.8064 57.0312 17.5424 57.0312 17.1984C57.0312 16.9757 57.0682 16.7813 57.1422 16.6145C57.2157 16.4477 57.3279 16.3226 57.4784 16.2391C57.6289 16.1557 57.7932 16.114 57.9699 16.114C58.1935 16.114 58.3766 16.1703 58.519 16.2834C58.6609 16.3969 58.7524 16.5573 58.792 16.7654L58.4532 16.8175C58.4209 16.6794 58.3633 16.5749 58.2812 16.5053C58.1995 16.4356 58.1002 16.4008 57.9836 16.4008C57.8078 16.4008 57.665 16.464 57.5554 16.5896C57.4453 16.716 57.3907 16.9155 57.3907 17.1881C57.3907 17.4607 57.4436 17.6662 57.5494 17.7913C57.6551 17.9169 57.794 17.9797 57.9643 17.9797C58.1015 17.9797 58.2158 17.9375 58.3079 17.8533C58.3994 17.7694 58.4579 17.64 58.482 17.4659" fill="white"/>
</g>
<mask id="mask23_6931_91789" style="mask-type:luminance" maskUnits="userSpaceOnUse" x="59" y="15" width="1" height="4">
<path d="M59.4737 15.3782H59.125V18.2216H59.4737V15.3782Z" fill="white"/>
</mask>
<g mask="url(#mask23_6931_91789)">
<path d="M59.125 15.3782H59.4737V15.7798H59.125V15.3782ZM59.125 16.1616H59.4737V18.2212H59.125V16.1616Z" fill="white"/>
</g>
<mask id="mask24_6931_91789" style="mask-type:luminance" maskUnits="userSpaceOnUse" x="59" y="16" width="3" height="3">
<path d="M61.7833 16.1145H59.8867V18.2674H61.7833V16.1145Z" fill="white"/>
</mask>
<g mask="url(#mask24_6931_91789)">
<path d="M61.3495 17.9664C61.2205 18.0764 61.0958 18.1538 60.9763 18.199C60.8563 18.2441 60.7282 18.2669 60.591 18.2669C60.3644 18.2669 60.1907 18.2114 60.0695 18.1009C59.9473 17.9904 59.8867 17.8494 59.8867 17.677C59.8867 17.5759 59.9099 17.4839 59.9559 17.4005C60.002 17.3175 60.0622 17.2504 60.1361 17.2001C60.2105 17.1498 60.2939 17.1111 60.3872 17.0858C60.456 17.0677 60.5592 17.0505 60.6977 17.0333C60.9797 16.9998 61.187 16.9598 61.3207 16.9129C61.322 16.8648 61.3224 16.8347 61.3224 16.8222C61.3224 16.6794 61.2893 16.5792 61.2231 16.5212C61.1341 16.4425 61.0012 16.403 60.8258 16.403C60.6615 16.403 60.5407 16.4318 60.4625 16.4894C60.3838 16.5466 60.3266 16.6485 60.2887 16.7947L59.9473 16.7482C59.9787 16.602 60.0295 16.4838 60.1008 16.3944C60.1718 16.3041 60.2746 16.2353 60.4091 16.1867C60.5433 16.1381 60.6994 16.114 60.8765 16.114C61.0537 16.114 61.1951 16.1347 61.3052 16.1764C61.4157 16.2176 61.4961 16.2697 61.5477 16.3324C61.5993 16.3952 61.6359 16.4743 61.6565 16.5698C61.6681 16.6296 61.6737 16.7366 61.6737 16.8918V17.3575C61.6737 17.6817 61.6814 17.8872 61.6961 17.9732C61.7111 18.0597 61.7403 18.1418 61.7842 18.2209H61.4192C61.3835 18.1487 61.3598 18.0635 61.3495 17.9668M61.3207 17.1864C61.1938 17.238 61.0038 17.2823 60.7505 17.3184C60.6069 17.339 60.5055 17.3622 60.4457 17.3885C60.3868 17.4143 60.3408 17.4521 60.3081 17.502C60.2758 17.5514 60.2599 17.6073 60.2599 17.6679C60.2599 17.7608 60.2952 17.8382 60.3657 17.9001C60.4367 17.9629 60.5394 17.9934 60.6753 17.9934C60.8112 17.9934 60.929 17.9638 61.0339 17.9049C61.1384 17.8464 61.2153 17.7656 61.2648 17.6636C61.3022 17.5845 61.3211 17.468 61.3211 17.3145V17.1864H61.3207Z" fill="white"/>
</g>
<mask id="mask25_6931_91789" style="mask-type:luminance" maskUnits="userSpaceOnUse" x="62" y="15" width="1" height="4">
<path d="M62.5557 15.3782H62.207V18.2216H62.5557V15.3782Z" fill="white"/>
</mask>
<g mask="url(#mask25_6931_91789)">
<path d="M62.5562 15.3782H62.207V18.2216H62.5562V15.3782Z" fill="white"/>
</g>
<mask id="mask26_6931_91789" style="mask-type:luminance" maskUnits="userSpaceOnUse" x="64" y="15" width="3" height="4">
<path d="M66.3758 15.3782H64.2539V18.2216H66.3758V15.3782Z" fill="white"/>
</mask>
<g mask="url(#mask26_6931_91789)">
<path d="M64.2539 18.2216V15.3782H66.3092V15.714H64.6297V16.5843H66.203V16.9183H64.6297V17.8858H66.3754V18.2216H64.2539Z" fill="white"/>
</g>
<mask id="mask27_6931_91789" style="mask-type:luminance" maskUnits="userSpaceOnUse" x="66" y="16" width="3" height="3">
<path d="M68.5114 16.1602H66.8418V18.2662H68.5114V16.1602Z" fill="white"/>
</mask>
<g mask="url(#mask27_6931_91789)">
<path d="M68.1981 18.2198V17.9171C68.0378 18.1497 67.8202 18.2662 67.5441 18.2662C67.4229 18.2662 67.3094 18.2426 67.204 18.1966C67.0983 18.1501 67.0204 18.0917 66.9693 18.0212C66.9181 17.9506 66.882 17.8642 66.8618 17.7623C66.8472 17.6939 66.8398 17.5852 66.8398 17.436V16.1606H67.189V17.3031C67.189 17.4854 67.1963 17.6079 67.2105 17.6712C67.2324 17.7632 67.2793 17.8354 67.3498 17.8874C67.4216 17.9399 67.5093 17.9661 67.6138 17.9661C67.7183 17.9661 67.8163 17.9395 67.9088 17.8857C68.0003 17.8324 68.0653 17.7589 68.1035 17.6669C68.1418 17.5744 68.1607 17.4403 68.1607 17.2644V16.1611H68.5094V18.2207H68.1977L68.1981 18.2198Z" fill="white"/>
</g>
<mask id="mask28_6931_91789" style="mask-type:luminance" maskUnits="userSpaceOnUse" x="69" y="16" width="2" height="3">
<path d="M70.1735 16.1145H69.0547V18.2205H70.1735V16.1145Z" fill="white"/>
</mask>
<g mask="url(#mask28_6931_91789)">
<path d="M69.0547 18.2205V16.1609H69.369V16.4726C69.449 16.3269 69.5229 16.2305 69.5909 16.1837C69.6588 16.1372 69.7336 16.114 69.8153 16.114C69.9331 16.114 70.0522 16.1514 70.1743 16.2262L70.054 16.5504C69.9684 16.4997 69.8833 16.4743 69.7977 16.4743C69.7216 16.4743 69.6524 16.4971 69.5917 16.5431C69.5311 16.5887 69.4881 16.6528 69.4623 16.734C69.424 16.8583 69.4043 16.9937 69.4043 17.1417V18.22H69.0551L69.0547 18.2205Z" fill="white"/>
</g>
<mask id="mask29_6931_91789" style="mask-type:luminance" maskUnits="userSpaceOnUse" x="70" y="16" width="3" height="3">
<path d="M72.1797 16.1145H70.25V18.2674H72.1797V16.1145Z" fill="white"/>
</mask>
<g mask="url(#mask29_6931_91789)">
<path d="M70.25 17.1907C70.25 16.8093 70.3558 16.5268 70.5682 16.3432C70.7453 16.1906 70.9616 16.1145 71.2162 16.1145C71.4991 16.1145 71.7304 16.2074 71.9101 16.3927C72.0899 16.578 72.1797 16.8347 72.1797 17.1615C72.1797 17.4268 72.1393 17.6353 72.0606 17.7875C71.9811 17.9398 71.8654 18.0576 71.7136 18.1414C71.5614 18.2257 71.3955 18.2674 71.2166 18.2674C70.9281 18.2674 70.6946 18.1749 70.517 17.9896C70.339 17.8047 70.25 17.5386 70.25 17.1907ZM70.609 17.1907C70.609 17.4543 70.6662 17.6521 70.7819 17.7828C70.8967 17.914 71.0416 17.9797 71.2166 17.9797C71.3916 17.9797 71.5339 17.914 71.6487 17.7819C71.7631 17.6499 71.8211 17.4487 71.8211 17.1787C71.8211 16.9241 71.7631 16.7315 71.6474 16.5999C71.5318 16.4688 71.3877 16.403 71.2166 16.403C71.0455 16.403 70.8971 16.4684 70.7819 16.5991C70.6658 16.7294 70.609 16.9272 70.609 17.1907Z" fill="white"/>
</g>
<mask id="mask30_6931_91789" style="mask-type:luminance" maskUnits="userSpaceOnUse" x="72" y="16" width="3" height="4">
<path d="M74.3781 16.1145H72.5898V19.01H74.3781V16.1145Z" fill="white"/>
</mask>
<g mask="url(#mask30_6931_91789)">
<path d="M72.5898 19.0095V16.1609H72.908V16.4284C72.9828 16.3243 73.0675 16.2448 73.1617 16.1928C73.2567 16.1403 73.3707 16.1145 73.5053 16.1145C73.6816 16.1145 73.8363 16.1596 73.9709 16.2504C74.1051 16.3407 74.2074 16.4684 74.2754 16.6331C74.3441 16.7977 74.3781 16.9788 74.3781 17.1753C74.3781 17.3859 74.3403 17.576 74.265 17.7445C74.1889 17.9131 74.0793 18.0425 73.9348 18.1324C73.7908 18.2218 73.6394 18.267 73.4803 18.267C73.3638 18.267 73.2597 18.242 73.1673 18.1934C73.074 18.1444 72.9983 18.0821 72.939 18.0068V19.01H72.5898V19.0095ZM72.9059 17.2023C72.9059 17.4676 72.9601 17.6633 73.0671 17.7901C73.1742 17.9165 73.304 17.9802 73.4567 17.9802C73.6093 17.9802 73.7443 17.9144 73.8557 17.7832C73.9662 17.6521 74.0217 17.4483 74.0217 17.1731C74.0217 16.8979 73.9679 16.7143 73.86 16.5836C73.7516 16.4533 73.6231 16.388 73.4726 16.388C73.3221 16.388 73.1927 16.4568 73.0783 16.5965C72.9639 16.7354 72.9063 16.9375 72.9063 17.2023" fill="white"/>
</g>
<mask id="mask31_6931_91789" style="mask-type:luminance" maskUnits="userSpaceOnUse" x="74" y="16" width="3" height="3">
<path d="M76.5804 16.1145H74.6816V18.2674H76.5804V16.1145Z" fill="white"/>
</mask>
<g mask="url(#mask31_6931_91789)">
<path d="M76.2065 17.5566L76.5673 17.6014C76.5105 17.812 76.4052 17.9754 76.2513 18.092C76.0973 18.2085 75.9008 18.267 75.6613 18.267C75.3603 18.267 75.1213 18.1737 74.945 17.9883C74.7687 17.803 74.6797 17.5429 74.6797 17.2075C74.6797 16.8721 74.7696 16.5922 74.948 16.4013C75.1264 16.21 75.3578 16.1145 75.642 16.1145C75.9262 16.1145 76.1425 16.2082 76.317 16.3953C76.4916 16.5827 76.5789 16.8468 76.5789 17.1869C76.5789 17.2075 76.578 17.2385 76.5767 17.2802H75.0409C75.0538 17.5063 75.1178 17.6796 75.2326 17.8C75.3479 17.9204 75.4906 17.9806 75.6635 17.9806C75.7912 17.9806 75.9008 17.9466 75.9911 17.8796C76.0814 17.812 76.1532 17.705 76.2061 17.5575M75.0606 16.9925H76.2108C76.1954 16.8188 76.1515 16.6898 76.0788 16.6025C75.9675 16.4684 75.8234 16.4009 75.6463 16.4009C75.4859 16.4009 75.3517 16.4542 75.2421 16.5617C75.1325 16.6692 75.0723 16.8128 75.0606 16.9925Z" fill="white"/>
</g>
<mask id="mask32_6931_91789" style="mask-type:luminance" maskUnits="userSpaceOnUse" x="76" y="16" width="3" height="3">
<path d="M78.6681 16.1602H76.998V18.2662H78.6681V16.1602Z" fill="white"/>
</mask>
<g mask="url(#mask32_6931_91789)">
<path d="M78.3555 18.2198V17.9171C78.1951 18.1497 77.9775 18.2662 77.7015 18.2662C77.5811 18.2662 77.4671 18.2426 77.3618 18.1966C77.256 18.1501 77.1782 18.0917 77.1275 18.0212C77.0759 17.9506 77.0398 17.8642 77.0195 17.7623C77.0049 17.6939 76.998 17.5852 76.998 17.436V16.1606H77.3472V17.3031C77.3472 17.4854 77.3541 17.6079 77.3687 17.6712C77.3906 17.7632 77.4371 17.8354 77.5076 17.8874C77.5794 17.9399 77.6671 17.9661 77.7716 17.9661C77.8761 17.9661 77.9745 17.9395 78.0665 17.8857C78.1581 17.8324 78.223 17.7589 78.2609 17.6669C78.2996 17.5744 78.3185 17.4403 78.3185 17.2644V16.1611H78.6668V18.2207H78.3551L78.3555 18.2198Z" fill="white"/>
</g>
</g>
<path d="M36.5643 0H0V24.3766H36.5643V0Z" fill="white"/>
<path d="M17.5026 5.31031L18.2739 4.74747L19.0453 5.31031L18.7521 4.40048L19.5359 3.83678H18.5693L18.2739 2.91577L17.9781 3.83807L17.0137 3.83678L17.7962 4.40048L17.5026 5.31031Z" fill="#045CFC"/>
<path d="M13.5117 6.38343L14.2826 5.82059L15.0536 6.38343L14.7612 5.47274L15.5437 4.90991H14.5776L14.2822 3.98804L13.9864 4.9112L13.0215 4.90991L13.8036 5.47274L13.5117 6.38343Z" fill="#045CFC"/>
<path d="M11.3607 6.91553L11.0658 7.83912L10.0996 7.83826L10.8826 8.40109L10.5894 9.31178L11.3607 8.74852L12.1325 9.31178L11.8384 8.40109L12.6218 7.83826H11.6561L11.3607 6.91553Z" fill="#045CFC"/>
<path d="M10.288 12.7364L11.059 13.2988L10.7662 12.389L11.5496 11.8257H10.5834L10.288 10.9026L9.99264 11.8275L9.02734 11.8257L9.8099 12.389L9.51623 13.2988L10.288 12.7364Z" fill="#045CFC"/>
<path d="M11.6566 15.8256L11.3612 14.9028L11.0653 15.8268L10.0996 15.8256L10.8826 16.3884L10.5898 17.2991L11.3612 16.7345L12.1325 17.2991L11.8389 16.3884L12.6223 15.8256H11.6566Z" fill="#045CFC"/>
<path d="M14.5815 18.7526L14.2861 17.832L13.9903 18.7535L13.0254 18.7526L13.8079 19.3159L13.5147 20.2266L14.2865 19.6633L15.0566 20.2266L14.7638 19.3159L15.5472 18.7526H14.5815Z" fill="#045CFC"/>
<path d="M18.5698 19.8138L18.2748 18.8906L17.9785 19.8142L17.0137 19.8138L17.7962 20.3766L17.5038 21.2869L18.2752 20.7236L19.0462 21.2869L18.7521 20.3766L19.5363 19.8138H18.5698Z" fill="#045CFC"/>
<path d="M22.5604 18.7526L22.265 17.832L21.9683 18.7535L21.0039 18.7526L21.7865 19.3159L21.4936 20.2266L22.265 19.6633L23.0364 20.2266L22.7427 19.3159L23.5266 18.7526H22.5604Z" fill="#045CFC"/>
<path d="M25.4905 15.8256L25.1943 14.9028L24.8976 15.8268L23.9336 15.8256L24.717 16.3884L24.4229 17.2991L25.1943 16.7345L25.9652 17.2991L25.672 16.3884L26.455 15.8256H25.4905Z" fill="#045CFC"/>
<path d="M27.5129 11.8146H26.5467L26.2505 10.8923L25.9555 11.8164L24.9902 11.8146L25.7728 12.3783L25.4804 13.2882L26.2505 12.724L27.0219 13.2882L26.7291 12.3783L27.5129 11.8146Z" fill="#045CFC"/>
<path d="M24.4229 9.29945L25.1943 8.73661L25.9652 9.29945L25.672 8.38919L26.455 7.82721H25.4905L25.1943 6.90405L24.8976 7.82764L23.9336 7.82721L24.717 8.38919L24.4229 9.29945Z" fill="#045CFC"/>
<path d="M22.2772 3.98804L21.9814 4.91206L21.0156 4.90991L21.7986 5.47403L21.5049 6.38429L22.2785 5.82059L23.0481 6.38429L22.7553 5.47403L23.5387 4.90991H22.5717L22.2772 3.98804Z" fill="#045CFC"/>
</g>
</svg>
