<svg width="58" height="31" viewBox="0 0 58 31" fill="none" xmlns="http://www.w3.org/2000/svg">
<path d="M35.3401 2.37207C34.9154 2.72898 34.4772 3.06783 34.0299 3.39311C34.1564 3.63708 34.2739 3.89008 34.3778 4.1476C32.724 5.44971 30.8535 6.44993 28.8523 7.1023C26.5858 7.83554 24.1967 8.11345 21.8223 7.92004L21.1582 7.96522C21.1634 9.11417 21.3699 10.2533 21.7681 11.331L21.8359 11.5163C24.141 11.4707 26.4259 11.0762 28.6128 10.3461C31.7753 9.29699 34.6729 7.57536 37.1066 5.29966C36.6999 4.22887 36.1081 3.23792 35.3582 2.37207" fill="white"/>
<path d="M27.1081 2.15569C28.6052 1.79746 30.0538 1.2605 31.4227 0.55636C29.9039 -0.0435729 28.2372 -0.161614 26.649 0.218262C25.0608 0.598137 23.6279 1.45753 22.5449 2.67977C24.0814 2.68694 25.6132 2.51101 27.1081 2.15569Z" fill="white"/>
<path d="M28.8535 7.10255C25.957 8.03726 22.8734 8.236 19.8809 7.68084C19.9515 6.09618 20.2954 4.53563 20.8974 3.06807C23.0418 3.12752 25.1806 2.82197 27.2226 2.16449C28.6746 1.69388 30.0631 1.04594 31.3565 0.235352C32.705 1.23641 33.7509 2.59031 34.379 4.14785C32.7252 5.44995 30.8548 6.45017 28.8535 7.10255Z" fill="white"/>
<path d="M28.9875 13.1975C27.061 13.5555 25.1773 14.1143 23.3672 14.8646C25.2951 15.5685 27.377 15.7402 29.3942 15.3615C31.403 14.9828 33.2745 14.0751 34.8157 12.7321C32.8556 12.6867 30.8961 12.8472 28.9695 13.211" fill="white"/>
<path d="M29.4287 9.84458C31.9237 9.1175 34.2852 7.9932 36.4225 6.51489C36.616 8.01522 36.4135 9.54006 35.8352 10.9379C34.1427 11.9495 32.3285 12.742 30.4362 13.2962C27.9161 14.0367 25.2881 14.3423 22.6653 14.1998C21.5345 13.2679 20.6579 12.0649 20.1172 10.703C23.2467 11.0308 26.4102 10.7423 29.4287 9.85361" fill="white"/>
<path d="M27.5605 2.04209C28.901 1.68767 30.1992 1.18931 31.4324 0.555703C31.2999 0.507512 31.1689 0.462333 31.0394 0.420166C29.9387 1.0791 28.7729 1.62262 27.5605 2.04209Z" fill="#045CFC"/>
<path d="M21.8223 7.91951C24.1966 8.11292 26.5857 7.83501 28.8522 7.10177C30.8534 6.44939 32.7239 5.44917 34.3777 4.14707C34.2738 3.88955 34.1563 3.63654 34.0298 3.39258C32.0232 4.84794 29.8066 5.98901 27.4562 6.77648C25.6303 7.37987 23.739 7.76358 21.8223 7.91951Z" fill="#045CFC"/>
<path d="M31.6623 9.0769C30.9349 9.36605 30.194 9.62357 29.4305 9.84495C26.8877 10.5918 24.2395 10.9153 21.5918 10.8027C21.646 10.9789 21.7002 11.1551 21.768 11.3313L21.8358 11.5166C24.1409 11.471 26.4258 11.0764 28.6127 10.3464C29.6642 9.99683 30.6894 9.57257 31.6804 9.0769" fill="#045CFC"/>
<path d="M25.1641 14.1958C26.9506 14.0994 28.7199 13.7962 30.4365 13.2923C30.9425 13.1477 31.444 12.9805 31.932 12.7998C30.9439 12.8818 29.9607 13.0145 28.9863 13.1974C27.6902 13.4395 26.4129 13.7731 25.1641 14.1958Z" fill="#045CFC"/>
<path d="M4.15653 19.6932H6.664L6.4381 18.2429H4.15653C2.73789 18.2429 1.71231 18.5547 1.02558 19.2052C0.338847 19.8558 0 20.8181 0 22.1599C0 23.5017 0.334329 24.4641 1.02558 25.1146C1.71683 25.7652 2.73789 26.0769 4.15653 26.0769H6.4381L6.664 24.6267H4.15653C2.45777 24.6267 1.66713 23.8451 1.66713 22.1599C1.66713 20.4748 2.45777 19.6932 4.15653 19.6932Z" fill="white"/>
<path d="M11.4709 18.135C10.0477 18.135 9.02213 18.4558 8.33088 19.1244C7.63963 19.7931 7.30078 20.7825 7.30078 22.1605C7.30078 23.5384 7.63963 24.5278 8.33088 25.1965C9.02213 25.8651 10.0477 26.1859 11.4935 26.1859C14.281 26.1859 15.6364 24.8712 15.6364 22.1605C15.6364 19.4497 14.281 18.135 11.4935 18.135M11.4935 24.695C9.745 24.695 9.00405 23.936 9.00405 22.1605C9.00405 20.3849 9.745 19.6259 11.4935 19.6259C13.2419 19.6259 13.9603 20.3849 13.9603 22.1605C13.9603 23.936 13.2238 24.695 11.4935 24.695Z" fill="white"/>
<path d="M21.2364 21.9205L18.2319 18.2429H16.9805V26.0769H18.5256V20.913L20.6852 23.5289H21.765L23.9201 20.913V26.0769H25.4788V18.2429H24.2273L21.2364 21.9205Z" fill="white"/>
<path d="M30.9236 18.2429H27.2324V26.0769H28.8679V23.7547H30.9236C33.0651 23.7547 34.2985 22.7473 34.2985 20.9943C34.2985 19.2414 33.0651 18.2429 30.9236 18.2429ZM28.8679 19.6932H30.8378C32.0666 19.6932 32.6178 20.0907 32.6178 20.9943C32.6178 21.8979 32.0666 22.3045 30.8378 22.3045H28.8679V19.6932Z" fill="white"/>
<path d="M37.041 22.7879H40.8677V21.3783H37.041V19.6932H41.7352L41.5183 18.2429H35.3965V26.0769H41.6177L41.8301 24.6267H37.041V22.7879Z" fill="white"/>
<path d="M42.2578 19.6932H45.1809V26.0769H46.8255V19.6932H49.7486V18.2429H42.2578V19.6932Z" fill="white"/>
<path d="M52.293 24.6267V22.7879H56.1197V21.3783H52.293V19.6932H56.9826L56.7658 18.2429H50.6484V26.0769H56.8652L57.082 24.6267H52.293Z" fill="white"/>
<path d="M44.4336 29.7324C44.4336 29.0593 44.7589 28.8289 45.4275 28.6572L45.8793 28.5216C46.3311 28.3816 46.539 28.246 46.539 27.9388C46.539 27.6316 46.3492 27.4554 45.8658 27.4554H44.6098L44.664 27.1211H45.9019C46.6158 27.1211 46.9411 27.4193 46.9411 27.9433C46.9411 28.4674 46.6293 28.6572 45.9923 28.8469L45.5405 28.9825C45.0887 29.127 44.8267 29.2264 44.8267 29.6602V29.9312H46.9908L46.9365 30.2655H44.4336V29.7324Z" fill="white"/>
<path d="M47.4902 28.6936C47.4902 27.5912 47.9962 27.0762 49.0083 27.0762C50.0203 27.0762 50.5263 27.5912 50.5263 28.6936C50.5263 29.7959 50.0203 30.311 49.0083 30.311C47.9962 30.311 47.4902 29.7959 47.4902 28.6936ZM50.1378 28.6936C50.1378 27.8171 49.7673 27.4195 49.0083 27.4195C48.2493 27.4195 47.8788 27.8171 47.8788 28.6936C47.8788 29.57 48.2493 29.9676 49.0083 29.9676C49.7673 29.9676 50.1378 29.57 50.1378 28.6936Z" fill="white"/>
<path d="M50.8848 29.9177H52.2718C52.7597 29.9177 52.9721 29.7234 52.9721 29.38C52.9721 29.0367 52.7823 28.8153 52.3215 28.8153H51.6754V28.4855H52.3124C52.3849 28.4936 52.4582 28.4857 52.5272 28.4624C52.5962 28.439 52.6593 28.4007 52.7119 28.3503C52.7645 28.2999 52.8053 28.2385 52.8315 28.1705C52.8578 28.1025 52.8687 28.0296 52.8636 27.9569C52.8636 27.6271 52.6603 27.4554 52.1769 27.4554H50.9435L50.9977 27.1211H52.2085C52.9179 27.1211 53.2522 27.4148 53.2522 27.9072C53.2552 28.058 53.214 28.2063 53.1337 28.334C53.0535 28.4616 52.9376 28.563 52.8004 28.6256C52.9652 28.6801 53.1074 28.7877 53.2046 28.9315C53.3019 29.0754 53.3488 29.2474 53.338 29.4207C53.338 29.9403 52.9992 30.252 52.2808 30.252H50.9254L50.8848 29.9177Z" fill="white"/>
<path d="M53.8867 28.6936C53.8867 27.5912 54.3927 27.0762 55.4048 27.0762C56.4168 27.0762 56.9273 27.5912 56.9273 28.6936C56.9273 29.7959 56.4213 30.311 55.4093 30.311C54.3973 30.311 53.8912 29.7959 53.8912 28.6936M56.5388 28.6936C56.5388 27.8171 56.1683 27.4195 55.4093 27.4195C54.6503 27.4195 54.2798 27.8171 54.2798 28.6936C54.2798 29.57 54.6503 29.9676 55.4093 29.9676C56.1683 29.9676 56.5388 29.57 56.5388 28.6936Z" fill="white"/>
</svg>
