<svg width="80" height="22" viewBox="0 0 80 22" fill="none" xmlns="http://www.w3.org/2000/svg">
<path d="M0 0.453857H30.9679V21.0988H0V0.453857Z" fill="white"/>
<path d="M18.8646 3.83204L19.115 4.6118H19.934L19.2703 5.08992L19.5192 5.86063L18.8661 5.38252L18.2115 5.86063L18.4604 5.08992L17.7983 4.6118H18.6157L18.8661 3.83204H18.8646ZM14.8239 4.95116L15.0728 4.18044L14.4092 3.70384H15.2266L15.477 2.92407L15.7274 3.70384H16.5449L15.8812 4.18044L16.1301 4.95116L15.477 4.47455L14.8239 4.95116ZM11.4424 5.86063L11.6912 5.08992L11.0276 4.61331H11.8451L12.0955 3.83204L12.3458 4.61331H13.1633L12.4997 5.08992L12.7485 5.86063L12.0955 5.38403L11.4424 5.86063ZM9.62037 6.31009L9.87075 7.09136H10.6882L10.0246 7.56797L10.2735 8.33869L9.62037 7.86208L8.96729 8.33869L9.21616 7.56797L8.55251 7.09136H9.37L9.62037 6.31009ZM8.71239 11.2406L8.05931 11.7172L8.30817 10.9464L7.64453 10.4698H8.46202L8.71239 9.68857L8.96277 10.4698H9.78025L9.11661 10.9464L9.36547 11.7172L8.71239 11.2406ZM9.87075 13.8559H10.6882L10.0246 14.3325L10.2735 15.1032L9.62037 14.6251L8.96729 15.1032L9.21616 14.3325L8.55251 13.8559H9.37L9.62037 13.0746L9.87075 13.8559ZM12.3504 16.3354H13.1678L12.5042 16.812L12.7531 17.5827L12.1 17.1061L11.4469 17.5827L11.6958 16.812L11.0321 16.3354H11.8496L12.1 15.5557L12.3504 16.3354ZM15.7274 17.2343H16.5449L15.8812 17.7109L16.1301 18.4817L15.477 18.0051L14.8239 18.4817L15.0728 17.7109L14.4092 17.2343H15.2266L15.477 16.4531L15.7274 17.2343ZM19.1044 16.3354H19.9219L19.2583 16.812L19.5071 17.5827L18.854 17.1061L18.201 17.5827L18.4498 16.812L17.7877 16.3354H18.6052L18.8556 15.5557L19.1059 16.3354H19.1044ZM21.5855 13.8559H22.403L21.7394 14.3325L21.9882 15.1032L21.3352 14.6251L20.6821 15.1032L20.9309 14.3325L20.2673 13.8559H21.0848L21.3352 13.0746L21.5855 13.8559ZM23.3004 10.4593L22.6368 10.9359L22.8857 11.7066L22.2326 11.2285L21.5795 11.7066L21.8284 10.9359L21.1647 10.4593H21.9822L22.2326 9.67801L22.483 10.4593H23.3004ZM20.6806 8.32964L20.9294 7.55892L20.2658 7.08231H21.0833L21.3336 6.30104L21.584 7.08231H22.4015L21.7379 7.55892L21.9867 8.32964L21.3336 7.85303L20.6806 8.32964Z" fill="#045CFC"/>
<path fill-rule="evenodd" clip-rule="evenodd" d="M33.8125 21.088V18.3022H34.7718C34.989 18.3022 35.1534 18.3158 35.268 18.3415C35.4279 18.3777 35.5636 18.444 35.6767 18.5405C35.823 18.6642 35.9331 18.8241 36.007 19.0172C36.0794 19.2102 36.1156 19.4304 36.1156 19.6793C36.1156 19.8904 36.0915 20.079 36.0417 20.2419C35.992 20.4047 35.9286 20.5405 35.8517 20.6476C35.7748 20.7547 35.6903 20.8391 35.5983 20.901C35.5063 20.9628 35.3962 21.0096 35.2665 21.0412C35.1368 21.0729 34.9874 21.0895 34.8185 21.0895H33.814L33.8125 21.088ZM34.182 20.7622H34.7763C34.9603 20.7622 35.1036 20.7456 35.2077 20.7109C35.3117 20.6762 35.3947 20.628 35.4565 20.5661C35.544 20.4786 35.6119 20.361 35.6601 20.2132C35.7084 20.0654 35.7325 19.8859 35.7325 19.6763C35.7325 19.3837 35.6843 19.1604 35.5892 19.0036C35.4942 18.8467 35.3781 18.7411 35.2408 18.6884C35.1428 18.6507 34.9829 18.631 34.7642 18.631H34.179V20.7622H34.182Z" fill="white"/>
<path fill-rule="evenodd" clip-rule="evenodd" d="M37.9609 20.4355L38.3153 20.4823C38.2595 20.6874 38.157 20.8473 38.0061 20.9619C37.8553 21.075 37.6638 21.1323 37.43 21.1323C37.1359 21.1323 36.9021 21.0418 36.7301 20.8608C36.5582 20.6799 36.4707 20.425 36.4707 20.0977C36.4707 19.7704 36.5582 19.4959 36.7316 19.3089C36.9066 19.1218 37.1328 19.0283 37.4104 19.0283C37.6879 19.0283 37.899 19.1203 38.0695 19.3028C38.2399 19.4868 38.3259 19.7447 38.3259 20.0766C38.3259 20.0962 38.3259 20.1278 38.3244 20.167H36.8206C36.8327 20.3888 36.896 20.5577 37.0092 20.6753C37.1223 20.793 37.2625 20.8518 37.43 20.8518C37.5552 20.8518 37.6622 20.8186 37.7512 20.7522C37.8402 20.6859 37.9096 20.5803 37.9624 20.4355H37.9609ZM36.8402 19.8865H37.9639C37.9488 19.7161 37.9051 19.5894 37.8357 19.5049C37.7271 19.3737 37.5868 19.3073 37.4134 19.3073C37.2565 19.3073 37.1253 19.3601 37.0182 19.4657C36.9111 19.5713 36.8523 19.7116 36.8402 19.888V19.8865Z" fill="white"/>
<path d="M38.6152 20.4868L38.9531 20.4325C38.9727 20.5682 39.0255 20.6723 39.1115 20.7447C39.1974 20.8171 39.3196 20.8533 39.4765 20.8533C39.6333 20.8533 39.751 20.8216 39.8264 20.7568C39.9033 20.6934 39.941 20.618 39.941 20.532C39.941 20.4551 39.9063 20.3933 39.8384 20.3495C39.7902 20.3194 39.674 20.2802 39.4885 20.2334C39.2382 20.1701 39.0647 20.1158 38.9682 20.069C38.8716 20.0223 38.7977 19.9589 38.748 19.8775C38.6982 19.796 38.6725 19.7055 38.6725 19.6075C38.6725 19.5185 38.6937 19.434 38.7344 19.3586C38.7751 19.2817 38.8309 19.2184 38.9018 19.1686C38.9546 19.1294 39.027 19.0962 39.119 19.069C39.211 19.0419 39.309 19.0283 39.4146 19.0283C39.573 19.0283 39.7118 19.0509 39.8309 19.0962C39.9501 19.1414 40.039 19.2033 40.0964 19.2817C40.1537 19.3601 40.1929 19.4642 40.214 19.5954L39.8792 19.6422C39.8641 19.5366 39.8203 19.4552 39.748 19.3963C39.6756 19.3375 39.573 19.3073 39.4403 19.3073C39.2834 19.3073 39.1718 19.333 39.1054 19.3858C39.0391 19.4386 39.0044 19.4989 39.0044 19.5683C39.0044 19.612 39.0179 19.6527 39.0466 19.6874C39.0738 19.7236 39.1175 19.7538 39.1778 19.7779C39.2125 19.79 39.3121 19.8202 39.4795 19.8654C39.7208 19.9303 39.8897 19.983 39.9848 20.0238C40.0813 20.0645 40.1567 20.1248 40.211 20.2032C40.2653 20.2817 40.2924 20.3782 40.2924 20.4958C40.2924 20.6135 40.2593 20.7161 40.1929 20.8171C40.1265 20.9182 40.03 20.9951 39.9048 21.0509C39.7796 21.1052 39.6378 21.1338 39.4795 21.1338C39.217 21.1338 39.0164 21.0795 38.8792 20.9709C38.7419 20.8623 38.6544 20.701 38.6152 20.4883V20.4868Z" fill="white"/>
<path fill-rule="evenodd" clip-rule="evenodd" d="M42.0722 20.4355L42.4267 20.4823C42.3708 20.6874 42.2683 20.8473 42.1175 20.9619C41.9666 21.075 41.7751 21.1323 41.5413 21.1323C41.2472 21.1323 41.0134 21.0418 40.8415 20.8608C40.6695 20.6799 40.582 20.425 40.582 20.0977C40.582 19.7704 40.6695 19.4959 40.843 19.3089C41.0179 19.1218 41.2442 19.0283 41.5217 19.0283C41.7992 19.0283 42.0104 19.1203 42.1808 19.3028C42.3512 19.4868 42.4372 19.7447 42.4372 20.0766C42.4372 20.0962 42.4372 20.1278 42.4357 20.167H40.932C40.944 20.3888 41.0074 20.5577 41.119 20.6753C41.2321 20.793 41.3724 20.8518 41.5398 20.8518C41.665 20.8518 41.7721 20.8186 41.861 20.7522C41.95 20.6859 42.0194 20.5803 42.0722 20.4355ZM40.9516 19.8865H42.0752C42.0601 19.7161 42.0164 19.5894 41.947 19.5049C41.8384 19.3737 41.6982 19.3073 41.5247 19.3073C41.3678 19.3073 41.2366 19.3601 41.1295 19.4657C41.0224 19.5713 40.9636 19.7116 40.9516 19.888V19.8865Z" fill="white"/>
<path d="M42.8633 21.0884V19.0689H43.171V19.3555C43.3188 19.1352 43.533 19.0251 43.812 19.0251C43.9342 19.0251 44.0458 19.0463 44.1468 19.09C44.2494 19.1337 44.3248 19.1911 44.3761 19.2619C44.4274 19.3328 44.4621 19.4173 44.4817 19.5138C44.4937 19.5772 44.5013 19.6873 44.5013 19.8456V21.0854H44.1589V19.8592C44.1589 19.7204 44.1453 19.6164 44.1197 19.547C44.0925 19.4776 44.0458 19.4233 43.9779 19.3811C43.91 19.3404 43.8316 19.3193 43.7396 19.3193C43.5948 19.3193 43.4696 19.366 43.364 19.458C43.2585 19.55 43.2057 19.7265 43.2057 19.9844V21.0854H42.8633V21.0884Z" fill="white"/>
<path d="M45.58 21.0884L44.8184 19.0688H45.1849L45.6162 20.2785C45.663 20.4097 45.7067 20.5439 45.7459 20.6857C45.7761 20.5786 45.8184 20.4519 45.8726 20.3011L46.3221 19.0688H46.6735L45.9088 21.0884H45.58Z" fill="white"/>
<path fill-rule="evenodd" clip-rule="evenodd" d="M46.8418 20.0796C46.8418 19.707 46.9459 19.431 47.154 19.2515C47.3275 19.1022 47.5386 19.0283 47.789 19.0283C48.0665 19.0283 48.2928 19.1188 48.4692 19.2998C48.6457 19.4808 48.7332 19.7312 48.7332 20.0509C48.7332 20.3103 48.694 20.5139 48.6155 20.6618C48.5371 20.8096 48.424 20.9257 48.2747 21.0071C48.1253 21.0886 47.964 21.1308 47.7875 21.1308C47.5054 21.1308 47.2762 21.0403 47.1027 20.8593C46.9293 20.6783 46.8418 20.4189 46.8418 20.0781V20.0796ZM47.1917 20.0811C47.1917 20.339 47.2475 20.532 47.3606 20.6602C47.4738 20.7884 47.6155 20.8518 47.7875 20.8518C47.9594 20.8518 48.0997 20.7869 48.2128 20.6587C48.3259 20.5305 48.3818 20.333 48.3818 20.069C48.3818 19.8201 48.3244 19.6316 48.2113 19.5034C48.0982 19.3752 47.9564 19.3104 47.7875 19.3104C47.6186 19.3104 47.4738 19.3737 47.3606 19.5019C47.2475 19.6301 47.1917 19.8217 47.1917 20.0796V20.0811Z" fill="white"/>
<path d="M49.1289 21.0882V18.304H49.4713V21.0882H49.1289Z" fill="white"/>
<path d="M50.5586 21.0884L49.7969 19.0688H50.1634L50.5948 20.2785C50.6415 20.4097 50.6852 20.5439 50.7245 20.6857C50.7546 20.5786 50.7969 20.4519 50.8512 20.3011L51.3006 19.0688H51.6521L50.8874 21.0884H50.5586Z" fill="white"/>
<path fill-rule="evenodd" clip-rule="evenodd" d="M51.9492 18.6931V18.304H52.2916V18.6931H51.9492ZM51.9492 21.0882V19.0686H52.2916V21.0882H51.9492Z" fill="white"/>
<path d="M52.8184 21.0884V19.0689H53.126V19.3539C53.1894 19.2559 53.2739 19.176 53.3779 19.1156C53.4835 19.0553 53.6027 19.0251 53.7369 19.0251C53.8862 19.0251 54.0084 19.0568 54.1034 19.1187C54.1984 19.1805 54.2663 19.2665 54.3055 19.3781C54.4654 19.1428 54.675 19.0251 54.9315 19.0251C55.1321 19.0251 55.2874 19.081 55.3945 19.1911C55.5031 19.3012 55.5574 19.4716 55.5574 19.7024V21.0869H55.215V19.817C55.215 19.6797 55.2045 19.5817 55.1818 19.5214C55.1592 19.461 55.1185 19.4128 55.0612 19.3766C55.0023 19.3404 54.9345 19.3208 54.856 19.3208C54.7143 19.3208 54.5951 19.3675 54.5016 19.4625C54.4081 19.5576 54.3598 19.7084 54.3598 19.915V21.0869H54.0174V19.7763C54.0174 19.6239 53.9903 19.5108 53.9345 19.4339C53.8787 19.3585 53.7882 19.3193 53.6615 19.3193C53.565 19.3193 53.476 19.3449 53.3945 19.3947C53.3131 19.4459 53.2543 19.5199 53.2165 19.6164C53.1803 19.7144 53.1622 19.8547 53.1622 20.0387V21.0854H52.8199L52.8184 21.0884Z" fill="white"/>
<path fill-rule="evenodd" clip-rule="evenodd" d="M57.4374 20.4355L57.7919 20.4823C57.7361 20.6874 57.6335 20.8473 57.4827 20.9619C57.3319 21.075 57.1403 21.1323 56.9065 21.1323C56.6124 21.1323 56.3786 21.0418 56.2067 20.8608C56.0347 20.6799 55.9473 20.425 55.9473 20.0977C55.9473 19.7704 56.0347 19.4959 56.2082 19.3089C56.3832 19.1218 56.6094 19.0283 56.8869 19.0283C57.1644 19.0283 57.3756 19.1203 57.546 19.3028C57.7165 19.4868 57.8024 19.7447 57.8024 20.0766C57.8024 20.0962 57.8024 20.1278 57.8009 20.167H56.2972C56.3093 20.3888 56.3726 20.5577 56.4842 20.6753C56.5973 20.793 56.7376 20.8518 56.905 20.8518C57.0302 20.8518 57.1373 20.8186 57.2263 20.7522C57.3153 20.6859 57.3847 20.5803 57.4374 20.4355ZM56.3183 19.8865H57.442C57.4269 19.7161 57.3831 19.5894 57.3138 19.5049C57.2052 19.3737 57.0634 19.3073 56.8914 19.3073C56.7346 19.3073 56.6034 19.3601 56.4963 19.4657C56.3892 19.5713 56.3304 19.7116 56.3183 19.888V19.8865Z" fill="white"/>
<path d="M58.2266 21.0884V19.0689H58.5343V19.3555C58.6821 19.1352 58.8962 19.0251 59.1753 19.0251C59.2974 19.0251 59.4091 19.0463 59.5101 19.09C59.6127 19.1337 59.6881 19.1911 59.7394 19.2619C59.7906 19.3328 59.8253 19.4173 59.8449 19.5138C59.857 19.5772 59.8646 19.6873 59.8646 19.8456V21.0854H59.5222V19.8592C59.5222 19.7204 59.5086 19.6164 59.483 19.547C59.4558 19.4776 59.4091 19.4233 59.3412 19.3811C59.2733 19.3404 59.1949 19.3193 59.1029 19.3193C58.9581 19.3193 58.8329 19.366 58.7273 19.458C58.6217 19.55 58.5689 19.7265 58.5689 19.9844V21.0854H58.2266V21.0884Z" fill="white"/>
<path d="M61.1354 20.7837L61.1822 21.0853C61.0856 21.1049 60.9997 21.1155 60.9243 21.1155C60.8006 21.1155 60.704 21.0959 60.6362 21.0567C60.5683 21.0175 60.52 20.9662 60.4929 20.9013C60.4657 20.838 60.4507 20.7022 60.4507 20.4971V19.3343H60.1973V19.0703H60.4507V18.5711L60.793 18.366V19.0703H61.1354V19.3343H60.793V20.5167C60.793 20.6148 60.7991 20.6766 60.8111 20.7053C60.8232 20.7324 60.8428 20.755 60.87 20.7716C60.8971 20.7882 60.9363 20.7958 60.9861 20.7958C61.0238 20.7958 61.0736 20.7912 61.1354 20.7822V20.7837Z" fill="white"/>
<path fill-rule="evenodd" clip-rule="evenodd" d="M61.3438 20.0796C61.3438 19.707 61.4478 19.431 61.656 19.2515C61.8294 19.1022 62.0406 19.0283 62.2909 19.0283C62.5685 19.0283 62.7947 19.1188 62.9712 19.2998C63.1477 19.4808 63.2351 19.7312 63.2351 20.0509C63.2351 20.3103 63.1959 20.5139 63.119 20.6618C63.0406 20.8096 62.9274 20.9257 62.7781 21.0071C62.6288 21.0886 62.4674 21.1308 62.2909 21.1308C62.0089 21.1308 61.7796 21.0403 61.6062 20.8593C61.4327 20.6783 61.3453 20.4189 61.3453 20.0781L61.3438 20.0796ZM61.6937 20.0811C61.6937 20.339 61.7495 20.532 61.8626 20.6602C61.9757 20.7884 62.1175 20.8518 62.2894 20.8518C62.4614 20.8518 62.6017 20.7869 62.7148 20.6587C62.8279 20.5305 62.8837 20.333 62.8837 20.069C62.8837 19.8201 62.8264 19.6316 62.7133 19.5034C62.6001 19.3752 62.4584 19.3104 62.2894 19.3104C62.1205 19.3104 61.9757 19.3737 61.8626 19.5019C61.7495 19.6301 61.6937 19.8217 61.6937 20.0796V20.0811Z" fill="white"/>
<path fill-rule="evenodd" clip-rule="evenodd" d="M64.7656 21.088V18.3022H66.0009C66.2483 18.3022 66.4368 18.3279 66.5665 18.3777C66.6962 18.4274 66.7988 18.5164 66.8757 18.6431C66.9526 18.7698 66.9918 18.9101 66.9918 19.0624C66.9918 19.26 66.9285 19.4259 66.8003 19.5616C66.6721 19.6974 66.4745 19.7833 66.2075 19.8195C66.3056 19.8663 66.3795 19.9131 66.4293 19.9583C66.5363 20.0578 66.6389 20.18 66.7339 20.3293L67.2151 21.088H66.755L66.387 20.5073C66.2799 20.3399 66.1909 20.2117 66.1216 20.1227C66.0522 20.0337 65.9903 19.9719 65.9345 19.9372C65.8802 19.9025 65.8229 19.8769 65.7671 19.8633C65.7249 19.8542 65.657 19.8497 65.562 19.8497H65.1352V21.0865H64.7656V21.088ZM65.1367 19.533H65.9285C66.0974 19.533 66.2287 19.5149 66.3222 19.4802C66.4172 19.4455 66.4881 19.3897 66.5379 19.3128C66.5876 19.2359 66.6118 19.1529 66.6118 19.0624C66.6118 18.9312 66.5635 18.8226 66.4685 18.7366C66.3734 18.6522 66.2226 18.6099 66.0175 18.6099H65.1367V19.5315V19.533Z" fill="white"/>
<path fill-rule="evenodd" clip-rule="evenodd" d="M68.9062 20.4355L69.2606 20.4823C69.2048 20.6874 69.1023 20.8473 68.9514 20.9619C68.8006 21.075 68.6091 21.1323 68.3753 21.1323C68.0812 21.1323 67.8474 21.0418 67.6754 20.8608C67.5035 20.6799 67.416 20.425 67.416 20.0977C67.416 19.7704 67.5035 19.4959 67.6769 19.3089C67.8519 19.1218 68.0782 19.0283 68.3557 19.0283C68.6332 19.0283 68.8444 19.1203 69.0148 19.3028C69.1852 19.4868 69.2712 19.7447 69.2712 20.0766C69.2712 20.0962 69.2712 20.1278 69.2697 20.167H67.7659C67.778 20.3888 67.8413 20.5577 67.953 20.6753C68.0661 20.793 68.2064 20.8518 68.3738 20.8518C68.499 20.8518 68.606 20.8186 68.695 20.7522C68.784 20.6859 68.8534 20.5803 68.9062 20.4355ZM67.7855 19.8865H68.9092C68.8941 19.7161 68.8504 19.5894 68.781 19.5049C68.6724 19.3737 68.5306 19.3073 68.3587 19.3073C68.2018 19.3073 68.0706 19.3601 67.9635 19.4657C67.8564 19.5713 67.7976 19.7116 67.7855 19.888V19.8865Z" fill="white"/>
<path fill-rule="evenodd" clip-rule="evenodd" d="M69.6314 21.2556L69.9617 21.3023C69.9753 21.4049 70.0145 21.4788 70.0779 21.527C70.1623 21.5904 70.2785 21.6221 70.4263 21.6221C70.5847 21.6221 70.7068 21.5904 70.7928 21.527C70.8788 21.4637 70.9376 21.3762 70.9678 21.2616C70.9859 21.1922 70.9934 21.0459 70.9919 20.8242C70.8426 21.0007 70.6556 21.0881 70.4323 21.0881C70.1548 21.0881 69.9406 20.9886 69.7883 20.788C69.636 20.5874 69.5605 20.3476 69.5605 20.0686C69.5605 19.8755 69.5952 19.699 69.6646 19.5362C69.734 19.3733 69.8351 19.2481 69.9678 19.1591C70.1005 19.0701 70.2559 19.0264 70.4338 19.0264C70.6721 19.0264 70.8682 19.1229 71.0221 19.3175V19.0686H71.3373V20.8121C71.3373 21.1258 71.3056 21.3491 71.2408 21.4803C71.1774 21.6115 71.0764 21.7156 70.9376 21.791C70.7988 21.8664 70.6284 21.9056 70.4263 21.9056C70.1865 21.9056 69.9919 21.8513 69.8441 21.7442C69.6963 21.6356 69.6239 21.4743 69.6299 21.2571L69.6314 21.2556ZM69.912 20.0444C69.912 20.3084 69.9648 20.5014 70.0703 20.6221C70.1759 20.7428 70.3071 20.8046 70.4655 20.8046C70.6239 20.8046 70.7551 20.7443 70.8607 20.6236C70.9678 20.5029 71.0206 20.3144 71.0206 20.0565C71.0206 19.7986 70.9663 19.6236 70.8562 19.4984C70.7461 19.3733 70.6148 19.3114 70.4595 19.3114C70.3041 19.3114 70.1774 19.3733 70.0719 19.4969C69.9648 19.6206 69.912 19.8031 69.912 20.0459V20.0444Z" fill="white"/>
<path fill-rule="evenodd" clip-rule="evenodd" d="M71.8594 18.6931V18.304H72.2018V18.6931H71.8594ZM71.8594 21.0882V19.0686H72.2018V21.0882H71.8594Z" fill="white"/>
<path fill-rule="evenodd" clip-rule="evenodd" d="M72.5977 20.0796C72.5977 19.707 72.7017 19.431 72.9099 19.2515C73.0833 19.1022 73.2945 19.0283 73.5449 19.0283C73.8224 19.0283 74.0486 19.1188 74.2251 19.2998C74.4016 19.4808 74.489 19.7312 74.489 20.0509C74.489 20.3103 74.4498 20.5139 74.3729 20.6618C74.2945 20.8096 74.1813 20.9257 74.032 21.0071C73.8827 21.0886 73.7213 21.1308 73.5449 21.1308C73.2628 21.1308 73.0335 21.0403 72.8601 20.8593C72.6851 20.6783 72.5992 20.4189 72.5992 20.0781L72.5977 20.0796ZM72.9476 20.0811C72.9476 20.339 73.0034 20.532 73.1165 20.6602C73.2296 20.7884 73.3714 20.8518 73.5433 20.8518C73.7153 20.8518 73.8556 20.7869 73.9687 20.6587C74.0818 20.5305 74.1376 20.333 74.1376 20.069C74.1376 19.8201 74.0803 19.6316 73.9672 19.5034C73.8541 19.3752 73.7123 19.3104 73.5433 19.3104C73.3744 19.3104 73.2296 19.3737 73.1165 19.5019C73.0034 19.6301 72.9476 19.8217 72.9476 20.0796V20.0811Z" fill="white"/>
<path d="M74.8926 21.0884V19.0689H75.2003V19.3555C75.3481 19.1352 75.5623 19.0251 75.8413 19.0251C75.9635 19.0251 76.0751 19.0463 76.1761 19.09C76.2787 19.1337 76.3541 19.1911 76.4054 19.2619C76.4567 19.3328 76.4914 19.4173 76.511 19.5138C76.523 19.5772 76.5306 19.6873 76.5306 19.8456V21.0854H76.1882V19.8592C76.1882 19.7204 76.1746 19.6164 76.149 19.547C76.1218 19.4776 76.0751 19.4233 76.0072 19.3811C75.9393 19.3404 75.8609 19.3193 75.7689 19.3193C75.6241 19.3193 75.4989 19.366 75.3933 19.458C75.2877 19.55 75.235 19.7265 75.235 19.9844V21.0854H74.8926V21.0884Z" fill="white"/>
<path fill-rule="evenodd" clip-rule="evenodd" d="M78.3758 20.8367C78.2491 20.9453 78.1269 21.0207 78.0093 21.066C77.8916 21.1097 77.7664 21.1323 77.6322 21.1323C77.4105 21.1323 77.24 21.078 77.1209 20.9709C77.0017 20.8623 76.9414 20.7251 76.9414 20.5577C76.9414 20.4596 76.964 20.3692 77.0093 20.2877C77.0545 20.2063 77.1133 20.1414 77.1857 20.0916C77.2581 20.0419 77.3411 20.0057 77.4316 19.98C77.4995 19.9619 77.6005 19.9453 77.7363 19.9287C78.0123 19.8956 78.2159 19.8563 78.3471 19.8111C78.3471 19.7643 78.3486 19.7342 78.3486 19.7221C78.3486 19.5834 78.317 19.4853 78.2521 19.428C78.1646 19.3511 78.0349 19.3119 77.8615 19.3119C77.7001 19.3119 77.5809 19.3405 77.504 19.3963C77.4271 19.4536 77.3698 19.5532 77.3336 19.6965L76.9987 19.6497C77.0289 19.5064 77.0787 19.3903 77.1495 19.3028C77.2189 19.2153 77.32 19.1475 77.4527 19.0992C77.5854 19.0509 77.7378 19.0283 77.9127 19.0283C78.0877 19.0283 78.2265 19.0479 78.3335 19.0886C78.4421 19.1294 78.5206 19.1807 78.5719 19.2425C78.6231 19.3043 78.6578 19.3813 78.6789 19.4763C78.691 19.5351 78.6955 19.6392 78.6955 19.7915V20.2455C78.6955 20.5622 78.7031 20.7628 78.7166 20.8473C78.7302 20.9317 78.7589 21.0132 78.8011 21.0916H78.4436C78.409 21.0192 78.3878 20.9347 78.3773 20.8382L78.3758 20.8367ZM78.3486 20.0781C78.2234 20.1278 78.0379 20.1716 77.7875 20.2063C77.6473 20.2259 77.5462 20.2485 77.4889 20.2741C77.4301 20.2998 77.3848 20.336 77.3532 20.3842C77.3215 20.4325 77.3049 20.4868 77.3049 20.5456C77.3049 20.6361 77.3396 20.7115 77.409 20.7719C77.4783 20.8322 77.5794 20.8624 77.7121 20.8624C77.8449 20.8624 77.961 20.8337 78.0636 20.7764C78.1661 20.7191 78.2415 20.6406 78.2898 20.5411C78.326 20.4642 78.3456 20.3511 78.3456 20.2017V20.0766H78.3471L78.3486 20.0781Z" fill="white"/>
<path d="M79.2148 21.0882V18.304H79.5572V21.0882H79.2148Z" fill="white"/>
<path d="M33.834 16.1217V13.3359H35.7133V13.6632H34.2035V14.5305H35.5112V14.8578H34.2035V16.1217H33.834Z" fill="white"/>
<path d="M37.4684 16.1218V15.8217C37.3115 16.0509 37.0988 16.164 36.8304 16.164C36.7112 16.164 36.6011 16.1414 36.4985 16.0962C36.396 16.0509 36.319 15.9936 36.2693 15.9242C36.2195 15.8548 36.1848 15.7704 36.1637 15.6708C36.1501 15.6045 36.1426 15.4974 36.1426 15.3526V14.1038H36.485V15.2214C36.485 15.3993 36.4925 15.52 36.5061 15.5818C36.5272 15.6723 36.5724 15.7417 36.6418 15.793C36.7112 15.8443 36.7972 15.8699 36.8997 15.8699C37.0023 15.8699 37.0973 15.8443 37.1878 15.7915C37.2768 15.7387 37.3417 15.6678 37.3779 15.5773C37.4156 15.4868 37.4337 15.3556 37.4337 15.1837V14.1038H37.776V16.1233H37.4684V16.1218Z" fill="white"/>
<path d="M38.3184 16.1214V14.1018H38.626V14.3884C38.7739 14.1682 38.988 14.0581 39.2671 14.0581C39.3892 14.0581 39.5008 14.0792 39.6019 14.123C39.7045 14.1667 39.7799 14.224 39.8312 14.2949C39.8824 14.3658 39.9171 14.4502 39.9367 14.5468C39.9488 14.6101 39.9563 14.7202 39.9563 14.8786V16.1184H39.614V14.8922C39.614 14.7534 39.6004 14.6493 39.5748 14.58C39.5476 14.5106 39.5008 14.4563 39.433 14.4141C39.3651 14.3733 39.2867 14.3522 39.1947 14.3522C39.0499 14.3522 38.9247 14.399 38.8191 14.491C38.7135 14.583 38.6607 14.7594 38.6607 15.0174V16.1184H38.3184V16.1214Z" fill="white"/>
<path fill-rule="evenodd" clip-rule="evenodd" d="M41.7844 16.1218V15.8654C41.6562 16.0644 41.4692 16.164 41.2203 16.164C41.0589 16.164 40.9111 16.1203 40.7769 16.0313C40.6427 15.9423 40.5371 15.8186 40.4632 15.6602C40.3893 15.5019 40.3516 15.3194 40.3516 15.1127C40.3516 14.9061 40.3847 14.7296 40.4526 14.5652C40.519 14.4008 40.62 14.2757 40.7543 14.1882C40.8885 14.1007 41.0378 14.057 41.2037 14.057C41.3259 14.057 41.433 14.0826 41.528 14.1339C41.623 14.1852 41.7 14.253 41.7603 14.3345V13.333H42.1027V16.1187H41.7829L41.7844 16.1218ZM40.703 15.1142C40.703 15.3722 40.7573 15.5652 40.8674 15.6919C40.976 15.8201 41.1057 15.8835 41.2535 15.8835C41.4013 15.8835 41.531 15.8231 41.6351 15.701C41.7392 15.5788 41.792 15.3933 41.792 15.1429C41.792 14.8669 41.7392 14.6648 41.6321 14.5366C41.525 14.4084 41.3938 14.3435 41.2384 14.3435C41.0831 14.3435 40.9594 14.4054 40.8568 14.529C40.7543 14.6527 40.703 14.8473 40.703 15.1142Z" fill="white"/>
<path fill-rule="evenodd" clip-rule="evenodd" d="M42.5195 15.1111C42.5195 14.7385 42.6236 14.4625 42.8317 14.283C43.0052 14.1337 43.2164 14.0598 43.4667 14.0598C43.7443 14.0598 43.9705 14.1503 44.147 14.3313C44.3234 14.5123 44.4109 14.7627 44.4109 15.0824C44.4109 15.3418 44.3717 15.5454 44.2948 15.6932C44.2163 15.8411 44.1032 15.9572 43.9539 16.0386C43.8046 16.1201 43.6432 16.1623 43.4667 16.1623C43.1847 16.1623 42.9554 16.0718 42.782 15.8908C42.6085 15.7098 42.521 15.4489 42.521 15.1096L42.5195 15.1111ZM42.8694 15.1126C42.8694 15.3705 42.9253 15.5635 43.0384 15.6917C43.1515 15.8199 43.2933 15.8848 43.4652 15.8848C43.6372 15.8848 43.7774 15.8199 43.8906 15.6917C44.0037 15.5635 44.0595 15.366 44.0595 15.102C44.0595 14.8532 44.0022 14.6646 43.889 14.5364C43.7759 14.4082 43.6341 14.3434 43.4652 14.3434C43.2963 14.3434 43.1515 14.4067 43.0384 14.5349C42.9253 14.6631 42.8694 14.8547 42.8694 15.1126Z" fill="white"/>
<path d="M45.9434 16.1217V13.3359H47.9539V13.6632H46.3129V14.5184H47.8483V14.8457H46.3129V15.7944H48.0203V16.1217H45.9434Z" fill="white"/>
<path d="M49.8019 16.1218V15.8217C49.645 16.0509 49.4324 16.164 49.1639 16.164C49.0447 16.164 48.9346 16.1414 48.8306 16.0962C48.728 16.0509 48.6511 15.9936 48.6013 15.9242C48.5515 15.8548 48.5168 15.7704 48.4957 15.6708C48.4822 15.6045 48.4746 15.4974 48.4746 15.3526V14.1038H48.817V15.2214C48.817 15.3993 48.8245 15.52 48.8381 15.5818C48.8592 15.6723 48.9045 15.7417 48.9738 15.793C49.0432 15.8443 49.1292 15.8699 49.2318 15.8699C49.3343 15.8699 49.4309 15.8443 49.5198 15.7915C49.6088 15.7387 49.6737 15.6678 49.7099 15.5773C49.7476 15.4868 49.7657 15.3556 49.7657 15.1837V14.1038H50.1081V16.1233H49.8004L49.8019 16.1218Z" fill="white"/>
<path d="M50.648 16.1216V14.102H50.9557V14.4112C51.0341 14.268 51.1065 14.1729 51.1729 14.1277C51.2392 14.0824 51.3131 14.0598 51.3931 14.0598C51.5092 14.0598 51.6254 14.096 51.7445 14.1684L51.6223 14.4851C51.5394 14.4384 51.4564 14.4158 51.3735 14.4158C51.2996 14.4158 51.2332 14.4384 51.1729 14.4836C51.114 14.5289 51.0718 14.5907 51.0462 14.6707C51.0085 14.7928 50.9889 14.9255 50.9889 15.0688V16.1231H50.6465L50.648 16.1216Z" fill="white"/>
<path fill-rule="evenodd" clip-rule="evenodd" d="M51.8203 15.1111C51.8203 14.7385 51.9244 14.4625 52.1325 14.283C52.306 14.1337 52.5171 14.0598 52.7675 14.0598C53.045 14.0598 53.2713 14.1503 53.4477 14.3313C53.6242 14.5123 53.7117 14.7627 53.7117 15.0824C53.7117 15.3418 53.6725 15.5454 53.594 15.6932C53.5156 15.8411 53.4025 15.9572 53.2547 16.0386C53.1054 16.1201 52.944 16.1623 52.7675 16.1623C52.4855 16.1623 52.2562 16.0718 52.0828 15.8908C51.9093 15.7098 51.8218 15.4489 51.8218 15.1096L51.8203 15.1111ZM52.1702 15.1126C52.1702 15.3705 52.226 15.5635 52.3392 15.6917C52.4523 15.8199 52.5941 15.8848 52.766 15.8848C52.9379 15.8848 53.0782 15.8199 53.1913 15.6917C53.3045 15.5635 53.3603 15.366 53.3603 15.102C53.3603 14.8532 53.303 14.6646 53.1898 14.5364C53.0767 14.4082 52.9349 14.3434 52.766 14.3434C52.5971 14.3434 52.4523 14.4067 52.3392 14.5349C52.226 14.6631 52.1702 14.8547 52.1702 15.1126Z" fill="white"/>
<path fill-rule="evenodd" clip-rule="evenodd" d="M54.1172 16.8953V14.102H54.4279V14.3675C54.5018 14.2649 54.5848 14.188 54.6768 14.1367C54.7688 14.0855 54.8819 14.0598 55.0131 14.0598C55.185 14.0598 55.3374 14.1036 55.4686 14.1925C55.5998 14.2815 55.6994 14.4052 55.7672 14.5666C55.8336 14.728 55.8683 14.9044 55.8683 15.096C55.8683 15.3026 55.8306 15.4881 55.7567 15.6525C55.6828 15.8169 55.5757 15.9436 55.4339 16.0311C55.2921 16.1186 55.1443 16.1623 54.989 16.1623C54.8759 16.1623 54.7733 16.1382 54.6828 16.0899C54.5923 16.0417 54.5184 15.9813 54.4596 15.9089V16.8938H54.1172V16.8953ZM54.4279 15.1231C54.4279 15.3825 54.4807 15.5741 54.5848 15.6978C54.6888 15.8214 54.817 15.8833 54.9648 15.8833C55.1127 15.8833 55.2469 15.8199 55.354 15.6902C55.4626 15.562 55.5154 15.3629 55.5154 15.0945C55.5154 14.826 55.4626 14.6465 55.357 14.5183C55.2514 14.3901 55.1262 14.3268 54.9784 14.3268C54.8306 14.3268 54.7039 14.3946 54.5923 14.5304C54.4807 14.6661 54.4249 14.8637 54.4249 15.1231H54.4279Z" fill="white"/>
<path fill-rule="evenodd" clip-rule="evenodd" d="M57.6581 15.467L58.0126 15.5138C57.9568 15.7189 57.8542 15.8788 57.7034 15.9934C57.5526 16.1065 57.361 16.1638 57.1272 16.1638C56.8331 16.1638 56.5993 16.0733 56.4274 15.8923C56.2554 15.7113 56.168 15.4565 56.168 15.1292C56.168 14.8019 56.2555 14.5274 56.4289 14.3403C56.6039 14.1533 56.8301 14.0598 57.1076 14.0598C57.3851 14.0598 57.5963 14.1518 57.7667 14.3343C57.9372 14.5183 58.0231 14.7762 58.0231 15.108C58.0231 15.1277 58.0232 15.1593 58.0216 15.1985H56.5179C56.53 15.4203 56.5933 15.5892 56.7049 15.7068C56.818 15.8245 56.9583 15.8833 57.1257 15.8833C57.2509 15.8833 57.358 15.8501 57.447 15.7837C57.536 15.7174 57.6054 15.6118 57.6581 15.467ZM56.5375 14.9195H57.6612C57.6461 14.7491 57.6023 14.6224 57.533 14.5379C57.4244 14.4067 57.2841 14.3403 57.1106 14.3403C56.9538 14.3403 56.8226 14.3931 56.7155 14.4987C56.6084 14.6043 56.5496 14.7446 56.5375 14.921V14.9195Z" fill="white"/>
<path d="M59.7672 16.1218V15.8217C59.6103 16.0509 59.3977 16.164 59.1292 16.164C59.01 16.164 58.8999 16.1414 58.7974 16.0962C58.6948 16.0509 58.6179 15.9936 58.5681 15.9242C58.5183 15.8548 58.4836 15.7704 58.4625 15.6708C58.4489 15.6045 58.4414 15.4974 58.4414 15.3526V14.1038H58.7838V15.2214C58.7838 15.3993 58.7913 15.52 58.8049 15.5818C58.826 15.6723 58.8713 15.7417 58.9406 15.793C59.01 15.8443 59.096 15.8699 59.1986 15.8699C59.3011 15.8699 59.3977 15.8443 59.4866 15.7915C59.5756 15.7387 59.6405 15.6678 59.6767 15.5773C59.7144 15.4868 59.7325 15.3556 59.7325 15.1837V14.1038H60.0749V16.1233H59.7672V16.1218Z" fill="white"/>
<path fill-rule="evenodd" clip-rule="evenodd" d="M62.9954 16.1218V15.8654C62.8672 16.0644 62.6801 16.164 62.4313 16.164C62.2699 16.164 62.1221 16.1203 61.9878 16.0313C61.8536 15.9423 61.748 15.8186 61.6741 15.6602C61.6002 15.5019 61.5625 15.3194 61.5625 15.1127C61.5625 14.9061 61.5957 14.7296 61.6636 14.5652C61.7299 14.4008 61.831 14.2757 61.9652 14.1882C62.0994 14.1007 62.2488 14.057 62.4147 14.057C62.5368 14.057 62.6439 14.0826 62.739 14.1339C62.834 14.1852 62.9109 14.253 62.9712 14.3345V13.333H63.3136V16.1187H62.9954V16.1218ZM61.9139 15.1142C61.9139 15.3722 61.9682 15.5652 62.0783 15.6919C62.1869 15.8201 62.3166 15.8835 62.4644 15.8835C62.6123 15.8835 62.742 15.8231 62.846 15.701C62.9501 15.5788 63.0029 15.3933 63.0029 15.1429C63.0029 14.8669 62.9501 14.6648 62.843 14.5366C62.7359 14.4084 62.6047 14.3435 62.4494 14.3435C62.294 14.3435 62.1703 14.4054 62.0678 14.529C61.9652 14.6527 61.9139 14.8473 61.9139 15.1142Z" fill="white"/>
<path fill-rule="evenodd" clip-rule="evenodd" d="M65.2363 15.467L65.5907 15.5138C65.5349 15.7189 65.4323 15.8788 65.2815 15.9934C65.1307 16.1065 64.9391 16.1638 64.7054 16.1638C64.4112 16.1638 64.1775 16.0733 64.0055 15.8923C63.8336 15.7113 63.7461 15.4565 63.7461 15.1292C63.7461 14.8019 63.8336 14.5274 64.007 14.3403C64.182 14.1533 64.4082 14.0598 64.6857 14.0598C64.9633 14.0598 65.1744 14.1518 65.3449 14.3343C65.5153 14.5183 65.6013 14.7762 65.6013 15.108C65.6013 15.1277 65.6013 15.1593 65.5998 15.1985H64.096C64.1081 15.4203 64.1714 15.5892 64.283 15.7068C64.3962 15.8245 64.5364 15.8833 64.7038 15.8833C64.829 15.8833 64.9361 15.8501 65.0251 15.7837C65.1141 15.7174 65.1835 15.6118 65.2363 15.467ZM64.1156 14.9195H65.2393C65.2242 14.7491 65.1805 14.6224 65.1111 14.5379C65.0025 14.4067 64.8622 14.3403 64.6888 14.3403C64.5319 14.3403 64.4007 14.3931 64.2936 14.4987C64.1865 14.6043 64.1277 14.7446 64.1156 14.921V14.9195Z" fill="white"/>
<path d="M33.8301 0.817383H34.4575V2.49456C34.4575 2.76001 34.4651 2.93346 34.4801 3.01188C34.5073 3.13858 34.5691 3.23963 34.6687 3.31655C34.7682 3.39347 34.904 3.43118 35.0774 3.43118C35.2509 3.43118 35.3851 3.39498 35.4741 3.32258C35.5631 3.25019 35.6174 3.1612 35.6355 3.05562C35.6536 2.95005 35.6626 2.77509 35.6626 2.52925V0.817383H36.2901V2.44478C36.2901 2.81732 36.2735 3.07976 36.2403 3.2336C36.2071 3.38744 36.1453 3.51715 36.0548 3.62273C35.9643 3.7283 35.8436 3.81276 35.6913 3.8746C35.5405 3.93795 35.3414 3.96811 35.0985 3.96811C34.8044 3.96811 34.5812 3.93342 34.4289 3.86555C34.2765 3.79768 34.1559 3.7087 34.0684 3.59859C33.9794 3.49 33.9221 3.37537 33.8934 3.25471C33.8527 3.07674 33.8331 2.81581 33.8331 2.46892V0.817383H33.8301Z" fill="white"/>
<path d="M36.9531 3.91231V0.817383H37.5595L38.8339 2.89122V0.817383H39.4131V3.91231H38.7872L37.5323 1.87768V3.91231H36.9531Z" fill="white"/>
<path d="M40.0586 3.91231V0.817383H40.6845V3.91231H40.0586Z" fill="white"/>
<path fill-rule="evenodd" clip-rule="evenodd" d="M44.062 3.9124H43.3878L43.1208 3.20804H41.8795L41.6231 3.9124H40.9609L42.163 0.817471H42.8252L44.065 3.9124H44.062ZM42.9172 2.68468L42.4873 1.53992L42.0695 2.68468H42.9172ZM42.065 0.539953H41.792C41.792 0.50828 41.7905 0.48264 41.7905 0.464541C41.7905 0.316732 41.8267 0.203614 41.8976 0.123676C41.97 0.0437392 42.062 0.00452475 42.1751 0.00452475C42.2249 0.00452475 42.2701 0.00904949 42.3124 0.0196072C42.3546 0.030165 42.4315 0.0603299 42.5431 0.110102C42.6547 0.159874 42.7422 0.185515 42.8071 0.185515C42.8523 0.185515 42.89 0.17194 42.9202 0.143284C42.9504 0.114627 42.97 0.0663629 42.979 0H43.252C43.252 0.191548 43.2158 0.330306 43.1449 0.411752C43.0755 0.494706 42.9866 0.535428 42.8764 0.535428C42.8282 0.535428 42.7814 0.530904 42.7347 0.520346C42.703 0.511296 42.6215 0.481131 42.4918 0.431359C42.3621 0.380079 42.2686 0.354438 42.2098 0.354438C42.1645 0.354438 42.1299 0.368013 42.1042 0.396669C42.0786 0.423818 42.065 0.472082 42.0635 0.541461L42.065 0.539953Z" fill="white"/>
<path fill-rule="evenodd" clip-rule="evenodd" d="M44.2715 2.3826C44.2715 2.06737 44.3182 1.80192 44.4133 1.58775C44.4842 1.42938 44.5792 1.28761 44.7013 1.16242C44.8235 1.03724 44.9562 0.943729 45.101 0.883399C45.2941 0.801953 45.5158 0.76123 45.7692 0.76123C46.2262 0.76123 46.5912 0.903006 46.8642 1.18656C47.1387 1.47011 47.2745 1.86376 47.2745 2.36902C47.2745 2.87429 47.1387 3.26191 46.8672 3.54395C46.5957 3.82599 46.2322 3.96777 45.7767 3.96777C45.3212 3.96777 44.9502 3.8275 44.6787 3.54546C44.4072 3.26342 44.2715 2.8773 44.2715 2.3826ZM44.9155 2.36148C44.9155 2.7129 44.997 2.97836 45.1584 3.15935C45.3212 3.34034 45.5264 3.43083 45.7767 3.43083C46.0271 3.43083 46.2307 3.34034 46.3921 3.16085C46.552 2.98137 46.6319 2.7114 46.6319 2.35243C46.6319 1.99347 46.5535 1.73254 46.3982 1.55759C46.2428 1.38263 46.0347 1.29515 45.7767 1.29515C45.5188 1.29515 45.3107 1.38414 45.1523 1.5606C44.9939 1.73707 44.9155 2.00403 44.9155 2.36148Z" fill="white"/>
<path d="M48.9609 3.91231V0.817383H51.252V1.33924H49.5884V2.027H51.1359V2.55036H49.5884V3.38895H51.3123V3.91231H48.9609Z" fill="white"/>
<path d="M51.8379 0.817383H52.4653V2.49456C52.4653 2.76001 52.4729 2.93346 52.488 3.01188C52.5151 3.13858 52.5769 3.23963 52.6765 3.31655C52.776 3.39347 52.9118 3.43118 53.0852 3.43118C53.2587 3.43118 53.3929 3.39498 53.4819 3.32258C53.5709 3.25019 53.6252 3.1612 53.6433 3.05562C53.6614 2.95005 53.6704 2.77509 53.6704 2.52925V0.817383H54.2979V2.44478C54.2979 2.81732 54.2813 3.07976 54.2481 3.2336C54.2149 3.38744 54.1531 3.51715 54.0626 3.62273C53.9721 3.7283 53.8514 3.81276 53.6991 3.8746C53.5483 3.93795 53.3492 3.96811 53.1063 3.96811C52.8122 3.96811 52.589 3.93342 52.4367 3.86555C52.2843 3.79768 52.1637 3.7087 52.0762 3.59859C51.9872 3.49 51.9299 3.37537 51.9012 3.25471C51.8605 3.07674 51.8409 2.81581 51.8409 2.46892V0.817383H51.8379Z" fill="white"/>
<path fill-rule="evenodd" clip-rule="evenodd" d="M54.9629 3.91231V0.817383H56.2796C56.6099 0.817383 56.8513 0.844531 57.0006 0.900336C57.1499 0.956142 57.2706 1.05418 57.361 1.19746C57.4515 1.33924 57.4968 1.50213 57.4968 1.68463C57.4968 1.9169 57.4289 2.10844 57.2932 2.25927C57.1574 2.41009 56.9538 2.50662 56.6823 2.54584C56.8166 2.62426 56.9282 2.71174 57.0157 2.80525C57.1031 2.90027 57.2208 3.06769 57.3701 3.3075L57.7472 3.9108H57.0006L56.5526 3.23511C56.3912 2.99529 56.2811 2.84447 56.2223 2.78112C56.1635 2.71928 56.1001 2.67555 56.0338 2.65292C55.9674 2.6303 55.8618 2.61823 55.7185 2.61823H55.5918V3.9108H54.9644L54.9629 3.91231ZM55.5903 2.12654H56.0519C56.352 2.12654 56.539 2.11448 56.6129 2.08884C56.6869 2.0632 56.7457 2.01946 56.7879 1.95762C56.8301 1.89578 56.8513 1.81735 56.8513 1.72535C56.8513 1.62128 56.8241 1.53682 56.7683 1.47196C56.7125 1.40711 56.6341 1.36789 56.533 1.34979C56.4817 1.34225 56.3309 1.33924 56.0775 1.33924H55.5903V2.12654Z" fill="white"/>
<path fill-rule="evenodd" clip-rule="evenodd" d="M57.957 2.3826C57.957 2.06737 58.0038 1.80192 58.0988 1.58775C58.1697 1.42938 58.2647 1.28761 58.3869 1.16242C58.5091 1.03724 58.6418 0.943729 58.7866 0.883399C58.9796 0.801953 59.2014 0.76123 59.4547 0.76123C59.9118 0.76123 60.2768 0.903006 60.5498 1.18656C60.8243 1.47011 60.96 1.86376 60.96 2.36902C60.96 2.87429 60.8243 3.26191 60.5528 3.54395C60.2813 3.82599 59.9178 3.96777 59.4623 3.96777C59.0068 3.96777 58.6358 3.8275 58.3643 3.54546C58.0928 3.26342 57.957 2.8773 57.957 2.3826ZM58.6011 2.36148C58.6011 2.7129 58.6825 2.97836 58.8439 3.15935C59.0068 3.34034 59.2119 3.43083 59.4623 3.43083C59.7127 3.43083 59.9163 3.34034 60.0777 3.16085C60.2375 2.98137 60.3175 2.7114 60.3175 2.35243C60.3175 1.99347 60.2391 1.73254 60.0837 1.55759C59.9283 1.38263 59.7202 1.29515 59.4623 1.29515C59.2044 1.29515 58.9962 1.38414 58.8379 1.5606C58.6795 1.73707 58.6011 2.00403 58.6011 2.36148Z" fill="white"/>
<path fill-rule="evenodd" clip-rule="evenodd" d="M61.4468 3.91231V0.817383H62.4483C62.8284 0.817383 63.0758 0.832465 63.1904 0.864139C63.3669 0.910894 63.5162 1.01195 63.6353 1.1673C63.7545 1.32265 63.8148 1.52324 63.8148 1.7706C63.8148 1.96064 63.7801 2.12051 63.7123 2.25022C63.6429 2.37993 63.5554 2.48098 63.4498 2.55489C63.3442 2.62879 63.2356 2.67705 63.127 2.70119C62.9777 2.73135 62.762 2.74492 62.48 2.74492H62.0728V3.91231H61.4453H61.4468ZM62.0728 1.33924V2.22156H62.4136C62.6595 2.22156 62.8224 2.20497 62.9053 2.1733C62.9883 2.14012 63.0531 2.09034 63.0999 2.02097C63.1466 1.95159 63.1708 1.87165 63.1708 1.77965C63.1708 1.66653 63.1376 1.57302 63.0712 1.49911C63.0049 1.42521 62.9219 1.37996 62.8209 1.36186C62.747 1.34829 62.5976 1.34075 62.3729 1.34075H62.0728V1.33924Z" fill="white"/>
<path d="M64.3262 3.91231V0.817383H66.6172V1.33924H64.9536V2.027H66.5011V2.55036H64.9536V3.38895H66.6776V3.91231H64.3262Z" fill="white"/>
<path d="M67.1836 3.91231V0.817383H67.8095V3.91231H67.1836Z" fill="white"/>
<path fill-rule="evenodd" clip-rule="evenodd" d="M71.1889 3.91231H70.5147L70.2477 3.20796H69.0064L68.75 3.91231H68.0879L69.29 0.817383H69.9521L71.1919 3.91231H71.1889ZM70.0441 2.68459L69.6143 1.53983L69.1965 2.68459H70.0441Z" fill="white"/>
</svg>
