<svg width="122" height="19" viewBox="0 0 122 19" fill="none" xmlns="http://www.w3.org/2000/svg">
<path d="M0 16.6162H0.781475C1.22249 16.6162 1.46593 16.879 1.46593 17.2319C1.46593 17.5847 1.22249 17.8457 0.781475 17.8457H0.381035V18.5161H0.590957V18.6607H0V18.5161H0.183461V16.7609H0V16.6162ZM0.763834 17.6887C1.09724 17.6887 1.26306 17.5088 1.26306 17.2319C1.26306 16.9549 1.09548 16.7714 0.763834 16.7714H0.382799V17.6887H0.763834Z" fill="white"/>
<path d="M2.42462 17.8208H1.97655V18.5158H2.18647V18.6605H1.59375V18.5158H1.77721V16.7606H1.59375V16.616H2.38757C2.83035 16.616 3.07026 16.8806 3.07026 17.2263C3.07026 17.5033 2.91679 17.7167 2.62219 17.789L3.07555 18.5158H3.26431V18.6605H2.94325L2.42285 17.8208H2.42462ZM2.36288 17.6638C2.71216 17.6638 2.86739 17.4927 2.86739 17.221C2.86739 16.9494 2.70863 16.7712 2.36288 16.7712H1.97831V17.6638H2.36288Z" fill="white"/>
<path d="M3.35742 17.6371C3.35742 17.0321 3.82666 16.5911 4.40703 16.5911C4.98741 16.5911 5.45841 17.0321 5.45841 17.6371C5.45841 18.2422 4.98917 18.6832 4.40703 18.6832C3.8249 18.6832 3.35742 18.2422 3.35742 17.6371ZM5.25201 17.6371C5.25201 17.1379 4.89391 16.7622 4.40703 16.7622C3.92015 16.7622 3.56205 17.1379 3.56205 17.6371C3.56205 18.1363 3.92015 18.5121 4.40703 18.5121C4.89391 18.5121 5.25201 18.1363 5.25201 17.6371Z" fill="white"/>
<path d="M7.39976 18.4345C7.25158 18.5809 7.02931 18.6832 6.73295 18.6832C6.16669 18.6832 5.69922 18.2792 5.69922 17.6371C5.69922 17.0321 6.16493 16.5911 6.72766 16.5911C7.00991 16.5911 7.22689 16.6846 7.34684 16.8486V16.614H7.50914V17.1397H7.35566C7.27981 16.8892 7.06283 16.7639 6.73825 16.7639C6.25137 16.7639 5.90208 17.1361 5.90208 17.6354C5.90208 18.1346 6.26548 18.5103 6.74883 18.5103C7.06812 18.5103 7.2657 18.3868 7.38918 18.2634V17.8329H6.77353V17.6759H7.57617V18.6567H7.398V18.4309L7.39976 18.4345Z" fill="white"/>
<path d="M8.69629 17.8208H8.24822V18.5158H8.45814V18.6605H7.86719V18.5158H8.05065V16.7606H7.86719V16.616H8.66101C9.10379 16.616 9.3437 16.8806 9.3437 17.2263C9.3437 17.5033 9.19023 17.7167 8.89563 17.789L9.34899 18.5158H9.53951V18.6605H9.21845L8.69806 17.8208H8.69629ZM8.63279 17.6638C8.98207 17.6638 9.1373 17.4927 9.1373 17.221C9.1373 16.9494 8.97854 16.7712 8.63279 16.7712H8.24822V17.6638H8.63279Z" fill="white"/>
<path d="M11.614 18.6605H11.0548V18.5158H11.2506L11.1025 18.1101H10.1852L10.0352 18.5158H10.2328V18.6605H9.68945V18.5158H9.84469L10.485 16.7606H10.3369V16.616H10.9613V16.7606H10.8114L11.4517 18.5158H11.6105V18.6605H11.614ZM10.2416 17.9443H11.0495L10.6473 16.8047L10.2416 17.9443Z" fill="white"/>
<path d="M14.0649 18.6605H13.4827V18.5158H13.6891V16.9229L12.9641 18.0413H12.883L12.1579 16.9106V18.5158H12.3679V18.6605H11.7963V18.5158H11.9798V16.7606H11.791V16.616H12.1809L12.9271 17.7802L13.6768 16.616H14.0702V16.7606H13.8814V18.5158H14.0649V18.6605Z" fill="white"/>
<path d="M16.1709 18.6605H15.6117V18.5158H15.8075L15.6611 18.1101H14.7437L14.5938 18.5158H14.7914V18.6605H14.248V18.5158H14.4033L15.0436 16.7606H14.8972V16.616H15.5217V16.7606H15.3717L16.0121 18.5158H16.1709V18.6605ZM14.7967 17.9443H15.6046L15.2006 16.8047L14.7949 17.9443H14.7967Z" fill="white"/>
<path d="M16.8594 17.6371C16.8594 17.0321 17.3286 16.5911 17.909 16.5911C18.4894 16.5911 18.9604 17.0321 18.9604 17.6371C18.9604 18.2422 18.4911 18.6832 17.909 18.6832C17.3268 18.6832 16.8594 18.2422 16.8594 17.6371ZM18.754 17.6371C18.754 17.1379 18.3959 16.7622 17.909 16.7622C17.4221 16.7622 17.064 17.1379 17.064 17.6371C17.064 18.1363 17.4221 18.5121 17.909 18.5121C18.3959 18.5121 18.754 18.1363 18.754 17.6371Z" fill="white"/>
<path d="M19.158 16.616H19.9395C20.3805 16.616 20.6257 16.8788 20.6257 17.2316C20.6257 17.5844 20.3823 17.8455 19.9395 17.8455H19.5391V18.5158H19.749V18.6605H19.1562V18.5158H19.3397V16.7606H19.1562V16.616H19.158ZM19.9218 17.6885C20.2553 17.6885 20.4211 17.5086 20.4211 17.2316C20.4211 16.9547 20.2517 16.7712 19.9218 16.7712H19.5391V17.6885H19.9218Z" fill="white"/>
<path d="M22.0095 16.7779H21.131V17.5541H21.9513V17.7111H21.131V18.4996H22.0519V18.2173H22.2106V18.6636H20.75V18.519H20.9335V16.7638H20.75V16.6191H22.1683V17.0637H22.0095V16.7814V16.7779Z" fill="white"/>
<path d="M23.2781 17.8208H22.8301V18.5158H23.04V18.6605H22.4473V18.5158H22.6307V16.7606H22.4473V16.616H23.2411C23.6821 16.616 23.9238 16.8806 23.9238 17.2263C23.9238 17.5033 23.7703 17.7167 23.4757 17.789L23.9291 18.5158H24.1196V18.6605H23.7968L23.2764 17.8208H23.2781ZM23.2146 17.6638C23.5639 17.6638 23.7191 17.4927 23.7191 17.221C23.7191 16.9494 23.5604 16.7712 23.2146 16.7712H22.8301V17.6638H23.2146Z" fill="white"/>
<path d="M26.1982 18.6605H25.639V18.5158H25.8348L25.6884 18.1101H24.7711L24.6211 18.5158H24.8187V18.6605H24.2754V18.5158H24.4324L25.071 16.7606H24.9246V16.616H25.549V16.7606H25.3991L26.0394 18.5158H26.2V18.6605H26.1982ZM24.824 17.9443H25.6337L25.2315 16.8047L24.8258 17.9443H24.824Z" fill="white"/>
<path d="M27.2531 16.5872C27.5512 16.5872 27.7664 16.6895 27.8899 16.8676V16.6154H28.0522V17.1869H27.904C27.8317 16.8976 27.5706 16.7618 27.2636 16.7618C26.7768 16.7618 26.431 17.1375 26.431 17.6367C26.431 18.136 26.7891 18.5117 27.2707 18.5117C27.5671 18.5117 27.8087 18.3829 27.9675 18.166L28.1174 18.2753C27.9199 18.5399 27.6323 18.6828 27.2672 18.6828C26.6815 18.6828 26.2246 18.2453 26.2246 17.6367C26.2281 17.0264 26.6815 16.5872 27.2531 16.5872Z" fill="white"/>
<path d="M28.3047 16.616H28.8674V16.7606H28.684V18.5158H28.8674V18.6605H28.3047V18.5158H28.4881V16.7606H28.3047V16.616Z" fill="white"/>
<path d="M29.0605 17.6371C29.0605 17.0321 29.5298 16.5911 30.1102 16.5911C30.6905 16.5911 31.1633 17.0321 31.1633 17.6371C31.1633 18.2422 30.6941 18.6832 30.1102 18.6832C29.5263 18.6832 29.0605 18.2422 29.0605 17.6371ZM30.9534 17.6371C30.9534 17.1379 30.5953 16.7622 30.1084 16.7622C29.6215 16.7622 29.2634 17.1379 29.2634 17.6371C29.2634 18.1363 29.6215 18.5121 30.1084 18.5121C30.5953 18.5121 30.9534 18.1363 30.9534 17.6371Z" fill="white"/>
<path d="M33.3032 16.7589H33.1197V18.6605H32.9909L31.7208 16.8982V18.5158H31.9219V18.6605H31.3574V18.5158H31.5409V16.7606H31.3574V16.616H31.7385L32.938 18.2847V16.7606H32.7334V16.616H33.3014V16.7606L33.3032 16.7589Z" fill="white"/>
<path d="M35.3115 18.6605H34.7523V18.5158H34.9481L34.8017 18.1101H33.8844L33.7344 18.5158H33.932V18.6605H33.3887V18.5158H33.5439L34.1843 16.7606H34.0361V16.616H34.6623V16.7606H34.5124L35.1527 18.5158H35.3115V18.6605ZM33.9391 17.9443H34.747L34.343 16.8047L33.9373 17.9443H33.9391Z" fill="white"/>
<path d="M35.4941 16.616H36.0604V16.7606H35.8769V18.4982H36.6831V18.2159H36.8454V18.6622H35.4959V18.5176H35.6794V16.7624H35.4959V16.6177L35.4941 16.616Z" fill="white"/>
<path d="M38.3895 17.8208H37.9414V18.5158H38.1513V18.6605H37.5586V18.5158H37.7421V16.7606H37.5586V16.616H38.3524C38.7952 16.616 39.0351 16.8806 39.0351 17.2263C39.0351 17.5033 38.8816 17.7167 38.587 17.789L39.0404 18.5158H39.2292V18.6605H38.9063L38.3859 17.8208H38.3895ZM38.3277 17.6638C38.677 17.6638 38.8322 17.4927 38.8322 17.221C38.8322 16.9494 38.6735 16.7712 38.3277 16.7712H37.9432V17.6638H38.3277Z" fill="white"/>
<path d="M40.6795 16.7779H39.8027V17.5541H40.623V17.7111H39.8027V18.4996H40.7218V18.2173H40.8806V18.6636H39.4199V18.519H39.6034V16.7638H39.4199V16.6191H40.8382V17.0637H40.6795V16.7814V16.7779Z" fill="white"/>
<path d="M42.8039 18.4345C42.6575 18.5809 42.4352 18.6832 42.1353 18.6832C41.5708 18.6832 41.1016 18.2792 41.1016 17.6371C41.1016 17.0321 41.5673 16.5911 42.13 16.5911C42.414 16.5911 42.6292 16.6846 42.7492 16.8486V16.614H42.9115V17.1397H42.758C42.6822 16.8892 42.4669 16.7639 42.1424 16.7639C41.6555 16.7639 41.3062 17.1361 41.3062 17.6354C41.3062 18.1346 41.6696 18.5103 42.1547 18.5103C42.4722 18.5103 42.6698 18.3868 42.7951 18.2634V17.8329H42.1776V17.6759H42.9803V18.6567H42.8021V18.4309L42.8039 18.4345Z" fill="white"/>
<path d="M43.2715 16.616H43.8325V16.7606H43.649V18.5158H43.8325V18.6605H43.2715V18.5158H43.4549V16.7606H43.2715V16.616Z" fill="white"/>
<path d="M44.0234 17.6371C44.0234 17.0321 44.4927 16.5911 45.073 16.5911C45.6534 16.5911 46.1262 17.0321 46.1262 17.6371C46.1262 18.2422 45.6569 18.6832 45.073 18.6832C44.4891 18.6832 44.0234 18.2422 44.0234 17.6371ZM45.918 17.6371C45.918 17.1379 45.5599 16.7622 45.073 16.7622C44.5862 16.7622 44.2281 17.1379 44.2281 17.6371C44.2281 18.1363 44.5862 18.5121 45.073 18.5121C45.5599 18.5121 45.918 18.1363 45.918 17.6371Z" fill="white"/>
<path d="M48.2661 16.7589H48.0826V18.6605H47.9538L46.6855 16.8982V18.5158H46.8866V18.6605H46.3203V18.5158H46.5038V16.7606H46.3203V16.616H46.7031L47.9027 18.2847V16.7606H47.698V16.616H48.2661V16.7606V16.7589Z" fill="white"/>
<path d="M50.2783 18.6605H49.7191V18.5158H49.9149L49.7685 18.1101H48.8512L48.7012 18.5158H48.8988V18.6605H48.3555V18.5158H48.5125L49.1528 16.7606H49.0064V16.616H49.6309V16.7606H49.4809L50.1213 18.5158H50.28V18.6605H50.2783ZM48.9041 17.9443H49.712L49.3098 16.8047L48.9041 17.9443Z" fill="white"/>
<path d="M50.457 16.616H51.0233V16.7606H50.8398V18.4982H51.646V18.2159H51.8083V18.6622H50.457V18.5176H50.6405V16.7624H50.457V16.6177V16.616Z" fill="white"/>
<path d="M52.5195 16.616H53.2146C53.8902 16.616 54.2942 17.034 54.2942 17.6391C54.2942 18.2442 53.8937 18.6605 53.2146 18.6605H52.5195V18.5158H52.703V16.7606H52.5195V16.616ZM53.1969 18.4982C53.802 18.4982 54.0895 18.1401 54.0895 17.6391C54.0895 17.1381 53.8002 16.7783 53.1969 16.7783H52.9023V18.4982H53.1969Z" fill="white"/>
<path d="M54.5352 17.6371C54.5352 17.0321 55.0044 16.5911 55.5848 16.5911C56.1651 16.5911 56.6379 17.0321 56.6379 17.6371C56.6379 18.2422 56.1687 18.6832 55.5848 18.6832C55.0009 18.6832 54.5352 18.2422 54.5352 17.6371ZM56.428 17.6371C56.428 17.1379 56.0699 16.7622 55.583 16.7622C55.0961 16.7622 54.738 17.1379 54.738 17.6371C54.738 18.1363 55.0961 18.5121 55.583 18.5121C56.0699 18.5121 56.428 18.1363 56.428 17.6371Z" fill="white"/>
<path d="M59.3344 16.7589H59.151V18.6605H59.0222L57.7521 16.8982V18.5158H57.9549V18.6605H57.3887V18.5158H57.5721V16.7606H57.3887V16.616H57.7697L58.9693 18.2847V16.7606H58.7646V16.616H59.3327V16.7606L59.3344 16.7589Z" fill="white"/>
<path d="M59.5195 17.6371C59.5195 17.0321 59.987 16.5911 60.5691 16.5911C61.1513 16.5911 61.6205 17.0321 61.6205 17.6371C61.6205 18.2422 61.1513 18.6832 60.5691 18.6832C59.987 18.6832 59.5195 18.2422 59.5195 17.6371ZM61.4141 17.6371C61.4141 17.1379 61.056 16.7622 60.5691 16.7622C60.0823 16.7622 59.7242 17.1379 59.7242 17.6371C59.7242 18.1363 60.0823 18.5121 60.5691 18.5121C61.056 18.5121 61.4141 18.1363 61.4141 17.6371Z" fill="white"/>
<path d="M62.6453 17.8208H62.1972V18.5158H62.4072V18.6605H61.8145V18.5158H61.9979V16.7606H61.8145V16.616H62.6083C63.0493 16.616 63.291 16.8806 63.291 17.2263C63.291 17.5033 63.1375 17.7167 62.8429 17.789L63.298 18.5158H63.4868V18.6605H63.1657L62.6453 17.8208ZM62.5818 17.6638C62.9293 17.6638 63.0863 17.4927 63.0863 17.221C63.0863 16.9494 62.9276 16.7712 62.5818 16.7712H62.1972V17.6638H62.5818Z" fill="white"/>
<path d="M64.942 16.7783H64.4304V18.5158H64.6297V18.6605H64.037V18.5158H64.2346V16.7783H63.7248V17.0605H63.5625V16.616H65.1008V17.0605H64.942V16.7783Z" fill="white"/>
<path d="M66.5642 16.7779H65.6875V17.5541H66.5078V17.7111H65.6875V18.4996H66.6066V18.2173H66.7653V18.6636H65.3047V18.519H65.4881V16.7638H65.3047V16.6191H66.723V17.0637H66.5642V16.7814V16.7779Z" fill="white"/>
<path d="M95.7263 13.2901H106.702V9.86792H95.7263V13.2901ZM101.115 6.25344C103.666 4.4171 105.129 0.0158762 101.451 0.0158762C104.43 0.0158762 106.572 1.80283 106.572 4.27951V4.31655C106.572 6.30813 105.51 7.38947 103.945 8.3932L103.813 8.47787H97.792L101.115 6.25344ZM109.743 1.90514C108.41 3.13995 107.597 4.87575 107.597 6.81087V6.84792C107.597 9.31049 108.9 11.4361 110.92 12.6198C114.459 13.874 118.05 12.1135 118.05 8.80245C118.05 7.97689 117.832 7.20954 117.44 6.58684C117.445 6.66093 117.447 6.73502 117.447 6.81087V6.84792C117.447 7.89575 116.957 8.87301 116.115 9.38634C113.028 11.7307 109.036 9.55569 109.036 4.88104C109.036 3.84909 109.281 2.81714 109.743 1.90514ZM121.85 6.81087C121.85 10.533 118.841 13.5159 114.912 13.6182C117.569 13.5335 119.23 11.2862 119.23 8.80422V8.74247C119.23 6.18288 117.475 3.87026 114.704 3.8632C113.039 3.87026 111.998 5.24795 111.998 6.77383V6.81087C111.998 8.34733 113.046 9.73738 114.702 9.75855C111.952 9.73032 110.214 7.42828 110.214 4.88104V4.81753C110.214 2.28617 111.943 0 114.692 0H114.741C118.772 0 121.85 2.98472 121.85 6.77207V6.80911V6.81087ZM75.833 2.24912C76.1188 0.698551 74.5276 -0.0793808 72.9294 0.216974C71.3171 0.596238 70.1898 1.50471 69.075 2.88417L71.9416 5.32204C73.0211 4.16838 73.7091 3.70267 74.4553 3.70267C74.7305 3.70267 74.9634 3.75912 75.1451 3.85791C75.4979 3.31459 75.7413 2.74305 75.833 2.25089M69.1032 9.86792H80.0791V13.2901H69.1032V9.86792ZM71.1707 8.47787H77.1896L77.3219 8.3932C78.8866 7.38771 79.9468 6.30813 79.9468 4.31655V4.27951C79.9468 1.80283 77.8053 0.0158762 74.8258 0.0158762C78.5056 0.0158762 77.0432 4.41534 74.4924 6.25344L71.1707 8.47787ZM15.7001 4.88104C15.7001 9.55392 19.6939 11.729 22.7792 9.38634C23.6224 8.87301 24.1111 7.89575 24.1111 6.84792V6.81087C24.1111 6.73678 24.1093 6.6627 24.104 6.58684C24.4956 7.21131 24.7144 7.97689 24.7144 8.80245C24.7144 12.1135 21.121 13.874 17.5823 12.6198C15.5625 11.4361 14.2588 9.31049 14.2588 6.84792V6.81087C14.2588 4.87575 15.0721 3.13995 16.4057 1.90514C15.9435 2.81714 15.6983 3.84909 15.6983 4.88104M35.9866 3.75912C36.9939 3.75912 37.6466 4.25834 37.6466 5.11918C38.6698 4.79989 39.0191 4.13309 39.0191 3.40632C39.0191 1.37241 36.7558 0.276951 34.2596 0.276951L29.719 0.280479V3.75912H35.9866ZM28.5159 6.81087C28.5159 10.533 25.5064 13.5159 21.5779 13.6182C24.2345 13.5335 25.898 11.2862 25.898 8.80422V8.74247C25.898 6.18288 24.1428 3.87026 21.3697 3.8632C19.7045 3.87026 18.6637 5.24795 18.6637 6.77383V6.81087C18.6637 8.34733 19.7115 9.73738 21.368 9.75855C18.6178 9.73032 16.8802 7.42828 16.8802 4.88104V4.81753C16.8802 2.28617 18.6072 0 21.3556 0H21.405C25.4341 0 28.5141 2.98472 28.5141 6.77207V6.80911L28.5159 6.81087ZM4.32898 0.280479H0L8.73205 13.3395H13.061L4.32898 0.280479ZM8.73205 0.280479H13.061V10.8064L8.73205 4.42063V0.280479ZM0 2.94944V13.3413H4.32898V9.33695L0 2.94944ZM40.0951 9.88556L42.4607 13.3395H37.4808L35.7714 10.7517C37.2127 10.6794 38.7421 10.4941 39.8993 9.97729C39.9646 9.9473 40.0299 9.91731 40.0951 9.88556ZM39.4177 8.89947C40.9489 8.2168 41.9915 6.81087 41.9915 4.90926V4.87222C41.9915 3.52804 41.5822 2.55959 40.7972 1.7746C39.9716 0.947278 38.6874 0.39514 36.7381 0.298119C36.5511 0.284007 36.3571 0.278715 36.1595 0.278715L36.0978 0.282243C36.3201 0.282243 36.5335 0.287535 36.7399 0.298119C38.8585 0.446297 40.1992 1.44297 40.1992 3.31812V3.40808C40.1992 5.36085 38.6592 6.49512 36.1154 6.49512H35.0164V9.61037C35.0164 9.61037 37.8883 9.58391 39.4195 8.90124M42.5507 0.280479H54.6115V3.70973H42.5507V0.280479ZM55.6205 3.70973H66.7358V0.282243H55.6205V3.71149V3.70973ZM55.6205 9.92789H66.7358V13.3571H55.6205V9.92789ZM29.719 13.3413H34.0462V5.10154H29.719V13.3413ZM82.4147 4.88104C82.4147 9.55392 86.4085 11.729 89.4939 9.38634C90.3371 8.87301 90.8257 7.89575 90.8257 6.84792V6.81087C90.8257 6.73678 90.824 6.6627 90.8187 6.58684C91.2103 7.21131 91.4308 7.97689 91.4308 8.80245C91.4308 12.1135 87.8374 13.874 84.2987 12.6198C82.2771 11.4361 80.9753 9.31049 80.9753 6.84792V6.81087C80.9753 4.87575 81.7885 3.13995 83.1221 1.90514C82.6599 2.81714 82.4147 3.84909 82.4147 4.88104ZM95.2288 6.77383C95.2288 2.98648 92.1505 0.00176402 88.1197 0.00176402H88.0703C85.3219 0.00176402 83.5949 2.28617 83.5949 4.8193V4.8828C83.5949 7.43004 85.3325 9.73209 88.0826 9.76031C86.4262 9.73914 85.3783 8.3491 85.3783 6.81264V6.77559C85.3783 5.24972 86.4191 3.87202 88.0844 3.86496C90.8575 3.87202 92.6109 6.18288 92.6109 8.74424V8.80598C92.6109 11.288 90.9474 13.5353 88.2908 13.62C92.2193 13.5177 95.2288 10.533 95.2288 6.81264V6.77559V6.77383ZM50.7694 13.3413H46.4404V5.10154H50.7694V13.3413ZM55.6205 8.52903H64.2909V5.10154H55.6205V8.52903ZM101.768 3.85614C101.586 3.75736 101.354 3.70091 101.077 3.70091C100.334 3.70091 99.6442 4.16661 98.5628 5.32028L95.6963 2.88241C96.8129 1.50294 97.9384 0.594474 99.5507 0.21521C101.149 -0.0811448 102.742 0.696787 102.454 2.24736C102.363 2.73952 102.119 3.31106 101.766 3.85438" fill="white"/>
</svg>
