<svg width="52" height="34" viewBox="0 0 52 34" fill="none" xmlns="http://www.w3.org/2000/svg">
<path d="M50.3206 30.616V28.939V27.262V25.5833V23.9063V22.2275V20.5505V18.8735V17.1948V15.5178V13.8408V12.1621H48.6419V13.8408H46.9649V15.5178H45.2878V17.1948H46.9649V18.8735V20.5505V22.2275V23.9063V25.5833V27.262V28.939V30.616H45.2878V28.939H43.6091V27.262H41.9321V25.5833H40.2534V23.9063H38.5764V22.2275H36.8994V20.5505H35.2207V22.2275H33.5437V20.5505V18.8735V17.1948V15.5178V13.8408V12.1621V10.4851V8.8064V7.1294V5.4524V3.77368V2.09668V0.417969H31.865V2.09668H30.188V3.77368H28.511V5.4524H30.188V7.1294V8.8064V10.4851V12.1621V13.8408H28.511H26.8323H25.1553H23.4766V15.5178H25.1553H26.8323V17.1948H28.511H30.188V18.8735V20.5505V22.2275V23.9063V25.5833V27.262V28.939V30.616H28.511V32.2947H30.188H31.865H33.5437H35.2207V30.616H33.5437V28.939V27.262V25.5833V23.9063H35.2207H36.8994V25.5833H38.5764V27.262H40.2534V28.939H41.9321V30.616H40.2534V32.2947H41.9321H43.6091H45.2878H46.9649H48.6419H50.3206H51.9976V30.616H50.3206Z" fill="#403F4C"/>
<path d="M50.3245 8.81103V7.13403V5.45703H48.6457H46.9688V7.13403V8.81103H48.6457H50.3245Z" fill="#403F4C"/>
<path d="M41.9312 15.5168H43.6082H45.2869V13.8398H43.6082H41.9312H40.2524H38.5754H36.8984V15.5168H38.5754H40.2524V17.1938H41.9312V15.5168Z" fill="#403F4C"/>
<path d="M40.2551 17.1953H38.5781V18.874H40.2551V17.1953Z" fill="#403F4C"/>
<path d="M38.5754 18.875H36.8984V20.552H38.5754V18.875Z" fill="#403F4C"/>
<path d="M21.8096 13.8428V12.1641H20.1326V13.8428H18.4539V15.5198H16.7769V17.1968H18.4539V20.5525H16.7769V17.1968H15.0999V15.5198H13.4211V13.8428H5.03272V15.5198H3.35571V17.1968H1.677V20.5525H0V25.5852H1.677V28.9409H3.35571V30.6179H5.03272V32.2966H13.4211V30.6179H15.0999V28.9409H16.7769V25.5852H18.4539V30.6179H16.7769V32.2966H23.4866V30.6179H21.8096V17.1968H23.4866V15.5198H21.8096V13.8428ZM15.0999 22.2295V25.5852H13.4211V28.9409H11.7441V30.6179H6.71143V28.9409H5.03272V25.5852H3.35571V20.5525H5.03272V17.1968H6.71143V15.5198H11.7441V17.1968H13.4211V20.5525H15.0999V22.2295Z" fill="#403F4C"/>
</svg>
