<svg width="40" height="40" viewBox="0 0 40 40" fill="none" xmlns="http://www.w3.org/2000/svg">
<mask id="mask0_6449_26599" style="mask-type:alpha" maskUnits="userSpaceOnUse" x="0" y="0" width="40" height="40">
<rect width="40" height="40" fill="#D9D9D9"/>
</mask>
<g mask="url(#mask0_6449_26599)">
<path d="M18.7479 32.0567L10.3504 27.1538C9.98347 26.9174 9.69333 26.6131 9.48 26.2408C9.26694 25.8686 9.16042 25.4682 9.16042 25.0396L9.16042 15.2404C9.16042 14.8115 9.26694 14.4111 9.48 14.0392C9.69333 13.6669 9.98347 13.3626 10.3504 13.1263L18.7758 8.18917C19.1611 7.97472 19.5692 7.8675 20 7.8675C20.4308 7.8675 20.8389 7.97472 21.2242 8.18917L29.6496 13.1263C30.0165 13.3626 30.3067 13.6669 30.52 14.0392C30.7331 14.4111 30.8396 14.8115 30.8396 15.2404L30.8396 25.0396C30.8396 25.4682 30.7342 25.8686 30.5233 26.2408C30.3122 26.6131 30.0117 26.9174 29.6217 27.1538L21.1838 32.0567C20.7924 32.2853 20.3849 32.3996 19.9613 32.3996C19.5376 32.3996 19.1332 32.2853 18.7479 32.0567ZM19.295 30.7317L19.295 20.5013L10.5771 15.5512L10.5771 25.0054C10.5771 25.1907 10.6197 25.3581 10.705 25.5075C10.7906 25.6569 10.9188 25.7781 11.0896 25.8708L19.295 30.7317ZM20.705 30.7317L28.9167 25.8708C29.0875 25.7781 29.2157 25.6569 29.3013 25.5075C29.3868 25.3581 29.4296 25.1907 29.4296 25.0054L29.4296 15.5512L20.705 20.5013L20.705 30.7317ZM5 11.5321L5 7.43583C5 6.77167 5.24 6.19972 5.72 5.72C6.19972 5.24 6.77167 5 7.43583 5L11.5321 5V6.41042L7.43583 6.41042C7.13667 6.41042 6.89097 6.50653 6.69875 6.69875C6.50653 6.89097 6.41042 7.13667 6.41042 7.43583L6.41042 11.5321H5ZM11.5321 35H7.43583C6.77167 35 6.19972 34.76 5.72 34.28C5.24 33.8003 5 33.2283 5 32.5642L5 28.4679H6.41042L6.41042 32.5642C6.41042 32.8633 6.50653 33.109 6.69875 33.3013C6.89097 33.4935 7.13667 33.5896 7.43583 33.5896H11.5321V35ZM28.4679 35V33.5896H32.5642C32.8633 33.5896 33.109 33.4935 33.3013 33.3013C33.4935 33.109 33.5896 32.8633 33.5896 32.5642V28.4679H35V32.5642C35 33.2283 34.76 33.8003 34.28 34.28C33.8003 34.76 33.2283 35 32.5642 35H28.4679ZM33.5896 11.5321V7.43583C33.5896 7.13667 33.4935 6.89097 33.3013 6.69875C33.109 6.50653 32.8633 6.41042 32.5642 6.41042L28.4679 6.41042V5L32.5642 5C33.2283 5 33.8003 5.24 34.28 5.72C34.76 6.19972 35 6.77167 35 7.43583V11.5321H33.5896ZM20 19.2713L28.7329 14.2296L20.5129 9.51083C20.3418 9.41806 20.1708 9.37167 20 9.37167C19.8292 9.37167 19.6582 9.41806 19.4871 9.51083L11.2671 14.2296L20 19.2713Z" fill="#045CFC"/>
</g>
</svg>
