<svg width="156" height="34" viewBox="0 0 156 34" fill="none" xmlns="http://www.w3.org/2000/svg">
<path fill-rule="evenodd" clip-rule="evenodd" d="M52.4131 22.2475V23.6409H59.6767V22.2475H56.7972V14.1668H52.4131V15.5599H55.2739V22.2475H52.4131ZM54.8839 11.3431C54.8839 12.0305 55.4039 12.5134 56.0541 12.5134C56.7043 12.5134 57.206 12.0305 57.206 11.3431C57.206 10.6929 56.7043 10.1914 56.0541 10.1914C55.4039 10.1914 54.8839 10.6929 54.8839 11.3431ZM94.4471 22.2475V23.6409H101.711V22.2475H98.8312V14.1668H94.4471V15.5599H97.3081V22.2475H94.4471ZM96.9179 11.3431C96.9179 12.0305 97.4381 12.5134 98.0883 12.5134C98.7385 12.5134 99.2399 12.0305 99.2399 11.3431C99.2399 10.6929 98.7385 10.1914 98.0883 10.1914C97.4381 10.1914 96.9179 10.6929 96.9179 11.3431ZM103.805 23.6409V14.1668H105.123L105.328 15.4484C105.885 14.724 106.833 14.0553 108.337 14.0553C110.381 14.0553 112.053 15.1699 112.053 18.1792V23.6409H110.529V18.2721C110.529 16.4331 109.638 15.4484 108.077 15.4484C106.405 15.4484 105.328 16.6931 105.328 18.7179V23.6409H103.805ZM114.388 20.9844C114.388 22.712 115.799 23.7521 117.88 23.7521C119.515 23.7521 120.462 23.0092 121.057 22.1547C121.112 23.1021 121.502 23.6409 122.766 23.6409H123.602V22.2475H123.119C122.691 22.2475 122.506 22.1175 122.506 21.6159V17.4733C122.506 15.2627 121.112 14.0553 118.697 14.0553C116.412 14.0553 114.908 15.1512 114.685 17.009H116.208C116.394 16.0429 117.286 15.4114 118.623 15.4114C120.109 15.4114 120.982 16.1544 120.982 17.3805V18.0307H118.196C115.707 18.0307 114.388 19.0896 114.388 20.9844ZM120.982 19.7768C120.982 21.3559 119.886 22.452 117.992 22.452C116.728 22.452 115.929 21.8203 115.929 20.8914C115.929 19.814 116.691 19.3125 118.047 19.3125H120.982V19.7768ZM125.665 23.6409V14.1668H126.984L127.188 15.4484C127.745 14.724 128.693 14.0553 130.198 14.0553C132.241 14.0553 133.913 15.1699 133.913 18.1792V23.6409H132.39V18.2721C132.39 16.4331 131.498 15.4484 129.938 15.4484C128.266 15.4484 127.188 16.6931 127.188 18.7179V23.6409H125.665ZM136.139 18.9223C136.139 21.876 137.959 23.7521 140.727 23.7521C143.031 23.7521 144.573 22.452 144.944 20.4084H143.328C143.031 21.6159 142.102 22.3962 140.746 22.3962C138.925 22.3962 137.699 20.9844 137.699 18.9223C137.699 16.8603 138.925 15.4114 140.746 15.4114C142.139 15.4114 143.068 16.1731 143.347 17.4362H144.944C144.554 15.3557 143.086 14.0553 140.764 14.0553C138.015 14.0553 136.139 16.0244 136.139 18.9223ZM146.825 18.9038C146.825 21.8018 148.682 23.7521 151.525 23.7521C153.717 23.7521 155.277 22.359 155.648 20.4642H154.107C153.791 21.6903 152.75 22.3962 151.413 22.3962C149.611 22.3962 148.478 21.1329 148.422 19.331V19.2381H155.778L155.816 18.5508C155.741 15.7457 153.995 14.0553 151.32 14.0553C148.645 14.0553 146.825 16.0244 146.825 18.9038ZM151.339 15.3927C152.918 15.3927 154.032 16.3031 154.181 17.9377H148.515C148.664 16.3959 149.945 15.3927 151.339 15.3927ZM85.0645 23.6409V10.6371H93.0525V12.1233H86.6808V16.4703H92.068V17.9564H86.6808V23.6409H85.0645ZM69.3551 22.2475V23.6409H76.6187V22.2475H73.7392V10.6371H69.3551V12.0305H72.2161V22.2475H69.3551ZM60.8828 23.6409V22.2475H63.7438V12.0305H60.8828V10.6371H65.2669V22.2475H68.1464V23.6409H60.8828ZM45.6361 23.7523C43.6298 23.7523 41.9764 22.6377 41.9764 19.6283V14.1668H43.4997V19.5353C43.4997 21.3746 44.3914 22.359 45.8962 22.359C47.5681 22.359 48.6083 21.1144 48.6083 19.0896V14.1668H50.1316V23.6409H48.8127L48.6083 22.3775C48.0511 23.0834 47.1409 23.7523 45.6361 23.7523ZM36.3575 19.5725C35.8745 18.7366 35.3358 18.4021 34.2769 18.4021H33.0508V19.8325H34.1469C34.7786 19.8325 35.0014 20.0555 35.2801 20.5384L35.986 21.7646C35.4658 22.099 34.8528 22.266 34.1469 22.266C31.8619 22.266 30.45 20.4084 30.45 17.139C30.45 13.8696 31.8619 12.0118 34.1469 12.0118C36.469 12.0118 37.8808 13.9066 37.8808 17.139C37.8808 18.6436 37.5836 19.8512 37.0262 20.7057L36.3575 19.5725ZM28.7969 17.139C28.7969 21.1886 30.9332 23.7523 34.1469 23.7523C35.1501 23.7523 36.0417 23.5107 36.8219 23.0464C37.2306 23.4921 37.7508 23.6409 38.531 23.6409H39.4412V22.2103H38.7168C38.401 22.2103 38.178 22.1733 37.9738 22.0618C38.9582 20.9101 39.5342 19.2196 39.5342 17.139C39.5342 13.1079 37.3792 10.5257 34.1469 10.5257C30.9332 10.5257 28.7969 13.0892 28.7969 17.139Z" fill="#403F4C"/>
<path fill-rule="evenodd" clip-rule="evenodd" d="M11.0001 7C5.47725 7 1 11.4772 1 17C1 22.5228 5.47725 27 11.0001 27C16.5229 27 21.0001 22.5228 21.0001 17C21.0001 11.4772 16.5229 7 11.0001 7ZM16.2779 15.4761H14.4806C13.8103 15.4761 13.1816 15.8019 12.7949 16.3496L11.0538 18.8161C10.2032 20.0213 8.82005 20.738 7.34504 20.738H5.85744V18.2617H7.34504C8.0156 18.2617 8.64431 17.9359 9.0308 17.3883L10.7721 14.9217C11.6227 13.7167 13.0056 13 14.4806 13H16.2779V15.4761Z" fill="#403F4C"/>
</svg>
