<svg width="90" height="34" viewBox="0 0 90 34" fill="none" xmlns="http://www.w3.org/2000/svg">
<path fill-rule="evenodd" clip-rule="evenodd" d="M19.8626 23.8191H20.2002V30H19.1887C12.6102 30 8.26668 26.2525 8.26668 20.1351V17.1207L10.9428 16.4468C11.5688 16.2884 12.1377 15.9579 12.5852 15.4925C13.0328 15.027 13.3405 14.4453 13.4739 13.8136C13.6067 13.1818 13.5596 12.5251 13.3376 11.9191C13.1156 11.3124 12.728 10.7806 12.2183 10.3837C11.7094 9.98681 11.0984 9.74126 10.4567 9.67416C9.81422 9.60777 9.16608 9.7227 8.58575 10.0061C8.00613 10.2895 7.51717 10.7306 7.17525 11.2781C6.83334 11.8263 6.65203 12.4587 6.65274 13.1047V26.5837H0V12.8663C0 12.4537 0.0264111 12.0412 0.0785195 11.6314C0.699537 6.76394 4.9503 3 10.0997 3C14.7945 3 18.7426 6.12936 19.874 10.3701C20.4657 12.5929 20.2473 14.9542 19.258 17.0314C18.36 18.8981 16.9045 20.4399 15.0929 21.4435C15.7182 23.3915 17.2572 23.8191 19.8626 23.8191ZM33.1117 13.3424V15.8843H32.6955C31.8211 15.8843 31.1387 16.1242 30.6483 16.6046C30.1579 17.085 29.9138 17.7381 29.9145 18.564V23.1481H27.4511V13.5009H29.9095V14.7472C30.6483 13.8107 31.5755 13.3424 32.6912 13.3424H33.1117ZM43.4934 19.2221H36.0183C36.1711 19.8053 36.5208 20.3178 37.007 20.674C37.5245 21.0402 38.1476 21.2287 38.7815 21.2094C39.3147 21.2158 39.8429 21.1002 40.3248 20.8718C40.7552 20.6755 41.1342 20.3835 41.4326 20.0166L43.0787 21.4592C42.5619 22.0717 41.9123 22.5585 41.1799 22.8826C40.4011 23.2252 39.5581 23.3987 38.7073 23.3901C37.7507 23.4036 36.8064 23.1745 35.9626 22.7241C35.1639 22.2987 34.4986 21.6605 34.0403 20.8803C33.5899 20.098 33.3508 19.2121 33.3472 18.3092C33.3429 17.4069 33.5742 16.5189 34.0175 15.7323C34.4565 14.9714 35.0954 14.3461 35.8656 13.9235C36.6643 13.4824 37.5644 13.2561 38.4767 13.2661C39.9236 13.2661 41.1299 13.7486 42.0943 14.7137C43.0594 15.678 43.5426 16.8872 43.5448 18.3406C43.5483 18.6354 43.5312 18.9302 43.4934 19.2221ZM40.0264 15.9736C39.5802 15.6238 39.0292 15.4339 38.4624 15.4339C37.8956 15.4339 37.3446 15.6238 36.8985 15.9736C36.4487 16.344 36.134 16.853 36.0033 17.4212H40.9279C40.7966 16.8494 40.4782 16.3376 40.0235 15.9679L40.0264 15.9736ZM59.1437 14.2476C59.799 14.9007 60.1267 15.773 60.1281 16.863V23.1481H57.6604V17.6082C57.6726 17.3498 57.6333 17.0914 57.5455 16.848C57.4577 16.6053 57.3228 16.3819 57.1479 16.1906C56.9688 16.0114 56.7546 15.8715 56.5183 15.7801C56.2821 15.688 56.0294 15.6473 55.776 15.6588C55.5069 15.6481 55.2378 15.6909 54.9858 15.7851C54.7331 15.8793 54.5025 16.0228 54.3062 16.2077C54.1171 16.3954 53.9693 16.6203 53.8722 16.8687C53.7751 17.1171 53.7309 17.3826 53.7423 17.6489V23.1567H51.2839V17.6082C51.2954 17.3498 51.2554 17.0914 51.1662 16.8487C51.0762 16.606 50.9392 16.384 50.7621 16.1956C50.5801 16.015 50.3624 15.8736 50.1226 15.7808C49.8834 15.6888 49.6272 15.6473 49.3709 15.6588C49.1032 15.6481 48.8363 15.6916 48.5857 15.7858C48.3345 15.8808 48.1053 16.0242 47.9119 16.2091C47.7227 16.3961 47.5757 16.6203 47.4786 16.868C47.3815 17.115 47.3366 17.3798 47.348 17.6453V23.1538H44.8889V13.5059H47.348V14.5038C48.0746 13.6836 49.0261 13.2739 50.2032 13.2739C50.8235 13.2625 51.4374 13.4038 51.9906 13.6858C52.5031 13.952 52.9328 14.3532 53.2341 14.8465C54.0286 13.7979 55.125 13.2739 56.5233 13.2739C57.614 13.2739 58.487 13.5987 59.1437 14.2476ZM71.7247 18.3299C71.7411 19.0008 71.6169 19.6675 71.3614 20.2879C71.1051 20.9082 70.7232 21.4685 70.2385 21.9325C69.2456 22.9004 68.0129 23.3844 66.541 23.3844C65.0684 23.3844 63.8349 22.9018 62.8399 21.936C61.8848 20.9803 61.348 19.684 61.348 18.332C61.348 16.9808 61.8848 15.6845 62.8399 14.7287C63.8349 13.7607 65.0684 13.2768 66.541 13.2768C68.0129 13.2768 69.2456 13.7607 70.2385 14.7287C70.7225 15.1926 71.1044 15.753 71.3607 16.3726C71.6162 16.9929 71.7404 17.6596 71.7247 18.3299ZM68.4355 20.2386C68.9173 19.7197 69.185 19.038 69.185 18.3299C69.185 17.6218 68.9173 16.9401 68.4355 16.4211C67.9272 15.9307 67.2484 15.6566 66.5417 15.6566C65.835 15.6566 65.1562 15.9307 64.6472 16.4211C64.1604 16.9358 63.8892 17.6168 63.8892 18.3249C63.8892 19.033 64.1604 19.7139 64.6472 20.2279C65.1562 20.7183 65.835 20.9924 66.5417 20.9924C67.2484 20.9924 67.9272 20.7183 68.4355 20.2279V20.2386ZM76.0319 15.7551V19.7668C76.0319 20.5926 76.4751 21.0052 77.3624 21.0045C77.8028 20.9888 78.2347 20.8789 78.6287 20.6819V22.9732C78.0705 23.2623 77.4481 23.4051 76.8199 23.3894C75.7406 23.3894 74.9283 23.101 74.3837 22.5249C73.839 21.9496 73.5671 21.1623 73.5671 20.1629V15.7551H72.0395V13.5059H73.5742V11.8977L76.0319 11.0568V13.5059H78.6366V15.7551H76.0319ZM89.3309 19.2221H81.8551C82.0086 19.8053 82.3577 20.3178 82.8438 20.674C83.3613 21.0402 83.9837 21.2287 84.6169 21.2094C85.1501 21.2158 85.6783 21.1002 86.1602 20.8718C86.5913 20.6762 86.9711 20.3835 87.2701 20.0166L88.9148 21.4592C88.3987 22.0724 87.7484 22.5592 87.0153 22.8826C86.2365 23.2259 85.3935 23.3987 84.5427 23.3901C83.5869 23.4036 82.6432 23.1745 81.7995 22.7241C81 22.2994 80.3347 21.6612 79.8772 20.8803C79.4275 20.098 79.1883 19.2121 79.1841 18.3099C79.1798 17.4069 79.4103 16.5189 79.8536 15.7323C80.2926 14.9721 80.9315 14.3461 81.7017 13.9235C82.5004 13.4824 83.3998 13.2561 84.3121 13.2661C85.7618 13.2661 86.9675 13.7486 87.9304 14.7137C88.8933 15.678 89.3766 16.8872 89.3816 18.3406C89.3845 18.6354 89.3673 18.9295 89.3309 19.2221ZM85.8632 15.9736C85.4171 15.6238 84.8667 15.4339 84.2992 15.4339C83.7325 15.4339 83.1821 15.6238 82.7353 15.9736C82.2856 16.344 81.9701 16.853 81.8387 17.4212H86.7619C86.6306 16.8501 86.3136 16.339 85.8604 15.9679L85.8632 15.9736Z" fill="#403F4C"/>
</svg>
