<svg width="100" height="34" viewBox="0 0 100 34" fill="none" xmlns="http://www.w3.org/2000/svg">
<g clip-path="url(#clip0_6517_22945)">
<path d="M39.1716 22.7718V21.4255C38.1545 22.6216 36.71 23.3076 35.1911 23.3163C32.7561 23.3163 31.5391 21.9517 31.5391 19.5349V11.2774C31.538 11.1478 31.6339 11.0418 31.7563 11.0354H33.7558C33.8822 11.0354 33.9853 11.1434 33.9873 11.2774V18.5592C33.9873 20.4197 34.8769 21.0172 36.2795 21.0172C37.4139 20.9847 38.4728 20.4111 39.1603 19.456V11.2774C39.1623 11.1434 39.2654 11.0354 39.3929 11.0354H41.3954C41.5219 11.0354 41.6239 11.1444 41.6239 11.2774V22.7718C41.6239 22.9057 41.5219 23.0138 41.3954 23.0138H39.396C39.2715 23.0094 39.1725 22.9036 39.1716 22.7718ZM49.9245 21.0064C48.7677 20.9718 47.6936 20.3657 47.0213 19.3695V14.631C47.7027 13.6521 48.7759 13.0643 49.9245 13.0438C51.8729 13.0438 53.1369 14.6806 53.1369 17.0132H53.1511C53.1511 19.3425 51.8872 21.0064 49.9245 21.0064ZM50.6774 10.7372C49.238 10.7296 47.8822 11.4481 47.0253 12.6732V11.2774C47.0253 11.1444 46.9233 11.0354 46.7969 11.0354H44.7975C44.6709 11.0354 44.5669 11.1434 44.5659 11.2774V27.3353C44.5669 27.4704 44.6709 27.5774 44.7975 27.5774H46.7969C46.9233 27.5774 47.0253 27.4693 47.0253 27.3353V21.3543H47.0396C47.8924 22.5784 49.2411 23.3044 50.6774 23.313C53.5908 23.313 55.6749 20.9567 55.6749 17.0132C55.6749 13.0698 53.6051 10.7372 50.6774 10.7372ZM65.7781 23.0138C65.6526 23.0138 65.5496 22.9057 65.5496 22.7718V15.4747C65.5496 13.584 64.658 13.0438 63.2758 13.0438C62.1312 13.0784 61.0631 13.6629 60.3735 14.631V22.7718C60.3715 22.9057 60.2684 23.0138 60.1409 23.0138H58.1741C58.0477 23.0138 57.9446 22.9057 57.9426 22.7718V6.71375C57.9385 6.5787 58.0396 6.46526 58.167 6.46094H60.1705C60.297 6.46094 60.4001 6.56789 60.4021 6.70295V12.6462C61.412 11.4394 62.8595 10.7448 64.3826 10.7372C66.8176 10.7372 68.0346 12.0758 68.0346 14.5186V22.7718C68.0346 22.9057 67.9326 23.0138 67.8061 23.0138H65.7781ZM76.0853 21.0064C74.0002 21.0064 72.8291 19.1232 72.8291 17.0132C72.8291 14.9032 73.9757 13.0438 76.0853 13.0438C78.1949 13.0438 79.3415 14.9032 79.3415 17.0132H79.3547C79.3547 19.1459 78.1704 21.0064 76.0853 21.0064ZM76.0853 10.7372C72.4792 10.7372 70.2768 13.5657 70.2768 17.0132H70.2911C70.2911 20.45 72.4792 23.313 76.0853 23.313C79.6904 23.313 81.8938 20.4619 81.8938 17.0132C81.8938 13.5657 79.6904 10.7372 76.0853 10.7372ZM84.1643 22.7718V6.71375C84.1667 6.57978 84.2694 6.47174 84.3962 6.47174H86.3914C86.519 6.47174 86.6217 6.57978 86.6241 6.71375V22.7718C86.6217 22.9057 86.519 23.0138 86.3914 23.0138H84.3962C84.275 23.0062 84.1795 22.9003 84.1787 22.7718H84.1643ZM94.6306 21.0064C92.6611 21.0064 91.4187 19.3198 91.4187 17.0132C91.4187 14.7065 92.6643 13.0438 94.6306 13.0438C95.7855 13.0665 96.8625 13.665 97.5375 14.6579V19.3955H97.5511C96.8729 20.3906 95.7911 20.9869 94.6306 21.0064ZM99.7654 6.47174H97.7654C97.6394 6.47174 97.5375 6.58086 97.5375 6.71375V12.6948C96.7004 11.4545 95.3457 10.7242 93.9067 10.7372C91.0142 10.7372 88.9091 13.1421 88.9091 17.0132C88.9091 20.9794 91.0254 23.313 93.9067 23.313C95.3368 23.3076 96.6811 22.5902 97.5375 21.3769V22.7718H97.5511C97.5511 22.9003 97.645 23.0062 97.7654 23.0138H99.7654C99.8914 23.0138 99.9933 22.9057 99.9933 22.7718V6.71375C99.9933 6.58086 99.8914 6.47174 99.7654 6.47174Z" fill="#403F4C"/>
<path d="M19.6311 18.8679C18.9701 20.468 18.0969 21.9589 17.036 23.2965C17.75 20.294 17.393 16.4219 15.8475 12.6599C15.0692 10.7649 14.0042 9.01791 12.6944 7.48805C14.658 5.80479 16.7034 5.25702 18.2856 6.03167C19.2996 6.52758 20.0708 7.54424 20.5451 8.96606C21.4275 11.666 21.0848 15.3674 19.6169 18.8679H19.6311ZM3.1553 18.8679C1.70266 15.3674 1.37112 11.6844 2.24128 8.96606C2.70543 7.54099 3.48785 6.52758 4.50184 6.03167C6.08301 5.25702 8.12833 5.80479 10.0961 7.48805C8.78323 9.0168 7.71723 10.7649 6.9399 12.6599C5.38015 16.4413 5.03026 20.294 5.75148 23.2921C4.68954 21.9579 3.8153 20.468 3.1553 18.8679ZM12.8657 26.4567C11.9333 26.9201 10.8541 26.9201 9.92071 26.4567C6.87563 24.9711 6.25847 18.9976 8.57512 13.4238C9.27287 11.7222 10.2287 10.1544 11.4059 8.78025C12.5801 10.1544 13.5329 11.7232 14.2266 13.4238C16.529 18.9976 15.9118 24.9711 12.8657 26.4567ZM17.0002 3.7974C15.1977 3.71854 13.2299 4.55368 11.3957 6.16456C9.5565 4.55368 7.58971 3.72502 5.78718 3.7974C9.14334 1.2671 13.6441 1.2671 17.0002 3.7974ZM22.2405 8.3729V8.31564C20.2778 1.97801 13.8359 -1.47387 7.85189 0.604821C4.39269 1.80731 1.68327 4.68549 0.560132 8.35345C0.562172 8.36102 0.562172 8.36858 0.560132 8.37614C-0.446717 11.5104 -0.0825371 15.7077 1.5425 19.6166C3.76226 24.9636 7.79374 28.692 11.359 28.692H11.4631C15.0335 28.692 19.0599 24.9744 21.2807 19.6166C22.8904 15.7153 23.2546 11.5104 22.2405 8.3729ZM14.4479 31.6372C13.4829 31.945 12.4811 32.1039 11.4743 32.1093H11.3345C10.3205 32.105 9.31268 31.9429 8.34254 31.6296C7.87025 31.4816 7.37243 31.7668 7.23267 32.2681C7.09292 32.7695 7.36325 33.2956 7.83556 33.4436C8.97095 33.8066 10.1492 33.9935 11.3345 34H11.4743C12.6515 33.9946 13.8236 33.8088 14.9508 33.4479C15.416 33.275 15.6608 32.7349 15.4966 32.2422C15.3446 31.7863 14.8927 31.5248 14.4479 31.6372Z" fill="#403F4C"/>
</g>
<defs>
<clipPath id="clip0_6517_22945">
<rect width="100" height="34" fill="white"/>
</clipPath>
</defs>
</svg>
