<svg width="256" height="256" viewBox="0 0 256 256" fill="none" xmlns="http://www.w3.org/2000/svg">
  <rect width="256" height="256" rx="8" fill="#f9fcff"/>
  <g transform="translate(53, 54)">
    <ellipse cx="130.76" cy="18.5543" rx="19.2401" ry="18.5543" fill="url(#webclip_grad)"/>
    <path d="M88.4007 46.8113L90.4053 46.8113L88.4007 11.2833C77.3757 5.22745 61.7402 2.19951 49.5124 2.19951C22.0501 2.19951 7.75435e-10 16.3299 0 42.9759C-1.28064e-09 86.982 68.7561 84.7615 68.7561 121.299C68.7561 138.659 56.7288 145.522 45.3029 145.522C23.0523 145.522 8.82003 126.143 2.20501 99.9013L0.200455 99.9013L2.20501 137.448C13.23 143.504 30.6696 147.541 45.1024 147.541C71.9634 147.541 96.6194 133.814 96.6194 102.727C96.6194 56.9044 27.8633 57.51 27.8633 22.9914C27.8633 9.66844 38.0865 4.21813 49.7129 4.21813C68.5557 4.21813 81.7857 25.01 88.4007 46.8113Z" fill="#045CFC"/>
  </g>
  <defs>
    <radialGradient id="webclip_grad" cx="0" cy="0" r="1" gradientTransform="matrix(-19.206 23.9776 -24.8639 -20.7796 143.596 5.7198)" gradientUnits="userSpaceOnUse">
      <stop stop-color="#045CFC" stop-opacity="0.6"/>
      <stop offset="1" stop-color="#045CFC"/>
    </radialGradient>
  </defs>
</svg>
