<svg preserveAspectRatio="none" width="100%" height="100%" overflow="visible" style="display: block;" viewBox="0 0 57.0824 30.311" fill="none" xmlns="http://www.w3.org/2000/svg">
<g id="Group 199">
<path id="Vector" d="M35.3393 2.37213C34.9147 2.72904 34.4764 3.06789 34.0291 3.39317C34.1556 3.63714 34.2731 3.89014 34.377 4.14766C32.7232 5.44977 30.8528 6.44999 28.8515 7.10236C26.585 7.8356 24.1959 8.11351 21.8216 7.9201L21.1575 7.96528C21.1627 9.11423 21.3691 10.2534 21.7674 11.3311L21.8352 11.5163C24.1403 11.4707 26.4252 11.0762 28.6121 10.3462C31.7745 9.29705 34.6722 7.57542 37.1059 5.29972C36.6991 4.22893 36.1073 3.23798 35.3574 2.37213" fill="var(--fill-0, white)"/>
<path id="Vector_2" d="M27.1078 2.15572C28.6049 1.79749 30.0535 1.26052 31.4225 0.556386C29.9036 -0.0435478 28.237 -0.161589 26.6487 0.218287C25.0605 0.598163 23.6276 1.45755 22.5447 2.67979C24.0811 2.68697 25.613 2.51104 27.1078 2.15572Z" fill="var(--fill-0, white)"/>
<path id="Vector_3" d="M28.8544 7.10253C25.9579 8.03724 22.8743 8.23598 19.8817 7.68082C19.9524 6.09616 20.2963 4.53562 20.8983 3.06805C23.0426 3.1275 25.1815 2.82195 27.2234 2.16447C28.6755 1.69386 30.064 1.04593 31.3574 0.235333C32.7059 1.23639 33.7518 2.59029 34.3799 4.14783C32.7261 5.44993 30.8556 6.45015 28.8544 7.10253Z" fill="var(--fill-0, white)"/>
<path id="Vector_4" d="M28.9883 13.1975C27.0618 13.5555 25.1781 14.1142 23.368 14.8646C25.2959 15.5685 27.3778 15.7402 29.3949 15.3615C31.4038 14.9828 33.2753 14.0751 34.8165 12.7321C32.8564 12.6867 30.8969 12.8472 28.9702 13.211" fill="var(--fill-0, white)"/>
<path id="Vector_5" d="M29.4291 9.84462C31.9241 9.11755 34.2856 7.99324 36.4229 6.51494C36.6164 8.01527 36.4139 9.5401 35.8356 10.938C34.1431 11.9496 32.3289 12.742 30.4366 13.2963C27.9165 14.0368 25.2885 14.3423 22.6657 14.1999C21.5349 13.2679 20.6583 12.065 20.1176 10.703C23.2471 11.0309 26.4106 10.7423 29.4291 9.85366" fill="var(--fill-0, white)"/>
<path id="Vector_6" d="M27.5596 2.04218C28.9 1.68776 30.1982 1.1894 31.4315 0.555792C31.2989 0.507602 31.1679 0.462423 31.0384 0.420256C29.9377 1.07919 28.7719 1.62271 27.5596 2.04218Z" fill="var(--fill-0, #045CFC)"/>
<path id="Vector_7" d="M21.8221 7.91962C24.1964 8.11303 26.5855 7.83512 28.8521 7.10188C30.8533 6.4495 32.7238 5.44928 34.3775 4.14718C34.2736 3.88966 34.1562 3.63666 34.0297 3.39269C32.0231 4.84805 29.8064 5.98912 27.456 6.77659C25.6301 7.37998 23.7388 7.76369 21.8221 7.91962Z" fill="var(--fill-0, #045CFC)"/>
<path id="Vector_8" d="M31.6632 9.07679C30.9358 9.36593 30.1949 9.62346 29.4314 9.84483C26.8887 10.5916 24.2404 10.9152 21.5927 10.8026C21.6469 10.9788 21.7011 11.155 21.7689 11.3312L21.8367 11.5165C24.1418 11.4708 26.4267 11.0763 28.6136 10.3463C29.6651 9.99671 30.6903 9.57246 31.6813 9.07679" fill="var(--fill-0, #045CFC)"/>
<path id="Vector_9" d="M25.1647 14.1959C26.9512 14.0995 28.7205 13.7963 30.4371 13.2924C30.9432 13.1478 31.4446 12.9806 31.9326 12.7999C30.9445 12.8819 29.9613 13.0146 28.9869 13.1975C27.6908 13.4396 26.4136 13.7732 25.1647 14.1959Z" fill="var(--fill-0, #045CFC)"/>
<path id="Vector_10" d="M4.15653 19.693H6.664L6.4381 18.2428H4.15653C2.73789 18.2428 1.71231 18.5545 1.02558 19.2051C0.338847 19.8557 0 20.818 0 22.1598C0 23.5016 0.334329 24.4639 1.02558 25.1145C1.71683 25.7651 2.73789 26.0768 4.15653 26.0768H6.4381L6.664 24.6266H4.15653C2.45777 24.6266 1.66713 23.845 1.66713 22.1598C1.66713 20.4746 2.45777 19.693 4.15653 19.693Z" fill="var(--fill-0, white)"/>
<path id="Vector_11" d="M11.4706 18.1351C10.0474 18.1351 9.02182 18.4558 8.33058 19.1245C7.63933 19.7931 7.30048 20.7825 7.30048 22.1605C7.30048 23.5385 7.63933 24.5279 8.33058 25.1965C9.02182 25.8652 10.0474 26.1859 11.4932 26.1859C14.2807 26.1859 15.6361 24.8712 15.6361 22.1605C15.6361 19.4498 14.2807 18.1351 11.4932 18.1351M11.4932 24.695C9.7447 24.695 9.00375 23.936 9.00375 22.1605C9.00375 20.385 9.7447 19.626 11.4932 19.626C13.2416 19.626 13.96 20.385 13.96 22.1605C13.96 23.936 13.2235 24.695 11.4932 24.695Z" fill="var(--fill-0, white)"/>
<path id="Vector_12" d="M21.2368 21.9204L18.2323 18.2428H16.9809V26.0768H18.526V20.9129L20.6856 23.5287H21.7654L23.9204 20.9129V26.0768H25.4791V18.2428H24.2277L21.2368 21.9204Z" fill="var(--fill-0, white)"/>
<path id="Vector_13" d="M30.9227 18.2428H27.2315V26.0768H28.867V23.7546H30.9227C33.0642 23.7546 34.2976 22.7471 34.2976 20.9942C34.2976 19.2413 33.0642 18.2428 30.9227 18.2428ZM28.867 19.693H30.8369C32.0658 19.693 32.617 20.0906 32.617 20.9942C32.617 21.8978 32.0658 22.3044 30.8369 22.3044H28.867V19.693Z" fill="var(--fill-0, white)"/>
<path id="Vector_14" d="M37.0406 22.7878H40.8673V21.3782H37.0406V19.693H41.7348L41.5179 18.2428H35.3961V26.0768H41.6173L41.8297 24.6266H37.0406V22.7878Z" fill="var(--fill-0, white)"/>
<path id="Vector_15" d="M42.257 19.693H45.1801V26.0768H46.8247V19.693H49.7478V18.2428H42.257V19.693Z" fill="var(--fill-0, white)"/>
<path id="Vector_16" d="M52.2934 24.6266V22.7878H56.1201V21.3782H52.2934V19.693H56.983L56.7661 18.2428H50.6488V26.0768H56.8655L57.0824 24.6266H52.2934Z" fill="var(--fill-0, white)"/>
<path id="Vector_17" d="M44.4332 29.7323C44.4332 29.0592 44.7585 28.8287 45.4272 28.6571L45.879 28.5215C46.3308 28.3815 46.5386 28.2459 46.5386 27.9387C46.5386 27.6315 46.3488 27.4553 45.8654 27.4553H44.6094L44.6636 27.121H45.9016C46.6154 27.121 46.9407 27.4192 46.9407 27.9432C46.9407 28.4673 46.629 28.6571 45.9919 28.8468L45.5401 28.9823C45.0883 29.1269 44.8263 29.2263 44.8263 29.66V29.9311H46.9904L46.9362 30.2654H44.4332V29.7323Z" fill="var(--fill-0, white)"/>
<path id="Vector_18" d="M47.4906 28.6936C47.4906 27.5913 47.9967 27.0762 49.0087 27.0762C50.0207 27.0762 50.5267 27.5913 50.5267 28.6936C50.5267 29.796 50.0207 30.311 49.0087 30.311C47.9967 30.311 47.4906 29.796 47.4906 28.6936ZM50.1382 28.6936C50.1382 27.8172 49.7677 27.4196 49.0087 27.4196C48.2497 27.4196 47.8792 27.8172 47.8792 28.6936C47.8792 29.5701 48.2497 29.9677 49.0087 29.9677C49.7677 29.9677 50.1382 29.5701 50.1382 28.6936Z" fill="var(--fill-0, white)"/>
<path id="Vector_19" d="M50.8847 29.9176H52.2717C52.7596 29.9176 52.972 29.7233 52.972 29.3799C52.972 29.0366 52.7822 28.8152 52.3214 28.8152H51.6753V28.4854H52.3123C52.3848 28.4935 52.4581 28.4856 52.5271 28.4622C52.5961 28.4389 52.6592 28.4006 52.7118 28.3502C52.7644 28.2998 52.8052 28.2384 52.8314 28.1704C52.8577 28.1024 52.8686 28.0295 52.8635 27.9568C52.8635 27.627 52.6602 27.4553 52.1768 27.4553H50.9434L50.9976 27.121H52.2084C52.9178 27.121 53.2521 27.4146 53.2521 27.9071C53.2551 28.0579 53.2139 28.2062 53.1336 28.3338C53.0534 28.4615 52.9375 28.5629 52.8003 28.6254C52.9651 28.68 53.1073 28.7876 53.2045 28.9314C53.3018 29.0753 53.3487 29.2473 53.3379 29.4206C53.3379 29.9401 52.9991 30.2519 52.2807 30.2519H50.9253L50.8847 29.9176Z" fill="var(--fill-0, white)"/>
<path id="Vector_20" d="M53.8863 28.6936C53.8863 27.5913 54.3923 27.0762 55.4044 27.0762C56.4164 27.0762 56.9269 27.5913 56.9269 28.6936C56.9269 29.796 56.4209 30.311 55.4089 30.311C54.3969 30.311 53.8908 29.796 53.8908 28.6936M56.5384 28.6936C56.5384 27.8172 56.1679 27.4196 55.4089 27.4196C54.6499 27.4196 54.2794 27.8172 54.2794 28.6936C54.2794 29.5701 54.6499 29.9677 55.4089 29.9677C56.1679 29.9677 56.5384 29.5701 56.5384 28.6936Z" fill="var(--fill-0, white)"/>
</g>
</svg>
