<svg preserveAspectRatio="none" width="100%" height="100%" overflow="visible" style="display: block;" viewBox="0 0 71.4944 17.8089" fill="none" xmlns="http://www.w3.org/2000/svg">
<g id="Group">
<path id="Vector" d="M4.05097 3.89494L5.22551 4.26754C5.04501 4.9225 4.74589 5.40856 4.32687 5.72573C3.90785 6.04418 3.37667 6.20276 2.73331 6.20276C1.93652 6.20276 1.28156 5.93072 0.769709 5.38664C0.25657 4.84256 0 4.09865 0 3.15489C0 2.15698 0.257859 1.38083 0.773577 0.829012C1.2893 0.275908 1.96747 0 2.8068 0C3.54041 0 4.13606 0.2166 4.59505 0.65109C4.86838 0.907659 5.07209 1.27639 5.20876 1.75601L4.00971 2.04223C3.9388 1.73151 3.79053 1.48526 3.56619 1.30605C3.34056 1.12555 3.06724 1.03659 2.7462 1.03659C2.30139 1.03659 1.94039 1.19646 1.66448 1.51491C1.38728 1.83337 1.24933 2.35166 1.24933 3.06593C1.24933 3.82403 1.38599 4.36424 1.65804 4.68656C1.93137 5.00888 2.28592 5.17004 2.7217 5.17004C3.04403 5.17004 3.31994 5.06819 3.55201 4.86319C3.78408 4.6582 3.9504 4.33716 4.05097 3.89752V3.89494Z" fill="var(--fill-0, white)"/>
<path id="Vector_2" d="M5.99045 3.86611C5.99045 3.48448 6.08457 3.11446 6.2728 2.75732C6.46104 2.40019 6.72792 2.12686 7.07216 1.93862C7.4177 1.75039 7.80319 1.65627 8.22866 1.65627C8.8862 1.65627 9.42513 1.87029 9.84544 2.29705C10.2657 2.7238 10.4759 3.26401 10.4759 3.9151C10.4759 4.56619 10.2632 5.11801 9.83899 5.54992C9.41481 5.98183 8.88105 6.19843 8.23769 6.19843C7.8393 6.19843 7.45895 6.10818 7.09795 5.92897C6.73695 5.74976 6.46104 5.48545 6.27409 5.13735C6.08585 4.78924 5.99173 4.36635 5.99173 3.8674L5.99045 3.86611ZM7.16886 3.928C7.16886 4.35862 7.27072 4.68868 7.47571 4.91817C7.68071 5.14766 7.93212 5.26241 8.23253 5.26241C8.53294 5.26241 8.78435 5.14766 8.98806 4.91817C9.19177 4.68868 9.29233 4.35604 9.29233 3.92026C9.29233 3.48448 9.19048 3.16732 8.98806 2.93782C8.78564 2.70833 8.53294 2.59358 8.23253 2.59358C7.93212 2.59358 7.68071 2.70833 7.47571 2.93782C7.27072 3.16732 7.16886 3.49737 7.16886 3.928Z" fill="var(--fill-0, white)"/>
<path id="Vector_3" d="M10.8994 1.75601H11.5376V1.42853C11.5376 1.06366 11.5763 0.790333 11.6537 0.609833C11.731 0.429333 11.8742 0.283643 12.083 0.170186C12.2919 0.0567286 12.5562 0 12.8746 0C13.1931 0 13.5232 0.0489931 13.8365 0.146979L13.6805 0.948916C13.4974 0.90508 13.322 0.883162 13.1531 0.883162C12.9842 0.883162 12.8669 0.921841 12.7947 1.00049C12.7225 1.07784 12.6864 1.2274 12.6864 1.44916V1.75601H13.5464V2.6598H12.6864V6.10091H11.5364V2.6598H10.8982V1.75601H10.8994ZM14.1278 1.16681V0.103143H15.2779V1.16681H14.1278ZM14.1278 6.10091V1.75472H15.2779V6.10091H14.1278Z" fill="var(--fill-0, white)"/>
<path id="Vector_4" d="M20.4441 6.10076H19.294V3.88319C19.294 3.41389 19.2695 3.11091 19.2206 2.97295C19.1716 2.835 19.0916 2.72799 18.9807 2.65192C18.8699 2.57585 18.7371 2.53717 18.5824 2.53717C18.3838 2.53717 18.2046 2.59132 18.046 2.70091C17.8874 2.8105 17.7791 2.9549 17.7211 3.1354C17.6618 3.3159 17.6334 3.64854 17.6334 4.13331V6.10205H16.4834V1.75586H17.5509V2.39406C17.93 1.90284 18.407 1.65788 18.9833 1.65788C19.2373 1.65788 19.4694 1.703 19.6795 1.79454C19.8897 1.88608 20.0483 2.00212 20.1566 2.14394C20.2649 2.28576 20.3397 2.44692 20.3822 2.62742C20.4248 2.80792 20.4454 3.06578 20.4454 3.401V6.10205L20.4441 6.10076Z" fill="var(--fill-0, white)"/>
<path id="Vector_5" d="M22.47 3.08093L21.4269 2.8927C21.5443 2.47239 21.7467 2.16167 22.0329 1.95925C22.3191 1.75684 22.7446 1.65627 23.3093 1.65627C23.8224 1.65627 24.2041 1.71687 24.4555 1.83806C24.7069 1.95925 24.8835 2.11397 24.9854 2.30091C25.0872 2.48786 25.1388 2.83081 25.1388 3.32977L25.1272 4.67191C25.1272 5.05354 25.1453 5.3359 25.1827 5.5164C25.22 5.69819 25.2884 5.89287 25.3889 6.09916H24.2518C24.2221 6.02309 24.1847 5.90963 24.1409 5.76007C24.1216 5.69174 24.1087 5.64662 24.0996 5.6247C23.9037 5.81551 23.6935 5.95862 23.4692 6.05403C23.2461 6.14944 23.0063 6.19714 22.7536 6.19714C22.3062 6.19714 21.953 6.07595 21.6964 5.83356C21.4385 5.59118 21.3096 5.28433 21.3096 4.91301C21.3096 4.66805 21.3689 4.44887 21.4862 4.25676C21.6036 4.06466 21.7673 3.91768 21.9788 3.81454C22.1902 3.71268 22.4945 3.62243 22.8929 3.54637C23.4305 3.4458 23.8031 3.35168 24.0094 3.26401V3.14927C24.0094 2.9288 23.9553 2.77022 23.8457 2.6761C23.7361 2.58198 23.5311 2.53428 23.2281 2.53428C23.0231 2.53428 22.8632 2.57424 22.7498 2.65547C22.635 2.7354 22.5422 2.87723 22.4713 3.07964L22.47 3.08093ZM24.0094 4.01438C23.8624 4.06337 23.6291 4.12268 23.3093 4.18972C22.9896 4.25805 22.782 4.3251 22.6827 4.39085C22.5332 4.49786 22.4571 4.63195 22.4571 4.79569C22.4571 4.95943 22.5164 5.09609 22.6376 5.21342C22.7575 5.33074 22.9109 5.38876 23.0953 5.38876C23.3029 5.38876 23.5001 5.32043 23.6884 5.18376C23.8276 5.08062 23.9191 4.95298 23.963 4.80342C23.9926 4.70544 24.0081 4.51849 24.0081 4.24258V4.01309L24.0094 4.01438Z" fill="var(--fill-0, white)"/>
<path id="Vector_6" d="M30.2252 6.10076H29.0752V3.88319C29.0752 3.41389 29.0507 3.11091 29.0017 2.97295C28.9527 2.835 28.8727 2.72799 28.7619 2.65192C28.651 2.57585 28.5182 2.53717 28.3635 2.53717C28.1649 2.53717 27.9857 2.59132 27.8271 2.70091C27.6685 2.8105 27.5602 2.9549 27.5022 3.1354C27.4429 3.3159 27.4145 3.64854 27.4145 4.13331V6.10205H26.2645V1.75586H27.332V2.39406C27.7111 1.90284 28.1881 1.65788 28.7644 1.65788C29.0184 1.65788 29.2505 1.703 29.4607 1.79454C29.6708 1.88608 29.8294 2.00212 29.9377 2.14394C30.046 2.28576 30.1208 2.44692 30.1633 2.62742C30.2059 2.80792 30.2265 3.06578 30.2265 3.401V6.10205L30.2252 6.10076Z" fill="var(--fill-0, white)"/>
<path id="Vector_7" d="M35.179 3.03968L34.0457 3.24467C34.007 3.01776 33.9206 2.84757 33.7853 2.73283C33.6499 2.61808 33.4745 2.56135 33.2592 2.56135C32.973 2.56135 32.7448 2.66063 32.5733 2.85789C32.4018 3.05515 32.318 3.38649 32.318 3.85064C32.318 4.36635 32.4044 4.72993 32.5785 4.94267C32.7512 5.1554 32.9846 5.26241 33.276 5.26241C33.4939 5.26241 33.6731 5.20052 33.8123 5.07675C33.9516 4.95298 34.0496 4.73896 34.1076 4.43597L35.237 4.62808C35.1197 5.14637 34.894 5.53832 34.5614 5.80262C34.2288 6.06692 33.7827 6.19972 33.2231 6.19972C32.5875 6.19972 32.0808 5.99988 31.703 5.59762C31.3253 5.19665 31.1358 4.64097 31.1358 3.93186C31.1358 3.22276 31.3253 2.65547 31.7043 2.25579C32.0834 1.85611 32.5965 1.65627 33.2425 1.65627C33.7711 1.65627 34.1927 1.76973 34.5047 1.99793C34.8167 2.22614 35.041 2.57295 35.1777 3.03968H35.179Z" fill="var(--fill-0, white)"/>
<path id="Vector_8" d="M36.052 1.16658V0.102914H37.2021V1.16658H36.052ZM36.052 6.10068V1.75449H37.2021V6.10068H36.052Z" fill="var(--fill-0, white)"/>
<path id="Vector_9" d="M39.2407 3.08093L38.1976 2.8927C38.315 2.47239 38.5174 2.16167 38.8036 1.95925C39.0898 1.75684 39.5153 1.65627 40.08 1.65627C40.5931 1.65627 40.9748 1.71687 41.2262 1.83806C41.4776 1.95925 41.6542 2.11397 41.7561 2.30091C41.8579 2.48786 41.9095 2.83081 41.9095 3.32977L41.8979 4.67191C41.8979 5.05354 41.916 5.3359 41.9533 5.5164C41.9907 5.69819 42.0591 5.89287 42.1596 6.09916H41.0225C40.9928 6.02309 40.9554 5.90963 40.9116 5.76007C40.8923 5.69174 40.8794 5.64662 40.8703 5.6247C40.6744 5.81551 40.4642 5.95862 40.2399 6.05403C40.0168 6.14944 39.777 6.19714 39.5243 6.19714C39.0769 6.19714 38.7237 6.07595 38.4671 5.83356C38.2092 5.59118 38.0803 5.28433 38.0803 4.91301C38.0803 4.66805 38.1396 4.44887 38.2569 4.25676C38.3743 4.06466 38.538 3.91768 38.7494 3.81454C38.9609 3.71268 39.2652 3.62243 39.6636 3.54637C40.2012 3.4458 40.5738 3.35168 40.7801 3.26401V3.14927C40.7801 2.9288 40.7259 2.77022 40.6163 2.6761C40.5068 2.58198 40.3018 2.53428 39.9988 2.53428C39.7938 2.53428 39.6339 2.57424 39.5204 2.65547C39.4057 2.7354 39.3129 2.87723 39.242 3.07964L39.2407 3.08093ZM40.7788 4.01438C40.6318 4.06337 40.3984 4.12268 40.0787 4.18972C39.759 4.25805 39.5514 4.3251 39.4521 4.39085C39.3026 4.49786 39.2265 4.63195 39.2265 4.79569C39.2265 4.95943 39.2858 5.09609 39.407 5.21342C39.5269 5.33074 39.6803 5.38876 39.8647 5.38876C40.0723 5.38876 40.2695 5.32043 40.4578 5.18376C40.597 5.08062 40.6885 4.95298 40.7324 4.80342C40.762 4.70544 40.7775 4.51849 40.7775 4.24258V4.01309L40.7788 4.01438Z" fill="var(--fill-0, white)"/>
<path id="Vector_10" d="M47.0274 6.1009H45.9599V5.4627C45.7819 5.71153 45.5731 5.8959 45.332 6.01709C45.0909 6.13829 44.8472 6.19888 44.6009 6.19888C44.102 6.19888 43.6739 5.99775 43.3181 5.5955C42.9622 5.19324 42.7843 4.6324 42.7843 3.91169C42.7843 3.19098 42.9571 2.61595 43.3039 2.23175C43.6507 1.84883 44.0878 1.65672 44.6177 1.65672C45.1038 1.65672 45.5228 1.85914 45.8786 2.26269V0.101842H47.0287V6.1009H47.0274ZM43.9576 3.83433C43.9576 4.29847 44.022 4.63369 44.1497 4.84126C44.3353 5.14167 44.5945 5.29122 44.9271 5.29122C45.1914 5.29122 45.4171 5.17906 45.6027 4.95343C45.7884 4.72781 45.8812 4.39259 45.8812 3.94521C45.8812 3.44625 45.791 3.08654 45.6118 2.86736C45.4325 2.64819 45.2005 2.53731 44.9207 2.53731C44.6409 2.53731 44.4191 2.64561 44.2348 2.86221C44.0504 3.07881 43.9589 3.40371 43.9589 3.83433H43.9576Z" fill="var(--fill-0, white)"/>
<path id="Vector_11" d="M47.8957 3.86611C47.8957 3.48448 47.9898 3.11446 48.1781 2.75732C48.3663 2.40019 48.6332 2.12686 48.9774 1.93862C49.323 1.75039 49.7085 1.65627 50.1339 1.65627C50.7915 1.65627 51.3304 1.87029 51.7507 2.29705C52.171 2.7238 52.3812 3.26401 52.3812 3.9151C52.3812 4.56619 52.1684 5.11801 51.7443 5.54992C51.3201 5.98183 50.7863 6.19843 50.143 6.19843C49.7446 6.19843 49.3642 6.10818 49.0032 5.92897C48.6422 5.74976 48.3663 5.48545 48.1794 5.13735C47.9911 4.78924 47.897 4.36635 47.897 3.8674L47.8957 3.86611ZM49.0741 3.928C49.0741 4.35862 49.176 4.68868 49.381 4.91817C49.586 5.14766 49.8374 5.26241 50.1378 5.26241C50.4382 5.26241 50.6896 5.14766 50.8933 4.91817C51.097 4.68868 51.1976 4.35604 51.1976 3.92026C51.1976 3.48448 51.0957 3.16732 50.8933 2.93782C50.6909 2.70833 50.4382 2.59358 50.1378 2.59358C49.8374 2.59358 49.586 2.70833 49.381 2.93782C49.176 3.16732 49.0741 3.49737 49.0741 3.928Z" fill="var(--fill-0, white)"/>
<path id="Vector_12" d="M55.5761 1.75555H56.6475V2.39374C56.7868 2.17585 56.975 1.99793 57.2122 1.86127C57.4494 1.7246 57.7125 1.65627 58.0013 1.65627C58.5054 1.65627 58.9347 1.85353 59.2867 2.24934C59.6387 2.64515 59.814 3.19568 59.814 3.90221C59.814 4.60874 59.6361 5.1915 59.2815 5.59376C58.927 5.99601 58.4976 6.19714 57.9922 6.19714C57.7524 6.19714 57.5345 6.14944 57.3399 6.05403C57.1452 5.95862 56.9389 5.79488 56.7236 5.56281V7.75202H55.5735V1.75297L55.5761 1.75555ZM56.7133 3.85451C56.7133 4.34315 56.81 4.70286 57.0034 4.93622C57.1967 5.16958 57.4327 5.28562 57.7112 5.28562C57.9897 5.28562 58.2011 5.17861 58.3777 4.96458C58.5557 4.75056 58.6433 4.39988 58.6433 3.91124C58.6433 3.45612 58.5518 3.11703 58.3687 2.89657C58.1856 2.6761 57.96 2.56522 57.6893 2.56522C57.4185 2.56522 57.1748 2.67352 56.9892 2.89012C56.8035 3.10672 56.7107 3.42775 56.7107 3.85322L56.7133 3.85451Z" fill="var(--fill-0, white)"/>
<path id="Vector_13" d="M63.244 4.71726L64.3901 4.90936C64.2432 5.32967 64.0098 5.64941 63.6926 5.86859C63.3742 6.08777 62.9771 6.19736 62.5 6.19736C61.7445 6.19736 61.185 5.94982 60.8227 5.45731C60.5364 5.0615 60.3933 4.56254 60.3933 3.95916C60.3933 3.23844 60.5816 2.67503 60.958 2.26761C61.3345 1.8602 61.8103 1.6552 62.3866 1.6552C63.0325 1.6552 63.5431 1.86922 63.917 2.29598C64.2909 2.72273 64.4688 3.3764 64.4533 4.25827H61.573C61.5808 4.59993 61.6736 4.86424 61.8515 5.05376C62.0294 5.24329 62.2499 5.33869 62.5142 5.33869C62.6947 5.33869 62.8456 5.2897 62.968 5.19172C63.0905 5.09373 63.1834 4.93515 63.2465 4.71726H63.244ZM63.3084 3.55561C63.3007 3.22297 63.2143 2.97027 63.0506 2.79622C62.8868 2.62345 62.6883 2.53578 62.4536 2.53578C62.2022 2.53578 61.9959 2.62732 61.8322 2.8104C61.6684 2.99348 61.5885 3.24102 61.5911 3.55561H63.3097H63.3084Z" fill="var(--fill-0, white)"/>
<path id="Vector_14" d="M65.3889 6.1009V0.101842H66.539V6.1009H65.3889Z" fill="var(--fill-0, white)"/>
<path id="Vector_15" d="M68.5754 3.08093L67.5324 2.8927C67.6497 2.47239 67.8521 2.16167 68.1383 1.95925C68.4246 1.75684 68.85 1.65627 69.4147 1.65627C69.9279 1.65627 70.3095 1.71687 70.5609 1.83806C70.8123 1.95925 70.989 2.11397 71.0908 2.30091C71.1927 2.48786 71.2443 2.83081 71.2443 3.32977L71.2327 4.67191C71.2327 5.05354 71.2507 5.3359 71.2881 5.5164C71.3255 5.69819 71.3938 5.89287 71.4944 6.09916H70.3572C70.3276 6.02309 70.2902 5.90963 70.2463 5.76007C70.227 5.69174 70.2141 5.64662 70.2051 5.6247C70.0091 5.81551 69.799 5.95862 69.5746 6.05403C69.3516 6.14944 69.1118 6.19714 68.8591 6.19714C68.4117 6.19714 68.0584 6.07595 67.8018 5.83356C67.544 5.59118 67.4151 5.28433 67.4151 4.91301C67.4151 4.66805 67.4744 4.44887 67.5917 4.25676C67.709 4.06466 67.8728 3.91768 68.0842 3.81454C68.2956 3.71268 68.5999 3.62243 68.9983 3.54637C69.5359 3.4458 69.9085 3.35168 70.1148 3.26401V3.14927C70.1148 2.9288 70.0607 2.77022 69.9511 2.6761C69.8415 2.58198 69.6365 2.53428 69.3335 2.53428C69.1285 2.53428 68.9686 2.57424 68.8552 2.65547C68.7404 2.7354 68.6476 2.87723 68.5767 3.07964L68.5754 3.08093ZM70.1135 4.01438C69.9666 4.06337 69.7332 4.12268 69.4135 4.18972C69.0937 4.25805 68.8861 4.3251 68.7869 4.39085C68.6373 4.49786 68.5612 4.63195 68.5612 4.79569C68.5612 4.95943 68.6205 5.09609 68.7417 5.21342C68.8616 5.33074 69.0151 5.38876 69.1994 5.38876C69.407 5.38876 69.6043 5.32043 69.7925 5.18376C69.9318 5.08062 70.0233 4.95298 70.0671 4.80342C70.0968 4.70544 70.1123 4.51849 70.1123 4.24258V4.01309L70.1135 4.01438Z" fill="var(--fill-0, white)"/>
<path id="Vector_16" d="M0.203684 10.1582H1.41433V13.4072C1.41433 13.9229 1.4298 14.2568 1.45946 14.4103C1.51103 14.6552 1.6348 14.8525 1.82948 15.002C2.02417 15.1516 2.29105 15.2251 2.63013 15.2251C2.96922 15.2251 3.23352 15.1555 3.40758 15.0149C3.58163 14.8744 3.68736 14.7016 3.72217 14.4979C3.75698 14.2929 3.77503 13.9539 3.77503 13.4794V10.1608H4.98568V13.3118C4.98568 14.0325 4.95345 14.5405 4.88769 14.8383C4.82194 15.1361 4.70203 15.3863 4.5254 15.5913C4.34877 15.7962 4.11411 15.9587 3.82016 16.0799C3.5262 16.2011 3.14069 16.2617 2.66623 16.2617C2.09379 16.2617 1.6593 16.1959 1.36276 16.0631C1.06622 15.9303 0.832858 15.7589 0.661382 15.5474C0.489906 15.336 0.376447 15.1142 0.322297 14.8821C0.24365 14.5379 0.203684 14.0312 0.203684 13.3595V10.1595V10.1582Z" fill="var(--fill-0, white)"/>
<path id="Vector_17" d="M10.2084 16.1571H9.0584V13.9395C9.0584 13.4702 9.0339 13.1673 8.98491 13.0293C8.93592 12.8914 8.85598 12.7843 8.7451 12.7083C8.63422 12.6322 8.50142 12.5935 8.34671 12.5935C8.14815 12.5935 7.96895 12.6477 7.81036 12.7573C7.65178 12.8669 7.54348 13.0113 7.48546 13.1918C7.42615 13.3723 7.39779 13.7049 7.39779 14.1897V16.1584H6.24773V11.8122H7.31527V12.4504C7.69432 11.9592 8.17136 11.7142 8.74768 11.7142C9.00167 11.7142 9.23374 11.7594 9.4439 11.8509C9.65405 11.9424 9.81264 12.0585 9.92094 12.2003C10.0292 12.3421 10.104 12.5033 10.1466 12.6838C10.1891 12.8643 10.2097 13.1221 10.2097 13.4573V16.1584L10.2084 16.1571Z" fill="var(--fill-0, white)"/>
<path id="Vector_18" d="M11.3741 11.2219V10.1582H12.5242V11.2219H11.3741ZM11.3741 16.1573V11.8111H12.5242V16.1573H11.3741Z" fill="var(--fill-0, white)"/>
<path id="Vector_19" d="M14.5606 13.1377L13.5176 12.9495C13.6349 12.5292 13.8373 12.2185 14.1235 12.0161C14.4098 11.8136 14.8352 11.7131 15.3999 11.7131C15.9131 11.7131 16.2947 11.7737 16.5461 11.8949C16.7975 12.0161 16.9742 12.1708 17.076 12.3577C17.1779 12.5447 17.2295 12.8876 17.2295 13.3866L17.2179 14.7287C17.2179 15.1103 17.2359 15.3927 17.2733 15.5732C17.3107 15.755 17.379 15.9497 17.4796 16.156H16.3424C16.3128 16.0799 16.2754 15.9664 16.2315 15.8169C16.2122 15.7485 16.1993 15.7034 16.1903 15.6815C15.9943 15.8723 15.7842 16.0154 15.5598 16.1108C15.3368 16.2062 15.097 16.2539 14.8443 16.2539C14.3969 16.2539 14.0436 16.1327 13.787 15.8904C13.5292 15.648 13.4003 15.3411 13.4003 14.9698C13.4003 14.7248 13.4596 14.5057 13.5769 14.3136C13.6942 14.1215 13.858 13.9745 14.0694 13.8713C14.2808 13.7695 14.5851 13.6792 14.9835 13.6032C15.5211 13.5026 15.8937 13.4085 16.1 13.3208V13.2061C16.1 12.9856 16.0459 12.827 15.9363 12.7329C15.8267 12.6388 15.6217 12.5911 15.3187 12.5911C15.1137 12.5911 14.9539 12.631 14.8404 12.7123C14.7256 12.7922 14.6328 12.934 14.5619 13.1364L14.5606 13.1377ZM14.5529 11.227H14.0294C14.0268 11.1638 14.0256 11.1148 14.0256 11.08C14.0256 10.7938 14.0952 10.5733 14.2344 10.4186C14.3737 10.2639 14.5516 10.1878 14.7708 10.1878C14.8662 10.1878 14.9551 10.1982 15.0364 10.2188C15.1176 10.2394 15.2672 10.2974 15.485 10.3954C15.7016 10.4921 15.8718 10.5411 15.9943 10.5411C16.082 10.5411 16.1542 10.514 16.2135 10.4599C16.2728 10.4057 16.3102 10.3142 16.3257 10.1853H16.8581C16.8556 10.554 16.7859 10.817 16.6519 10.9743C16.5165 11.1329 16.3424 11.2115 16.1297 11.2115C16.0369 11.2115 15.9453 11.2025 15.8551 11.1832C15.7919 11.1664 15.6359 11.111 15.3845 11.0156C15.1331 10.9202 14.9513 10.8725 14.8365 10.8725C14.7489 10.8725 14.6805 10.8995 14.6315 10.9524C14.5825 11.0052 14.5567 11.0981 14.5542 11.2283L14.5529 11.227ZM16.1 14.0699C15.9531 14.1189 15.7197 14.1782 15.3999 14.2452C15.0802 14.3136 14.8726 14.3806 14.7733 14.4464C14.6238 14.5534 14.5477 14.6875 14.5477 14.8512C14.5477 15.0149 14.607 15.1516 14.7282 15.2689C14.8481 15.3863 15.0016 15.4443 15.1859 15.4443C15.3935 15.4443 15.5908 15.3759 15.779 15.2393C15.9182 15.1361 16.0098 15.0085 16.0536 14.8589C16.0833 14.7609 16.0987 14.574 16.0987 14.2981V14.0686L16.1 14.0699Z" fill="var(--fill-0, white)"/>
<path id="Vector_20" d="M18.0978 13.923C18.0978 13.5414 18.192 13.1713 18.3802 12.8142C18.5684 12.4571 18.8353 12.1837 19.1796 11.9955C19.5251 11.8073 19.9106 11.7132 20.3361 11.7132C20.9936 11.7132 21.5325 11.9272 21.9528 12.3539C22.3731 12.7807 22.5833 13.3209 22.5833 13.972C22.5833 14.6231 22.3706 15.1749 21.9464 15.6068C21.5222 16.0387 20.9884 16.2553 20.3451 16.2553C19.9467 16.2553 19.5663 16.1651 19.2053 15.9859C18.8443 15.8066 18.5684 15.5423 18.3815 15.1942C18.1933 14.8461 18.0991 14.4232 18.0991 13.9243L18.0978 13.923ZM19.2763 13.9849C19.2763 14.4155 19.3781 14.7456 19.5831 14.9751C19.7881 15.2045 20.0395 15.3193 20.3399 15.3193C20.6403 15.3193 20.8917 15.2045 21.0955 14.9751C21.2992 14.7456 21.3997 14.4129 21.3997 13.9771C21.3997 13.5414 21.2979 13.2242 21.0955 12.9947C20.893 12.7652 20.6403 12.6505 20.3399 12.6505C20.0395 12.6505 19.7881 12.7652 19.5831 12.9947C19.3781 13.2242 19.2763 13.5543 19.2763 13.9849Z" fill="var(--fill-0, white)"/>
<path id="Vector_21" d="M25.8177 16.1573V10.1582H30.2657V11.1729H27.0283V12.5034H30.0401V13.5142H27.0283V15.1464H30.3792V16.1573H25.8164H25.8177Z" fill="var(--fill-0, white)"/>
<path id="Vector_22" d="M34.26 16.1571V15.506C34.1015 15.7381 33.8939 15.9212 33.636 16.054C33.3782 16.1881 33.1061 16.2538 32.8199 16.2538C32.5337 16.2538 32.2655 16.1894 32.0347 16.0617C31.8026 15.9341 31.635 15.7536 31.5319 15.5215C31.4287 15.2894 31.3759 14.9697 31.3759 14.5597V11.8096H32.5259V13.8067C32.5259 14.4179 32.5466 14.7918 32.5891 14.9297C32.6317 15.0677 32.7077 15.1773 32.8199 15.2572C32.9321 15.3371 33.0739 15.3784 33.2454 15.3784C33.4413 15.3784 33.618 15.3242 33.7727 15.2172C33.9287 15.1102 34.0344 14.9761 34.0911 14.8163C34.1492 14.6564 34.1775 14.2657 34.1775 13.6443V11.8109H35.3276V16.1571H34.26Z" fill="var(--fill-0, white)"/>
<path id="Vector_23" d="M37.6202 16.1573H36.4701V11.8111H37.5377V12.4287C37.7207 12.1373 37.8845 11.9452 38.0302 11.8524C38.1759 11.7596 38.3422 11.7132 38.5278 11.7132C38.7896 11.7132 39.0423 11.7854 39.2847 11.9298L38.9288 12.9328C38.7354 12.8078 38.5549 12.7446 38.3886 12.7446C38.2223 12.7446 38.0908 12.7884 37.9799 12.8774C37.8677 12.9663 37.7801 13.1262 37.7156 13.3583C37.6511 13.5904 37.6189 14.0764 37.6189 14.8152V16.1573H37.6202Z" fill="var(--fill-0, white)"/>
<path id="Vector_24" d="M39.5147 13.923C39.5147 13.5414 39.6088 13.1713 39.797 12.8142C39.9853 12.4571 40.2521 12.1837 40.5964 11.9955C40.9419 11.8073 41.3274 11.7132 41.7529 11.7132C42.4104 11.7132 42.9493 11.9272 43.3697 12.3539C43.79 12.7807 44.0001 13.3209 44.0001 13.972C44.0001 14.6231 43.7874 15.1749 43.3632 15.6068C42.939 16.0387 42.4053 16.2553 41.7619 16.2553C41.3635 16.2553 40.9832 16.1651 40.6222 15.9859C40.2612 15.8066 39.9853 15.5423 39.7983 15.1942C39.6101 14.8461 39.516 14.4232 39.516 13.9243L39.5147 13.923ZM40.6931 13.9849C40.6931 14.4155 40.7949 14.7456 40.9999 14.9751C41.2049 15.2045 41.4563 15.3193 41.7567 15.3193C42.0572 15.3193 42.3086 15.2045 42.5123 14.9751C42.716 14.7456 42.8165 14.4129 42.8165 13.9771C42.8165 13.5414 42.7147 13.2242 42.5123 12.9947C42.3099 12.7652 42.0572 12.6505 41.7567 12.6505C41.4563 12.6505 41.2049 12.7652 40.9999 12.9947C40.7949 13.2242 40.6931 13.5543 40.6931 13.9849Z" fill="var(--fill-0, white)"/>
<path id="Vector_25" d="M44.8666 11.8124H45.938V12.4506C46.0773 12.2327 46.2655 12.0548 46.5027 11.9182C46.74 11.7815 47.003 11.7132 47.2918 11.7132C47.7959 11.7132 48.2252 11.9104 48.5772 12.3062C48.9292 12.702 49.1045 13.2526 49.1045 13.9591C49.1045 14.6656 48.9266 15.2484 48.5721 15.6506C48.2175 16.0529 47.7882 16.254 47.2828 16.254C47.043 16.254 46.8251 16.2063 46.6304 16.1109C46.4357 16.0155 46.2294 15.8518 46.0141 15.6197V17.8089H44.864V11.8099L44.8666 11.8124ZM46.0038 13.9114C46.0038 14.4 46.1005 14.7597 46.2939 14.9931C46.4873 15.2265 46.7232 15.3425 47.0017 15.3425C47.2802 15.3425 47.4916 15.2355 47.6683 15.0215C47.8462 14.8074 47.9339 14.4568 47.9339 13.9681C47.9339 13.513 47.8423 13.1739 47.6592 12.9535C47.4762 12.733 47.2505 12.6221 46.9798 12.6221C46.709 12.6221 46.4654 12.7304 46.2797 12.947C46.094 13.1636 46.0012 13.4846 46.0012 13.9101L46.0038 13.9114Z" fill="var(--fill-0, white)"/>
<path id="Vector_26" d="M52.5366 14.7736L53.6828 14.9657C53.5358 15.386 53.3025 15.7058 52.9853 15.9249C52.6668 16.1441 52.2697 16.2537 51.7927 16.2537C51.0372 16.2537 50.4776 16.0062 50.1153 15.5137C49.8291 15.1178 49.686 14.6189 49.686 14.0155C49.686 13.2948 49.8742 12.7314 50.2507 12.324C50.6272 11.9165 51.1029 11.7116 51.6792 11.7116C52.3252 11.7116 52.8357 11.9256 53.2096 12.3523C53.5835 12.7791 53.7614 13.4327 53.746 14.3146H50.8657C50.8734 14.6563 50.9663 14.9206 51.1442 15.1101C51.3221 15.2996 51.5426 15.395 51.8069 15.395C51.9874 15.395 52.1382 15.3461 52.2607 15.2481C52.3832 15.1501 52.476 14.9915 52.5392 14.7736H52.5366ZM52.6011 13.612C52.5933 13.2793 52.507 13.0266 52.3432 12.8526C52.1795 12.6798 51.9809 12.5921 51.7463 12.5921C51.4949 12.5921 51.2886 12.6837 51.1248 12.8668C50.9611 13.0498 50.8812 13.2974 50.8837 13.612H52.6024H52.6011Z" fill="var(--fill-0, white)"/>
<path id="Vector_27" d="M54.6795 11.2219V10.1582H55.8295V11.2219H54.6795ZM54.6795 16.1573V11.8111H55.8295V16.1573H54.6795Z" fill="var(--fill-0, white)"/>
<path id="Vector_28" d="M57.8681 13.1378L56.825 12.9496C56.9424 12.5293 57.1448 12.2186 57.431 12.0161C57.7172 11.8137 58.1427 11.7132 58.7074 11.7132C59.2206 11.7132 59.6022 11.7738 59.8536 11.8949C60.105 12.0161 60.2816 12.1709 60.3835 12.3578C60.4854 12.5447 60.5369 12.8877 60.5369 13.3867L60.5253 14.7288C60.5253 15.1104 60.5434 15.3928 60.5808 15.5733C60.6181 15.7551 60.6865 15.9498 60.7871 16.156H59.6499C59.6202 16.08 59.5828 15.9665 59.539 15.817C59.5197 15.7486 59.5068 15.7035 59.4978 15.6816C59.3018 15.8724 59.0916 16.0155 58.8673 16.1109C58.6442 16.2063 58.4044 16.254 58.1517 16.254C57.7043 16.254 57.3511 16.1328 57.0945 15.8905C56.8366 15.6481 56.7077 15.3412 56.7077 14.9699C56.7077 14.7249 56.767 14.5058 56.8844 14.3137C57.0017 14.1215 57.1654 13.9746 57.3769 13.8714C57.5883 13.7696 57.8926 13.6793 58.291 13.6033C58.8286 13.5027 59.2012 13.4086 59.4075 13.3209V13.2062C59.4075 12.9857 59.3534 12.8271 59.2438 12.733C59.1342 12.6389 58.9292 12.5912 58.6262 12.5912C58.4212 12.5912 58.2613 12.6311 58.1479 12.7124C58.0331 12.7923 57.9403 12.9341 57.8694 13.1365L57.8681 13.1378ZM59.4062 14.07C59.2592 14.119 59.0259 14.1783 58.7061 14.2453C58.3864 14.3137 58.1788 14.3807 58.0795 14.4464C57.93 14.5535 57.8539 14.6875 57.8539 14.8513C57.8539 15.015 57.9132 15.1517 58.0344 15.269C58.1543 15.3863 58.3077 15.4444 58.4921 15.4444C58.6997 15.4444 58.8969 15.376 59.0852 15.2394C59.2244 15.1362 59.316 15.0086 59.3598 14.859C59.3895 14.761 59.4049 14.5741 59.4049 14.2982V14.0687L59.4062 14.07Z" fill="var(--fill-0, white)"/>
</g>
</svg>
