<svg preserveAspectRatio="none" width="100%" height="100%" overflow="visible" style="display: block;" viewBox="0 0 79.5584 21.9057" fill="none" xmlns="http://www.w3.org/2000/svg">
<g id="Group 201">
<path id="Vector" d="M0 0.454H30.9679V21.0989H0V0.454Z" fill="var(--fill-0, white)"/>
<path id="Vector_2" d="M18.8657 3.83216L19.1161 4.61193H19.9351L19.2715 5.09004L19.5203 5.86076L18.8672 5.38264L18.2126 5.86076L18.4615 5.09004L17.7994 4.61193H18.6169L18.8672 3.83216H18.8657ZM14.8251 4.95128L15.0739 4.18057L14.4103 3.70396H15.2278L15.4781 2.9242L15.7285 3.70396H16.546L15.8824 4.18057L16.1312 4.95128L15.4781 4.47468L14.8251 4.95128ZM11.4435 5.86076L11.6924 5.09004L11.0287 4.61344H11.8462L12.0966 3.83216L12.347 4.61344H13.1644L12.5008 5.09004L12.7497 5.86076L12.0966 5.38415L11.4435 5.86076ZM9.6215 6.31022L9.87188 7.09149H10.6894L10.0257 7.5681L10.2746 8.33881L9.6215 7.8622L8.96842 8.33881L9.21729 7.5681L8.55364 7.09149H9.37113L9.6215 6.31022ZM8.71352 11.2407L8.06044 11.7173L8.3093 10.9466L7.64566 10.47H8.46315L8.71352 9.68869L8.96389 10.47H9.78138L9.11774 10.9466L9.3666 11.7173L8.71352 11.2407ZM9.87188 13.856H10.6894L10.0257 14.3326L10.2746 15.1033L9.6215 14.6252L8.96842 15.1033L9.21729 14.3326L8.55364 13.856H9.37113L9.6215 13.0747L9.87188 13.856ZM12.3515 16.3355H13.169L12.5053 16.8122L12.7542 17.5829L12.1011 17.1063L11.448 17.5829L11.6969 16.8122L11.0333 16.3355H11.8507L12.1011 15.5558L12.3515 16.3355ZM15.7285 17.2345H16.546L15.8824 17.7111L16.1312 18.4818L15.4781 18.0052L14.8251 18.4818L15.0739 17.7111L14.4103 17.2345H15.2278L15.4781 16.4532L15.7285 17.2345ZM19.1055 16.3355H19.923L19.2594 16.8122L19.5083 17.5829L18.8552 17.1063L18.2021 17.5829L18.451 16.8122L17.7888 16.3355H18.6063L18.8567 15.5558L19.1071 16.3355H19.1055ZM21.5867 13.856H22.4041L21.7405 14.3326L21.9894 15.1033L21.3363 14.6252L20.6832 15.1033L20.9321 14.3326L20.2684 13.856H21.0859L21.3363 13.0747L21.5867 13.856ZM23.3016 10.4594L22.6379 10.936L22.8868 11.7067L22.2337 11.2286L21.5806 11.7067L21.8295 10.936L21.1659 10.4594H21.9833L22.2337 9.67814L22.4841 10.4594H23.3016ZM20.6817 8.32976L20.9306 7.55905L20.2669 7.08244H21.0844L21.3348 6.30117L21.5852 7.08244H22.4026L21.739 7.55905L21.9879 8.32976L21.3348 7.85315L20.6817 8.32976Z" fill="var(--fill-0, #045CFC)"/>
<path id="Vector_3" fill-rule="evenodd" clip-rule="evenodd" d="M33.8137 21.088V18.3023H34.773C34.9902 18.3023 35.1546 18.3159 35.2692 18.3415C35.4291 18.3777 35.5648 18.4441 35.6779 18.5406C35.8243 18.6643 35.9344 18.8242 36.0083 19.0172C36.0807 19.2103 36.1169 19.4305 36.1169 19.6793C36.1169 19.8905 36.0927 20.079 36.043 20.2419C35.9932 20.4048 35.9298 20.5405 35.8529 20.6476C35.776 20.7547 35.6915 20.8392 35.5995 20.901C35.5075 20.9629 35.3974 21.0096 35.2677 21.0413C35.138 21.073 34.9887 21.0895 34.8197 21.0895H33.8152L33.8137 21.088ZM34.1832 20.7623H34.7775C34.9615 20.7623 35.1048 20.7457 35.2089 20.711C35.3129 20.6763 35.3959 20.628 35.4577 20.5662C35.5452 20.4787 35.6131 20.3611 35.6614 20.2133C35.7096 20.0654 35.7338 19.886 35.7338 19.6763C35.7338 19.3837 35.6855 19.1605 35.5905 19.0036C35.4954 18.8468 35.3793 18.7412 35.2421 18.6884C35.144 18.6507 34.9841 18.6311 34.7654 18.6311H34.1802V20.7623H34.1832Z" fill="var(--fill-0, white)"/>
<path id="Vector_4" fill-rule="evenodd" clip-rule="evenodd" d="M37.9625 20.4355L38.317 20.4823C38.2611 20.6874 38.1586 20.8473 38.0078 20.9619C37.8569 21.075 37.6654 21.1323 37.4316 21.1323C37.1375 21.1323 36.9037 21.0418 36.7318 20.8608C36.5598 20.6799 36.4723 20.425 36.4723 20.0977C36.4723 19.7704 36.5598 19.4959 36.7333 19.3089C36.9082 19.1218 37.1345 19.0283 37.412 19.0283C37.6895 19.0283 37.9007 19.1203 38.0711 19.3028C38.2415 19.4868 38.3275 19.7447 38.3275 20.0766C38.3275 20.0962 38.3275 20.1278 38.326 20.1671H36.8223C36.8343 20.3888 36.8977 20.5577 37.0108 20.6753C37.1239 20.793 37.2642 20.8518 37.4316 20.8518C37.5568 20.8518 37.6639 20.8186 37.7529 20.7522C37.8418 20.6859 37.9112 20.5803 37.964 20.4355H37.9625ZM36.8419 19.8865H37.9655C37.9504 19.7161 37.9067 19.5894 37.8373 19.5049C37.7287 19.3737 37.5885 19.3073 37.415 19.3073C37.2581 19.3073 37.1269 19.3601 37.0198 19.4657C36.9128 19.5713 36.8539 19.7116 36.8419 19.888V19.8865Z" fill="var(--fill-0, white)"/>
<path id="Vector_5" d="M38.6164 20.4868L38.9542 20.4325C38.9738 20.5682 39.0266 20.6723 39.1126 20.7447C39.1986 20.8171 39.3207 20.8533 39.4776 20.8533C39.6345 20.8533 39.7521 20.8216 39.8275 20.7568C39.9044 20.6934 39.9422 20.618 39.9422 20.532C39.9422 20.4551 39.9075 20.3933 39.8396 20.3495C39.7913 20.3194 39.6752 20.2802 39.4897 20.2334C39.2393 20.1701 39.0658 20.1158 38.9693 20.069C38.8728 20.0223 38.7989 19.9589 38.7491 19.8775C38.6993 19.796 38.6737 19.7055 38.6737 19.6075C38.6737 19.5185 38.6948 19.434 38.7355 19.3586C38.7763 19.2817 38.8321 19.2184 38.903 19.1686C38.9557 19.1294 39.0281 19.0962 39.1201 19.069C39.2121 19.0419 39.3102 19.0283 39.4158 19.0283C39.5741 19.0283 39.7129 19.0509 39.832 19.0962C39.9512 19.1414 40.0402 19.2033 40.0975 19.2817C40.1548 19.3601 40.194 19.4642 40.2152 19.5954L39.8803 19.6422C39.8652 19.5366 39.8215 19.4552 39.7491 19.3963C39.6767 19.3375 39.5741 19.3073 39.4414 19.3073C39.2845 19.3073 39.1729 19.333 39.1066 19.3858C39.0402 19.4386 39.0055 19.4989 39.0055 19.5683C39.0055 19.612 39.0191 19.6527 39.0477 19.6874C39.0749 19.7236 39.1186 19.7538 39.179 19.7779C39.2137 19.79 39.3132 19.8202 39.4806 19.8654C39.7219 19.9303 39.8909 19.983 39.9859 20.0238C40.0824 20.0645 40.1578 20.1248 40.2121 20.2032C40.2664 20.2817 40.2936 20.3782 40.2936 20.4958C40.2936 20.6135 40.2604 20.7161 40.194 20.8171C40.1277 20.9182 40.0311 20.9951 39.906 21.0509C39.7808 21.1052 39.639 21.1338 39.4806 21.1338C39.2182 21.1338 39.0176 21.0795 38.8803 20.9709C38.7431 20.8624 38.6556 20.701 38.6164 20.4883V20.4868Z" fill="var(--fill-0, white)"/>
<path id="Vector_6" fill-rule="evenodd" clip-rule="evenodd" d="M42.0726 20.4355L42.4271 20.4823C42.3713 20.6874 42.2687 20.8473 42.1179 20.9619C41.9671 21.075 41.7755 21.1323 41.5417 21.1323C41.2476 21.1323 41.0138 21.0418 40.8419 20.8608C40.6699 20.6799 40.5825 20.425 40.5825 20.0977C40.5825 19.7704 40.6699 19.4959 40.8434 19.3089C41.0184 19.1218 41.2446 19.0283 41.5221 19.0283C41.7996 19.0283 42.0108 19.1203 42.1812 19.3028C42.3517 19.4868 42.4376 19.7447 42.4376 20.0766C42.4376 20.0962 42.4376 20.1278 42.4361 20.1671H40.9324C40.9445 20.3888 41.0078 20.5577 41.1194 20.6753C41.2325 20.793 41.3728 20.8518 41.5402 20.8518C41.6654 20.8518 41.7725 20.8186 41.8615 20.7522C41.9505 20.6859 42.0199 20.5803 42.0726 20.4355ZM40.952 19.8865H42.0757C42.0606 19.7161 42.0168 19.5894 41.9475 19.5049C41.8389 19.3737 41.6986 19.3073 41.5251 19.3073C41.3683 19.3073 41.2371 19.3601 41.13 19.4657C41.0229 19.5713 40.9641 19.7116 40.952 19.888V19.8865Z" fill="var(--fill-0, white)"/>
<path id="Vector_7" d="M42.8637 21.0884V19.0688H43.1714V19.3554C43.3192 19.1352 43.5334 19.0251 43.8124 19.0251C43.9346 19.0251 44.0462 19.0462 44.1473 19.09C44.2498 19.1337 44.3252 19.191 44.3765 19.2619C44.4278 19.3328 44.4625 19.4173 44.4821 19.5138C44.4942 19.5771 44.5017 19.6872 44.5017 19.8456V21.0854H44.1593V19.8592C44.1593 19.7204 44.1458 19.6163 44.1201 19.547C44.093 19.4776 44.0462 19.4233 43.9783 19.3811C43.9105 19.3403 43.832 19.3192 43.74 19.3192C43.5952 19.3192 43.4701 19.366 43.3645 19.458C43.2589 19.55 43.2061 19.7264 43.2061 19.9844V21.0854H42.8637V21.0884Z" fill="var(--fill-0, white)"/>
<path id="Vector_8" d="M45.5808 21.0883L44.8191 19.0688H45.1856L45.617 20.2784C45.6637 20.4096 45.7075 20.5439 45.7467 20.6856C45.7769 20.5785 45.8191 20.4519 45.8734 20.301L46.3228 19.0688H46.6743L45.9096 21.0883H45.5808Z" fill="var(--fill-0, white)"/>
<path id="Vector_9" fill-rule="evenodd" clip-rule="evenodd" d="M46.8431 20.0796C46.8431 19.707 46.9471 19.431 47.1553 19.2515C47.3287 19.1022 47.5399 19.0283 47.7903 19.0283C48.0678 19.0283 48.294 19.1188 48.4705 19.2998C48.647 19.4808 48.7345 19.7312 48.7345 20.0509C48.7345 20.3103 48.6952 20.5139 48.6168 20.6618C48.5384 20.8096 48.4253 20.9257 48.2759 21.0071C48.1266 21.0886 47.9652 21.1308 47.7888 21.1308C47.5067 21.1308 47.2775 21.0403 47.104 20.8593C46.9306 20.6783 46.8431 20.4189 46.8431 20.0781V20.0796ZM47.193 20.0811C47.193 20.339 47.2488 20.532 47.3619 20.6602C47.475 20.7884 47.6168 20.8518 47.7888 20.8518C47.9607 20.8518 48.101 20.7869 48.2141 20.6587C48.3272 20.5305 48.383 20.333 48.383 20.069C48.383 19.8202 48.3257 19.6316 48.2126 19.5034C48.0995 19.3752 47.9577 19.3104 47.7888 19.3104C47.6198 19.3104 47.475 19.3737 47.3619 19.5019C47.2488 19.6301 47.193 19.8217 47.193 20.0796V20.0811Z" fill="var(--fill-0, white)"/>
<path id="Vector_10" d="M49.1308 21.0881V18.3039H49.4732V21.0881H49.1308Z" fill="var(--fill-0, white)"/>
<path id="Vector_11" d="M50.5592 21.0883L49.7976 19.0688H50.1641L50.5954 20.2784C50.6422 20.4096 50.6859 20.5439 50.7252 20.6856C50.7553 20.5785 50.7976 20.4519 50.8519 20.301L51.3013 19.0688H51.6528L50.8881 21.0883H50.5592Z" fill="var(--fill-0, white)"/>
<path id="Vector_12" fill-rule="evenodd" clip-rule="evenodd" d="M51.9502 18.693V18.3039H52.2926V18.693H51.9502ZM51.9502 21.0881V19.0686H52.2926V21.0881H51.9502Z" fill="var(--fill-0, white)"/>
<path id="Vector_13" d="M52.8185 21.0884V19.0688H53.1262V19.3539C53.1896 19.2559 53.274 19.1759 53.3781 19.1156C53.4837 19.0553 53.6028 19.0251 53.7371 19.0251C53.8864 19.0251 54.0086 19.0568 54.1036 19.1186C54.1986 19.1805 54.2665 19.2664 54.3057 19.378C54.4656 19.1427 54.6752 19.0251 54.9316 19.0251C55.1322 19.0251 55.2876 19.0809 55.3947 19.191C55.5033 19.3011 55.5576 19.4715 55.5576 19.7023V21.0869H55.2152V19.8169C55.2152 19.6797 55.2046 19.5816 55.182 19.5213C55.1594 19.461 55.1186 19.4127 55.0613 19.3765C55.0025 19.3403 54.9346 19.3207 54.8562 19.3207C54.7144 19.3207 54.5953 19.3675 54.5018 19.4625C54.4082 19.5575 54.36 19.7083 54.36 19.915V21.0869H54.0176V19.7762C54.0176 19.6239 53.9905 19.5108 53.9346 19.4338C53.8788 19.3584 53.7883 19.3192 53.6617 19.3192C53.5651 19.3192 53.4761 19.3449 53.3947 19.3946C53.3132 19.4459 53.2544 19.5198 53.2167 19.6163C53.1805 19.7144 53.1624 19.8546 53.1624 20.0387V21.0854H52.82L52.8185 21.0884Z" fill="var(--fill-0, white)"/>
<path id="Vector_14" fill-rule="evenodd" clip-rule="evenodd" d="M57.439 20.4355L57.7935 20.4823C57.7376 20.6874 57.6351 20.8473 57.4843 20.9619C57.3334 21.075 57.1419 21.1323 56.9081 21.1323C56.614 21.1323 56.3802 21.0418 56.2083 20.8608C56.0363 20.6799 55.9488 20.425 55.9488 20.0977C55.9488 19.7704 56.0363 19.4959 56.2098 19.3089C56.3847 19.1218 56.611 19.0283 56.8885 19.0283C57.166 19.0283 57.3772 19.1203 57.5476 19.3028C57.718 19.4868 57.804 19.7447 57.804 20.0766C57.804 20.0962 57.804 20.1278 57.8025 20.1671H56.2987C56.3108 20.3888 56.3742 20.5577 56.4858 20.6753C56.5989 20.793 56.7392 20.8518 56.9066 20.8518C57.0318 20.8518 57.1389 20.8186 57.2278 20.7522C57.3168 20.6859 57.3862 20.5803 57.439 20.4355ZM56.3199 19.8865H57.4435C57.4284 19.7161 57.3847 19.5894 57.3153 19.5049C57.2067 19.3737 57.065 19.3073 56.893 19.3073C56.7361 19.3073 56.6049 19.3601 56.4978 19.4657C56.3907 19.5713 56.3319 19.7116 56.3199 19.888V19.8865Z" fill="var(--fill-0, white)"/>
<path id="Vector_15" d="M58.2279 21.0884V19.0688H58.5356V19.3554C58.6834 19.1352 58.8976 19.0251 59.1767 19.0251C59.2988 19.0251 59.4104 19.0462 59.5115 19.09C59.6141 19.1337 59.6895 19.191 59.7407 19.2619C59.792 19.3328 59.8267 19.4173 59.8463 19.5138C59.8584 19.5771 59.8659 19.6872 59.8659 19.8456V21.0854H59.5236V19.8592C59.5236 19.7204 59.51 19.6163 59.4843 19.547C59.4572 19.4776 59.4104 19.4233 59.3426 19.3811C59.2747 19.3403 59.1963 19.3192 59.1043 19.3192C58.9595 19.3192 58.8343 19.366 58.7287 19.458C58.6231 19.55 58.5703 19.7264 58.5703 19.9844V21.0854H58.2279V21.0884Z" fill="var(--fill-0, white)"/>
<path id="Vector_16" d="M61.1365 20.7838L61.1832 21.0855C61.0867 21.1051 61.0007 21.1156 60.9253 21.1156C60.8016 21.1156 60.7051 21.096 60.6372 21.0568C60.5694 21.0176 60.5211 20.9663 60.4939 20.9015C60.4668 20.8381 60.4517 20.7024 60.4517 20.4972V19.3344H60.1983V19.0704H60.4517V18.5712L60.7941 18.3661V19.0704H61.1365V19.3344H60.7941V20.5168C60.7941 20.6149 60.8001 20.6767 60.8122 20.7054C60.8243 20.7325 60.8439 20.7551 60.871 20.7717C60.8982 20.7883 60.9374 20.7959 60.9872 20.7959C61.0249 20.7959 61.0746 20.7913 61.1365 20.7823V20.7838Z" fill="var(--fill-0, white)"/>
<path id="Vector_17" fill-rule="evenodd" clip-rule="evenodd" d="M61.3454 20.0796C61.3454 19.707 61.4495 19.431 61.6576 19.2515C61.8311 19.1022 62.0422 19.0283 62.2926 19.0283C62.5701 19.0283 62.7964 19.1188 62.9728 19.2998C63.1493 19.4808 63.2368 19.7312 63.2368 20.0509C63.2368 20.3103 63.1976 20.5139 63.1206 20.6618C63.0422 20.8096 62.9291 20.9257 62.7798 21.0071C62.6304 21.0886 62.4691 21.1308 62.2926 21.1308C62.0105 21.1308 61.7813 21.0403 61.6078 20.8593C61.4344 20.6783 61.3469 20.4189 61.3469 20.0781L61.3454 20.0796ZM61.6953 20.0811C61.6953 20.339 61.7511 20.532 61.8642 20.6602C61.9774 20.7884 62.1191 20.8518 62.2911 20.8518C62.463 20.8518 62.6033 20.7869 62.7164 20.6587C62.8295 20.5305 62.8853 20.333 62.8853 20.069C62.8853 19.8202 62.828 19.6316 62.7149 19.5034C62.6018 19.3752 62.46 19.3104 62.2911 19.3104C62.1221 19.3104 61.9774 19.3737 61.8642 19.5019C61.7511 19.6301 61.6953 19.8217 61.6953 20.0796V20.0811Z" fill="var(--fill-0, white)"/>
<path id="Vector_18" fill-rule="evenodd" clip-rule="evenodd" d="M64.7673 21.088V18.3023H66.0026C66.2499 18.3023 66.4385 18.3279 66.5682 18.3777C66.6979 18.4275 66.8004 18.5165 66.8774 18.6432C66.9543 18.7699 66.9935 18.9101 66.9935 19.0625C66.9935 19.26 66.9301 19.4259 66.8019 19.5617C66.6737 19.6974 66.4762 19.7834 66.2092 19.8196C66.3072 19.8664 66.3811 19.9131 66.4309 19.9584C66.538 20.0579 66.6406 20.1801 66.7356 20.3294L67.2167 21.088H66.7567L66.3887 20.5074C66.2816 20.3399 66.1926 20.2117 66.1232 20.1228C66.0538 20.0338 65.992 19.9719 65.9362 19.9372C65.8819 19.9026 65.8246 19.8769 65.7688 19.8633C65.7265 19.8543 65.6587 19.8498 65.5637 19.8498H65.1368V21.0865H64.7673V21.088ZM65.1383 19.533H65.9302C66.0991 19.533 66.2303 19.5149 66.3238 19.4802C66.4188 19.4456 66.4897 19.3897 66.5395 19.3128C66.5893 19.2359 66.6134 19.153 66.6134 19.0625C66.6134 18.9312 66.5651 18.8226 66.4701 18.7367C66.3751 18.6522 66.2243 18.61 66.0191 18.61H65.1383V19.5315V19.533Z" fill="var(--fill-0, white)"/>
<path id="Vector_19" fill-rule="evenodd" clip-rule="evenodd" d="M68.9075 20.4355L69.2619 20.4823C69.2061 20.6874 69.1036 20.8473 68.9527 20.9619C68.8019 21.075 68.6104 21.1323 68.3766 21.1323C68.0825 21.1323 67.8487 21.0418 67.6767 20.8608C67.5048 20.6799 67.4173 20.425 67.4173 20.0977C67.4173 19.7704 67.5048 19.4959 67.6783 19.3089C67.8532 19.1218 68.0795 19.0283 68.357 19.0283C68.6345 19.0283 68.8457 19.1203 69.0161 19.3028C69.1865 19.4868 69.2725 19.7447 69.2725 20.0766C69.2725 20.0962 69.2725 20.1278 69.271 20.1671H67.7672C67.7793 20.3888 67.8427 20.5577 67.9543 20.6753C68.0674 20.793 68.2077 20.8518 68.3751 20.8518C68.5003 20.8518 68.6074 20.8186 68.6963 20.7522C68.7853 20.6859 68.8547 20.5803 68.9075 20.4355ZM67.7869 19.8865H68.9105C68.8954 19.7161 68.8517 19.5894 68.7823 19.5049C68.6737 19.3737 68.5319 19.3073 68.36 19.3073C68.2031 19.3073 68.0719 19.3601 67.9648 19.4657C67.8577 19.5713 67.7989 19.7116 67.7869 19.888V19.8865Z" fill="var(--fill-0, white)"/>
<path id="Vector_20" fill-rule="evenodd" clip-rule="evenodd" d="M69.6323 21.2556L69.9626 21.3024C69.9761 21.405 70.0154 21.4789 70.0787 21.5271C70.1632 21.5905 70.2793 21.6221 70.4271 21.6221C70.5855 21.6221 70.7077 21.5905 70.7936 21.5271C70.8796 21.4638 70.9384 21.3763 70.9686 21.2617C70.9867 21.1923 70.9942 21.046 70.9927 20.8243C70.8434 21.0007 70.6564 21.0882 70.4331 21.0882C70.1556 21.0882 69.9415 20.9887 69.7891 20.7881C69.6368 20.5875 69.5614 20.3477 69.5614 20.0686C69.5614 19.8756 69.5961 19.6991 69.6654 19.5362C69.7348 19.3733 69.8359 19.2482 69.9686 19.1592C70.1013 19.0702 70.2567 19.0264 70.4347 19.0264C70.673 19.0264 70.869 19.123 71.0229 19.3175V19.0687H71.3381V20.8122C71.3381 21.1259 71.3064 21.3491 71.2416 21.4804C71.1782 21.6116 71.0772 21.7157 70.9384 21.7911C70.7997 21.8665 70.6292 21.9057 70.4271 21.9057C70.1873 21.9057 69.9927 21.8514 69.8449 21.7443C69.6971 21.6357 69.6247 21.4743 69.6307 21.2571L69.6323 21.2556ZM69.9128 20.0445C69.9128 20.3085 69.9656 20.5015 70.0712 20.6222C70.1767 20.7428 70.308 20.8047 70.4663 20.8047C70.6247 20.8047 70.7559 20.7443 70.8615 20.6237C70.9686 20.503 71.0214 20.3145 71.0214 20.0566C71.0214 19.7987 70.9671 19.6237 70.857 19.4985C70.7469 19.3733 70.6156 19.3115 70.4603 19.3115C70.3049 19.3115 70.1782 19.3733 70.0727 19.497C69.9656 19.6207 69.9128 19.8032 69.9128 20.046V20.0445Z" fill="var(--fill-0, white)"/>
<path id="Vector_21" fill-rule="evenodd" clip-rule="evenodd" d="M71.8598 18.693V18.3039H72.2022V18.693H71.8598ZM71.8598 21.0881V19.0686H72.2022V21.0881H71.8598Z" fill="var(--fill-0, white)"/>
<path id="Vector_22" fill-rule="evenodd" clip-rule="evenodd" d="M72.5995 20.0796C72.5995 19.707 72.7035 19.431 72.9117 19.2515C73.0851 19.1022 73.2963 19.0283 73.5467 19.0283C73.8242 19.0283 74.0504 19.1188 74.2269 19.2998C74.4034 19.4808 74.4909 19.7312 74.4909 20.0509C74.4909 20.3103 74.4516 20.5139 74.3747 20.6618C74.2963 20.8096 74.1832 20.9257 74.0338 21.0071C73.8845 21.0886 73.7231 21.1308 73.5467 21.1308C73.2646 21.1308 73.0354 21.0403 72.8619 20.8593C72.687 20.6783 72.601 20.4189 72.601 20.0781L72.5995 20.0796ZM72.9494 20.0811C72.9494 20.339 73.0052 20.532 73.1183 20.6602C73.2314 20.7884 73.3732 20.8518 73.5452 20.8518C73.7171 20.8518 73.8574 20.7869 73.9705 20.6587C74.0836 20.5305 74.1394 20.333 74.1394 20.069C74.1394 19.8202 74.0821 19.6316 73.969 19.5034C73.8559 19.3752 73.7141 19.3104 73.5452 19.3104C73.3762 19.3104 73.2314 19.3737 73.1183 19.5019C73.0052 19.6301 72.9494 19.8217 72.9494 20.0796V20.0811Z" fill="var(--fill-0, white)"/>
<path id="Vector_23" d="M74.8936 21.0884V19.0688H75.2013V19.3554C75.3491 19.1352 75.5633 19.0251 75.8423 19.0251C75.9645 19.0251 76.0761 19.0462 76.1771 19.09C76.2797 19.1337 76.3551 19.191 76.4064 19.2619C76.4577 19.3328 76.4924 19.4173 76.512 19.5138C76.5241 19.5771 76.5316 19.6872 76.5316 19.8456V21.0854H76.1892V19.8592C76.1892 19.7204 76.1756 19.6163 76.15 19.547C76.1229 19.4776 76.0761 19.4233 76.0082 19.3811C75.9403 19.3403 75.8619 19.3192 75.7699 19.3192C75.6251 19.3192 75.4999 19.366 75.3944 19.458C75.2888 19.55 75.236 19.7264 75.236 19.9844V21.0854H74.8936V21.0884Z" fill="var(--fill-0, white)"/>
<path id="Vector_24" fill-rule="evenodd" clip-rule="evenodd" d="M78.3777 20.8367C78.251 20.9453 78.1288 21.0207 78.0112 21.066C77.8935 21.1097 77.7683 21.1323 77.6341 21.1323C77.4124 21.1323 77.2419 21.078 77.1228 20.9709C77.0036 20.8624 76.9433 20.7251 76.9433 20.5577C76.9433 20.4597 76.9659 20.3692 77.0112 20.2877C77.0564 20.2063 77.1153 20.1414 77.1876 20.0916C77.26 20.0419 77.343 20.0057 77.4335 19.98C77.5014 19.9619 77.6024 19.9453 77.7382 19.9287C78.0142 19.8956 78.2178 19.8564 78.349 19.8111C78.349 19.7643 78.3505 19.7342 78.3505 19.7221C78.3505 19.5834 78.3189 19.4853 78.254 19.428C78.1665 19.3511 78.0368 19.3119 77.8634 19.3119C77.702 19.3119 77.5828 19.3405 77.5059 19.3963C77.429 19.4536 77.3717 19.5532 77.3355 19.6965L77.0006 19.6497C77.0308 19.5064 77.0806 19.3903 77.1514 19.3028C77.2208 19.2153 77.3219 19.1475 77.4546 19.0992C77.5873 19.0509 77.7397 19.0283 77.9146 19.0283C78.0896 19.0283 78.2284 19.0479 78.3354 19.0887C78.444 19.1294 78.5225 19.1807 78.5738 19.2425C78.625 19.3043 78.6597 19.3813 78.6808 19.4763C78.6929 19.5351 78.6974 19.6392 78.6974 19.7915V20.2455C78.6974 20.5622 78.705 20.7628 78.7185 20.8473C78.7321 20.9317 78.7608 21.0132 78.803 21.0916H78.4455C78.4109 21.0192 78.3897 20.9347 78.3792 20.8382L78.3777 20.8367ZM78.3505 20.0781C78.2253 20.1278 78.0398 20.1716 77.7894 20.2063C77.6492 20.2259 77.5481 20.2485 77.4908 20.2741C77.432 20.2998 77.3867 20.336 77.3551 20.3842C77.3234 20.4325 77.3068 20.4868 77.3068 20.5456C77.3068 20.6361 77.3415 20.7115 77.4109 20.7719C77.4803 20.8322 77.5813 20.8624 77.714 20.8624C77.8468 20.8624 77.9629 20.8337 78.0655 20.7764C78.168 20.7191 78.2434 20.6406 78.2917 20.5411C78.3279 20.4642 78.3475 20.3511 78.3475 20.2017V20.0766H78.349L78.3505 20.0781Z" fill="var(--fill-0, white)"/>
<path id="Vector_25" d="M79.216 21.0881V18.3039H79.5584V21.0881H79.216Z" fill="var(--fill-0, white)"/>
<path id="Vector_26" d="M33.8352 16.1216V13.3359H35.7145V13.6632H34.2047V14.5304H35.5124V14.8577H34.2047V16.1216H33.8352Z" fill="var(--fill-0, white)"/>
<path id="Vector_27" d="M37.4701 16.1218V15.8216C37.3132 16.0509 37.1005 16.164 36.8321 16.164C36.7129 16.164 36.6028 16.1414 36.5002 16.0961C36.3977 16.0509 36.3208 15.9936 36.271 15.9242C36.2212 15.8548 36.1865 15.7704 36.1654 15.6708C36.1518 15.6044 36.1443 15.4974 36.1443 15.3526V14.1037H36.4867V15.2214C36.4867 15.3993 36.4942 15.52 36.5078 15.5818C36.5289 15.6723 36.5742 15.7417 36.6435 15.793C36.7129 15.8443 36.7989 15.8699 36.9014 15.8699C37.004 15.8699 37.099 15.8443 37.1895 15.7915C37.2785 15.7387 37.3434 15.6678 37.3796 15.5773C37.4173 15.4868 37.4354 15.3556 37.4354 15.1836V14.1037H37.7778V16.1233H37.4701V16.1218Z" fill="var(--fill-0, white)"/>
<path id="Vector_28" d="M38.3184 16.1215V14.1019H38.626V14.3885C38.7739 14.1683 38.988 14.0582 39.2671 14.0582C39.3892 14.0582 39.5008 14.0793 39.6019 14.123C39.7045 14.1668 39.7799 14.2241 39.8312 14.295C39.8824 14.3659 39.9171 14.4503 39.9367 14.5469C39.9488 14.6102 39.9563 14.7203 39.9563 14.8787V16.1184H39.614V14.8922C39.614 14.7535 39.6004 14.6494 39.5747 14.58C39.5476 14.5107 39.5008 14.4564 39.433 14.4141C39.3651 14.3734 39.2867 14.3523 39.1947 14.3523C39.0499 14.3523 38.9247 14.399 38.8191 14.491C38.7135 14.5831 38.6607 14.7595 38.6607 15.0174V16.1184H38.3184V16.1215Z" fill="var(--fill-0, white)"/>
<path id="Vector_29" fill-rule="evenodd" clip-rule="evenodd" d="M41.7859 16.1217V15.8653C41.6577 16.0644 41.4707 16.1639 41.2218 16.1639C41.0604 16.1639 40.9126 16.1202 40.7784 16.0312C40.6442 15.9422 40.5386 15.8186 40.4647 15.6602C40.3908 15.5018 40.3531 15.3193 40.3531 15.1127C40.3531 14.9061 40.3862 14.7296 40.4541 14.5652C40.5205 14.4008 40.6215 14.2756 40.7558 14.1881C40.89 14.1007 41.0393 14.0569 41.2052 14.0569C41.3274 14.0569 41.4345 14.0826 41.5295 14.1338C41.6245 14.1851 41.7015 14.253 41.7618 14.3344V13.333H42.1042V16.1187H41.7844L41.7859 16.1217ZM40.7045 15.1142C40.7045 15.3721 40.7588 15.5652 40.8689 15.6919C40.9775 15.8201 41.1072 15.8834 41.255 15.8834C41.4028 15.8834 41.5325 15.8231 41.6366 15.7009C41.7407 15.5787 41.7935 15.3932 41.7935 15.1429C41.7935 14.8668 41.7407 14.6647 41.6336 14.5365C41.5265 14.4083 41.3953 14.3435 41.2399 14.3435C41.0846 14.3435 40.9609 14.4053 40.8583 14.529C40.7558 14.6527 40.7045 14.8472 40.7045 15.1142Z" fill="var(--fill-0, white)"/>
<path id="Vector_30" fill-rule="evenodd" clip-rule="evenodd" d="M42.5207 15.111C42.5207 14.7385 42.6247 14.4625 42.8329 14.283C43.0063 14.1337 43.2175 14.0598 43.4679 14.0598C43.7454 14.0598 43.9716 14.1503 44.1481 14.3313C44.3246 14.5123 44.4121 14.7626 44.4121 15.0824C44.4121 15.3418 44.3728 15.5454 44.2959 15.6932C44.2175 15.841 44.1044 15.9572 43.955 16.0386C43.8057 16.1201 43.6443 16.1623 43.4679 16.1623C43.1858 16.1623 42.9566 16.0718 42.7831 15.8908C42.6097 15.7098 42.5222 15.4489 42.5222 15.1095L42.5207 15.111ZM42.8706 15.1125C42.8706 15.3705 42.9264 15.5635 43.0395 15.6917C43.1526 15.8199 43.2944 15.8848 43.4664 15.8848C43.6383 15.8848 43.7786 15.8199 43.8917 15.6917C44.0048 15.5635 44.0606 15.3659 44.0606 15.102C44.0606 14.8531 44.0033 14.6646 43.8902 14.5364C43.7771 14.4082 43.6353 14.3433 43.4664 14.3433C43.2974 14.3433 43.1526 14.4067 43.0395 14.5349C42.9264 14.6631 42.8706 14.8546 42.8706 15.1125Z" fill="var(--fill-0, white)"/>
<path id="Vector_31" d="M45.9447 16.1216V13.3359H47.9553V13.6632H46.3142V14.5184H47.8497V14.8457H46.3142V15.7944H48.0216V16.1216H45.9447Z" fill="var(--fill-0, white)"/>
<path id="Vector_32" d="M49.802 16.1218V15.8216C49.6451 16.0509 49.4324 16.164 49.164 16.164C49.0448 16.164 48.9347 16.1414 48.8306 16.0961C48.7281 16.0509 48.6512 15.9936 48.6014 15.9242C48.5516 15.8548 48.5169 15.7704 48.4958 15.6708C48.4822 15.6044 48.4747 15.4974 48.4747 15.3526V14.1037H48.8171V15.2214C48.8171 15.3993 48.8246 15.52 48.8382 15.5818C48.8593 15.6723 48.9045 15.7417 48.9739 15.793C49.0433 15.8443 49.1293 15.8699 49.2318 15.8699C49.3344 15.8699 49.4309 15.8443 49.5199 15.7915C49.6089 15.7387 49.6738 15.6678 49.71 15.5773C49.7477 15.4868 49.7658 15.3556 49.7658 15.1836V14.1037H50.1082V16.1233H49.8005L49.802 16.1218Z" fill="var(--fill-0, white)"/>
<path id="Vector_33" d="M50.6481 16.1216V14.102H50.9558V14.4112C51.0342 14.2679 51.1066 14.1729 51.173 14.1277C51.2394 14.0824 51.3133 14.0598 51.3932 14.0598C51.5093 14.0598 51.6255 14.096 51.7446 14.1684L51.6225 14.4851C51.5395 14.4384 51.4566 14.4157 51.3736 14.4157C51.2997 14.4157 51.2333 14.4384 51.173 14.4836C51.1142 14.5289 51.0719 14.5907 51.0463 14.6706C51.0086 14.7928 50.989 14.9255 50.989 15.0688V16.1231H50.6466L50.6481 16.1216Z" fill="var(--fill-0, white)"/>
<path id="Vector_34" fill-rule="evenodd" clip-rule="evenodd" d="M51.8215 15.111C51.8215 14.7385 51.9256 14.4625 52.1338 14.283C52.3072 14.1337 52.5184 14.0598 52.7687 14.0598C53.0463 14.0598 53.2725 14.1503 53.449 14.3313C53.6254 14.5123 53.7129 14.7626 53.7129 15.0824C53.7129 15.3418 53.6737 15.5454 53.5953 15.6932C53.5168 15.841 53.4037 15.9572 53.2559 16.0386C53.1066 16.1201 52.9452 16.1623 52.7687 16.1623C52.4867 16.1623 52.2574 16.0718 52.084 15.8908C51.9105 15.7098 51.8231 15.4489 51.8231 15.1095L51.8215 15.111ZM52.1715 15.1125C52.1715 15.3705 52.2273 15.5635 52.3404 15.6917C52.4535 15.8199 52.5953 15.8848 52.7672 15.8848C52.9392 15.8848 53.0794 15.8199 53.1926 15.6917C53.3057 15.5635 53.3615 15.3659 53.3615 15.102C53.3615 14.8531 53.3042 14.6646 53.1911 14.5364C53.0779 14.4082 52.9362 14.3433 52.7672 14.3433C52.5983 14.3433 52.4535 14.4067 52.3404 14.5349C52.2273 14.6631 52.1715 14.8546 52.1715 15.1125Z" fill="var(--fill-0, white)"/>
<path id="Vector_35" fill-rule="evenodd" clip-rule="evenodd" d="M54.1178 16.8953V14.102H54.4285V14.3675C54.5024 14.2649 54.5854 14.188 54.6774 14.1367C54.7694 14.0854 54.8825 14.0598 55.0137 14.0598C55.1857 14.0598 55.338 14.1035 55.4692 14.1925C55.6005 14.2815 55.7 14.4052 55.7679 14.5666C55.8342 14.7279 55.8689 14.9044 55.8689 15.096C55.8689 15.3026 55.8312 15.4881 55.7573 15.6525C55.6834 15.8169 55.5763 15.9436 55.4345 16.0311C55.2928 16.1185 55.145 16.1623 54.9896 16.1623C54.8765 16.1623 54.7739 16.1382 54.6834 16.0899C54.5929 16.0416 54.519 15.9813 54.4602 15.9089V16.8938H54.1178V16.8953ZM54.4285 15.1231C54.4285 15.3825 54.4813 15.5741 54.5854 15.6977C54.6895 15.8214 54.8177 15.8833 54.9655 15.8833C55.1133 15.8833 55.2475 15.8199 55.3546 15.6902C55.4632 15.562 55.516 15.3629 55.516 15.0944C55.516 14.826 55.4632 14.6465 55.3576 14.5183C55.252 14.3901 55.1269 14.3267 54.979 14.3267C54.8312 14.3267 54.7045 14.3946 54.5929 14.5304C54.4813 14.6661 54.4255 14.8637 54.4255 15.1231H54.4285Z" fill="var(--fill-0, white)"/>
<path id="Vector_36" fill-rule="evenodd" clip-rule="evenodd" d="M57.6598 15.467L58.0143 15.5137C57.9585 15.7189 57.8559 15.8787 57.7051 15.9934C57.5543 16.1065 57.3627 16.1638 57.1289 16.1638C56.8348 16.1638 56.601 16.0733 56.4291 15.8923C56.2571 15.7113 56.1697 15.4564 56.1697 15.1291C56.1697 14.8018 56.2571 14.5273 56.4306 14.3403C56.6056 14.1533 56.8318 14.0598 57.1093 14.0598C57.3868 14.0598 57.598 14.1518 57.7684 14.3343C57.9389 14.5183 58.0248 14.7762 58.0248 15.108C58.0248 15.1276 58.0248 15.1593 58.0233 15.1985H56.5196C56.5317 15.4202 56.595 15.5892 56.7066 15.7068C56.8197 15.8244 56.96 15.8833 57.1274 15.8833C57.2526 15.8833 57.3597 15.8501 57.4487 15.7837C57.5377 15.7174 57.6071 15.6118 57.6598 15.467ZM56.5392 14.9195H57.6629C57.6478 14.7491 57.604 14.6224 57.5347 14.5379C57.4261 14.4067 57.2858 14.3403 57.1123 14.3403C56.9555 14.3403 56.8243 14.3931 56.7172 14.4987C56.6101 14.6043 56.5513 14.7445 56.5392 14.921V14.9195Z" fill="var(--fill-0, white)"/>
<path id="Vector_37" d="M59.7681 16.1218V15.8216C59.6113 16.0509 59.3986 16.164 59.1301 16.164C59.011 16.164 58.9009 16.1414 58.7983 16.0961C58.6957 16.0509 58.6188 15.9936 58.569 15.9242C58.5193 15.8548 58.4846 15.7704 58.4635 15.6708C58.4499 15.6044 58.4423 15.4974 58.4423 15.3526V14.1037H58.7847V15.2214C58.7847 15.3993 58.7923 15.52 58.8058 15.5818C58.827 15.6723 58.8722 15.7417 58.9416 15.793C59.011 15.8443 59.0969 15.8699 59.1995 15.8699C59.3021 15.8699 59.3986 15.8443 59.4876 15.7915C59.5766 15.7387 59.6414 15.6678 59.6776 15.5773C59.7153 15.4868 59.7334 15.3556 59.7334 15.1836V14.1037H60.0758V16.1233H59.7681V16.1218Z" fill="var(--fill-0, white)"/>
<path id="Vector_38" fill-rule="evenodd" clip-rule="evenodd" d="M62.9969 16.1217V15.8653C62.8687 16.0644 62.6817 16.1639 62.4328 16.1639C62.2715 16.1639 62.1236 16.1202 61.9894 16.0312C61.8552 15.9422 61.7496 15.8186 61.6757 15.6602C61.6018 15.5018 61.5641 15.3193 61.5641 15.1127C61.5641 14.9061 61.5973 14.7296 61.6651 14.5652C61.7315 14.4008 61.8325 14.2756 61.9668 14.1881C62.101 14.1007 62.2503 14.0569 62.4163 14.0569C62.5384 14.0569 62.6455 14.0826 62.7405 14.1338C62.8356 14.1851 62.9125 14.253 62.9728 14.3344V13.333H63.3152V16.1187H62.9969V16.1217ZM61.9155 15.1142C61.9155 15.3721 61.9698 15.5652 62.0799 15.6919C62.1885 15.8201 62.3182 15.8834 62.466 15.8834C62.6138 15.8834 62.7435 15.8231 62.8476 15.7009C62.9517 15.5787 63.0045 15.3932 63.0045 15.1429C63.0045 14.8668 62.9517 14.6647 62.8446 14.5365C62.7375 14.4083 62.6063 14.3435 62.4509 14.3435C62.2956 14.3435 62.1719 14.4053 62.0693 14.529C61.9668 14.6527 61.9155 14.8472 61.9155 15.1142Z" fill="var(--fill-0, white)"/>
<path id="Vector_39" fill-rule="evenodd" clip-rule="evenodd" d="M65.2369 15.467L65.5913 15.5137C65.5355 15.7189 65.433 15.8787 65.2821 15.9934C65.1313 16.1065 64.9398 16.1638 64.706 16.1638C64.4119 16.1638 64.1781 16.0733 64.0061 15.8923C63.8342 15.7113 63.7467 15.4564 63.7467 15.1291C63.7467 14.8018 63.8342 14.5273 64.0076 14.3403C64.1826 14.1533 64.4088 14.0598 64.6864 14.0598C64.9639 14.0598 65.1751 14.1518 65.3455 14.3343C65.5159 14.5183 65.6019 14.7762 65.6019 15.108C65.6019 15.1276 65.6019 15.1593 65.6004 15.1985H64.0966C64.1087 15.4202 64.1721 15.5892 64.2837 15.7068C64.3968 15.8244 64.5371 15.8833 64.7045 15.8833C64.8297 15.8833 64.9367 15.8501 65.0257 15.7837C65.1147 15.7174 65.1841 15.6118 65.2369 15.467ZM64.1162 14.9195H65.2399C65.2248 14.7491 65.1811 14.6224 65.1117 14.5379C65.0031 14.4067 64.8628 14.3403 64.6894 14.3403C64.5325 14.3403 64.4013 14.3931 64.2942 14.4987C64.1871 14.6043 64.1283 14.7445 64.1162 14.921V14.9195Z" fill="var(--fill-0, white)"/>
<path id="Vector_40" d="M33.8309 0.817414H34.4583V2.49459C34.4583 2.76004 34.4659 2.93349 34.4809 3.01192C34.5081 3.13861 34.5699 3.23966 34.6695 3.31658C34.769 3.3935 34.9048 3.43121 35.0782 3.43121C35.2517 3.43121 35.3859 3.39501 35.4749 3.32261C35.5639 3.25022 35.6182 3.16123 35.6363 3.05565C35.6544 2.95008 35.6634 2.77512 35.6634 2.52928V0.817414H36.2909V2.44481C36.2909 2.81735 36.2743 3.07979 36.2411 3.23363C36.2079 3.38747 36.1461 3.51718 36.0556 3.62276C35.9651 3.72833 35.8444 3.8128 35.6921 3.87463C35.5413 3.93798 35.3422 3.96815 35.0993 3.96815C34.8052 3.96815 34.582 3.93346 34.4297 3.86558C34.2773 3.79771 34.1567 3.70873 34.0692 3.59862C33.9802 3.49003 33.9229 3.3754 33.8942 3.25474C33.8535 3.07677 33.8339 2.81584 33.8339 2.46895V0.817414H33.8309Z" fill="var(--fill-0, white)"/>
<path id="Vector_41" d="M36.9547 3.91234V0.817414H37.5611L38.8356 2.89126V0.817414H39.4147V3.91234H38.7888L37.5339 1.87771V3.91234H36.9547Z" fill="var(--fill-0, white)"/>
<path id="Vector_42" d="M40.0593 3.91234V0.817414H40.6853V3.91234H40.0593Z" fill="var(--fill-0, white)"/>
<path id="Vector_43" fill-rule="evenodd" clip-rule="evenodd" d="M44.063 3.9124H43.3888L43.1218 3.20804H41.8805L41.6241 3.9124H40.962L42.1641 0.817471H42.8262L44.066 3.9124H44.063ZM42.9182 2.68468L42.4883 1.53992L42.0705 2.68468H42.9182ZM42.066 0.539953H41.793C41.793 0.50828 41.7915 0.48264 41.7915 0.464541C41.7915 0.316732 41.8277 0.203614 41.8986 0.123676C41.971 0.0437392 42.063 0.00452475 42.1761 0.00452475C42.2259 0.00452475 42.2711 0.00904949 42.3134 0.0196072C42.3556 0.030165 42.4325 0.0603299 42.5441 0.110102C42.6558 0.159874 42.7432 0.185515 42.8081 0.185515C42.8533 0.185515 42.891 0.17194 42.9212 0.143284C42.9514 0.114627 42.971 0.0663629 42.98 0H43.253C43.253 0.191548 43.2168 0.330306 43.1459 0.411752C43.0766 0.494706 42.9876 0.535428 42.8775 0.535428C42.8292 0.535428 42.7824 0.530904 42.7357 0.520346C42.704 0.511296 42.6226 0.481131 42.4929 0.431359C42.3631 0.380079 42.2696 0.354438 42.2108 0.354438C42.1656 0.354438 42.1309 0.368013 42.1052 0.396669C42.0796 0.423818 42.066 0.472082 42.0645 0.541461L42.066 0.539953Z" fill="var(--fill-0, white)"/>
<path id="Vector_44" fill-rule="evenodd" clip-rule="evenodd" d="M44.2724 2.38277C44.2724 2.06754 44.3191 1.80209 44.4141 1.58792C44.485 1.42956 44.5801 1.28778 44.7022 1.1626C44.8244 1.03741 44.9571 0.943899 45.1019 0.883569C45.295 0.802124 45.5167 0.761401 45.7701 0.761401C46.2271 0.761401 46.5921 0.903176 46.8651 1.18673C47.1396 1.47028 47.2753 1.86393 47.2753 2.36919C47.2753 2.87446 47.1396 3.26208 46.8681 3.54412C46.5966 3.82616 46.2331 3.96794 45.7776 3.96794C45.3221 3.96794 44.9511 3.82767 44.6796 3.54563C44.4081 3.26359 44.2724 2.87747 44.2724 2.38277ZM44.9164 2.36165C44.9164 2.71307 44.9978 2.97853 45.1592 3.15952C45.3221 3.34051 45.5273 3.431 45.7776 3.431C46.028 3.431 46.2316 3.34051 46.393 3.16102C46.5529 2.98154 46.6328 2.71157 46.6328 2.3526C46.6328 1.99364 46.5544 1.73271 46.399 1.55776C46.2437 1.3828 46.0355 1.29532 45.7776 1.29532C45.5197 1.29532 45.3116 1.38431 45.1532 1.56077C44.9948 1.73724 44.9164 2.0042 44.9164 2.36165Z" fill="var(--fill-0, white)"/>
<path id="Vector_45" d="M48.9614 3.91234V0.817414H51.2525V1.33927H49.5888V2.02703H51.1363V2.55039H49.5888V3.38898H51.3128V3.91234H48.9614Z" fill="var(--fill-0, white)"/>
<path id="Vector_46" d="M51.8387 0.817414H52.4661V2.49459C52.4661 2.76004 52.4737 2.93349 52.4888 3.01192C52.5159 3.13861 52.5778 3.23966 52.6773 3.31658C52.7768 3.3935 52.9126 3.43121 53.086 3.43121C53.2595 3.43121 53.3937 3.39501 53.4827 3.32261C53.5717 3.25022 53.626 3.16123 53.6441 3.05565C53.6622 2.95008 53.6713 2.77512 53.6713 2.52928V0.817414H54.2987V2.44481C54.2987 2.81735 54.2821 3.07979 54.2489 3.23363C54.2157 3.38747 54.1539 3.51718 54.0634 3.62276C53.9729 3.72833 53.8522 3.8128 53.6999 3.87463C53.5491 3.93798 53.35 3.96815 53.1072 3.96815C52.813 3.96815 52.5898 3.93346 52.4375 3.86558C52.2851 3.79771 52.1645 3.70873 52.077 3.59862C51.988 3.49003 51.9307 3.3754 51.902 3.25474C51.8613 3.07677 51.8417 2.81584 51.8417 2.46895V0.817414H51.8387Z" fill="var(--fill-0, white)"/>
<path id="Vector_47" fill-rule="evenodd" clip-rule="evenodd" d="M54.9647 3.91234V0.817414H56.2814C56.6118 0.817414 56.8531 0.844562 57.0024 0.900368C57.1517 0.956173 57.2724 1.05421 57.3629 1.19749C57.4534 1.33927 57.4986 1.50216 57.4986 1.68466C57.4986 1.91693 57.4307 2.10847 57.295 2.2593C57.1593 2.41012 56.9556 2.50665 56.6841 2.54587C56.8184 2.6243 56.93 2.71177 57.0175 2.80529C57.105 2.90031 57.2226 3.06772 57.3719 3.30753L57.749 3.91083H57.0024L56.5544 3.23514C56.3931 2.99533 56.2829 2.8445 56.2241 2.78115C56.1653 2.71932 56.102 2.67558 56.0356 2.65295C55.9692 2.63033 55.8636 2.61826 55.7204 2.61826H55.5937V3.91083H54.9662L54.9647 3.91234ZM55.5922 2.12657H56.0537C56.3538 2.12657 56.5409 2.11451 56.6148 2.08887C56.6887 2.06323 56.7475 2.01949 56.7897 1.95765C56.832 1.89581 56.8531 1.81738 56.8531 1.72538C56.8531 1.62131 56.8259 1.53685 56.7701 1.47199C56.7143 1.40714 56.6359 1.36792 56.5348 1.34983C56.4835 1.34228 56.3327 1.33927 56.0793 1.33927H55.5922V2.12657Z" fill="var(--fill-0, white)"/>
<path id="Vector_48" fill-rule="evenodd" clip-rule="evenodd" d="M57.9578 2.38277C57.9578 2.06754 58.0046 1.80209 58.0996 1.58792C58.1705 1.42956 58.2655 1.28778 58.3877 1.1626C58.5098 1.03741 58.6426 0.943899 58.7873 0.883569C58.9804 0.802124 59.2021 0.761401 59.4555 0.761401C59.9125 0.761401 60.2775 0.903176 60.5505 1.18673C60.825 1.47028 60.9608 1.86393 60.9608 2.36919C60.9608 2.87446 60.825 3.26208 60.5535 3.54412C60.282 3.82616 59.9186 3.96794 59.4631 3.96794C59.0076 3.96794 58.6365 3.82767 58.365 3.54563C58.0935 3.26359 57.9578 2.87747 57.9578 2.38277ZM58.6018 2.36165C58.6018 2.71307 58.6833 2.97853 58.8447 3.15952C59.0076 3.34051 59.2127 3.431 59.4631 3.431C59.7134 3.431 59.917 3.34051 60.0784 3.16102C60.2383 2.98154 60.3182 2.71157 60.3182 2.3526C60.3182 1.99364 60.2398 1.73271 60.0845 1.55776C59.9291 1.3828 59.721 1.29532 59.4631 1.29532C59.2051 1.29532 58.997 1.38431 58.8386 1.56077C58.6803 1.73724 58.6018 2.0042 58.6018 2.36165Z" fill="var(--fill-0, white)"/>
<path id="Vector_49" fill-rule="evenodd" clip-rule="evenodd" d="M61.4477 3.91234V0.817414H62.4492C62.8292 0.817414 63.0766 0.832496 63.1912 0.86417C63.3677 0.910925 63.517 1.01198 63.6362 1.16733C63.7553 1.32268 63.8157 1.52327 63.8157 1.77063C63.8157 1.96067 63.781 2.12054 63.7131 2.25025C63.6437 2.37996 63.5562 2.48101 63.4507 2.55492C63.3451 2.62882 63.2365 2.67708 63.1279 2.70122C62.9786 2.73138 62.7629 2.74496 62.4808 2.74496H62.0736V3.91234H61.4462H61.4477ZM62.0736 1.33927V2.22159H62.4145C62.6603 2.22159 62.8232 2.205 62.9062 2.17333C62.9891 2.14015 63.054 2.09038 63.1007 2.021C63.1475 1.95162 63.1716 1.87168 63.1716 1.77968C63.1716 1.66656 63.1384 1.57305 63.0721 1.49914C63.0057 1.42524 62.9228 1.37999 62.8217 1.36189C62.7478 1.34832 62.5985 1.34078 62.3737 1.34078H62.0736V1.33927Z" fill="var(--fill-0, white)"/>
<path id="Vector_50" d="M64.3278 3.91234V0.817414H66.6188V1.33927H64.9552V2.02703H66.5027V2.55039H64.9552V3.38898H66.6792V3.91234H64.3278Z" fill="var(--fill-0, white)"/>
<path id="Vector_51" d="M67.1836 3.91234V0.817414H67.8096V3.91234H67.1836Z" fill="var(--fill-0, white)"/>
<path id="Vector_52" fill-rule="evenodd" clip-rule="evenodd" d="M71.1894 3.91234H70.5152L70.2483 3.20799H69.0069L68.7505 3.91234H68.0884L69.2905 0.817414H69.9526L71.1924 3.91234H71.1894ZM70.0446 2.68463L69.6148 1.53987L69.197 2.68463H70.0446Z" fill="var(--fill-0, white)"/>
</g>
</svg>
