<svg preserveAspectRatio="none" width="100%" height="100%" overflow="visible" style="display: block;" viewBox="0 0 36.5644 24.3766" fill="none" xmlns="http://www.w3.org/2000/svg">
<path id="Vector" d="M0 0V24.3766H36.5644V0H0ZM9.02765 11.8266L9.99333 11.8292L10.2886 10.9048L10.5838 11.8279H11.5495L10.7669 12.3913L11.0596 13.3016L10.2886 12.7382L9.51758 13.3016L9.81154 12.3913L9.02765 11.8279V11.8266ZM12.1323 17.2997L11.3613 16.735L10.5903 17.2997L10.8842 16.3894L10.1016 15.826H11.0673L11.3626 14.9029L11.6578 15.826H12.6235L11.8409 16.3894L12.1348 17.2997H12.1323ZM11.8383 8.40229L12.1323 9.31253L11.3613 8.74911L10.5903 9.31253L10.8842 8.40229L10.1016 7.83887H11.0673L11.3626 6.91574L11.6578 7.83887H12.6235L11.8409 8.40229H11.8383ZM13.9863 4.91219L14.2815 3.98906L14.5768 4.91219H15.5425L14.7586 5.47561L15.0512 6.38584L14.2802 5.82242L13.5092 6.38584L13.8019 5.47561L13.0193 4.91219H13.985H13.9863ZM15.059 20.2276L14.288 19.6642L13.517 20.2276L13.8096 19.3174L13.027 18.754H13.9927L14.288 17.8321L14.5832 18.754H15.5489L14.7663 19.3174L15.059 20.2276ZM17.9792 3.8395L18.2745 2.91637L18.5697 3.83821H19.5354L18.7515 4.40163L19.0455 5.31187L18.2745 4.74845L17.5035 5.31187L17.7974 4.40163L17.0148 3.83821H17.9805L17.9792 3.8395ZM19.0468 21.2874L18.2758 20.724L17.5048 21.2874L17.7974 20.3772L17.0148 19.8138H17.9805L18.2758 18.8906L18.571 19.8138H19.5367L18.7528 20.3772L19.0468 21.2874ZM23.0358 20.2276L22.2648 19.6642L21.4938 20.2276L21.7865 19.3174L21.0039 18.754H21.9683L22.2648 17.8321L22.5601 18.754H23.5258L22.7419 19.3174L23.0358 20.2276ZM22.7535 5.47432L23.0462 6.38455L22.2752 5.81985L21.5029 6.38455L21.7955 5.47432L21.0129 4.90961L21.9786 4.91219L22.2739 3.98906L22.5691 4.9109H23.5361L22.7522 5.47561L22.7535 5.47432ZM24.895 7.82856L25.1915 6.90543L25.4881 7.82856H26.4525L25.6686 8.39069L25.9625 9.30092L25.1915 8.7375L24.4205 9.30092L24.7145 8.39069L23.9306 7.82856H24.895ZM25.9625 17.2997L25.1915 16.735L24.4205 17.2997L24.7145 16.3894L23.9306 15.826H24.895L25.1915 14.9029L25.4881 15.826H26.4525L25.6686 16.3894L25.9625 17.2997ZM27.0223 13.2887L26.2513 12.724L25.4803 13.2887L25.773 12.3785L24.9891 11.815H25.9548L26.2501 10.8919L26.5466 11.815H27.5123L26.7284 12.3785L27.0211 13.2887H27.0223Z" fill="var(--fill-0, white)"/>
</svg>
