<svg preserveAspectRatio="none" width="100%" height="100%" overflow="visible" style="display: block;" viewBox="0 0 121.85 18.6831" fill="none" xmlns="http://www.w3.org/2000/svg">
<g id="Group 196">
<g id="Group">
<path id="Vector" d="M0 16.6162H0.781475C1.22249 16.6162 1.46593 16.879 1.46593 17.2318C1.46593 17.5846 1.22249 17.8457 0.781475 17.8457H0.381035V18.516H0.590957V18.6607H0V18.516H0.183461V16.7608H0V16.6162ZM0.763834 17.6887C1.09724 17.6887 1.26306 17.5088 1.26306 17.2318C1.26306 16.9549 1.09548 16.7714 0.763834 16.7714H0.382799V17.6887H0.763834Z" fill="var(--fill-0, white)"/>
<path id="Vector_2" d="M2.42389 17.8207H1.97582V18.5158H2.18574V18.6604H1.59302V18.5158H1.77648V16.7606H1.59302V16.6159H2.38684C2.82962 16.6159 3.06953 16.8805 3.06953 17.2263C3.06953 17.5032 2.91606 17.7167 2.62146 17.789L3.07482 18.5158H3.26358V18.6604H2.94252L2.42213 17.8207H2.42389ZM2.36215 17.6637C2.71143 17.6637 2.86667 17.4926 2.86667 17.221C2.86667 16.9493 2.7079 16.7712 2.36215 16.7712H1.97758V17.6637H2.36215Z" fill="var(--fill-0, white)"/>
<path id="Vector_3" d="M3.35757 17.6371C3.35757 17.032 3.8268 16.591 4.40718 16.591C4.98755 16.591 5.45855 17.032 5.45855 17.6371C5.45855 18.2421 4.98931 18.6831 4.40718 18.6831C3.82504 18.6831 3.35757 18.2421 3.35757 17.6371ZM5.25216 17.6371C5.25216 17.1378 4.89406 16.7621 4.40718 16.7621C3.9203 16.7621 3.5622 17.1378 3.5622 17.6371C3.5622 18.1363 3.9203 18.512 4.40718 18.512C4.89406 18.512 5.25216 18.1363 5.25216 17.6371Z" fill="var(--fill-0, white)"/>
<path id="Vector_4" d="M7.3994 18.4344C7.25122 18.5808 7.02895 18.6831 6.73259 18.6831C6.16633 18.6831 5.69886 18.2792 5.69886 17.6371C5.69886 17.032 6.16457 16.591 6.7273 16.591C7.00955 16.591 7.22653 16.6845 7.34648 16.8485V16.6139H7.50878V17.1396H7.3553C7.27945 16.8891 7.06247 16.7639 6.73788 16.7639C6.25101 16.7639 5.90172 17.1361 5.90172 17.6353C5.90172 18.1345 6.26512 18.5102 6.74847 18.5102C7.06776 18.5102 7.26534 18.3868 7.38882 18.2633V17.8329H6.77317V17.6759H7.57581V18.6567H7.39764V18.4309L7.3994 18.4344Z" fill="var(--fill-0, white)"/>
<path id="Vector_5" d="M8.69559 17.8207H8.24752V18.5158H8.45744V18.6604H7.86648V18.5158H8.04994V16.7606H7.86648V16.6159H8.66031C9.10308 16.6159 9.34299 16.8805 9.34299 17.2263C9.34299 17.5032 9.18952 17.7167 8.89492 17.789L9.34829 18.5158H9.5388V18.6604H9.21775L8.69735 17.8207H8.69559ZM8.63208 17.6637C8.98136 17.6637 9.1366 17.4926 9.1366 17.221C9.1366 16.9493 8.97783 16.7712 8.63208 16.7712H8.24752V17.6637H8.63208Z" fill="var(--fill-0, white)"/>
<path id="Vector_6" d="M11.6135 18.6604H11.0543V18.5158H11.2501L11.1019 18.11H10.1846L10.0347 18.5158H10.2322V18.6604H9.68892V18.5158H9.84415L10.4845 16.7606H10.3363V16.6159H10.9608V16.7606H10.8109L11.4512 18.5158H11.61V18.6604H11.6135ZM10.2411 17.9442H11.049L10.6468 16.8047L10.2411 17.9442Z" fill="var(--fill-0, white)"/>
<path id="Vector_7" d="M14.0639 18.6604H13.4818V18.5158H13.6882V16.9229L12.9632 18.0412H12.882L12.157 16.9105V18.5158H12.3669V18.6604H11.7954V18.5158H11.9788V16.7606H11.7901V16.6159H12.1799L12.9261 17.7802L13.6758 16.6159H14.0692V16.7606H13.8805V18.5158H14.0639V18.6604Z" fill="var(--fill-0, white)"/>
<path id="Vector_8" d="M16.17 18.6604H15.6108V18.5158H15.8066L15.6602 18.11H14.7428L14.5929 18.5158H14.7905V18.6604H14.2471V18.5158H14.4024L15.0427 16.7606H14.8963V16.6159H15.5208V16.7606H15.3708L16.0112 18.5158H16.17V18.6604ZM14.7958 17.9442H15.6037L15.1997 16.8047L14.794 17.9442H14.7958Z" fill="var(--fill-0, white)"/>
<path id="Vector_9" d="M16.8586 17.6371C16.8586 17.032 17.3278 16.591 17.9082 16.591C18.4886 16.591 18.9596 17.032 18.9596 17.6371C18.9596 18.2421 18.4903 18.6831 17.9082 18.6831C17.3261 18.6831 16.8586 18.2421 16.8586 17.6371ZM18.7532 17.6371C18.7532 17.1378 18.3951 16.7621 17.9082 16.7621C17.4213 16.7621 17.0632 17.1378 17.0632 17.6371C17.0632 18.1363 17.4213 18.512 17.9082 18.512C18.3951 18.512 18.7532 18.1363 18.7532 17.6371Z" fill="var(--fill-0, white)"/>
<path id="Vector_10" d="M19.1588 16.6159H19.9402C20.3812 16.6159 20.6265 16.8788 20.6265 17.2316C20.6265 17.5844 20.383 17.8454 19.9402 17.8454H19.5398V18.5158H19.7497V18.6604H19.157V18.5158H19.3405V16.7606H19.157V16.6159H19.1588ZM19.9226 17.6884C20.256 17.6884 20.4218 17.5085 20.4218 17.2316C20.4218 16.9546 20.2525 16.7712 19.9226 16.7712H19.5398V17.6884H19.9226Z" fill="var(--fill-0, white)"/>
<path id="Vector_11" d="M22.0096 16.7779H21.1311V17.5541H21.9513V17.7111H21.1311V18.4996H22.0519V18.2173H22.2107V18.6636H20.75V18.519H20.9335V16.7638H20.75V16.6191H22.1683V17.0637H22.0096V16.7814V16.7779Z" fill="var(--fill-0, white)"/>
<path id="Vector_12" d="M23.279 17.8207H22.8309V18.5158H23.0408V18.6604H22.4481V18.5158H22.6316V16.7606H22.4481V16.6159H23.2419C23.6829 16.6159 23.9246 16.8805 23.9246 17.2263C23.9246 17.5032 23.7711 17.7167 23.4765 17.789L23.9299 18.5158H24.1204V18.6604H23.7976L23.2772 17.8207H23.279ZM23.2155 17.6637C23.5647 17.6637 23.72 17.4926 23.72 17.221C23.72 16.9493 23.5612 16.7712 23.2155 16.7712H22.8309V17.6637H23.2155Z" fill="var(--fill-0, white)"/>
<path id="Vector_13" d="M26.1976 18.6604H25.6384V18.5158H25.8342L25.6878 18.11H24.7705L24.6206 18.5158H24.8182V18.6604H24.2748V18.5158H24.4318L25.0704 16.7606H24.924V16.6159H25.5485V16.7606H25.3985L26.0389 18.5158H26.1994V18.6604H26.1976ZM24.8234 17.9442H25.6331L25.2309 16.8047L24.8252 17.9442H24.8234Z" fill="var(--fill-0, white)"/>
<path id="Vector_14" d="M27.2522 16.5872C27.5503 16.5872 27.7655 16.6896 27.889 16.8677V16.6155H28.0513V17.187H27.9031C27.8308 16.8977 27.5697 16.7619 27.2628 16.7619C26.7759 16.7619 26.4302 17.1376 26.4302 17.6368C26.4302 18.1361 26.7883 18.5118 27.2698 18.5118C27.5662 18.5118 27.8079 18.383 27.9666 18.166L28.1166 18.2754C27.919 18.54 27.6315 18.6829 27.2663 18.6829C26.6806 18.6829 26.2238 18.2454 26.2238 17.6368C26.2273 17.0265 26.6806 16.5872 27.2522 16.5872Z" fill="var(--fill-0, white)"/>
<path id="Vector_15" d="M28.3056 16.6159H28.8683V16.7606H28.6849V18.5158H28.8683V18.6604H28.3056V18.5158H28.4891V16.7606H28.3056V16.6159Z" fill="var(--fill-0, white)"/>
<path id="Vector_16" d="M29.0603 17.6371C29.0603 17.032 29.5296 16.591 30.1099 16.591C30.6903 16.591 31.1631 17.032 31.1631 17.6371C31.1631 18.2421 30.6938 18.6831 30.1099 18.6831C29.526 18.6831 29.0603 18.2421 29.0603 17.6371ZM30.9531 17.6371C30.9531 17.1378 30.595 16.7621 30.1082 16.7621C29.6213 16.7621 29.2632 17.1378 29.2632 17.6371C29.2632 18.1363 29.6213 18.512 30.1082 18.512C30.595 18.512 30.9531 18.1363 30.9531 17.6371Z" fill="var(--fill-0, white)"/>
<path id="Vector_17" d="M33.3023 16.7588H33.1189V18.6604H32.9901L31.72 16.8982V18.5158H31.9211V18.6604H31.3566V18.5158H31.54V16.7606H31.3566V16.6159H31.7376L32.9372 18.2847V16.7606H32.7325V16.6159H33.3006V16.7606L33.3023 16.7588Z" fill="var(--fill-0, white)"/>
<path id="Vector_18" d="M35.312 18.6604H34.7527V18.5158H34.9486L34.8021 18.11H33.8848L33.7349 18.5158H33.9325V18.6604H33.3891V18.5158H33.5444L34.1847 16.7606H34.0365V16.6159H34.6628V16.7606H34.5128L35.1532 18.5158H35.312V18.6604ZM33.9395 17.9442H34.7475L34.3435 16.8047L33.9378 17.9442H33.9395Z" fill="var(--fill-0, white)"/>
<path id="Vector_19" d="M35.4946 16.6159H36.0608V16.7606H35.8774V18.4981H36.6836V18.2159H36.8458V18.6622H35.4963V18.5175H35.6798V16.7623H35.4963V16.6177L35.4946 16.6159Z" fill="var(--fill-0, white)"/>
<path id="Vector_20" d="M38.3902 17.8207H37.9421V18.5158H38.152V18.6604H37.5593V18.5158H37.7428V16.7606H37.5593V16.6159H38.3531C38.7959 16.6159 39.0358 16.8805 39.0358 17.2263C39.0358 17.5032 38.8823 17.7167 38.5877 17.789L39.0411 18.5158H39.2299V18.6604H38.907L38.3866 17.8207H38.3902ZM38.3284 17.6637C38.6777 17.6637 38.8329 17.4926 38.8329 17.221C38.8329 16.9493 38.6742 16.7712 38.3284 16.7712H37.9439V17.6637H38.3284Z" fill="var(--fill-0, white)"/>
<path id="Vector_21" d="M40.6799 16.7779H39.8031V17.5541H40.6234V17.7111H39.8031V18.4996H40.7222V18.2173H40.881V18.6636H39.4203V18.519H39.6038V16.7638H39.4203V16.6191H40.8386V17.0637H40.6799V16.7814V16.7779Z" fill="var(--fill-0, white)"/>
<path id="Vector_22" d="M42.8036 18.4344C42.6571 18.5808 42.4349 18.6831 42.135 18.6831C41.5705 18.6831 41.1012 18.2792 41.1012 17.6371C41.1012 17.032 41.567 16.591 42.1297 16.591C42.4137 16.591 42.6289 16.6845 42.7489 16.8485V16.6139H42.9112V17.1396H42.7577C42.6818 16.8891 42.4666 16.7639 42.142 16.7639C41.6552 16.7639 41.3059 17.1361 41.3059 17.6353C41.3059 18.1345 41.6693 18.5102 42.1544 18.5102C42.4719 18.5102 42.6695 18.3868 42.7947 18.2633V17.8329H42.1773V17.6759H42.98V18.6567H42.8018V18.4309L42.8036 18.4344Z" fill="var(--fill-0, white)"/>
<path id="Vector_23" d="M43.271 16.6159H43.832V16.7606H43.6485V18.5158H43.832V18.6604H43.271V18.5158H43.4545V16.7606H43.271V16.6159Z" fill="var(--fill-0, white)"/>
<path id="Vector_24" d="M44.0236 17.6371C44.0236 17.032 44.4928 16.591 45.0732 16.591C45.6536 16.591 46.1263 17.032 46.1263 17.6371C46.1263 18.2421 45.6571 18.6831 45.0732 18.6831C44.4893 18.6831 44.0236 18.2421 44.0236 17.6371ZM45.9182 17.6371C45.9182 17.1378 45.5601 16.7621 45.0732 16.7621C44.5863 16.7621 44.2282 17.1378 44.2282 17.6371C44.2282 18.1363 44.5863 18.512 45.0732 18.512C45.5601 18.512 45.9182 18.1363 45.9182 17.6371Z" fill="var(--fill-0, white)"/>
<path id="Vector_25" d="M48.2656 16.7588H48.0821V18.6604H47.9534L46.685 16.8982V18.5158H46.8861V18.6604H46.3198V18.5158H46.5033V16.7606H46.3198V16.6159H46.7026L47.9022 18.2847V16.7606H47.6976V16.6159H48.2656V16.7606V16.7588Z" fill="var(--fill-0, white)"/>
<path id="Vector_26" d="M50.2774 18.6604H49.7182V18.5158H49.914L49.7675 18.11H48.8502L48.7003 18.5158H48.8979V18.6604H48.3545V18.5158H48.5115L49.1519 16.7606H49.0055V16.6159H49.6299V16.7606H49.48L50.1204 18.5158H50.2791V18.6604H50.2774ZM48.9032 17.9442H49.7111L49.3089 16.8047L48.9032 17.9442Z" fill="var(--fill-0, white)"/>
<path id="Vector_27" d="M50.4578 16.6159H51.0241V16.7606H50.8406V18.4981H51.6468V18.2159H51.8091V18.6622H50.4578V18.5175H50.6413V16.7623H50.4578V16.6177V16.6159Z" fill="var(--fill-0, white)"/>
<path id="Vector_28" d="M52.5204 16.6159H53.2154C53.8911 16.6159 54.295 17.034 54.295 17.6391C54.295 18.2441 53.8946 18.6604 53.2154 18.6604H52.5204V18.5158H52.7039V16.7606H52.5204V16.6159ZM53.1978 18.4981C53.8029 18.4981 54.0904 18.14 54.0904 17.6391C54.0904 17.1381 53.8011 16.7782 53.1978 16.7782H52.9032V18.4981H53.1978Z" fill="var(--fill-0, white)"/>
<path id="Vector_29" d="M54.5358 17.6371C54.5358 17.032 55.005 16.591 55.5854 16.591C56.1658 16.591 56.6386 17.032 56.6386 17.6371C56.6386 18.2421 56.1693 18.6831 55.5854 18.6831C55.0015 18.6831 54.5358 18.2421 54.5358 17.6371ZM56.4286 17.6371C56.4286 17.1378 56.0705 16.7621 55.5837 16.7621C55.0968 16.7621 54.7387 17.1378 54.7387 17.6371C54.7387 18.1363 55.0968 18.512 55.5837 18.512C56.0705 18.512 56.4286 18.1363 56.4286 17.6371Z" fill="var(--fill-0, white)"/>
<path id="Vector_30" d="M59.3353 16.7588H59.1518V18.6604H59.023L57.7529 16.8982V18.5158H57.9558V18.6604H57.3895V18.5158H57.573V16.7606H57.3895V16.6159H57.7706L58.9701 18.2847V16.7606H58.7655V16.6159H59.3335V16.7606L59.3353 16.7588Z" fill="var(--fill-0, white)"/>
<path id="Vector_31" d="M59.5186 17.6371C59.5186 17.032 59.986 16.591 60.5682 16.591C61.1503 16.591 61.6195 17.032 61.6195 17.6371C61.6195 18.2421 61.1503 18.6831 60.5682 18.6831C59.986 18.6831 59.5186 18.2421 59.5186 17.6371ZM61.4131 17.6371C61.4131 17.1378 61.055 16.7621 60.5682 16.7621C60.0813 16.7621 59.7232 17.1378 59.7232 17.6371C59.7232 18.1363 60.0813 18.512 60.5682 18.512C61.055 18.512 61.4131 18.1363 61.4131 17.6371Z" fill="var(--fill-0, white)"/>
<path id="Vector_32" d="M62.6457 17.8207H62.1976V18.5158H62.4075V18.6604H61.8148V18.5158H61.9983V16.7606H61.8148V16.6159H62.6086C63.0497 16.6159 63.2913 16.8805 63.2913 17.2263C63.2913 17.5032 63.1379 17.7167 62.8433 17.789L63.2984 18.5158H63.4871V18.6604H63.1661L62.6457 17.8207ZM62.5822 17.6637C62.9297 17.6637 63.0867 17.4926 63.0867 17.221C63.0867 16.9493 62.9279 16.7712 62.5822 16.7712H62.1976V17.6637H62.5822Z" fill="var(--fill-0, white)"/>
<path id="Vector_33" d="M64.9417 16.7782H64.4301V18.5158H64.6295V18.6604H64.0367V18.5158H64.2343V16.7782H63.7245V17.0605H63.5622V16.6159H65.1005V17.0605H64.9417V16.7782Z" fill="var(--fill-0, white)"/>
<path id="Vector_34" d="M66.5649 16.7779H65.6881V17.5541H66.5084V17.7111H65.6881V18.4996H66.6072V18.2173H66.766V18.6636H65.3053V18.519H65.4888V16.7638H65.3053V16.6191H66.7236V17.0637H66.5649V16.7814V16.7779Z" fill="var(--fill-0, white)"/>
</g>
<path id="Vector_35" d="M95.7263 13.2901H106.702V9.86792H95.7263V13.2901ZM101.115 6.25344C103.666 4.4171 105.129 0.0158762 101.451 0.0158762C104.43 0.0158762 106.572 1.80283 106.572 4.27951V4.31655C106.572 6.30813 105.51 7.38947 103.945 8.3932L103.813 8.47787H97.792L101.115 6.25344ZM109.743 1.90514C108.41 3.13995 107.597 4.87575 107.597 6.81087V6.84792C107.597 9.31049 108.9 11.4361 110.92 12.6198C114.459 13.874 118.05 12.1135 118.05 8.80245C118.05 7.97689 117.832 7.20954 117.44 6.58684C117.445 6.66093 117.447 6.73502 117.447 6.81087V6.84792C117.447 7.89575 116.957 8.87301 116.115 9.38634C113.028 11.7307 109.036 9.55569 109.036 4.88104C109.036 3.84909 109.281 2.81714 109.743 1.90514ZM121.85 6.81087C121.85 10.533 118.841 13.5159 114.912 13.6182C117.569 13.5335 119.23 11.2862 119.23 8.80421V8.74247C119.23 6.18288 117.475 3.87026 114.704 3.8632C113.039 3.87026 111.998 5.24795 111.998 6.77383V6.81087C111.998 8.34733 113.046 9.73738 114.702 9.75855C111.952 9.73032 110.214 7.42828 110.214 4.88104V4.81753C110.214 2.28617 111.943 0 114.692 0H114.741C118.772 0 121.85 2.98472 121.85 6.77207V6.80911V6.81087ZM75.833 2.24912C76.1188 0.698551 74.5276 -0.0793808 72.9294 0.216974C71.3171 0.596238 70.1898 1.50471 69.075 2.88417L71.9415 5.32204C73.0211 4.16838 73.7091 3.70267 74.4553 3.70267C74.7305 3.70267 74.9634 3.75912 75.1451 3.85791C75.4979 3.31459 75.7413 2.74305 75.833 2.25089M69.1032 9.86792H80.0791V13.2901H69.1032V9.86792ZM71.1707 8.47787H77.1896L77.3219 8.3932C78.8866 7.38771 79.9468 6.30813 79.9468 4.31655V4.27951C79.9468 1.80283 77.8053 0.0158762 74.8258 0.0158762C78.5056 0.0158762 77.0432 4.41534 74.4924 6.25344L71.1707 8.47787ZM15.7001 4.88104C15.7001 9.55392 19.6939 11.729 22.7792 9.38634C23.6224 8.87301 24.1111 7.89575 24.1111 6.84792V6.81087C24.1111 6.73679 24.1093 6.6627 24.104 6.58684C24.4956 7.21131 24.7144 7.97689 24.7144 8.80245C24.7144 12.1135 21.121 13.874 17.5823 12.6198C15.5625 11.4361 14.2588 9.31049 14.2588 6.84792V6.81087C14.2588 4.87575 15.0721 3.13995 16.4057 1.90514C15.9435 2.81714 15.6983 3.84909 15.6983 4.88104M35.9866 3.75912C36.9939 3.75912 37.6466 4.25834 37.6466 5.11918C38.6698 4.79989 39.0191 4.13309 39.0191 3.40632C39.0191 1.37241 36.7558 0.276951 34.2596 0.276951L29.719 0.280479V3.75912H35.9866ZM28.5159 6.81087C28.5159 10.533 25.5064 13.5159 21.5779 13.6182C24.2345 13.5335 25.898 11.2862 25.898 8.80421V8.74247C25.898 6.18288 24.1428 3.87026 21.3697 3.8632C19.7045 3.87026 18.6637 5.24795 18.6637 6.77383V6.81087C18.6637 8.34733 19.7115 9.73738 21.368 9.75855C18.6178 9.73032 16.8802 7.42828 16.8802 4.88104V4.81753C16.8802 2.28617 18.6072 0 21.3556 0H21.405C25.4341 0 28.5141 2.98472 28.5141 6.77207V6.80911L28.5159 6.81087ZM4.32898 0.280479H0L8.73205 13.3395H13.061L4.32898 0.280479ZM8.73205 0.280479H13.061V10.8064L8.73205 4.42063V0.280479ZM0 2.94944V13.3413H4.32898V9.33695L0 2.94944ZM40.0951 9.88556L42.4607 13.3395H37.4808L35.7714 10.7517C37.2127 10.6794 38.7421 10.4941 39.8993 9.97729C39.9646 9.9473 40.0299 9.91731 40.0951 9.88556ZM39.4177 8.89947C40.9489 8.2168 41.9915 6.81087 41.9915 4.90926V4.87222C41.9915 3.52804 41.5822 2.55959 40.7972 1.7746C39.9716 0.947278 38.6874 0.39514 36.7381 0.298119C36.5511 0.284007 36.3571 0.278715 36.1595 0.278715L36.0978 0.282243C36.3201 0.282243 36.5335 0.287535 36.7399 0.298119C38.8585 0.446297 40.1992 1.44297 40.1992 3.31812V3.40808C40.1992 5.36085 38.6592 6.49512 36.1154 6.49512H35.0164V9.61037C35.0164 9.61037 37.8883 9.58391 39.4195 8.90124M42.5507 0.280479H54.6115V3.70973H42.5507V0.280479ZM55.6205 3.70973H66.7358V0.282243H55.6205V3.71149V3.70973ZM55.6205 9.92789H66.7358V13.3571H55.6205V9.92789ZM29.719 13.3413H34.0462V5.10154H29.719V13.3413ZM82.4147 4.88104C82.4147 9.55392 86.4085 11.729 89.4939 9.38634C90.3371 8.87301 90.8257 7.89575 90.8257 6.84792V6.81087C90.8257 6.73679 90.824 6.6627 90.8187 6.58684C91.2103 7.21131 91.4308 7.97689 91.4308 8.80245C91.4308 12.1135 87.8374 13.874 84.2987 12.6198C82.2771 11.4361 80.9753 9.31049 80.9753 6.84792V6.81087C80.9753 4.87575 81.7885 3.13995 83.1221 1.90514C82.6599 2.81714 82.4147 3.84909 82.4147 4.88104ZM95.2288 6.77383C95.2288 2.98648 92.1505 0.00176402 88.1197 0.00176402H88.0703C85.3219 0.00176402 83.5949 2.28617 83.5949 4.8193V4.8828C83.5949 7.43004 85.3325 9.73209 88.0826 9.76031C86.4262 9.73914 85.3783 8.3491 85.3783 6.81264V6.77559C85.3783 5.24972 86.4191 3.87202 88.0844 3.86496C90.8575 3.87202 92.6109 6.18288 92.6109 8.74424V8.80598C92.6109 11.288 90.9474 13.5353 88.2908 13.62C92.2193 13.5177 95.2288 10.533 95.2288 6.81264V6.77559V6.77383ZM50.7694 13.3413H46.4404V5.10154H50.7694V13.3413ZM55.6205 8.52903H64.2909V5.10154H55.6205V8.52903ZM101.768 3.85614C101.586 3.75736 101.354 3.70091 101.077 3.70091C100.334 3.70091 99.6442 4.16661 98.5628 5.32028L95.6963 2.88241C96.8129 1.50294 97.9384 0.594474 99.5507 0.21521C101.149 -0.0811448 102.742 0.696787 102.454 2.24736C102.363 2.73952 102.119 3.31106 101.766 3.85438" fill="var(--fill-0, white)"/>
</g>
</svg>
