<svg preserveAspectRatio="none" width="100%" height="100%" overflow="visible" style="display: block;" viewBox="0 0 79.9183 24.3764" fill="none" xmlns="http://www.w3.org/2000/svg">
<g id="Group">
<path id="Vector" d="M19.8188 22.1655L25.3094 17.5037C25.8579 17.049 26.3192 16.6364 26.6984 16.2656C27.0792 15.8932 27.3861 15.541 27.621 15.2071C27.8575 14.875 28.027 14.5479 28.1326 14.2291C28.24 13.9104 28.2937 13.5699 28.2937 13.2059C28.2937 12.4174 28.0471 11.8068 27.5539 11.3757C27.0607 10.9429 26.4484 10.7265 25.7204 10.7265C24.9923 10.7265 24.3498 10.9244 23.7945 11.3187C23.241 11.7146 22.6521 12.3134 22.0298 13.1186L20.0469 11.5703C20.4261 11.0385 20.8136 10.5621 21.2095 10.141C21.6037 9.71999 22.0331 9.36771 22.4961 9.08588C22.9591 8.80238 23.4691 8.58263 24.0227 8.42998C24.5746 8.27732 25.2104 8.20016 25.9233 8.20016C26.6984 8.20016 27.4079 8.31423 28.0538 8.54237C28.698 8.76883 29.2532 9.0926 29.7162 9.5103C30.1792 9.928 30.5399 10.4296 30.7982 11.015C31.0566 11.6005 31.1857 12.2497 31.1857 12.9626V13.0079C31.1857 13.632 31.1019 14.1973 30.9358 14.7056C30.768 15.2155 30.5147 15.7054 30.1742 16.1751C29.832 16.6481 29.3992 17.1212 28.8741 17.5993C28.3507 18.0774 27.7384 18.6058 27.0389 19.1828L23.7593 21.9172H31.3451V24.3764H19.8171V22.1705L19.8188 22.1655Z" fill="var(--fill-0, white)"/>
<path id="Vector_2" d="M40.9598 24.3711C39.7285 24.3711 38.6046 24.1547 37.588 23.7219C36.5697 23.2891 35.6974 22.7003 34.9677 21.9555C34.2396 21.2124 33.6693 20.3434 33.2583 19.347C32.849 18.3522 32.6426 17.2937 32.6426 16.1698V16.1245C32.6426 15.0005 32.8473 13.9404 33.2583 12.9456C33.6693 11.9508 34.2463 11.0785 34.9895 10.3253C35.7343 9.57378 36.615 8.97827 37.6333 8.53708C38.6499 8.09757 39.7738 7.87614 41.0051 7.87614C42.2364 7.87614 43.3587 8.09254 44.3769 8.52534C45.3952 8.95814 46.2675 9.54694 46.9972 10.2901C47.727 11.0332 48.2957 11.9039 48.7067 12.8986C49.116 13.8934 49.3223 14.9536 49.3223 16.0775V16.1228C49.3223 17.2467 49.1176 18.3069 48.7067 19.3C48.2957 20.2965 47.7203 21.1688 46.9754 21.9203C46.2323 22.6735 45.3499 23.269 44.3333 23.7085C43.3167 24.1497 42.1911 24.3695 40.9615 24.3695M41.0068 21.7995C41.7935 21.7995 42.5149 21.6519 43.1742 21.355C43.8317 21.0581 44.3937 20.6554 44.8634 20.1472C45.3315 19.6372 45.6988 19.0417 45.9639 18.3589C46.2289 17.6745 46.3598 16.9465 46.3598 16.1715V16.1262C46.3598 15.3511 46.2289 14.6181 45.9639 13.9269C45.6988 13.2358 45.3298 12.6352 44.8517 12.127C44.3753 11.617 43.8049 11.2127 43.1406 10.9091C42.4746 10.6055 41.7483 10.4528 40.9615 10.4528C40.1747 10.4528 39.4534 10.6004 38.7958 10.8957C38.1382 11.1926 37.5746 11.5952 37.1065 12.1035C36.6368 12.6118 36.2711 13.2073 36.0061 13.8917C35.7427 14.5745 35.6085 15.3042 35.6085 16.0792V16.1245C35.6085 16.8995 35.7427 17.6326 36.0061 18.322C36.2711 19.0148 36.6419 19.6137 37.1166 20.122C37.5947 20.632 38.165 21.0379 38.831 21.3416C39.4953 21.6435 40.22 21.7978 41.0085 21.7978" fill="var(--fill-0, white)"/>
<path id="Vector_3" d="M50.4165 22.1655L55.9087 17.5037C56.4539 17.049 56.9169 16.6364 57.2977 16.2656C57.6785 15.8932 57.9855 15.541 58.2204 15.2071C58.4552 14.875 58.6263 14.5479 58.732 14.2291C58.8377 13.9104 58.8914 13.5699 58.8914 13.2059C58.8914 12.4174 58.6465 11.8068 58.1516 11.3757C57.6584 10.9429 57.0478 10.7265 56.318 10.7265C55.5883 10.7265 54.9458 10.9244 54.3922 11.3187C53.8387 11.7146 53.2482 12.3134 52.6258 13.1186L50.643 11.5703C51.0238 11.0385 51.4096 10.5621 51.8055 10.141C52.2014 9.71999 52.6291 9.36771 53.0938 9.08588C53.5568 8.80238 54.0651 8.58263 54.6204 8.42998C55.174 8.27732 55.8081 8.20016 56.521 8.20016C57.296 8.20016 58.0056 8.31423 58.6515 8.54237C59.2973 8.76883 59.8526 9.0926 60.3156 9.5103C60.7803 9.928 61.1393 10.4296 61.3976 11.015C61.6559 11.6005 61.7868 12.2497 61.7868 12.9626V13.0079C61.7868 13.632 61.7046 14.1973 61.5352 14.7056C61.3674 15.2155 61.1124 15.7054 60.7719 16.1751C60.4313 16.6481 59.9985 17.1212 59.4735 17.5993C58.9484 18.0774 58.3378 18.6058 57.6399 19.1828L54.3587 21.9172H61.9462V24.3764H50.4182V22.1705L50.4165 22.1655Z" fill="var(--fill-0, white)"/>
<path id="Vector_4" d="M71.5592 24.3711C70.3296 24.3711 69.2039 24.1547 68.1873 23.7219C67.1691 23.2891 66.2968 22.7003 65.567 21.9555C64.8373 21.2124 64.2686 20.3434 63.8593 19.347C63.4483 18.3522 63.242 17.2937 63.242 16.1698V16.1245C63.242 15.0005 63.4483 13.9404 63.8593 12.9456C64.2686 11.9508 64.8457 11.0785 65.5905 10.3253C66.3337 9.57378 67.216 8.97827 68.2326 8.53708C69.2526 8.09757 70.3748 7.87614 71.6062 7.87614C72.8375 7.87614 73.958 8.09254 74.9763 8.52534C75.9929 8.95814 76.8669 9.54694 77.5966 10.2901C78.3247 11.0332 78.895 11.9039 79.3043 12.8986C79.7137 13.8934 79.9183 14.9536 79.9183 16.0775V16.1228C79.9183 17.2467 79.7137 18.3069 79.3043 19.3C78.8933 20.2965 78.3163 21.1688 77.5731 21.9203C76.8283 22.6735 75.9476 23.269 74.9277 23.7085C73.9128 24.1497 72.7871 24.3695 71.5575 24.3695M71.6045 21.7995C72.3896 21.7995 73.1109 21.6519 73.7685 21.355C74.4278 21.0581 74.9897 20.6554 75.4594 20.1472C75.9275 19.6372 76.2932 19.0417 76.5599 18.3589C76.8249 17.6745 76.9558 16.9465 76.9558 16.1715V16.1262C76.9558 15.3511 76.8233 14.6181 76.5599 13.9269C76.2932 13.2358 75.9241 12.6352 75.4494 12.127C74.9713 11.617 74.4026 11.2127 73.7366 10.9091C73.0706 10.6055 72.3443 10.4528 71.5592 10.4528C70.7741 10.4528 70.0494 10.6004 69.3935 10.8957C68.7359 11.1926 68.1706 11.5952 67.7025 12.1035C67.2345 12.6118 66.8671 13.2073 66.6021 13.8917C66.337 14.5745 66.2045 15.3042 66.2045 16.0792V16.1245C66.2045 16.8995 66.337 17.6326 66.6021 18.322C66.8671 19.0148 67.2379 19.6137 67.7126 20.122C68.189 20.632 68.7611 21.0379 69.4254 21.3416C70.0913 21.6435 70.816 21.7978 71.6045 21.7978" fill="var(--fill-0, white)"/>
<path id="Vector_5" d="M21.5438 2.98262C21.4632 2.98262 21.3626 2.98262 21.2586 2.97088V3.93209C21.4582 3.94384 21.6629 3.97739 21.8357 4.01094V4.54607H19.8193V4.01094C19.9921 3.97739 20.1967 3.94384 20.3963 3.93209V0.689458C20.1967 0.676038 19.9921 0.642488 19.8193 0.608938V0.0721332H20.3393C20.549 0.0721332 21.1345 0.0469702 21.5974 0.0469702C22.6895 0.0469702 23.2934 0.556935 23.2934 1.4326C23.2934 2.30826 22.6325 2.98262 21.5438 2.98262ZM21.5572 0.751527C21.4515 0.751527 21.3592 0.751527 21.2586 0.754882V2.24787C21.3458 2.26129 21.4297 2.26968 21.5085 2.26968C22.0336 2.26129 22.3993 1.97108 22.3993 1.48628C22.3993 1.03503 22.1477 0.751527 21.5572 0.751527ZM25.7124 4.6182C24.3469 4.6182 23.6793 3.75092 23.6793 2.36697C23.6793 0.887406 24.6657 0 25.8668 0C27.0679 0 27.9033 0.716299 27.9033 2.24787C27.9033 3.77944 26.9286 4.61988 25.7141 4.61988M25.7862 0.776689C25.1706 0.776689 24.6002 1.2682 24.6002 2.27303C24.6002 3.22083 24.9726 3.83815 25.7745 3.83815C26.3583 3.83815 26.979 3.38858 26.979 2.31497C26.979 1.3202 26.5562 0.778367 25.7862 0.778367M30.8541 4.54607L29.7586 2.7008H29.6395V3.93209C29.767 3.94384 29.9113 3.96397 30.0455 4.00423V4.54607H28.2019V4.01094C28.3747 3.97739 28.5793 3.94384 28.779 3.93209V0.689458C28.581 0.676038 28.3747 0.642488 28.2019 0.608938V0.0721332H28.7186C28.8914 0.0721332 29.512 0.0469702 30.0623 0.0469702C31.0503 0.0469702 31.6878 0.389183 31.6878 1.30511C31.6878 1.92914 31.2617 2.3871 30.6326 2.51963C30.7132 2.62363 30.7903 2.7377 30.8591 2.84339L31.5486 3.92371C31.6744 3.94216 31.8321 3.969 31.9864 3.99584V4.54439H30.8524L30.8541 4.54607ZM29.9717 0.751527C29.8526 0.751527 29.7284 0.754882 29.6412 0.768302V2.06334C29.7016 2.06838 29.814 2.07509 29.9448 2.07509C30.4682 2.07509 30.7803 1.81172 30.7803 1.39234C30.7803 0.972959 30.5202 0.751527 29.97 0.751527M35.0479 1.33195C35.0177 1.12729 34.9825 0.949473 34.9707 0.781722H34.2813V3.93209C34.4792 3.94384 34.6839 3.97739 34.8583 4.01094V4.54607H32.8419V4.01094C33.0147 3.97739 33.2211 3.94384 33.419 3.93209V0.781722H32.7363C32.7245 0.949473 32.6893 1.12897 32.6591 1.33195H32.0216V0.0721332H35.6854V1.33195H35.0496H35.0479ZM40.0369 0.689458V2.82997C40.0369 4.01597 39.381 4.6182 38.1882 4.6182C36.7741 4.6182 36.4587 3.8499 36.4587 2.99604V0.689458C36.3111 0.676038 36.1651 0.650876 36.0393 0.615648V0.0721332H37.7957V0.615648C37.643 0.655908 37.4719 0.676038 37.3176 0.689458V2.94236C37.3176 3.50601 37.4971 3.90358 38.2402 3.90358C38.9012 3.90358 39.1864 3.62511 39.1864 2.86184V0.687781C39.027 0.674361 38.8559 0.654231 38.7116 0.61397V0.0704556H40.4462V0.61397C40.3204 0.649198 40.1811 0.674361 40.0352 0.687781M44.4823 2.81822V4.33805C44.0378 4.51419 43.4825 4.61484 42.939 4.61484C41.5265 4.61484 40.6911 3.77776 40.6911 2.41562C40.6911 1.05348 41.6456 0.00838745 43.1705 0.00838745C43.5882 0.00838745 44.0059 0.0671004 44.4186 0.174461V1.37388H43.7543C43.7157 1.18265 43.6956 1.00986 43.6754 0.835402C43.4976 0.786754 43.303 0.768302 43.1252 0.768302C42.2579 0.768302 41.6288 1.3202 41.6288 2.33175C41.6288 3.28122 42.1455 3.83648 43.0547 3.83648C43.2644 3.83648 43.4506 3.81131 43.6218 3.75596V2.82326C43.4255 2.80984 43.2191 2.77629 43.0547 2.7377V2.2009H44.8581V2.75112C44.7373 2.77796 44.6098 2.79809 44.4857 2.81822M47.5958 4.54607V4.01094C47.7351 3.9841 47.9146 3.95055 48.0655 3.9388L47.8743 3.40871H46.2437L46.0575 3.9388C46.2119 3.95055 46.3897 3.9841 46.5289 4.01094V4.54607H44.8447V4.01094C44.952 3.97739 45.0829 3.95055 45.1953 3.94384L46.5608 0.0721332H47.6143L49.0066 3.94384C49.119 3.95055 49.2515 3.97739 49.3572 4.01094V4.54607H47.5941H47.5958ZM47.2637 1.63725C47.1798 1.39066 47.1127 1.18097 47.059 0.934376H47.0523C46.9986 1.15916 46.9332 1.41918 46.8409 1.66745L46.4568 2.7377H47.6629L47.2653 1.63725H47.2637ZM49.5602 4.54607V4.01094C49.733 3.97739 49.9393 3.94384 50.139 3.93209V0.689458C49.941 0.676038 49.7347 0.642488 49.5602 0.608938V0.0721332H51.5766V0.608938C51.4038 0.642488 51.1992 0.676038 50.9979 0.689458V3.83648H51.8551C51.8685 3.67543 51.9004 3.48588 51.9339 3.28793H52.568V4.54607H49.5585H49.5602Z" fill="var(--fill-0, white)"/>
<path id="Vector_6" d="M6.39978 0.18948C2.45423 1.74957 0 5.86619 0 12.2055V21.8294C0 21.8294 0.806893 15.6427 6.39978 13.8612V0.18948Z" fill="var(--fill-0, white)"/>
<path id="Vector_7" d="M8.30985 14.8127C6.01835 15.2707 2.65825 17.1076 1.67019 19.696C6.59206 13.7207 16.6371 19.4963 17.0833 8.257C17.2243 4.69899 17.2394 0.317318 17.2394 0.317318C11.9937 0.612561 8.31153 2.00993 8.31153 2.00993V14.8144L8.30985 14.8127Z" fill="var(--fill-0, white)"/>
<path id="Vector_8" d="M7.67032 18.0566C7.67032 18.0566 2.32906 18.4894 1.87612 21.5391C1.51713 23.9229 7.67032 23.9849 7.67032 23.9849V18.0566Z" fill="var(--fill-0, white)"/>
</g>
</svg>
