<svg preserveAspectRatio="none" width="100%" height="100%" overflow="visible" style="display: block;" viewBox="0 0 32.6214 5.37741" fill="none" xmlns="http://www.w3.org/2000/svg">
<g id="Group">
<path id="Vector" d="M1.20744 0.0911228C1.82502 0.0911228 2.16196 0.147424 2.50583 0.400349C2.81505 0.624689 3.03246 1.09502 3.03246 1.56536C3.03246 2.03569 2.81505 2.50603 2.50583 2.73037C2.16196 2.98329 1.81116 3.03959 1.20744 3.03959H0.210479V5.2856H0V0.0911228H1.20744ZM0.210479 2.8499H1.21437C1.7973 2.8499 2.09873 2.77974 2.39323 2.56233C2.64615 2.37957 2.82111 1.96553 2.82111 1.57229C2.82111 1.17904 2.64528 0.751151 2.39323 0.568387C2.09873 0.350976 1.80336 0.280816 1.21437 0.280816H0.210479V2.8499Z" fill="var(--fill-0, white)"/>
<path id="Vector_2" d="M3.22888 2.68169C3.22888 1.13123 4.43632 0 5.9244 0C7.41248 0 8.61992 1.13036 8.61992 2.68862C8.61992 4.24687 7.41248 5.37724 5.9244 5.37724C4.43632 5.37724 3.22888 4.24687 3.22888 2.68862V2.68169ZM3.43936 2.69641C3.43936 4.12821 4.54893 5.18841 5.9244 5.18841C7.29988 5.18841 8.40944 4.12821 8.40944 2.68948C8.40944 1.25076 7.30075 0.190559 5.9244 0.190559C4.54806 0.190559 3.43936 1.25076 3.43936 2.68948V2.69641Z" fill="var(--fill-0, white)"/>
<path id="Vector_3" d="M9.21068 0.0911228H10.3973C11.2046 0.0911228 11.5277 0.161283 11.7806 0.308534C12.2016 0.519015 12.5316 1.08809 12.5316 1.69182C12.5454 2.01491 12.4476 2.42201 12.2016 2.7451C11.8222 3.24315 11.3874 3.30638 10.7975 3.32803L12.1946 5.28646H11.9279L10.4043 3.13834H10.5515C10.9309 3.13834 11.5485 3.13834 11.8785 2.80833C12.2085 2.46445 12.3211 2.10672 12.3211 1.69962C12.3211 1.25007 12.1037 0.752017 11.7035 0.492164C11.3874 0.288612 11.0089 0.281682 10.3982 0.281682H9.4229V5.28646H9.21242V0.0911228H9.21068Z" fill="var(--fill-0, white)"/>
<path id="Vector_4" d="M13.8634 0.280816H12.4524V0.0911228H15.4849V0.280816H14.0739V5.2856H13.8634V0.280816Z" fill="var(--fill-0, white)"/>
<path id="Vector_5" d="M16.0976 0.0911228V3.46056C16.0976 3.96641 16.0976 4.28862 16.4207 4.71045C16.645 5.00495 17.0738 5.18772 17.4878 5.18772C17.9018 5.18772 18.3089 5.00495 18.5333 4.71045C18.8564 4.28949 18.8564 3.96641 18.8564 3.46056V0.0911228H19.0668V3.46056C19.0738 3.93089 19.053 4.6325 18.4423 5.06126C18.1756 5.25788 17.8317 5.37741 17.474 5.37741C17.1162 5.37741 16.7793 5.25788 16.5125 5.06126C15.9019 4.63336 15.8811 3.93089 15.888 3.46056V0.0911228H16.0985H16.0976Z" fill="var(--fill-0, white)"/>
<path id="Vector_6" d="M24.5154 1.24297C24.3049 0.969254 24.0589 0.744914 23.7852 0.576009C23.385 0.323085 22.9147 0.189693 22.4097 0.189693C21.0342 0.189693 19.9247 1.2499 19.9247 2.68862C19.9247 4.12734 21.0342 5.18754 22.4097 5.18754C23.0697 5.18754 23.6518 4.94848 24.0875 4.59768C24.5301 4.23994 24.8315 3.76268 24.9225 3.27762H21.8268V3.08793H25.1754C25.1477 3.35471 25.0697 3.61456 24.9511 3.85276C24.5232 4.73713 23.5539 5.37637 22.4097 5.37637C20.9216 5.37637 19.7142 4.24601 19.7142 2.68775C19.7142 1.1295 20.9216 0 22.4097 0C23.3642 0 24.298 0.470335 24.7683 1.2421H24.5154V1.24297Z" fill="var(--fill-0, white)"/>
<path id="Vector_7" d="M25.2986 5.2856H25.0742L27.2994 0.0911228H27.5731L29.7983 5.2856H29.574L28.7944 3.47442H26.0781L25.2994 5.2856H25.2986ZM27.432 0.287745L26.1682 3.28472H28.7026L27.432 0.287745Z" fill="var(--fill-0, white)"/>
<path id="Vector_8" d="M30.2134 0.0911228H30.4239V5.0959H32.6214V5.2856H30.2134V0.0911228Z" fill="var(--fill-0, white)"/>
</g>
</svg>
