<svg preserveAspectRatio="none" width="100%" height="100%" overflow="visible" style="display: block;" viewBox="0 0 44.9065 16.1066" fill="none" xmlns="http://www.w3.org/2000/svg">
<g id="Group">
<path id="Vector" d="M0.000865694 14.4236C1.72541 12.7623 3.4283 11.081 5.13119 9.4197C6.56123 8.07452 8.07443 6.77092 8.15845 4.85753C8.15845 2.81855 6.77085 1.53573 4.96229 1.53573C3.15372 1.53573 1.851 2.94414 1.78777 5.32007H0.12646C0.168902 3.80599 0.588994 2.52405 1.47162 1.57731C2.5015 0.336944 4.03635 0 5.13032 0C8.01033 0 9.9237 2.10222 9.88213 4.77264C9.8189 6.45476 9.04108 7.6319 7.50622 9.23C5.80334 10.9329 4.10045 12.6358 2.3759 14.3387H9.9237V15.8312H0V14.4227L0.000865694 14.4236Z" fill="var(--fill-0, white)"/>
<path id="Vector_2" d="M11.2068 5.38243C11.2068 0.883502 14.9495 0 16.4627 0C18.9642 0 21.7402 1.7237 21.7402 5.25597V10.8489C21.7402 14.9485 18.2504 16.1049 16.5259 16.1049C14.5493 16.1049 11.2068 14.8437 11.2068 10.8489V5.38243ZM12.9521 10.8913C12.9521 13.0776 14.4869 14.5709 16.4843 14.5709C18.1032 14.5709 20.0166 13.3097 20.0166 10.8913V5.2144C20.0166 3.67953 19.0915 1.53487 16.4428 1.53487C14.4038 1.53487 12.953 3.04895 12.953 5.29842V10.8913H12.9521Z" fill="var(--fill-0, white)"/>
<path id="Vector_3" d="M23.7367 3.95318C23.8415 1.1355 26.1126 0.000804025 27.942 0.000804025C30.1706 0.000804025 31.9783 1.51489 31.9783 3.82758C31.9783 5.38324 31.0533 6.47636 29.8337 7.1078C32.5881 8.05367 32.9666 10.304 32.9666 11.2707C32.9666 14.1091 30.7795 16.1065 27.858 16.1065C26.3231 16.1065 24.7042 15.4543 23.7584 14.2139C23.107 13.3521 22.8125 12.2798 22.7909 11.2707H24.5362C24.6202 13.3521 26.2183 14.5717 27.9212 14.5717C29.9818 14.5717 31.2222 13.0576 31.2222 11.2291C31.2222 9.56775 29.877 7.90728 27.5635 7.90728H26.5336V6.56211H27.3114C29.5401 6.56211 30.2547 4.94322 30.2547 4.01814C30.2547 2.60974 29.3296 1.53741 27.9212 1.53741C26.3023 1.53741 25.5245 2.75699 25.4405 3.95491H23.7376L23.7367 3.95318Z" fill="var(--fill-0, white)"/>
<path id="Vector_4" d="M34.3728 5.38243C34.3728 0.883502 38.1155 0 39.6287 0C42.1302 0 44.9063 1.7237 44.9063 5.25597V10.8489C44.9063 14.9485 41.4165 16.1049 39.692 16.1049C37.7154 16.1049 34.3728 14.8437 34.3728 10.8489V5.38243ZM36.1182 10.8913C36.1182 13.0776 37.653 14.5709 39.6504 14.5709C41.2693 14.5709 43.1826 13.3097 43.1826 10.8913V5.2144C43.1826 3.67953 42.2576 1.53487 39.6088 1.53487C37.5699 1.53487 36.119 3.04895 36.119 5.29842V10.8913H36.1182Z" fill="var(--fill-0, white)"/>
</g>
</svg>
