<svg width="32" height="32" viewBox="0 0 32 32" fill="none" xmlns="http://www.w3.org/2000/svg">
<mask id="mask0_6462_16304" style="mask-type:alpha" maskUnits="userSpaceOnUse" x="0" y="0" width="32" height="32">
<rect width="32" height="32" fill="#D9D9D9"/>
</mask>
<g mask="url(#mask0_6462_16304)">
<path d="M12.2033 15.7753L15.2873 12.6889L12.3487 9.74795L10.7677 11.3463L9.964 10.5429L11.5597 8.96162L8.64967 6.05661L5.56333 9.14295L12.2033 15.7753ZM22.8273 26.4119L25.9137 23.3206L23.0033 20.4103L21.4223 22.0059L20.6187 21.2026L22.1973 19.6216L19.3043 16.7136L16.2207 19.7976L22.8273 26.4119ZM9.39833 26.6676H5.33333L5.33333 22.6026L11.3923 16.5436L4 9.14295L8.62733 4.48828L16.0837 11.9136L22.3153 5.67961C22.4407 5.55428 22.572 5.46539 22.7093 5.41295C22.8467 5.3605 22.9906 5.33428 23.141 5.33428C23.2914 5.33428 23.4353 5.3605 23.5727 5.41295C23.71 5.46539 23.8413 5.55428 23.9667 5.67961L26.3213 8.11362C26.4467 8.23917 26.5313 8.3705 26.5753 8.50762C26.6191 8.64495 26.641 8.78884 26.641 8.93928C26.641 9.08973 26.6191 9.22895 26.5753 9.35695C26.5313 9.48495 26.4467 9.61162 26.3213 9.73695L20.141 15.9283L27.5127 23.3513L22.8803 27.9959L15.4623 20.6036L9.39833 26.6676ZM6.46167 25.5393H8.90433L22.0187 12.4223L19.5733 9.97695L6.46167 23.0966L6.46167 25.5393ZM20.793 11.1883L19.5733 9.97695L22.0187 12.4223L20.793 11.1883Z" fill="#045CFC"/>
</g>
</svg>
