<svg width="32" height="32" viewBox="0 0 32 32" fill="none" xmlns="http://www.w3.org/2000/svg">
<mask id="mask0_6462_16296" style="mask-type:alpha" maskUnits="userSpaceOnUse" x="0" y="0" width="32" height="32">
<rect width="32" height="32" fill="#D9D9D9"/>
</mask>
<g mask="url(#mask0_6462_16296)">
<path d="M16 28C14.3436 28 12.7854 27.6842 11.3257 27.0527C9.86589 26.4209 8.59578 25.5649 7.51533 24.4847C6.43511 23.4042 5.57911 22.1341 4.94733 20.6743C4.31578 19.2146 4 17.6564 4 16C4 14.3436 4.31578 12.7854 4.94733 11.3257C5.57911 9.86589 6.43511 8.59578 7.51533 7.51533C8.59578 6.43511 9.86589 5.57911 11.3257 4.94733C12.7854 4.31578 14.3436 4 16 4C18.8764 4 21.3973 4.89344 23.5627 6.68033C25.7282 8.46722 27.1037 10.7088 27.689 13.405C27.493 13.3379 27.2951 13.2851 27.0953 13.2467C26.8956 13.2082 26.6957 13.1773 26.4957 13.154C26.0643 11.5067 25.2936 10.0391 24.1833 8.75133C23.0731 7.46356 21.702 6.49456 20.07 5.84433V6.45633C20.07 7.20789 19.8081 7.85189 19.2843 8.38833C18.7603 8.92478 18.1226 9.193 17.371 9.193L14.6343 9.193L14.6343 11.93C14.6343 12.3078 14.5002 12.6236 14.232 12.8773C13.964 13.1311 13.6411 13.258 13.2633 13.258L10.564 13.258L10.564 16L18.742 16C18.9887 16 19.2073 16.0662 19.398 16.1987C19.5884 16.3311 19.7427 16.5028 19.8607 16.7137C19.5593 17.243 19.3277 17.802 19.1657 18.3907C19.0039 18.9793 18.923 19.5819 18.923 20.1983C18.923 21.3886 19.2426 22.5176 19.8817 23.5853C20.5208 24.6533 21.1491 25.6394 21.7667 26.5437C20.8989 27.0199 19.9863 27.3817 19.029 27.629C18.0717 27.8763 17.062 28 16 28ZM14.6343 26.8103L14.6343 24.1727C13.8828 24.1727 13.245 23.9044 12.721 23.368C12.197 22.8316 11.935 22.1876 11.935 21.436V20.065L5.4 13.53C5.32644 13.9369 5.26278 14.3457 5.209 14.7563C5.15522 15.1672 5.12833 15.5818 5.12833 16C5.12833 18.7538 6.02867 21.1607 7.82933 23.2207C9.63022 25.2804 11.8986 26.477 14.6343 26.8103ZM25.859 27.9497C25.8134 27.9159 25.7843 27.8774 25.7717 27.8343C25.5206 27.0519 25.1773 26.3244 24.742 25.652C24.3067 24.9798 23.8386 24.3209 23.3377 23.6753C22.9394 23.1658 22.5998 22.6221 22.3187 22.0443C22.0378 21.4666 21.8973 20.8512 21.8973 20.1983C21.8973 19.0632 22.2973 18.0957 23.0973 17.2957C23.8973 16.4957 24.8649 16.0957 26 16.0957C27.1351 16.0957 28.1027 16.4957 28.9027 17.2957C29.7027 18.0957 30.1027 19.0632 30.1027 20.1983C30.1027 20.8512 29.9618 21.4661 29.68 22.043C29.3982 22.6201 29.059 23.1642 28.6623 23.6753C28.1821 24.3264 27.7192 24.9868 27.2737 25.6563C26.8279 26.3259 26.4794 27.0519 26.2283 27.8343C26.2157 27.8774 26.1866 27.9159 26.141 27.9497C26.0954 27.9832 26.0484 28 26 28C25.9516 28 25.9046 27.9832 25.859 27.9497ZM26 25.8487C26.2987 25.3604 26.6083 24.8902 26.929 24.438C27.2499 23.986 27.5724 23.5306 27.8967 23.0717C28.2293 22.645 28.5178 22.1948 28.762 21.721C29.0062 21.2472 29.1283 20.7397 29.1283 20.1983C29.1283 19.3259 28.825 18.5864 28.2183 17.98C27.6119 17.3733 26.8724 17.07 26 17.07C25.1276 17.07 24.3881 17.3733 23.7817 17.98C23.175 18.5864 22.8717 19.3259 22.8717 20.1983C22.8717 20.7397 22.9938 21.2472 23.238 21.721C23.4822 22.1948 23.7707 22.645 24.1033 23.0717C24.4464 23.519 24.7737 23.9759 25.085 24.4423C25.3963 24.9088 25.7013 25.3776 26 25.8487ZM25.2527 21.0227C25.0329 20.8029 24.923 20.5281 24.923 20.1983C24.923 19.8683 25.0329 19.5936 25.2527 19.374C25.4722 19.1542 25.747 19.0443 26.077 19.0443C26.4068 19.0443 26.6816 19.1542 26.9013 19.374C27.1209 19.5936 27.2307 19.8683 27.2307 20.1983C27.2307 20.5281 27.1209 20.8029 26.9013 21.0227C26.6816 21.2422 26.4068 21.352 26.077 21.352C25.747 21.352 25.4722 21.2422 25.2527 21.0227Z" fill="#045CFC"/>
</g>
</svg>
