<svg width="32" height="32" viewBox="0 0 32 32" fill="none" xmlns="http://www.w3.org/2000/svg">
<mask id="mask0_6462_16230" style="mask-type:alpha" maskUnits="userSpaceOnUse" x="0" y="0" width="32" height="32">
<rect width="32" height="32" fill="#D9D9D9"/>
</mask>
<g mask="url(#mask0_6462_16230)">
<path d="M11.4726 26.6654C9.76838 26.6654 8.31949 26.0687 7.12594 24.8754C5.9326 23.6818 5.33594 22.2329 5.33594 20.5287C5.33594 19.8038 5.45905 19.1066 5.70527 18.437C5.95127 17.7677 6.30505 17.1535 6.7666 16.5944L11.5513 10.8637L8.78994 5.33203L23.2206 5.33203L20.4763 10.8637L25.2386 16.5944C25.7148 17.1535 26.0724 17.7677 26.3113 18.437C26.5499 19.1066 26.6709 19.8038 26.6743 20.5287C26.6743 22.2329 26.0772 23.6818 24.8829 24.8754C23.6887 26.0687 22.2459 26.6654 20.5546 26.6654L11.4726 26.6654ZM16.0026 20.462C15.4675 20.462 15.0098 20.271 14.6296 19.889C14.2492 19.5068 14.0589 19.0454 14.0589 18.5047C14.0589 17.964 14.2492 17.5055 14.6296 17.129C15.0098 16.7526 15.4675 16.5644 16.0026 16.5644C16.5524 16.5644 17.0155 16.7526 17.3919 17.129C17.7684 17.5055 17.9566 17.964 17.9566 18.5047C17.9566 19.0454 17.7684 19.5068 17.3919 19.889C17.0155 20.271 16.5524 20.462 16.0026 20.462ZM12.5796 10.3747L19.4513 10.3747L21.4069 6.46036L10.6036 6.46036L12.5796 10.3747ZM11.4726 25.537L20.5326 25.537C21.9279 25.537 23.1115 25.0469 24.0833 24.0667C25.055 23.0863 25.5409 21.9069 25.5409 20.5287C25.5409 19.9394 25.4428 19.3706 25.2466 18.8224C25.0504 18.2739 24.765 17.7735 24.3906 17.321L19.5436 11.503L12.4899 11.503L7.64527 17.3184C7.27105 17.7821 6.9806 18.2858 6.77394 18.8294C6.56749 19.3729 6.46427 19.9394 6.46427 20.5287C6.46427 21.9069 6.95438 23.0863 7.9346 24.0667C8.91505 25.0469 10.0944 25.537 11.4726 25.537Z" fill="#045CFC"/>
</g>
</svg>
