<svg width="32" height="32" viewBox="0 0 32 32" fill="none" xmlns="http://www.w3.org/2000/svg">
<mask id="mask0_6462_16311" style="mask-type:alpha" maskUnits="userSpaceOnUse" x="0" y="0" width="32" height="32">
<rect width="32" height="32" fill="#D9D9D9"/>
</mask>
<g mask="url(#mask0_6462_16311)">
<path d="M17.9423 13.8957C18.4772 13.361 18.7446 12.7116 18.7446 11.9474C18.7446 11.1834 18.4772 10.5339 17.9423 9.99903C17.4076 9.46437 16.761 9.19703 16.0026 9.19703C15.2442 9.19703 14.5976 9.46437 14.0629 9.99903C13.528 10.5339 13.2606 11.1834 13.2606 11.9474C13.2606 12.7116 13.528 13.361 14.0629 13.8957C14.5976 14.4304 15.2442 14.6977 16.0026 14.6977C16.761 14.6977 17.4076 14.4304 17.9423 13.8957ZM11.3599 26.6654V25.537H15.4386V20.2894C14.2357 20.0791 13.1819 19.571 12.2773 18.765C11.3728 17.959 10.7582 16.9617 10.4333 15.773C9.0266 15.6106 7.82538 15.0504 6.8296 14.0924C5.83383 13.1341 5.33594 11.9667 5.33594 10.59V9.20203C5.33594 8.90625 5.44716 8.64437 5.6696 8.41637C5.89227 8.18814 6.15716 8.07403 6.46427 8.07403H10.2453V5.33203L21.7599 5.33203V8.07403L25.5409 8.07403C25.8481 8.07403 26.1129 8.18814 26.3356 8.41637C26.5581 8.64437 26.6693 8.90625 26.6693 9.20203V10.59C26.6693 11.9667 26.1714 13.1341 25.1756 14.0924C24.1798 15.0504 22.9786 15.6106 21.5719 15.773C21.2471 16.9617 20.6324 17.959 19.7279 18.765C18.8233 19.571 17.7695 20.0791 16.5666 20.2894V25.537L20.6453 25.537V26.6654L11.3599 26.6654ZM10.2453 14.58V9.20203H6.46427L6.46427 10.59C6.46427 11.6409 6.82972 12.5417 7.5606 13.2924C8.29172 14.043 9.1866 14.4723 10.2453 14.58ZM19.2496 17.8364C20.1367 16.9475 20.5803 15.8643 20.5803 14.5867V6.46036L11.4249 6.46036V14.5867C11.4249 15.8643 11.8685 16.9475 12.7556 17.8364C13.6427 18.7253 14.725 19.1697 16.0026 19.1697C17.2802 19.1697 18.3625 18.7253 19.2496 17.8364ZM21.7599 14.58C22.8186 14.4723 23.7135 14.043 24.4446 13.2924C25.1755 12.5417 25.5409 11.6409 25.5409 10.59V9.20203L21.7599 9.20203V14.58Z" fill="#045CFC"/>
</g>
</svg>
