<svg width="40" height="40" viewBox="0 0 40 40" fill="none" xmlns="http://www.w3.org/2000/svg">
<mask id="mask0_6449_28552" style="mask-type:alpha" maskUnits="userSpaceOnUse" x="0" y="0" width="40" height="40">
<rect width="40" height="40" fill="#D9D9D9"/>
</mask>
<g mask="url(#mask0_6449_28552)">
<path d="M8.14458 18.7885L12.6 20.6785C13.1483 19.5816 13.7494 18.5085 14.4033 17.4594C15.0572 16.4102 15.7765 15.4013 16.5613 14.4327L13.7067 13.8889C13.5358 13.8462 13.3703 13.8514 13.21 13.9048C13.0497 13.9584 12.9054 14.0492 12.7771 14.1773L8.14458 18.7885ZM13.7108 21.561L18.6792 26.5256C20.1164 25.8462 21.5094 25.0481 22.8583 24.1314C24.2075 23.2148 25.4525 22.1859 26.5933 21.0448C28.4781 19.1603 29.891 17.2026 30.8321 15.1714C31.7735 13.1406 32.3343 10.648 32.5146 7.69353C29.5457 7.87353 27.0542 8.43061 25.04 9.36478C23.0258 10.2989 21.0764 11.7084 19.1917 13.5931C18.0508 14.7339 17.0221 15.9842 16.1054 17.3439C15.1888 18.7037 14.3906 20.1094 13.7108 21.561ZM22.2996 15.5381C22.2996 14.8845 22.5307 14.3266 22.9929 13.8644C23.4551 13.4021 24.0189 13.171 24.6842 13.171C25.3494 13.171 25.9132 13.4021 26.3754 13.8644C26.8376 14.3266 27.0688 14.8845 27.0688 15.5381C27.0688 16.1914 26.8376 16.7458 26.3754 17.201C25.9132 17.656 25.3494 17.8835 24.6842 17.8835C24.0189 17.8835 23.4551 17.656 22.9929 17.201C22.5307 16.7458 22.2996 16.1914 22.2996 15.5381ZM21.3979 32.0739L26.0304 27.4627C26.1588 27.3344 26.246 27.1866 26.2921 27.0194C26.3385 26.8519 26.3474 26.6898 26.3188 26.5331L25.7537 23.6785C24.7851 24.4491 23.7799 25.1608 22.7379 25.8135C21.6957 26.4663 20.619 27.0741 19.5079 27.6369L21.3979 32.0739ZM33.9033 6.33353C34.0039 9.51659 33.5268 12.3849 32.4721 14.9385C31.4176 17.4924 29.795 19.8577 27.6042 22.0344C27.4931 22.1455 27.389 22.253 27.2921 22.3569C27.1954 22.4608 27.0915 22.5612 26.9804 22.6581L27.6875 26.2339C27.7586 26.647 27.7354 27.0427 27.6179 27.421C27.5004 27.7991 27.3 28.1299 27.0167 28.4135L20.9054 34.5202L18.1362 27.9831L12.2033 22.0714L5.6875 19.2489L11.7696 13.1698C12.0674 12.8864 12.406 12.6806 12.7854 12.5523C13.1646 12.4242 13.5607 12.4028 13.9738 12.4881L17.5925 13.206C17.7036 13.1094 17.8022 13.0101 17.8883 12.9081C17.9744 12.8062 18.0731 12.7069 18.1842 12.6102C20.3753 10.4191 22.7436 8.80006 25.2892 7.75311C27.8347 6.70617 30.7061 6.23297 33.9033 6.33353ZM8.43875 26.8973C9.09042 26.2314 9.87903 25.9059 10.8046 25.9206C11.7301 25.9351 12.5258 26.2681 13.1917 26.9198C13.8433 27.5714 14.1676 28.3601 14.1646 29.2856C14.1613 30.2114 13.8337 31.0073 13.1821 31.6731C12.5974 32.2437 11.6988 32.7287 10.4862 33.1281C9.27347 33.5278 7.81847 33.8067 6.12125 33.9648C6.27931 32.2676 6.55889 30.808 6.96 29.586C7.36083 28.3641 7.85375 27.4678 8.43875 26.8973ZM9.42458 27.9402C9.07292 28.3105 8.7525 28.8808 8.46333 29.651C8.17389 30.4213 7.96875 31.2912 7.84792 32.2606C8.81708 32.1253 9.68681 31.9119 10.4571 31.6202C11.2276 31.3285 11.7981 30.9996 12.1683 30.6335C12.56 30.2646 12.7581 29.8134 12.7625 29.2798C12.7667 28.7464 12.575 28.2839 12.1875 27.8923C11.7958 27.5048 11.3332 27.318 10.7996 27.3319C10.2663 27.3458 9.80792 27.5485 9.42458 27.9402Z" fill="#045CFC"/>
</g>
</svg>
